G04 #@! TF.GenerationSoftware,KiCad,Pcbnew,8.0.3*
G04 #@! TF.CreationDate,2025-02-06T22:10:45+07:00*
G04 #@! TF.ProjectId,Digital_Multi_Pedal_v1,44696769-7461-46c5-9f4d-756c74695f50,rev?*
G04 #@! TF.SameCoordinates,Original*
G04 #@! TF.FileFunction,Legend,Bot*
G04 #@! TF.FilePolarity,Positive*
%FSLAX46Y46*%
G04 Gerber Fmt 4.6, Leading zero omitted, Abs format (unit mm)*
G04 Created by KiCad (PCBNEW 8.0.3) date 2025-02-06 22:10:45*
%MOMM*%
%LPD*%
G01*
G04 APERTURE LIST*
G04 Aperture macros list*
%AMRoundRect*
0 Rectangle with rounded corners*
0 $1 Rounding radius*
0 $2 $3 $4 $5 $6 $7 $8 $9 X,Y pos of 4 corners*
0 Add a 4 corners polygon primitive as box body*
4,1,4,$2,$3,$4,$5,$6,$7,$8,$9,$2,$3,0*
0 Add four circle primitives for the rounded corners*
1,1,$1+$1,$2,$3*
1,1,$1+$1,$4,$5*
1,1,$1+$1,$6,$7*
1,1,$1+$1,$8,$9*
0 Add four rect primitives between the rounded corners*
20,1,$1+$1,$2,$3,$4,$5,0*
20,1,$1+$1,$4,$5,$6,$7,0*
20,1,$1+$1,$6,$7,$8,$9,0*
20,1,$1+$1,$8,$9,$2,$3,0*%
G04 Aperture macros list end*
%ADD10C,0.750000*%
%ADD11C,0.152400*%
%ADD12C,0.120000*%
%ADD13C,0.200000*%
%ADD14C,0.127000*%
%ADD15C,0.150000*%
%ADD16C,3.000000*%
%ADD17C,0.800000*%
%ADD18C,6.400000*%
%ADD19C,1.800000*%
%ADD20C,1.600000*%
%ADD21RoundRect,0.102000X-1.387500X1.387500X-1.387500X-1.387500X1.387500X-1.387500X1.387500X1.387500X0*%
%ADD22C,2.979000*%
%ADD23R,1.700000X1.700000*%
%ADD24O,1.700000X1.700000*%
%ADD25RoundRect,0.251000X0.326000X-0.251000X0.326000X0.251000X-0.326000X0.251000X-0.326000X-0.251000X0*%
%ADD26RoundRect,0.276000X0.276000X0.301000X-0.276000X0.301000X-0.276000X-0.301000X0.276000X-0.301000X0*%
%ADD27RoundRect,0.250000X0.650000X-1.000000X0.650000X1.000000X-0.650000X1.000000X-0.650000X-1.000000X0*%
%ADD28RoundRect,0.276000X0.301000X-0.276000X0.301000X0.276000X-0.301000X0.276000X-0.301000X-0.276000X0*%
%ADD29RoundRect,0.251000X-0.251000X-0.326000X0.251000X-0.326000X0.251000X0.326000X-0.251000X0.326000X0*%
%ADD30RoundRect,0.251000X0.251000X0.326000X-0.251000X0.326000X-0.251000X-0.326000X0.251000X-0.326000X0*%
%ADD31RoundRect,0.102000X1.200000X1.250000X-1.200000X1.250000X-1.200000X-1.250000X1.200000X-1.250000X0*%
%ADD32RoundRect,0.276000X-0.301000X0.276000X-0.301000X-0.276000X0.301000X-0.276000X0.301000X0.276000X0*%
%ADD33RoundRect,0.135000X-0.135000X-0.185000X0.135000X-0.185000X0.135000X0.185000X-0.135000X0.185000X0*%
%ADD34RoundRect,0.060300X0.341700X-0.716700X0.341700X0.716700X-0.341700X0.716700X-0.341700X-0.716700X0*%
%ADD35C,1.500000*%
%ADD36R,1.600000X1.600000*%
%ADD37RoundRect,0.251000X-0.326000X0.251000X-0.326000X-0.251000X0.326000X-0.251000X0.326000X0.251000X0*%
%ADD38RoundRect,0.276000X-0.276000X-0.301000X0.276000X-0.301000X0.276000X0.301000X-0.276000X0.301000X0*%
%ADD39RoundRect,0.299756X-0.314744X-0.502244X0.314744X-0.502244X0.314744X0.502244X-0.314744X0.502244X0*%
%ADD40C,0.900000*%
%ADD41RoundRect,0.102000X-0.800000X0.350000X-0.800000X-0.350000X0.800000X-0.350000X0.800000X0.350000X0*%
%ADD42RoundRect,0.102000X-0.800000X0.700000X-0.800000X-0.700000X0.800000X-0.700000X0.800000X0.700000X0*%
%ADD43RoundRect,0.102000X-1.100000X0.700000X-1.100000X-0.700000X1.100000X-0.700000X1.100000X0.700000X0*%
%ADD44RoundRect,0.102000X-0.700000X0.900000X-0.700000X-0.900000X0.700000X-0.900000X0.700000X0.900000X0*%
G04 APERTURE END LIST*
D10*
G36*
X118831072Y-142079849D02*
G01*
X118878913Y-142173484D01*
X118879962Y-142282890D01*
X118832442Y-142380037D01*
X118739717Y-142427413D01*
X118202351Y-142429672D01*
X118198780Y-142427924D01*
X118198000Y-142033831D01*
X118732404Y-142031584D01*
X118831072Y-142079849D01*
G37*
G36*
X139028033Y-141249171D02*
G01*
X139086375Y-141306041D01*
X139164106Y-141458177D01*
X139166514Y-142138321D01*
X139091691Y-142291283D01*
X139034821Y-142349625D01*
X138882152Y-142427629D01*
X138630208Y-142429322D01*
X138478153Y-142354942D01*
X138419811Y-142298072D01*
X138342078Y-142145933D01*
X138339670Y-141465792D01*
X138414493Y-141312831D01*
X138471363Y-141254488D01*
X138624033Y-141176484D01*
X138875976Y-141174791D01*
X139028033Y-141249171D01*
G37*
G36*
X151259644Y-142079849D02*
G01*
X151307485Y-142173484D01*
X151308534Y-142282890D01*
X151261014Y-142380037D01*
X151168289Y-142427413D01*
X150630923Y-142429672D01*
X150627352Y-142427924D01*
X150626572Y-142033831D01*
X151160976Y-142031584D01*
X151259644Y-142079849D01*
G37*
G36*
X134020729Y-141571038D02*
G01*
X133628364Y-141571890D01*
X133824035Y-140982915D01*
X134020729Y-141571038D01*
G37*
G36*
X156879352Y-140999491D02*
G01*
X156202786Y-141001312D01*
X156049580Y-140926370D01*
X155991238Y-140869500D01*
X155913234Y-140716830D01*
X155911541Y-140464886D01*
X155985922Y-140312830D01*
X156042791Y-140254488D01*
X156194786Y-140176829D01*
X156878485Y-140174989D01*
X156879352Y-140999491D01*
G37*
G36*
X147456605Y-136419339D02*
G01*
X147514947Y-136476209D01*
X147592678Y-136628345D01*
X147595086Y-137308489D01*
X147520263Y-137461451D01*
X147463393Y-137519793D01*
X147310984Y-137597664D01*
X146916362Y-137599704D01*
X146912768Y-137597946D01*
X146911148Y-136346777D01*
X147304109Y-136344745D01*
X147456605Y-136419339D01*
G37*
G36*
X134450967Y-136346702D02*
G01*
X134452283Y-137597672D01*
X134059218Y-137599704D01*
X133906724Y-137525110D01*
X133848382Y-137468240D01*
X133770649Y-137316101D01*
X133768241Y-136635960D01*
X133843064Y-136482999D01*
X133899934Y-136424656D01*
X134052343Y-136346785D01*
X134446966Y-136344745D01*
X134450967Y-136346702D01*
G37*
G36*
X139456604Y-136419339D02*
G01*
X139514946Y-136476209D01*
X139592677Y-136628345D01*
X139595085Y-137308489D01*
X139520262Y-137461451D01*
X139463392Y-137519793D01*
X139310983Y-137597664D01*
X138916361Y-137599704D01*
X138913413Y-137598262D01*
X138912096Y-136346772D01*
X139304108Y-136344745D01*
X139456604Y-136419339D01*
G37*
G36*
X142116787Y-136392874D02*
G01*
X142164034Y-136485347D01*
X142164116Y-136515852D01*
X141536015Y-136391623D01*
X141623772Y-136346785D01*
X142018395Y-136344745D01*
X142116787Y-136392874D01*
G37*
G36*
X153973930Y-136392874D02*
G01*
X154021177Y-136485347D01*
X154021259Y-136515852D01*
X153393158Y-136391623D01*
X153480915Y-136346785D01*
X153875538Y-136344745D01*
X153973930Y-136392874D01*
G37*
G36*
X156880856Y-137598789D02*
G01*
X156606730Y-137599941D01*
X156315180Y-137504829D01*
X156135031Y-137327213D01*
X156037774Y-137136862D01*
X155913564Y-136650429D01*
X155911300Y-136313371D01*
X156030209Y-135827361D01*
X156128336Y-135626760D01*
X156308970Y-135443549D01*
X156592554Y-135346999D01*
X156878486Y-135345797D01*
X156880856Y-137598789D01*
G37*
G36*
X158003093Y-143552057D02*
G01*
X114360235Y-143552057D01*
X114360235Y-141230628D01*
X114735235Y-141230628D01*
X114738443Y-142851004D01*
X114763780Y-142945563D01*
X114812727Y-143030343D01*
X114881949Y-143099565D01*
X114966729Y-143148512D01*
X115061288Y-143173849D01*
X115159182Y-143173849D01*
X115253741Y-143148512D01*
X115338521Y-143099565D01*
X115407743Y-143030343D01*
X115456690Y-142945563D01*
X115482027Y-142851004D01*
X115485235Y-142802057D01*
X115482307Y-141323383D01*
X115530884Y-141224076D01*
X115624032Y-141176484D01*
X115875975Y-141174791D01*
X116021644Y-141246047D01*
X116024157Y-142851004D01*
X116049494Y-142945563D01*
X116098441Y-143030343D01*
X116167663Y-143099565D01*
X116252443Y-143148512D01*
X116347002Y-143173849D01*
X116444896Y-143173849D01*
X116539455Y-143148512D01*
X116624235Y-143099565D01*
X116693457Y-143030343D01*
X116742404Y-142945563D01*
X116767741Y-142851004D01*
X116770949Y-142802057D01*
X116768489Y-141230628D01*
X117449521Y-141230628D01*
X117452279Y-142623746D01*
X117450464Y-142632616D01*
X117452359Y-142664192D01*
X117452729Y-142851004D01*
X117478066Y-142945563D01*
X117527013Y-143030343D01*
X117596235Y-143099565D01*
X117681015Y-143148512D01*
X117775574Y-143173849D01*
X117873468Y-143173849D01*
X117967378Y-143148685D01*
X117977143Y-143151302D01*
X117987744Y-143156488D01*
X118024782Y-143164067D01*
X118061288Y-143173849D01*
X118077904Y-143174938D01*
X118083651Y-143176114D01*
X118090017Y-143175731D01*
X118110235Y-143177057D01*
X118817300Y-143174085D01*
X118851105Y-143176114D01*
X118861936Y-143173897D01*
X118873468Y-143173849D01*
X118909973Y-143164067D01*
X118947012Y-143156488D01*
X118962365Y-143150029D01*
X118968027Y-143148512D01*
X118973547Y-143145324D01*
X118992226Y-143137467D01*
X119257017Y-143002176D01*
X119274242Y-142996435D01*
X119294726Y-142982909D01*
X119320285Y-142969851D01*
X119337137Y-142954907D01*
X119355936Y-142942495D01*
X119373604Y-142922569D01*
X119393530Y-142904901D01*
X119405942Y-142886102D01*
X119420886Y-142869250D01*
X119445645Y-142826905D01*
X119447407Y-142823300D01*
X119447470Y-142823207D01*
X119447504Y-142823103D01*
X119584460Y-142543121D01*
X119599547Y-142516991D01*
X119602338Y-142506574D01*
X119607523Y-142495975D01*
X119615101Y-142458940D01*
X119624884Y-142422432D01*
X119625973Y-142405814D01*
X119627149Y-142400068D01*
X119626766Y-142393702D01*
X119628092Y-142373485D01*
X119625380Y-142090648D01*
X119627149Y-142061187D01*
X119624997Y-142050673D01*
X119624884Y-142038824D01*
X119615102Y-142002318D01*
X119607523Y-141965280D01*
X119601064Y-141949926D01*
X119599547Y-141944265D01*
X119596359Y-141938744D01*
X119588502Y-141920066D01*
X119453211Y-141655274D01*
X119447470Y-141638050D01*
X119433944Y-141617565D01*
X119420886Y-141592007D01*
X119405942Y-141575154D01*
X119393530Y-141556356D01*
X119373604Y-141538687D01*
X119355936Y-141518762D01*
X119337137Y-141506349D01*
X119320285Y-141491406D01*
X119277940Y-141466647D01*
X119274335Y-141464884D01*
X119274242Y-141464822D01*
X119274138Y-141464787D01*
X118994153Y-141327828D01*
X118968027Y-141312745D01*
X118957612Y-141309954D01*
X118947012Y-141304769D01*
X118909973Y-141297189D01*
X118873468Y-141287408D01*
X118856851Y-141286318D01*
X118851105Y-141285143D01*
X118844738Y-141285525D01*
X118824521Y-141284200D01*
X118214506Y-141286763D01*
X118245170Y-141224076D01*
X118338057Y-141176617D01*
X118732680Y-141174577D01*
X118987744Y-141299345D01*
X119083651Y-141318971D01*
X119181371Y-141313106D01*
X119274242Y-141282149D01*
X119355936Y-141228209D01*
X119420886Y-141154964D01*
X119464666Y-141067405D01*
X119484292Y-140971498D01*
X119478427Y-140873778D01*
X119454520Y-140802057D01*
X120163807Y-140802057D01*
X120167015Y-142851004D01*
X120192352Y-142945563D01*
X120241299Y-143030343D01*
X120310521Y-143099565D01*
X120395301Y-143148512D01*
X120489860Y-143173849D01*
X120587754Y-143173849D01*
X120682313Y-143148512D01*
X120749400Y-143109779D01*
X120797745Y-143133428D01*
X120823872Y-143148512D01*
X120834286Y-143151302D01*
X120844887Y-143156488D01*
X120881925Y-143164067D01*
X120918431Y-143173849D01*
X120935047Y-143174938D01*
X120940794Y-143176114D01*
X120947160Y-143175731D01*
X120967378Y-143177057D01*
X121390844Y-143174212D01*
X121422532Y-143176114D01*
X121433217Y-143173927D01*
X121444896Y-143173849D01*
X121481404Y-143164066D01*
X121518439Y-143156488D01*
X121533791Y-143150029D01*
X121539455Y-143148512D01*
X121544976Y-143145324D01*
X121563654Y-143137467D01*
X121828445Y-143002176D01*
X121845671Y-142996435D01*
X121866156Y-142982909D01*
X121891714Y-142969851D01*
X121908566Y-142954907D01*
X121927365Y-142942495D01*
X121945033Y-142922569D01*
X121964959Y-142904901D01*
X121977371Y-142886102D01*
X121992315Y-142869250D01*
X122017074Y-142826905D01*
X122018836Y-142823300D01*
X122018899Y-142823207D01*
X122018933Y-142823103D01*
X122155889Y-142543121D01*
X122170976Y-142516991D01*
X122173767Y-142506574D01*
X122178952Y-142495975D01*
X122186530Y-142458940D01*
X122196313Y-142422432D01*
X122197402Y-142405814D01*
X122198578Y-142400068D01*
X122198195Y-142393702D01*
X122199521Y-142373485D01*
X122196313Y-140753110D01*
X122170976Y-140658551D01*
X122122029Y-140573771D01*
X122052807Y-140504549D01*
X121968027Y-140455602D01*
X121873468Y-140430265D01*
X121775574Y-140430265D01*
X121681015Y-140455602D01*
X121596235Y-140504549D01*
X121527013Y-140573771D01*
X121478066Y-140658551D01*
X121452729Y-140753110D01*
X121449521Y-140802057D01*
X121452448Y-142280729D01*
X121403871Y-142380037D01*
X121310723Y-142427629D01*
X121058779Y-142429322D01*
X120913111Y-142358066D01*
X120910599Y-140753110D01*
X120885262Y-140658551D01*
X120836315Y-140573771D01*
X120767093Y-140504549D01*
X120682313Y-140455602D01*
X120587754Y-140430265D01*
X120489860Y-140430265D01*
X120395301Y-140455602D01*
X120310521Y-140504549D01*
X120241299Y-140573771D01*
X120192352Y-140658551D01*
X120167015Y-140753110D01*
X120163807Y-140802057D01*
X119454520Y-140802057D01*
X119447470Y-140780907D01*
X119393530Y-140699213D01*
X119320285Y-140634263D01*
X119277940Y-140609504D01*
X118994153Y-140470685D01*
X118968027Y-140455602D01*
X118957612Y-140452811D01*
X118947012Y-140447626D01*
X118909973Y-140440046D01*
X118873468Y-140430265D01*
X118856851Y-140429175D01*
X118851105Y-140428000D01*
X118844738Y-140428382D01*
X118824521Y-140427057D01*
X118259478Y-140429978D01*
X118226508Y-140428000D01*
X118215732Y-140430205D01*
X118204145Y-140430265D01*
X118167639Y-140440046D01*
X118130601Y-140447626D01*
X118115247Y-140454084D01*
X118109586Y-140455602D01*
X118104065Y-140458789D01*
X118085387Y-140466647D01*
X117820595Y-140601937D01*
X117803371Y-140607679D01*
X117782886Y-140621204D01*
X117757328Y-140634263D01*
X117740475Y-140649206D01*
X117721677Y-140661619D01*
X117704008Y-140681544D01*
X117684083Y-140699213D01*
X117671670Y-140718011D01*
X117656727Y-140734864D01*
X117631968Y-140777209D01*
X117630205Y-140780813D01*
X117630143Y-140780907D01*
X117630108Y-140781010D01*
X117493149Y-141060995D01*
X117478066Y-141087122D01*
X117475275Y-141097536D01*
X117470090Y-141108137D01*
X117462510Y-141145175D01*
X117452729Y-141181681D01*
X117451639Y-141198297D01*
X117450464Y-141204044D01*
X117450846Y-141210410D01*
X117449521Y-141230628D01*
X116768489Y-141230628D01*
X116767741Y-140753110D01*
X116742404Y-140658551D01*
X116693457Y-140573771D01*
X116624235Y-140504549D01*
X116539455Y-140455602D01*
X116444896Y-140430265D01*
X116347002Y-140430265D01*
X116252443Y-140455602D01*
X116185354Y-140494334D01*
X116137013Y-140470688D01*
X116110883Y-140455602D01*
X116100466Y-140452810D01*
X116089867Y-140447626D01*
X116052832Y-140440047D01*
X116016324Y-140430265D01*
X115999706Y-140429175D01*
X115993960Y-140428000D01*
X115987594Y-140428382D01*
X115967377Y-140427057D01*
X115543910Y-140429901D01*
X115512222Y-140428000D01*
X115501536Y-140430186D01*
X115489859Y-140430265D01*
X115453353Y-140440046D01*
X115416315Y-140447626D01*
X115400961Y-140454084D01*
X115395300Y-140455602D01*
X115389779Y-140458789D01*
X115371101Y-140466647D01*
X115106309Y-140601937D01*
X115089085Y-140607679D01*
X115068600Y-140621204D01*
X115043042Y-140634263D01*
X115026189Y-140649206D01*
X115007391Y-140661619D01*
X114989722Y-140681544D01*
X114969797Y-140699213D01*
X114957384Y-140718011D01*
X114942441Y-140734864D01*
X114917682Y-140777209D01*
X114915919Y-140780813D01*
X114915857Y-140780907D01*
X114915822Y-140781010D01*
X114778863Y-141060995D01*
X114763780Y-141087122D01*
X114760989Y-141097536D01*
X114755804Y-141108137D01*
X114748224Y-141145175D01*
X114738443Y-141181681D01*
X114737353Y-141198297D01*
X114736178Y-141204044D01*
X114736560Y-141210410D01*
X114735235Y-141230628D01*
X114360235Y-141230628D01*
X114360235Y-139753110D01*
X122452729Y-139753110D01*
X122452729Y-139851004D01*
X122478066Y-139945563D01*
X122527013Y-140030343D01*
X122596235Y-140099565D01*
X122681015Y-140148512D01*
X122775574Y-140173849D01*
X122824521Y-140177057D01*
X123307056Y-140176179D01*
X123309871Y-142851004D01*
X123335208Y-142945563D01*
X123384155Y-143030343D01*
X123453377Y-143099565D01*
X123538157Y-143148512D01*
X123632716Y-143173849D01*
X123730610Y-143173849D01*
X123825169Y-143148512D01*
X123909949Y-143099565D01*
X123979171Y-143030343D01*
X124028118Y-142945563D01*
X124053455Y-142851004D01*
X124056663Y-142802057D01*
X124055009Y-141230628D01*
X127449521Y-141230628D01*
X127452729Y-142851004D01*
X127478066Y-142945563D01*
X127527013Y-143030343D01*
X127596235Y-143099565D01*
X127681015Y-143148512D01*
X127775574Y-143173849D01*
X127873468Y-143173849D01*
X127968027Y-143148512D01*
X128052807Y-143099565D01*
X128122029Y-143030343D01*
X128170976Y-142945563D01*
X128196313Y-142851004D01*
X128199521Y-142802057D01*
X128196593Y-141323383D01*
X128245170Y-141224076D01*
X128338318Y-141176484D01*
X128590261Y-141174791D01*
X128736754Y-141246450D01*
X128738443Y-142851004D01*
X128763780Y-142945563D01*
X128812727Y-143030343D01*
X128881949Y-143099565D01*
X128966729Y-143148512D01*
X129061288Y-143173849D01*
X129159182Y-143173849D01*
X129253741Y-143148512D01*
X129338521Y-143099565D01*
X129407743Y-143030343D01*
X129456690Y-142945563D01*
X129482027Y-142851004D01*
X129485235Y-142802057D01*
X129483582Y-141230628D01*
X130163807Y-141230628D01*
X130167015Y-142851004D01*
X130192352Y-142945563D01*
X130241299Y-143030343D01*
X130310521Y-143099565D01*
X130395301Y-143148512D01*
X130489860Y-143173849D01*
X130587754Y-143173849D01*
X130682313Y-143148512D01*
X130767093Y-143099565D01*
X130836315Y-143030343D01*
X130885262Y-142945563D01*
X130910599Y-142851004D01*
X130913807Y-142802057D01*
X130910879Y-141323383D01*
X130959456Y-141224076D01*
X131052604Y-141176484D01*
X131304547Y-141174791D01*
X131450216Y-141246047D01*
X131452729Y-142851004D01*
X131478066Y-142945563D01*
X131527013Y-143030343D01*
X131596235Y-143099565D01*
X131681015Y-143148512D01*
X131775574Y-143173849D01*
X131873468Y-143173849D01*
X131968027Y-143148512D01*
X132052807Y-143099565D01*
X132122029Y-143030343D01*
X132170976Y-142945563D01*
X132196313Y-142851004D01*
X132197779Y-142828640D01*
X132450464Y-142828640D01*
X132470090Y-142924548D01*
X132513870Y-143012107D01*
X132578821Y-143085352D01*
X132660515Y-143139291D01*
X132753385Y-143170248D01*
X132851104Y-143176114D01*
X132947012Y-143156488D01*
X133034571Y-143112708D01*
X133107816Y-143047757D01*
X133161755Y-142966063D01*
X133180277Y-142920642D01*
X133380047Y-142319328D01*
X134270344Y-142317395D01*
X134487287Y-142966063D01*
X134541226Y-143047758D01*
X134614471Y-143112709D01*
X134702030Y-143156489D01*
X134797938Y-143176114D01*
X134895657Y-143170249D01*
X134988527Y-143139292D01*
X135070222Y-143085353D01*
X135135173Y-143012108D01*
X135178952Y-142924548D01*
X135198578Y-142828640D01*
X135192712Y-142730922D01*
X135180277Y-142683472D01*
X134742160Y-141373485D01*
X137592378Y-141373485D01*
X137595385Y-142222822D01*
X137593321Y-142257213D01*
X137595545Y-142268082D01*
X137595586Y-142279575D01*
X137605369Y-142316086D01*
X137612948Y-142353120D01*
X137619405Y-142368470D01*
X137620923Y-142374134D01*
X137624110Y-142379654D01*
X137631968Y-142398334D01*
X137761791Y-142652423D01*
X137763781Y-142659847D01*
X137779462Y-142687009D01*
X137799585Y-142726392D01*
X137807079Y-142734843D01*
X137812728Y-142744627D01*
X137845070Y-142781506D01*
X137966437Y-142899810D01*
X137969798Y-142904901D01*
X137990408Y-142923176D01*
X138024806Y-142956707D01*
X138034591Y-142962356D01*
X138043043Y-142969851D01*
X138085388Y-142994610D01*
X138369174Y-143133428D01*
X138395301Y-143148512D01*
X138405715Y-143151302D01*
X138416316Y-143156488D01*
X138453354Y-143164067D01*
X138489860Y-143173849D01*
X138506476Y-143174938D01*
X138512223Y-143176114D01*
X138518589Y-143175731D01*
X138538807Y-143177057D01*
X138962273Y-143174212D01*
X138993961Y-143176114D01*
X139004646Y-143173927D01*
X139016325Y-143173849D01*
X139052833Y-143164066D01*
X139089868Y-143156488D01*
X139105220Y-143150029D01*
X139110884Y-143148512D01*
X139116405Y-143145324D01*
X139135083Y-143137467D01*
X139389173Y-143007644D01*
X139396601Y-143005654D01*
X139423772Y-142989966D01*
X139463143Y-142969851D01*
X139471594Y-142962356D01*
X139481380Y-142956707D01*
X139518259Y-142924364D01*
X139636560Y-142802997D01*
X139641651Y-142799637D01*
X139659930Y-142779022D01*
X139693458Y-142744627D01*
X139699106Y-142734844D01*
X139706601Y-142726392D01*
X139731360Y-142684047D01*
X139870178Y-142400260D01*
X139885262Y-142374134D01*
X139888052Y-142363719D01*
X139893238Y-142353119D01*
X139900817Y-142316080D01*
X139910599Y-142279575D01*
X139911688Y-142262958D01*
X139912864Y-142257212D01*
X139912481Y-142250845D01*
X139913807Y-142230628D01*
X139910799Y-141381291D01*
X139912864Y-141346901D01*
X139910639Y-141336031D01*
X139910599Y-141324538D01*
X139900817Y-141288032D01*
X139893238Y-141250994D01*
X139886779Y-141235640D01*
X139885262Y-141229979D01*
X139882074Y-141224458D01*
X139874217Y-141205780D01*
X139744395Y-140951692D01*
X139742405Y-140944264D01*
X139726716Y-140917091D01*
X139706601Y-140877721D01*
X139699105Y-140869268D01*
X139693457Y-140859485D01*
X139661115Y-140822606D01*
X139539749Y-140704304D01*
X139536388Y-140699213D01*
X139515771Y-140680931D01*
X139481379Y-140647407D01*
X139471595Y-140641758D01*
X139463143Y-140634263D01*
X139420798Y-140609504D01*
X139137014Y-140470688D01*
X139110884Y-140455602D01*
X139100467Y-140452810D01*
X139089868Y-140447626D01*
X139052833Y-140440047D01*
X139016325Y-140430265D01*
X138999707Y-140429175D01*
X138993961Y-140428000D01*
X138987595Y-140428382D01*
X138967378Y-140427057D01*
X138543911Y-140429901D01*
X138512223Y-140428000D01*
X138501537Y-140430186D01*
X138489860Y-140430265D01*
X138453354Y-140440046D01*
X138416316Y-140447626D01*
X138400962Y-140454084D01*
X138395301Y-140455602D01*
X138389780Y-140458789D01*
X138371102Y-140466647D01*
X138117014Y-140596468D01*
X138109586Y-140598459D01*
X138082413Y-140614147D01*
X138043043Y-140634263D01*
X138034590Y-140641758D01*
X138024807Y-140647407D01*
X137987928Y-140679749D01*
X137869624Y-140801116D01*
X137864536Y-140804476D01*
X137846261Y-140825084D01*
X137812729Y-140859485D01*
X137807080Y-140869268D01*
X137799585Y-140877721D01*
X137774826Y-140920065D01*
X137636010Y-141203846D01*
X137620923Y-141229979D01*
X137618131Y-141240395D01*
X137612948Y-141250993D01*
X137605369Y-141288026D01*
X137595586Y-141324538D01*
X137594497Y-141341153D01*
X137593321Y-141346900D01*
X137593703Y-141353266D01*
X137592378Y-141373485D01*
X134742160Y-141373485D01*
X134216605Y-139802057D01*
X140449521Y-139802057D01*
X140452729Y-142851004D01*
X140478066Y-142945563D01*
X140527013Y-143030343D01*
X140596235Y-143099565D01*
X140681015Y-143148512D01*
X140775574Y-143173849D01*
X140873468Y-143173849D01*
X140968027Y-143148512D01*
X141052807Y-143099565D01*
X141122029Y-143030343D01*
X141170976Y-142945563D01*
X141196313Y-142851004D01*
X141199521Y-142802057D01*
X141198261Y-141604948D01*
X142165702Y-141603187D01*
X142167015Y-142851004D01*
X142192352Y-142945563D01*
X142241299Y-143030343D01*
X142310521Y-143099565D01*
X142395301Y-143148512D01*
X142489860Y-143173849D01*
X142587754Y-143173849D01*
X142682313Y-143148512D01*
X142767093Y-143099565D01*
X142836315Y-143030343D01*
X142885262Y-142945563D01*
X142910599Y-142851004D01*
X142913807Y-142802057D01*
X142912154Y-141230628D01*
X145878092Y-141230628D01*
X145881300Y-142851004D01*
X145906637Y-142945563D01*
X145955584Y-143030343D01*
X146024806Y-143099565D01*
X146109586Y-143148512D01*
X146204145Y-143173849D01*
X146302039Y-143173849D01*
X146396598Y-143148512D01*
X146481378Y-143099565D01*
X146550600Y-143030343D01*
X146599547Y-142945563D01*
X146624884Y-142851004D01*
X146628092Y-142802057D01*
X146625164Y-141323383D01*
X146673741Y-141224076D01*
X146766889Y-141176484D01*
X147018833Y-141174791D01*
X147116786Y-141222706D01*
X147163974Y-141315062D01*
X147167015Y-142851004D01*
X147192352Y-142945563D01*
X147241299Y-143030343D01*
X147310521Y-143099565D01*
X147395301Y-143148512D01*
X147489860Y-143173849D01*
X147587754Y-143173849D01*
X147682313Y-143148512D01*
X147767093Y-143099565D01*
X147836315Y-143030343D01*
X147885262Y-142945563D01*
X147910599Y-142851004D01*
X147913807Y-142802057D01*
X147910879Y-141323383D01*
X147959456Y-141224076D01*
X148052604Y-141176484D01*
X148304547Y-141174791D01*
X148450216Y-141246047D01*
X148452729Y-142851004D01*
X148478066Y-142945563D01*
X148527013Y-143030343D01*
X148596235Y-143099565D01*
X148681015Y-143148512D01*
X148775574Y-143173849D01*
X148873468Y-143173849D01*
X148968027Y-143148512D01*
X149052807Y-143099565D01*
X149122029Y-143030343D01*
X149170976Y-142945563D01*
X149196313Y-142851004D01*
X149199521Y-142802057D01*
X149197061Y-141230628D01*
X149878093Y-141230628D01*
X149880851Y-142623746D01*
X149879036Y-142632616D01*
X149880931Y-142664192D01*
X149881301Y-142851004D01*
X149906638Y-142945563D01*
X149955585Y-143030343D01*
X150024807Y-143099565D01*
X150109587Y-143148512D01*
X150204146Y-143173849D01*
X150302040Y-143173849D01*
X150395950Y-143148685D01*
X150405715Y-143151302D01*
X150416316Y-143156488D01*
X150453354Y-143164067D01*
X150489860Y-143173849D01*
X150506476Y-143174938D01*
X150512223Y-143176114D01*
X150518589Y-143175731D01*
X150538807Y-143177057D01*
X151245872Y-143174085D01*
X151279677Y-143176114D01*
X151290508Y-143173897D01*
X151302040Y-143173849D01*
X151338545Y-143164067D01*
X151375584Y-143156488D01*
X151390937Y-143150029D01*
X151396599Y-143148512D01*
X151402119Y-143145324D01*
X151420798Y-143137467D01*
X151685589Y-143002176D01*
X151702814Y-142996435D01*
X151723298Y-142982909D01*
X151748857Y-142969851D01*
X151765709Y-142954907D01*
X151784508Y-142942495D01*
X151802176Y-142922569D01*
X151822102Y-142904901D01*
X151834514Y-142886102D01*
X151849458Y-142869250D01*
X151874217Y-142826905D01*
X151875979Y-142823300D01*
X151876042Y-142823207D01*
X151876076Y-142823103D01*
X152013032Y-142543121D01*
X152028119Y-142516991D01*
X152030910Y-142506574D01*
X152036095Y-142495975D01*
X152043673Y-142458940D01*
X152053456Y-142422432D01*
X152054545Y-142405814D01*
X152055721Y-142400068D01*
X152055338Y-142393702D01*
X152056664Y-142373485D01*
X152053952Y-142090648D01*
X152055721Y-142061187D01*
X152053569Y-142050673D01*
X152053456Y-142038824D01*
X152043674Y-142002318D01*
X152036095Y-141965280D01*
X152029636Y-141949926D01*
X152028119Y-141944265D01*
X152024931Y-141938744D01*
X152017074Y-141920066D01*
X151881783Y-141655274D01*
X151876042Y-141638050D01*
X151862516Y-141617565D01*
X151849458Y-141592007D01*
X151834514Y-141575154D01*
X151822102Y-141556356D01*
X151802176Y-141538687D01*
X151784508Y-141518762D01*
X151765709Y-141506349D01*
X151748857Y-141491406D01*
X151706512Y-141466647D01*
X151702907Y-141464884D01*
X151702814Y-141464822D01*
X151702710Y-141464787D01*
X151422725Y-141327828D01*
X151396599Y-141312745D01*
X151386184Y-141309954D01*
X151375584Y-141304769D01*
X151338545Y-141297189D01*
X151302040Y-141287408D01*
X151285423Y-141286318D01*
X151279677Y-141285143D01*
X151273310Y-141285525D01*
X151253093Y-141284200D01*
X150643078Y-141286763D01*
X150673742Y-141224076D01*
X150766629Y-141176617D01*
X151161252Y-141174577D01*
X151416316Y-141299345D01*
X151512223Y-141318971D01*
X151609943Y-141313106D01*
X151702814Y-141282149D01*
X151780844Y-141230628D01*
X152592379Y-141230628D01*
X152595587Y-142851004D01*
X152620924Y-142945563D01*
X152669871Y-143030343D01*
X152739093Y-143099565D01*
X152823873Y-143148512D01*
X152918432Y-143173849D01*
X153016326Y-143173849D01*
X153110885Y-143148512D01*
X153195665Y-143099565D01*
X153264887Y-143030343D01*
X153313834Y-142945563D01*
X153339171Y-142851004D01*
X153342379Y-142802057D01*
X153339451Y-141323383D01*
X153388028Y-141224076D01*
X153481176Y-141176484D01*
X153733119Y-141174791D01*
X153879612Y-141246450D01*
X153881301Y-142851004D01*
X153906638Y-142945563D01*
X153955585Y-143030343D01*
X154024807Y-143099565D01*
X154109587Y-143148512D01*
X154204146Y-143173849D01*
X154302040Y-143173849D01*
X154396599Y-143148512D01*
X154481379Y-143099565D01*
X154550601Y-143030343D01*
X154599548Y-142945563D01*
X154624885Y-142851004D01*
X154628093Y-142802057D01*
X154625538Y-140373485D01*
X155163807Y-140373485D01*
X155166651Y-140796952D01*
X155164750Y-140828641D01*
X155166936Y-140839326D01*
X155167015Y-140851004D01*
X155176796Y-140887509D01*
X155184376Y-140924548D01*
X155190834Y-140939901D01*
X155192352Y-140945563D01*
X155195539Y-140951083D01*
X155203397Y-140969762D01*
X155333218Y-141223849D01*
X155335209Y-141231278D01*
X155350897Y-141258450D01*
X155371013Y-141297821D01*
X155378508Y-141306273D01*
X155384157Y-141316057D01*
X155416499Y-141352936D01*
X155537864Y-141471237D01*
X155541226Y-141476329D01*
X155561842Y-141494610D01*
X155596235Y-141528135D01*
X155606018Y-141533783D01*
X155614471Y-141541279D01*
X155656816Y-141566038D01*
X155940599Y-141704853D01*
X155966730Y-141719940D01*
X155977146Y-141722731D01*
X155987746Y-141727916D01*
X156024780Y-141735494D01*
X156061289Y-141745277D01*
X156077906Y-141746366D01*
X156083653Y-141747542D01*
X156090018Y-141747159D01*
X156110236Y-141748485D01*
X156880138Y-141746412D01*
X156881301Y-142851004D01*
X156906638Y-142945563D01*
X156955585Y-143030343D01*
X157024807Y-143099565D01*
X157109587Y-143148512D01*
X157204146Y-143173849D01*
X157302040Y-143173849D01*
X157396599Y-143148512D01*
X157481379Y-143099565D01*
X157550601Y-143030343D01*
X157599548Y-142945563D01*
X157624885Y-142851004D01*
X157628093Y-142802057D01*
X157624885Y-139753110D01*
X157599548Y-139658551D01*
X157550601Y-139573771D01*
X157481379Y-139504549D01*
X157396599Y-139455602D01*
X157302040Y-139430265D01*
X157253093Y-139427057D01*
X156118811Y-139430110D01*
X156083653Y-139428000D01*
X156072735Y-139430234D01*
X156061289Y-139430265D01*
X156024780Y-139440047D01*
X155987746Y-139447626D01*
X155972393Y-139454084D01*
X155966730Y-139455602D01*
X155961208Y-139458789D01*
X155942531Y-139466647D01*
X155688443Y-139596468D01*
X155681014Y-139598459D01*
X155653840Y-139614148D01*
X155614471Y-139634263D01*
X155606018Y-139641758D01*
X155596235Y-139647407D01*
X155559356Y-139679749D01*
X155441054Y-139801114D01*
X155435963Y-139804476D01*
X155417681Y-139825092D01*
X155384157Y-139859485D01*
X155378508Y-139869268D01*
X155371013Y-139877721D01*
X155346254Y-139920066D01*
X155207435Y-140203852D01*
X155192352Y-140229979D01*
X155189561Y-140240393D01*
X155184376Y-140250994D01*
X155176796Y-140288032D01*
X155167015Y-140324538D01*
X155165925Y-140341154D01*
X155164750Y-140346901D01*
X155165132Y-140353267D01*
X155163807Y-140373485D01*
X154625538Y-140373485D01*
X154624885Y-139753110D01*
X154599548Y-139658551D01*
X154550601Y-139573771D01*
X154481379Y-139504549D01*
X154396599Y-139455602D01*
X154302040Y-139430265D01*
X154204146Y-139430265D01*
X154109587Y-139455602D01*
X154024807Y-139504549D01*
X153955585Y-139573771D01*
X153906638Y-139658551D01*
X153881301Y-139753110D01*
X153878093Y-139802057D01*
X153878755Y-140431681D01*
X153873468Y-140430265D01*
X153856850Y-140429175D01*
X153851104Y-140428000D01*
X153844738Y-140428382D01*
X153824521Y-140427057D01*
X153401054Y-140429901D01*
X153369366Y-140428000D01*
X153358680Y-140430186D01*
X153347003Y-140430265D01*
X153310497Y-140440046D01*
X153273459Y-140447626D01*
X153258105Y-140454084D01*
X153252444Y-140455602D01*
X153246923Y-140458789D01*
X153228245Y-140466647D01*
X152963453Y-140601937D01*
X152946229Y-140607679D01*
X152925744Y-140621204D01*
X152900186Y-140634263D01*
X152883333Y-140649206D01*
X152864535Y-140661619D01*
X152846866Y-140681544D01*
X152826941Y-140699213D01*
X152814528Y-140718011D01*
X152799585Y-140734864D01*
X152774826Y-140777209D01*
X152773063Y-140780813D01*
X152773001Y-140780907D01*
X152772966Y-140781010D01*
X152636007Y-141060995D01*
X152620924Y-141087122D01*
X152618133Y-141097536D01*
X152612948Y-141108137D01*
X152605368Y-141145175D01*
X152595587Y-141181681D01*
X152594497Y-141198297D01*
X152593322Y-141204044D01*
X152593704Y-141210410D01*
X152592379Y-141230628D01*
X151780844Y-141230628D01*
X151784508Y-141228209D01*
X151849458Y-141154964D01*
X151893238Y-141067405D01*
X151912864Y-140971498D01*
X151906999Y-140873778D01*
X151876042Y-140780907D01*
X151822102Y-140699213D01*
X151748857Y-140634263D01*
X151706512Y-140609504D01*
X151422725Y-140470685D01*
X151396599Y-140455602D01*
X151386184Y-140452811D01*
X151375584Y-140447626D01*
X151338545Y-140440046D01*
X151302040Y-140430265D01*
X151285423Y-140429175D01*
X151279677Y-140428000D01*
X151273310Y-140428382D01*
X151253093Y-140427057D01*
X150688050Y-140429978D01*
X150655080Y-140428000D01*
X150644304Y-140430205D01*
X150632717Y-140430265D01*
X150596211Y-140440046D01*
X150559173Y-140447626D01*
X150543819Y-140454084D01*
X150538158Y-140455602D01*
X150532637Y-140458789D01*
X150513959Y-140466647D01*
X150249167Y-140601937D01*
X150231943Y-140607679D01*
X150211458Y-140621204D01*
X150185900Y-140634263D01*
X150169047Y-140649206D01*
X150150249Y-140661619D01*
X150132580Y-140681544D01*
X150112655Y-140699213D01*
X150100242Y-140718011D01*
X150085299Y-140734864D01*
X150060540Y-140777209D01*
X150058777Y-140780813D01*
X150058715Y-140780907D01*
X150058680Y-140781010D01*
X149921721Y-141060995D01*
X149906638Y-141087122D01*
X149903847Y-141097536D01*
X149898662Y-141108137D01*
X149891082Y-141145175D01*
X149881301Y-141181681D01*
X149880211Y-141198297D01*
X149879036Y-141204044D01*
X149879418Y-141210410D01*
X149878093Y-141230628D01*
X149197061Y-141230628D01*
X149196313Y-140753110D01*
X149170976Y-140658551D01*
X149122029Y-140573771D01*
X149052807Y-140504549D01*
X148968027Y-140455602D01*
X148873468Y-140430265D01*
X148775574Y-140430265D01*
X148681015Y-140455602D01*
X148613926Y-140494334D01*
X148565585Y-140470688D01*
X148539455Y-140455602D01*
X148529038Y-140452810D01*
X148518439Y-140447626D01*
X148481404Y-140440047D01*
X148444896Y-140430265D01*
X148428278Y-140429175D01*
X148422532Y-140428000D01*
X148416166Y-140428382D01*
X148395949Y-140427057D01*
X147972482Y-140429901D01*
X147940794Y-140428000D01*
X147930108Y-140430186D01*
X147918431Y-140430265D01*
X147881925Y-140440046D01*
X147844887Y-140447626D01*
X147829533Y-140454084D01*
X147823872Y-140455602D01*
X147818351Y-140458789D01*
X147799673Y-140466647D01*
X147541388Y-140598612D01*
X147279867Y-140470685D01*
X147253741Y-140455602D01*
X147243326Y-140452811D01*
X147232726Y-140447626D01*
X147195687Y-140440046D01*
X147159182Y-140430265D01*
X147142565Y-140429175D01*
X147136819Y-140428000D01*
X147130452Y-140428382D01*
X147110235Y-140427057D01*
X146686768Y-140429901D01*
X146655081Y-140428000D01*
X146644395Y-140430186D01*
X146632717Y-140430265D01*
X146596208Y-140440047D01*
X146559174Y-140447626D01*
X146543821Y-140454084D01*
X146538158Y-140455602D01*
X146532636Y-140458789D01*
X146513959Y-140466647D01*
X146249167Y-140601937D01*
X146231942Y-140607679D01*
X146211456Y-140621204D01*
X146185899Y-140634263D01*
X146169046Y-140649206D01*
X146150248Y-140661619D01*
X146132579Y-140681544D01*
X146112654Y-140699213D01*
X146100241Y-140718011D01*
X146085298Y-140734864D01*
X146060539Y-140777209D01*
X146058776Y-140780813D01*
X146058714Y-140780907D01*
X146058679Y-140781010D01*
X145921720Y-141060995D01*
X145906637Y-141087122D01*
X145903846Y-141097536D01*
X145898661Y-141108137D01*
X145891081Y-141145175D01*
X145881300Y-141181681D01*
X145880210Y-141198297D01*
X145879035Y-141204044D01*
X145879417Y-141210410D01*
X145878092Y-141230628D01*
X142912154Y-141230628D01*
X142910599Y-139753110D01*
X142885262Y-139658551D01*
X142836315Y-139573771D01*
X142767093Y-139504549D01*
X142682313Y-139455602D01*
X142587754Y-139430265D01*
X142489860Y-139430265D01*
X142395301Y-139455602D01*
X142310521Y-139504549D01*
X142241299Y-139573771D01*
X142192352Y-139658551D01*
X142167015Y-139753110D01*
X142163807Y-139802057D01*
X142164916Y-140856308D01*
X141197475Y-140858068D01*
X141196313Y-139753110D01*
X141170976Y-139658551D01*
X141122029Y-139573771D01*
X141052807Y-139504549D01*
X140968027Y-139455602D01*
X140873468Y-139430265D01*
X140775574Y-139430265D01*
X140681015Y-139455602D01*
X140596235Y-139504549D01*
X140527013Y-139573771D01*
X140478066Y-139658551D01*
X140452729Y-139753110D01*
X140449521Y-139802057D01*
X134216605Y-139802057D01*
X134184173Y-139705084D01*
X134178952Y-139679566D01*
X134168947Y-139659555D01*
X134161755Y-139638051D01*
X134147088Y-139615838D01*
X134135173Y-139592006D01*
X134120219Y-139575143D01*
X134107816Y-139556357D01*
X134087899Y-139538695D01*
X134070222Y-139518761D01*
X134051419Y-139506346D01*
X134034571Y-139491406D01*
X134010754Y-139479497D01*
X133988527Y-139464822D01*
X133967156Y-139457698D01*
X133947012Y-139447626D01*
X133920924Y-139442287D01*
X133895657Y-139433865D01*
X133873169Y-139432515D01*
X133851104Y-139428000D01*
X133824523Y-139429595D01*
X133797938Y-139428000D01*
X133775865Y-139432516D01*
X133753385Y-139433866D01*
X133728130Y-139442284D01*
X133702030Y-139447625D01*
X133681873Y-139457703D01*
X133660515Y-139464823D01*
X133638301Y-139479489D01*
X133614471Y-139491405D01*
X133597611Y-139506355D01*
X133578821Y-139518762D01*
X133561155Y-139538682D01*
X133541226Y-139556356D01*
X133528814Y-139575153D01*
X133513870Y-139592007D01*
X133501958Y-139615830D01*
X133487287Y-139638051D01*
X133471540Y-139676665D01*
X133470090Y-139679566D01*
X133469820Y-139680882D01*
X133468765Y-139683471D01*
X132766973Y-141795879D01*
X132763781Y-141801408D01*
X132758131Y-141822492D01*
X132456330Y-142730921D01*
X132450464Y-142828640D01*
X132197779Y-142828640D01*
X132199521Y-142802057D01*
X132196313Y-140753110D01*
X132170976Y-140658551D01*
X132122029Y-140573771D01*
X132052807Y-140504549D01*
X131968027Y-140455602D01*
X131873468Y-140430265D01*
X131775574Y-140430265D01*
X131681015Y-140455602D01*
X131613926Y-140494334D01*
X131565585Y-140470688D01*
X131539455Y-140455602D01*
X131529038Y-140452810D01*
X131518439Y-140447626D01*
X131481404Y-140440047D01*
X131444896Y-140430265D01*
X131428278Y-140429175D01*
X131422532Y-140428000D01*
X131416166Y-140428382D01*
X131395949Y-140427057D01*
X130972482Y-140429901D01*
X130940794Y-140428000D01*
X130930108Y-140430186D01*
X130918431Y-140430265D01*
X130881925Y-140440046D01*
X130844887Y-140447626D01*
X130829533Y-140454084D01*
X130823872Y-140455602D01*
X130818351Y-140458789D01*
X130799673Y-140466647D01*
X130534881Y-140601937D01*
X130517657Y-140607679D01*
X130497172Y-140621204D01*
X130471614Y-140634263D01*
X130454761Y-140649206D01*
X130435963Y-140661619D01*
X130418294Y-140681544D01*
X130398369Y-140699213D01*
X130385956Y-140718011D01*
X130371013Y-140734864D01*
X130346254Y-140777209D01*
X130344491Y-140780813D01*
X130344429Y-140780907D01*
X130344394Y-140781010D01*
X130207435Y-141060995D01*
X130192352Y-141087122D01*
X130189561Y-141097536D01*
X130184376Y-141108137D01*
X130176796Y-141145175D01*
X130167015Y-141181681D01*
X130165925Y-141198297D01*
X130164750Y-141204044D01*
X130165132Y-141210410D01*
X130163807Y-141230628D01*
X129483582Y-141230628D01*
X129482027Y-139753110D01*
X129456690Y-139658551D01*
X129407743Y-139573771D01*
X129338521Y-139504549D01*
X129253741Y-139455602D01*
X129159182Y-139430265D01*
X129061288Y-139430265D01*
X128966729Y-139455602D01*
X128881949Y-139504549D01*
X128812727Y-139573771D01*
X128763780Y-139658551D01*
X128738443Y-139753110D01*
X128735235Y-139802057D01*
X128735897Y-140431681D01*
X128730610Y-140430265D01*
X128713992Y-140429175D01*
X128708246Y-140428000D01*
X128701880Y-140428382D01*
X128681663Y-140427057D01*
X128258196Y-140429901D01*
X128226508Y-140428000D01*
X128215822Y-140430186D01*
X128204145Y-140430265D01*
X128167639Y-140440046D01*
X128130601Y-140447626D01*
X128115247Y-140454084D01*
X128109586Y-140455602D01*
X128104065Y-140458789D01*
X128085387Y-140466647D01*
X127820595Y-140601937D01*
X127803371Y-140607679D01*
X127782886Y-140621204D01*
X127757328Y-140634263D01*
X127740475Y-140649206D01*
X127721677Y-140661619D01*
X127704008Y-140681544D01*
X127684083Y-140699213D01*
X127671670Y-140718011D01*
X127656727Y-140734864D01*
X127631968Y-140777209D01*
X127630205Y-140780813D01*
X127630143Y-140780907D01*
X127630108Y-140781010D01*
X127493149Y-141060995D01*
X127478066Y-141087122D01*
X127475275Y-141097536D01*
X127470090Y-141108137D01*
X127462510Y-141145175D01*
X127452729Y-141181681D01*
X127451639Y-141198297D01*
X127450464Y-141204044D01*
X127450846Y-141210410D01*
X127449521Y-141230628D01*
X124055009Y-141230628D01*
X124053898Y-140174820D01*
X124587753Y-140173849D01*
X124682312Y-140148512D01*
X124767092Y-140099565D01*
X124836314Y-140030343D01*
X124885261Y-139945563D01*
X124910598Y-139851004D01*
X124910598Y-139753110D01*
X124885261Y-139658551D01*
X124836314Y-139573771D01*
X124767092Y-139504549D01*
X124682312Y-139455602D01*
X124587753Y-139430265D01*
X124538806Y-139427057D01*
X122775574Y-139430265D01*
X122681015Y-139455602D01*
X122596235Y-139504549D01*
X122527013Y-139573771D01*
X122478066Y-139658551D01*
X122452729Y-139753110D01*
X114360235Y-139753110D01*
X114360235Y-135953605D01*
X130592841Y-135953605D01*
X130600783Y-136051177D01*
X130614225Y-136098351D01*
X131317517Y-138058428D01*
X131318284Y-138064859D01*
X131323633Y-138081271D01*
X131324706Y-138087149D01*
X131327407Y-138092851D01*
X131333484Y-138111497D01*
X131614561Y-138806275D01*
X131620923Y-138830015D01*
X131631758Y-138848782D01*
X131640357Y-138870037D01*
X131656443Y-138891539D01*
X131669870Y-138914795D01*
X131696904Y-138945621D01*
X131699000Y-138948423D01*
X131700164Y-138949339D01*
X131702212Y-138951674D01*
X131823579Y-139069978D01*
X131826940Y-139075069D01*
X131847550Y-139093344D01*
X131881948Y-139126875D01*
X131891733Y-139132524D01*
X131900185Y-139140019D01*
X131942530Y-139164778D01*
X132273458Y-139326656D01*
X132369365Y-139346282D01*
X132467085Y-139340417D01*
X132559956Y-139309460D01*
X132641650Y-139255520D01*
X132706600Y-139182275D01*
X132750380Y-139094716D01*
X132770006Y-138998809D01*
X132764141Y-138901089D01*
X132733184Y-138808218D01*
X132679244Y-138726524D01*
X132605999Y-138661574D01*
X132563654Y-138636815D01*
X132335295Y-138525110D01*
X132287924Y-138478934D01*
X132081185Y-137967908D01*
X132587479Y-136543653D01*
X133020949Y-136543653D01*
X133023956Y-137392990D01*
X133021892Y-137427381D01*
X133024116Y-137438250D01*
X133024157Y-137449743D01*
X133033940Y-137486254D01*
X133041519Y-137523288D01*
X133047976Y-137538638D01*
X133049494Y-137544302D01*
X133052681Y-137549822D01*
X133060539Y-137568502D01*
X133190362Y-137822591D01*
X133192352Y-137830015D01*
X133208033Y-137857177D01*
X133228156Y-137896560D01*
X133235650Y-137905011D01*
X133241299Y-137914795D01*
X133273641Y-137951674D01*
X133395008Y-138069978D01*
X133398369Y-138075069D01*
X133418979Y-138093344D01*
X133453377Y-138126875D01*
X133463162Y-138132524D01*
X133471614Y-138140019D01*
X133513959Y-138164778D01*
X133797745Y-138303596D01*
X133823872Y-138318680D01*
X133834286Y-138321470D01*
X133844887Y-138326656D01*
X133881925Y-138334235D01*
X133918431Y-138344017D01*
X133935047Y-138345106D01*
X133940794Y-138346282D01*
X133947160Y-138345899D01*
X133967378Y-138347225D01*
X134532420Y-138344303D01*
X134565391Y-138346282D01*
X134576166Y-138344076D01*
X134587754Y-138344017D01*
X134624259Y-138334235D01*
X134661298Y-138326656D01*
X134676651Y-138320197D01*
X134681664Y-138318853D01*
X134775574Y-138344017D01*
X134873468Y-138344017D01*
X134968027Y-138318680D01*
X135052807Y-138269733D01*
X135122029Y-138200511D01*
X135170976Y-138115731D01*
X135196313Y-138021172D01*
X135199521Y-137972225D01*
X135197599Y-136146445D01*
X135198578Y-136141666D01*
X135197577Y-136124994D01*
X135196364Y-134972225D01*
X138163807Y-134972225D01*
X138165032Y-136136959D01*
X138164750Y-136141666D01*
X138165038Y-136143077D01*
X138166774Y-137792889D01*
X138164750Y-137802784D01*
X138166821Y-137837298D01*
X138167015Y-138021172D01*
X138192352Y-138115731D01*
X138241299Y-138200511D01*
X138310521Y-138269733D01*
X138395301Y-138318680D01*
X138489860Y-138344017D01*
X138587754Y-138344017D01*
X138681664Y-138318853D01*
X138691429Y-138321470D01*
X138702030Y-138326656D01*
X138739068Y-138334235D01*
X138775574Y-138344017D01*
X138792190Y-138345106D01*
X138797937Y-138346282D01*
X138804303Y-138345899D01*
X138824521Y-138347225D01*
X139389561Y-138344303D01*
X139422532Y-138346282D01*
X139433307Y-138344076D01*
X139444896Y-138344017D01*
X139481404Y-138334234D01*
X139518439Y-138326656D01*
X139533791Y-138320197D01*
X139539455Y-138318680D01*
X139544976Y-138315492D01*
X139563654Y-138307635D01*
X139817744Y-138177812D01*
X139825172Y-138175822D01*
X139852343Y-138160134D01*
X139891714Y-138140019D01*
X139900165Y-138132524D01*
X139909951Y-138126875D01*
X139946830Y-138094532D01*
X140065131Y-137973165D01*
X140070222Y-137969805D01*
X140088501Y-137949190D01*
X140122029Y-137914795D01*
X140127677Y-137905012D01*
X140135172Y-137896560D01*
X140159931Y-137854215D01*
X140298749Y-137570428D01*
X140313833Y-137544302D01*
X140316623Y-137533887D01*
X140321809Y-137523287D01*
X140329388Y-137486248D01*
X140339170Y-137449743D01*
X140340259Y-137433126D01*
X140341435Y-137427380D01*
X140341052Y-137421013D01*
X140342378Y-137400796D01*
X140339370Y-136551459D01*
X140341435Y-136517069D01*
X140339210Y-136506199D01*
X140339170Y-136494706D01*
X140329388Y-136458200D01*
X140321809Y-136421162D01*
X140315350Y-136405808D01*
X140314007Y-136400796D01*
X140735236Y-136400796D01*
X140737659Y-136653619D01*
X140736065Y-136661592D01*
X140738027Y-136692026D01*
X140738444Y-136735457D01*
X140741584Y-136747176D01*
X140742365Y-136759284D01*
X140754213Y-136794308D01*
X140763781Y-136830016D01*
X140769846Y-136840521D01*
X140773735Y-136852017D01*
X140794244Y-136882781D01*
X140812728Y-136914796D01*
X140821307Y-136923375D01*
X140828037Y-136933470D01*
X140855805Y-136957873D01*
X140881950Y-136984018D01*
X140892459Y-136990085D01*
X140901571Y-136998093D01*
X140934710Y-137014478D01*
X140966730Y-137032965D01*
X140978447Y-137036104D01*
X140989325Y-137041483D01*
X141036692Y-137054228D01*
X142166167Y-137277621D01*
X142166634Y-137451102D01*
X142118157Y-137550205D01*
X142025270Y-137597664D01*
X141630647Y-137599704D01*
X141375584Y-137474937D01*
X141279677Y-137455311D01*
X141181957Y-137461176D01*
X141089086Y-137492133D01*
X141007392Y-137546073D01*
X140942442Y-137619318D01*
X140898662Y-137706877D01*
X140879036Y-137802784D01*
X140884901Y-137900504D01*
X140915858Y-137993375D01*
X140969798Y-138075069D01*
X141043043Y-138140019D01*
X141085388Y-138164778D01*
X141369174Y-138303596D01*
X141395301Y-138318680D01*
X141405715Y-138321470D01*
X141416316Y-138326656D01*
X141453354Y-138334235D01*
X141489860Y-138344017D01*
X141506476Y-138345106D01*
X141512223Y-138346282D01*
X141518589Y-138345899D01*
X141538807Y-138347225D01*
X142103849Y-138344303D01*
X142136820Y-138346282D01*
X142147595Y-138344076D01*
X142159183Y-138344017D01*
X142195688Y-138334235D01*
X142232727Y-138326656D01*
X142248080Y-138320197D01*
X142253742Y-138318680D01*
X142259262Y-138315492D01*
X142277941Y-138307635D01*
X142542732Y-138172344D01*
X142559957Y-138166603D01*
X142580441Y-138153077D01*
X142606000Y-138140019D01*
X142622852Y-138125075D01*
X142641651Y-138112663D01*
X142659319Y-138092737D01*
X142679245Y-138075069D01*
X142691657Y-138056270D01*
X142706601Y-138039418D01*
X142731360Y-137997073D01*
X142733122Y-137993468D01*
X142733185Y-137993375D01*
X142733219Y-137993271D01*
X142870175Y-137713289D01*
X142885262Y-137687159D01*
X142888053Y-137676742D01*
X142893238Y-137666143D01*
X142900816Y-137629108D01*
X142910599Y-137592600D01*
X142911688Y-137575982D01*
X142912864Y-137570236D01*
X142912481Y-137563870D01*
X142913807Y-137543653D01*
X142912344Y-137000310D01*
X142912978Y-136997143D01*
X142912307Y-136986753D01*
X142910753Y-136409370D01*
X142911268Y-136400796D01*
X143449522Y-136400796D01*
X143452730Y-138021172D01*
X143478067Y-138115731D01*
X143527014Y-138200511D01*
X143596236Y-138269733D01*
X143681016Y-138318680D01*
X143775575Y-138344017D01*
X143873469Y-138344017D01*
X143968028Y-138318680D01*
X144052808Y-138269733D01*
X144122030Y-138200511D01*
X144170977Y-138115731D01*
X144196314Y-138021172D01*
X144199522Y-137972225D01*
X144196594Y-136493551D01*
X144245171Y-136394244D01*
X144338319Y-136346652D01*
X144590262Y-136344959D01*
X144735931Y-136416215D01*
X144738444Y-138021172D01*
X144763781Y-138115731D01*
X144812728Y-138200511D01*
X144881950Y-138269733D01*
X144966730Y-138318680D01*
X145061289Y-138344017D01*
X145159183Y-138344017D01*
X145253742Y-138318680D01*
X145338522Y-138269733D01*
X145407744Y-138200511D01*
X145456691Y-138115731D01*
X145482028Y-138021172D01*
X145485236Y-137972225D01*
X145482105Y-135972225D01*
X146163808Y-135972225D01*
X146166169Y-137795853D01*
X146164751Y-137802784D01*
X146166209Y-137827089D01*
X146166939Y-138390910D01*
X146164751Y-138427380D01*
X146167001Y-138438376D01*
X146167016Y-138449743D01*
X146176797Y-138486248D01*
X146184377Y-138523287D01*
X146190835Y-138538640D01*
X146192353Y-138544302D01*
X146195540Y-138549822D01*
X146203398Y-138568501D01*
X146333220Y-138822590D01*
X146335210Y-138830015D01*
X146350893Y-138857180D01*
X146371014Y-138896560D01*
X146378508Y-138905012D01*
X146384157Y-138914795D01*
X146416499Y-138951674D01*
X146537866Y-139069978D01*
X146541227Y-139075069D01*
X146561837Y-139093344D01*
X146596235Y-139126875D01*
X146606020Y-139132524D01*
X146614472Y-139140019D01*
X146656817Y-139164778D01*
X146940603Y-139303596D01*
X146966730Y-139318680D01*
X146977144Y-139321470D01*
X146987745Y-139326656D01*
X147024783Y-139334235D01*
X147061289Y-139344017D01*
X147077905Y-139345106D01*
X147083652Y-139346282D01*
X147090018Y-139345899D01*
X147110236Y-139347225D01*
X147533703Y-139344380D01*
X147565392Y-139346282D01*
X147576077Y-139344095D01*
X147587755Y-139344017D01*
X147624260Y-139334235D01*
X147661299Y-139326656D01*
X147676652Y-139320197D01*
X147682314Y-139318680D01*
X147687834Y-139315492D01*
X147706513Y-139307635D01*
X148034572Y-139140019D01*
X148107817Y-139075069D01*
X148161757Y-138993375D01*
X148192714Y-138900504D01*
X148198579Y-138802784D01*
X148178953Y-138706877D01*
X148135173Y-138619318D01*
X148070223Y-138546073D01*
X147988529Y-138492133D01*
X147895658Y-138461176D01*
X147797938Y-138455311D01*
X147702031Y-138474937D01*
X147656817Y-138493958D01*
X147453581Y-138597797D01*
X147201637Y-138599490D01*
X147049582Y-138525110D01*
X146991239Y-138468239D01*
X146929132Y-138346684D01*
X147389562Y-138344303D01*
X147422533Y-138346282D01*
X147433308Y-138344076D01*
X147444897Y-138344017D01*
X147481405Y-138334234D01*
X147518440Y-138326656D01*
X147533792Y-138320197D01*
X147539456Y-138318680D01*
X147544977Y-138315492D01*
X147563655Y-138307635D01*
X147817745Y-138177812D01*
X147825173Y-138175822D01*
X147852344Y-138160134D01*
X147891715Y-138140019D01*
X147900166Y-138132524D01*
X147909952Y-138126875D01*
X147946831Y-138094532D01*
X148065132Y-137973165D01*
X148070223Y-137969805D01*
X148088502Y-137949190D01*
X148122030Y-137914795D01*
X148127678Y-137905012D01*
X148135173Y-137896560D01*
X148159932Y-137854215D01*
X148298750Y-137570428D01*
X148313834Y-137544302D01*
X148316624Y-137533887D01*
X148321810Y-137523287D01*
X148329389Y-137486248D01*
X148339171Y-137449743D01*
X148340260Y-137433126D01*
X148341436Y-137427380D01*
X148341053Y-137421013D01*
X148342379Y-137400796D01*
X148339371Y-136551459D01*
X148341436Y-136517069D01*
X148339211Y-136506199D01*
X148339171Y-136494706D01*
X148329389Y-136458200D01*
X148321810Y-136421162D01*
X148315351Y-136405808D01*
X148313834Y-136400147D01*
X148310646Y-136394626D01*
X148302789Y-136375948D01*
X148172967Y-136121860D01*
X148170977Y-136114432D01*
X148155288Y-136087259D01*
X148135173Y-136047889D01*
X148127677Y-136039436D01*
X148122029Y-136029653D01*
X148089687Y-135992774D01*
X147968321Y-135874472D01*
X147964960Y-135869381D01*
X147944343Y-135851099D01*
X147909951Y-135817575D01*
X147900167Y-135811926D01*
X147891715Y-135804431D01*
X147849370Y-135779672D01*
X147565586Y-135640856D01*
X147539456Y-135625770D01*
X147529039Y-135622978D01*
X147518440Y-135617794D01*
X147481405Y-135610215D01*
X147444897Y-135600433D01*
X147428279Y-135599343D01*
X147422533Y-135598168D01*
X147416167Y-135598550D01*
X147395950Y-135597225D01*
X146830908Y-135600146D01*
X146797938Y-135598168D01*
X146787162Y-135600373D01*
X146775575Y-135600433D01*
X146739069Y-135610214D01*
X146702031Y-135617794D01*
X146686677Y-135624252D01*
X146681665Y-135625596D01*
X146587755Y-135600433D01*
X146489861Y-135600433D01*
X146395302Y-135625770D01*
X146310522Y-135674717D01*
X146241300Y-135743939D01*
X146192353Y-135828719D01*
X146167016Y-135923278D01*
X146163808Y-135972225D01*
X145482105Y-135972225D01*
X145482028Y-135923278D01*
X145456691Y-135828719D01*
X145407744Y-135743939D01*
X145338522Y-135674717D01*
X145253742Y-135625770D01*
X145159183Y-135600433D01*
X145061289Y-135600433D01*
X144966730Y-135625770D01*
X144899641Y-135664502D01*
X144851300Y-135640856D01*
X144825170Y-135625770D01*
X144814753Y-135622978D01*
X144804154Y-135617794D01*
X144767119Y-135610215D01*
X144730611Y-135600433D01*
X144713993Y-135599343D01*
X144708247Y-135598168D01*
X144701881Y-135598550D01*
X144681664Y-135597225D01*
X144258197Y-135600069D01*
X144226509Y-135598168D01*
X144215823Y-135600354D01*
X144204146Y-135600433D01*
X144167640Y-135610214D01*
X144130602Y-135617794D01*
X144115248Y-135624252D01*
X144109587Y-135625770D01*
X144104066Y-135628957D01*
X144085388Y-135636815D01*
X143820596Y-135772105D01*
X143803372Y-135777847D01*
X143782887Y-135791372D01*
X143757329Y-135804431D01*
X143740476Y-135819374D01*
X143721678Y-135831787D01*
X143704009Y-135851712D01*
X143684084Y-135869381D01*
X143671671Y-135888179D01*
X143656728Y-135905032D01*
X143631969Y-135947377D01*
X143630206Y-135950981D01*
X143630144Y-135951075D01*
X143630109Y-135951178D01*
X143493150Y-136231163D01*
X143478067Y-136257290D01*
X143475276Y-136267704D01*
X143470091Y-136278305D01*
X143462511Y-136315343D01*
X143452730Y-136351849D01*
X143451640Y-136368465D01*
X143450465Y-136374212D01*
X143450847Y-136380578D01*
X143449522Y-136400796D01*
X142911268Y-136400796D01*
X142912864Y-136374212D01*
X142910629Y-136363294D01*
X142910599Y-136351849D01*
X142900817Y-136315343D01*
X142893238Y-136278305D01*
X142886779Y-136262951D01*
X142885262Y-136257290D01*
X142882074Y-136251769D01*
X142874217Y-136233091D01*
X142738926Y-135968299D01*
X142733185Y-135951075D01*
X142719659Y-135930590D01*
X142706601Y-135905032D01*
X142691657Y-135888179D01*
X142679245Y-135869381D01*
X142659319Y-135851712D01*
X142641651Y-135831787D01*
X142622852Y-135819374D01*
X142606000Y-135804431D01*
X142563655Y-135779672D01*
X142560050Y-135777909D01*
X142559957Y-135777847D01*
X142559853Y-135777812D01*
X142279868Y-135640853D01*
X142253742Y-135625770D01*
X142243327Y-135622979D01*
X142232727Y-135617794D01*
X142195688Y-135610214D01*
X142159183Y-135600433D01*
X142142566Y-135599343D01*
X142136820Y-135598168D01*
X142130453Y-135598550D01*
X142110236Y-135597225D01*
X141545193Y-135600146D01*
X141512223Y-135598168D01*
X141501447Y-135600373D01*
X141489860Y-135600433D01*
X141453354Y-135610214D01*
X141416316Y-135617794D01*
X141400962Y-135624252D01*
X141395301Y-135625770D01*
X141389780Y-135628957D01*
X141371102Y-135636815D01*
X141106310Y-135772105D01*
X141089086Y-135777847D01*
X141068601Y-135791372D01*
X141043043Y-135804431D01*
X141026190Y-135819374D01*
X141007392Y-135831787D01*
X140989723Y-135851712D01*
X140969798Y-135869381D01*
X140957385Y-135888179D01*
X140942442Y-135905032D01*
X140917683Y-135947377D01*
X140915920Y-135950981D01*
X140915858Y-135951075D01*
X140915823Y-135951178D01*
X140778864Y-136231163D01*
X140763781Y-136257290D01*
X140760990Y-136267704D01*
X140755805Y-136278305D01*
X140748225Y-136315343D01*
X140738444Y-136351849D01*
X140737354Y-136368465D01*
X140736179Y-136374212D01*
X140736561Y-136380578D01*
X140735236Y-136400796D01*
X140314007Y-136400796D01*
X140313833Y-136400147D01*
X140310645Y-136394626D01*
X140302788Y-136375948D01*
X140172966Y-136121860D01*
X140170976Y-136114432D01*
X140155287Y-136087259D01*
X140135172Y-136047889D01*
X140127676Y-136039436D01*
X140122028Y-136029653D01*
X140089686Y-135992774D01*
X139968320Y-135874472D01*
X139964959Y-135869381D01*
X139944342Y-135851099D01*
X139909950Y-135817575D01*
X139900166Y-135811926D01*
X139891714Y-135804431D01*
X139849369Y-135779672D01*
X139565585Y-135640856D01*
X139539455Y-135625770D01*
X139529038Y-135622978D01*
X139518439Y-135617794D01*
X139481404Y-135610215D01*
X139444896Y-135600433D01*
X139428278Y-135599343D01*
X139422532Y-135598168D01*
X139416166Y-135598550D01*
X139395949Y-135597225D01*
X138911310Y-135599731D01*
X138910749Y-135066135D01*
X148738443Y-135066135D01*
X148738443Y-135164029D01*
X148763781Y-135258589D01*
X148812729Y-135343368D01*
X148845071Y-135380247D01*
X149024767Y-135555407D01*
X149024807Y-135555447D01*
X149078555Y-135586477D01*
X149109586Y-135604394D01*
X149149474Y-135615082D01*
X149109587Y-135625770D01*
X149024807Y-135674717D01*
X148955585Y-135743939D01*
X148906638Y-135828719D01*
X148881301Y-135923278D01*
X148878093Y-135972225D01*
X148881301Y-138021172D01*
X148906638Y-138115731D01*
X148955585Y-138200511D01*
X149024807Y-138269733D01*
X149109587Y-138318680D01*
X149204146Y-138344017D01*
X149302040Y-138344017D01*
X149396599Y-138318680D01*
X149481379Y-138269733D01*
X149550601Y-138200511D01*
X149599548Y-138115731D01*
X149624885Y-138021172D01*
X149628093Y-137972225D01*
X149627198Y-137400796D01*
X150163807Y-137400796D01*
X150166228Y-137545596D01*
X150164750Y-137570236D01*
X150166809Y-137580299D01*
X150167015Y-137592600D01*
X150176797Y-137629108D01*
X150184376Y-137666143D01*
X150190834Y-137681495D01*
X150192352Y-137687159D01*
X150195539Y-137692680D01*
X150203397Y-137711358D01*
X150338687Y-137976149D01*
X150344429Y-137993375D01*
X150357954Y-138013860D01*
X150371013Y-138039418D01*
X150385956Y-138056270D01*
X150398369Y-138075069D01*
X150418294Y-138092737D01*
X150435963Y-138112663D01*
X150454761Y-138125075D01*
X150471614Y-138140019D01*
X150513959Y-138164778D01*
X150517563Y-138166540D01*
X150517657Y-138166603D01*
X150517760Y-138166637D01*
X150797745Y-138303596D01*
X150823872Y-138318680D01*
X150834286Y-138321470D01*
X150844887Y-138326656D01*
X150881925Y-138334235D01*
X150918431Y-138344017D01*
X150935047Y-138345106D01*
X150940794Y-138346282D01*
X150947160Y-138345899D01*
X150967378Y-138347225D01*
X151532420Y-138344303D01*
X151565391Y-138346282D01*
X151576166Y-138344076D01*
X151587754Y-138344017D01*
X151624259Y-138334235D01*
X151661298Y-138326656D01*
X151676651Y-138320197D01*
X151682313Y-138318680D01*
X151687833Y-138315492D01*
X151706512Y-138307635D01*
X152034571Y-138140019D01*
X152107816Y-138075069D01*
X152161756Y-137993375D01*
X152192713Y-137900504D01*
X152198578Y-137802784D01*
X152178952Y-137706877D01*
X152135172Y-137619318D01*
X152070222Y-137546073D01*
X151988528Y-137492133D01*
X151895657Y-137461176D01*
X151797937Y-137455311D01*
X151702030Y-137474937D01*
X151656816Y-137493958D01*
X151453841Y-137597664D01*
X151059218Y-137599704D01*
X150960826Y-137551575D01*
X150920809Y-137473252D01*
X150959456Y-137394244D01*
X151052604Y-137346652D01*
X151390845Y-137344380D01*
X151422534Y-137346282D01*
X151433219Y-137344095D01*
X151444897Y-137344017D01*
X151481402Y-137334235D01*
X151518441Y-137326656D01*
X151533794Y-137320197D01*
X151539456Y-137318680D01*
X151544976Y-137315492D01*
X151563655Y-137307635D01*
X151828446Y-137172344D01*
X151845671Y-137166603D01*
X151866155Y-137153077D01*
X151891714Y-137140019D01*
X151908566Y-137125075D01*
X151927365Y-137112663D01*
X151945033Y-137092737D01*
X151964959Y-137075069D01*
X151977371Y-137056270D01*
X151992315Y-137039418D01*
X152017074Y-136997073D01*
X152018836Y-136993468D01*
X152018899Y-136993375D01*
X152018933Y-136993271D01*
X152155889Y-136713289D01*
X152170976Y-136687159D01*
X152173767Y-136676742D01*
X152178952Y-136666143D01*
X152186530Y-136629108D01*
X152196313Y-136592600D01*
X152197402Y-136575982D01*
X152198578Y-136570236D01*
X152198195Y-136563870D01*
X152199521Y-136543653D01*
X152197132Y-136400796D01*
X152592379Y-136400796D01*
X152594802Y-136653619D01*
X152593208Y-136661592D01*
X152595170Y-136692026D01*
X152595587Y-136735457D01*
X152598727Y-136747176D01*
X152599508Y-136759284D01*
X152611356Y-136794308D01*
X152620924Y-136830016D01*
X152626989Y-136840521D01*
X152630878Y-136852017D01*
X152651387Y-136882781D01*
X152669871Y-136914796D01*
X152678450Y-136923375D01*
X152685180Y-136933470D01*
X152712948Y-136957873D01*
X152739093Y-136984018D01*
X152749602Y-136990085D01*
X152758714Y-136998093D01*
X152791853Y-137014478D01*
X152823873Y-137032965D01*
X152835590Y-137036104D01*
X152846468Y-137041483D01*
X152893835Y-137054228D01*
X154023310Y-137277621D01*
X154023777Y-137451102D01*
X153975300Y-137550205D01*
X153882413Y-137597664D01*
X153487790Y-137599704D01*
X153232727Y-137474937D01*
X153136820Y-137455311D01*
X153039100Y-137461176D01*
X152946229Y-137492133D01*
X152864535Y-137546073D01*
X152799585Y-137619318D01*
X152755805Y-137706877D01*
X152736179Y-137802784D01*
X152742044Y-137900504D01*
X152773001Y-137993375D01*
X152826941Y-138075069D01*
X152900186Y-138140019D01*
X152942531Y-138164778D01*
X153226317Y-138303596D01*
X153252444Y-138318680D01*
X153262858Y-138321470D01*
X153273459Y-138326656D01*
X153310497Y-138334235D01*
X153347003Y-138344017D01*
X153363619Y-138345106D01*
X153369366Y-138346282D01*
X153375732Y-138345899D01*
X153395950Y-138347225D01*
X153960992Y-138344303D01*
X153993963Y-138346282D01*
X154004738Y-138344076D01*
X154016326Y-138344017D01*
X154052831Y-138334235D01*
X154089870Y-138326656D01*
X154105223Y-138320197D01*
X154110885Y-138318680D01*
X154116405Y-138315492D01*
X154135084Y-138307635D01*
X154399875Y-138172344D01*
X154417100Y-138166603D01*
X154437584Y-138153077D01*
X154463143Y-138140019D01*
X154479995Y-138125075D01*
X154498794Y-138112663D01*
X154516462Y-138092737D01*
X154536388Y-138075069D01*
X154548800Y-138056270D01*
X154563744Y-138039418D01*
X154588503Y-137997073D01*
X154590265Y-137993468D01*
X154590328Y-137993375D01*
X154590362Y-137993271D01*
X154727318Y-137713289D01*
X154742405Y-137687159D01*
X154745196Y-137676742D01*
X154750381Y-137666143D01*
X154757959Y-137629108D01*
X154767742Y-137592600D01*
X154768831Y-137575982D01*
X154770007Y-137570236D01*
X154769624Y-137563870D01*
X154770950Y-137543653D01*
X154769487Y-137000310D01*
X154770121Y-136997143D01*
X154769450Y-136986753D01*
X154767896Y-136409370D01*
X154770007Y-136374212D01*
X154767772Y-136363294D01*
X154767742Y-136351849D01*
X154757960Y-136315343D01*
X154750381Y-136278305D01*
X154743922Y-136262951D01*
X154742579Y-136257939D01*
X155163807Y-136257939D01*
X155166764Y-136698236D01*
X155166244Y-136729197D01*
X155167000Y-136733367D01*
X155167015Y-136735457D01*
X155168146Y-136739681D01*
X155175004Y-136777461D01*
X155320219Y-137346155D01*
X155327233Y-137380430D01*
X155331655Y-137390942D01*
X155332844Y-137395597D01*
X155336021Y-137401321D01*
X155346254Y-137425644D01*
X155476075Y-137679731D01*
X155478066Y-137687160D01*
X155493754Y-137714332D01*
X155513870Y-137753703D01*
X155521365Y-137762155D01*
X155527014Y-137771939D01*
X155559356Y-137808818D01*
X155843676Y-138089139D01*
X155864536Y-138112663D01*
X155873615Y-138118657D01*
X155881950Y-138126875D01*
X155914693Y-138145779D01*
X155946230Y-138166602D01*
X155961646Y-138172888D01*
X155966729Y-138175823D01*
X155972891Y-138177474D01*
X155991651Y-138185124D01*
X156387841Y-138314373D01*
X156395301Y-138318680D01*
X156427443Y-138327292D01*
X156467671Y-138340416D01*
X156478946Y-138341092D01*
X156489860Y-138344017D01*
X156538807Y-138347225D01*
X157302040Y-138344017D01*
X157396599Y-138318680D01*
X157481379Y-138269733D01*
X157550601Y-138200511D01*
X157599548Y-138115731D01*
X157624885Y-138021172D01*
X157628093Y-137972225D01*
X157624885Y-134923278D01*
X157599548Y-134828719D01*
X157550601Y-134743939D01*
X157481379Y-134674717D01*
X157396599Y-134625770D01*
X157302040Y-134600433D01*
X157253093Y-134597225D01*
X156574711Y-134600076D01*
X156565390Y-134598169D01*
X156530515Y-134600262D01*
X156489860Y-134600433D01*
X156478946Y-134603357D01*
X156467671Y-134604034D01*
X156420221Y-134616469D01*
X155997637Y-134760345D01*
X155966730Y-134768627D01*
X155957267Y-134774090D01*
X155946230Y-134777848D01*
X155914697Y-134798667D01*
X155881950Y-134817574D01*
X155869422Y-134828560D01*
X155864536Y-134831787D01*
X155860311Y-134836551D01*
X155845071Y-134849917D01*
X155585781Y-135112904D01*
X155578820Y-135117501D01*
X155557100Y-135141994D01*
X155527014Y-135172510D01*
X155521365Y-135182292D01*
X155513870Y-135190746D01*
X155489111Y-135233091D01*
X155348059Y-135521443D01*
X155332844Y-135548852D01*
X155329398Y-135559591D01*
X155327233Y-135564019D01*
X155325919Y-135570435D01*
X155317860Y-135595560D01*
X155175767Y-136176328D01*
X155167015Y-136208992D01*
X155166736Y-136213238D01*
X155166244Y-136215252D01*
X155166317Y-136219631D01*
X155163807Y-136257939D01*
X154742579Y-136257939D01*
X154742405Y-136257290D01*
X154739217Y-136251769D01*
X154731360Y-136233091D01*
X154596069Y-135968299D01*
X154590328Y-135951075D01*
X154576802Y-135930590D01*
X154563744Y-135905032D01*
X154548800Y-135888179D01*
X154536388Y-135869381D01*
X154516462Y-135851712D01*
X154498794Y-135831787D01*
X154479995Y-135819374D01*
X154463143Y-135804431D01*
X154420798Y-135779672D01*
X154417193Y-135777909D01*
X154417100Y-135777847D01*
X154416996Y-135777812D01*
X154137011Y-135640853D01*
X154110885Y-135625770D01*
X154100470Y-135622979D01*
X154089870Y-135617794D01*
X154052831Y-135610214D01*
X154016326Y-135600433D01*
X153999709Y-135599343D01*
X153993963Y-135598168D01*
X153987596Y-135598550D01*
X153967379Y-135597225D01*
X153402336Y-135600146D01*
X153369366Y-135598168D01*
X153358590Y-135600373D01*
X153347003Y-135600433D01*
X153310497Y-135610214D01*
X153273459Y-135617794D01*
X153258105Y-135624252D01*
X153252444Y-135625770D01*
X153246923Y-135628957D01*
X153228245Y-135636815D01*
X152963453Y-135772105D01*
X152946229Y-135777847D01*
X152925744Y-135791372D01*
X152900186Y-135804431D01*
X152883333Y-135819374D01*
X152864535Y-135831787D01*
X152846866Y-135851712D01*
X152826941Y-135869381D01*
X152814528Y-135888179D01*
X152799585Y-135905032D01*
X152774826Y-135947377D01*
X152773063Y-135950981D01*
X152773001Y-135951075D01*
X152772966Y-135951178D01*
X152636007Y-136231163D01*
X152620924Y-136257290D01*
X152618133Y-136267704D01*
X152612948Y-136278305D01*
X152605368Y-136315343D01*
X152595587Y-136351849D01*
X152594497Y-136368465D01*
X152593322Y-136374212D01*
X152593704Y-136380578D01*
X152592379Y-136400796D01*
X152197132Y-136400796D01*
X152197099Y-136398852D01*
X152198578Y-136374212D01*
X152196518Y-136364148D01*
X152196313Y-136351849D01*
X152186531Y-136315343D01*
X152178952Y-136278305D01*
X152172493Y-136262951D01*
X152170976Y-136257290D01*
X152167788Y-136251769D01*
X152159931Y-136233091D01*
X152024640Y-135968299D01*
X152018899Y-135951075D01*
X152005373Y-135930590D01*
X151992315Y-135905032D01*
X151977371Y-135888179D01*
X151964959Y-135869381D01*
X151945033Y-135851712D01*
X151927365Y-135831787D01*
X151908566Y-135819374D01*
X151891714Y-135804431D01*
X151849369Y-135779672D01*
X151845764Y-135777909D01*
X151845671Y-135777847D01*
X151845567Y-135777812D01*
X151565582Y-135640853D01*
X151539456Y-135625770D01*
X151529041Y-135622979D01*
X151518441Y-135617794D01*
X151481402Y-135610214D01*
X151444897Y-135600433D01*
X151428280Y-135599343D01*
X151422534Y-135598168D01*
X151416167Y-135598550D01*
X151395950Y-135597225D01*
X150972482Y-135600069D01*
X150940794Y-135598168D01*
X150930108Y-135600354D01*
X150918431Y-135600433D01*
X150881925Y-135610214D01*
X150844887Y-135617794D01*
X150829533Y-135624252D01*
X150823872Y-135625770D01*
X150818351Y-135628957D01*
X150799673Y-135636815D01*
X150471614Y-135804431D01*
X150398369Y-135869381D01*
X150344429Y-135951075D01*
X150313472Y-136043946D01*
X150307607Y-136141666D01*
X150327233Y-136237573D01*
X150371013Y-136325132D01*
X150435963Y-136398377D01*
X150517657Y-136452317D01*
X150610528Y-136483274D01*
X150708248Y-136489139D01*
X150804155Y-136469513D01*
X150849369Y-136450492D01*
X151052604Y-136346652D01*
X151304548Y-136344959D01*
X151402501Y-136392874D01*
X151442518Y-136471197D01*
X151403871Y-136550205D01*
X151310723Y-136597797D01*
X150972482Y-136600069D01*
X150940794Y-136598168D01*
X150930108Y-136600354D01*
X150918431Y-136600433D01*
X150881925Y-136610214D01*
X150844887Y-136617794D01*
X150829533Y-136624252D01*
X150823872Y-136625770D01*
X150818351Y-136628957D01*
X150799673Y-136636815D01*
X150534881Y-136772105D01*
X150517657Y-136777847D01*
X150497172Y-136791372D01*
X150471614Y-136804431D01*
X150454761Y-136819374D01*
X150435963Y-136831787D01*
X150418294Y-136851712D01*
X150398369Y-136869381D01*
X150385956Y-136888179D01*
X150371013Y-136905032D01*
X150346254Y-136947377D01*
X150344491Y-136950981D01*
X150344429Y-136951075D01*
X150344394Y-136951178D01*
X150207435Y-137231163D01*
X150192352Y-137257290D01*
X150189561Y-137267704D01*
X150184376Y-137278305D01*
X150176796Y-137315343D01*
X150167015Y-137351849D01*
X150165925Y-137368465D01*
X150164750Y-137374212D01*
X150165132Y-137380578D01*
X150163807Y-137400796D01*
X149627198Y-137400796D01*
X149624885Y-135923278D01*
X149599548Y-135828719D01*
X149550601Y-135743939D01*
X149481379Y-135674717D01*
X149396599Y-135625770D01*
X149356711Y-135615082D01*
X149396600Y-135604394D01*
X149427630Y-135586477D01*
X149481379Y-135555447D01*
X149481387Y-135555438D01*
X149518258Y-135523104D01*
X149693457Y-135343368D01*
X149742405Y-135258589D01*
X149767742Y-135164030D01*
X149767742Y-135066135D01*
X149767053Y-135063561D01*
X149742405Y-134971575D01*
X149693457Y-134886796D01*
X149661115Y-134849917D01*
X149481418Y-134674756D01*
X149481379Y-134674717D01*
X149427630Y-134643686D01*
X149396600Y-134625770D01*
X149302040Y-134600432D01*
X149204146Y-134600432D01*
X149109586Y-134625770D01*
X149078555Y-134643686D01*
X149024807Y-134674717D01*
X149024798Y-134674725D01*
X148987928Y-134707060D01*
X148812729Y-134886796D01*
X148763781Y-134971575D01*
X148738443Y-135066135D01*
X138910749Y-135066135D01*
X138910599Y-134923278D01*
X138885262Y-134828719D01*
X138836315Y-134743939D01*
X138767093Y-134674717D01*
X138682313Y-134625770D01*
X138587754Y-134600433D01*
X138489860Y-134600433D01*
X138395301Y-134625770D01*
X138310521Y-134674717D01*
X138241299Y-134743939D01*
X138192352Y-134828719D01*
X138167015Y-134923278D01*
X138163807Y-134972225D01*
X135196364Y-134972225D01*
X135196313Y-134923278D01*
X135170976Y-134828719D01*
X135122029Y-134743939D01*
X135052807Y-134674717D01*
X134968027Y-134625770D01*
X134873468Y-134600433D01*
X134775574Y-134600433D01*
X134681015Y-134625770D01*
X134596235Y-134674717D01*
X134527013Y-134743939D01*
X134478066Y-134828719D01*
X134452729Y-134923278D01*
X134449521Y-134972225D01*
X134450179Y-135597683D01*
X133973764Y-135600146D01*
X133940794Y-135598168D01*
X133930018Y-135600373D01*
X133918431Y-135600433D01*
X133881925Y-135610214D01*
X133844887Y-135617794D01*
X133829533Y-135624252D01*
X133823872Y-135625770D01*
X133818351Y-135628957D01*
X133799673Y-135636815D01*
X133545585Y-135766636D01*
X133538157Y-135768627D01*
X133510984Y-135784315D01*
X133471614Y-135804431D01*
X133463161Y-135811926D01*
X133453378Y-135817575D01*
X133416499Y-135849917D01*
X133298195Y-135971284D01*
X133293107Y-135974644D01*
X133274832Y-135995252D01*
X133241300Y-136029653D01*
X133235651Y-136039436D01*
X133228156Y-136047889D01*
X133203397Y-136090233D01*
X133064581Y-136374014D01*
X133049494Y-136400147D01*
X133046702Y-136410563D01*
X133041519Y-136421161D01*
X133033940Y-136458194D01*
X133024157Y-136494706D01*
X133023068Y-136511321D01*
X133021892Y-136517068D01*
X133022274Y-136523434D01*
X133020949Y-136543653D01*
X132587479Y-136543653D01*
X132762544Y-136051177D01*
X132770486Y-135953605D01*
X132752906Y-135857302D01*
X132710998Y-135768830D01*
X132647620Y-135694220D01*
X132567092Y-135638556D01*
X132474901Y-135605630D01*
X132377329Y-135597688D01*
X132281025Y-135615269D01*
X132192554Y-135657176D01*
X132117944Y-135720554D01*
X132062280Y-135801083D01*
X132042796Y-135846099D01*
X131681688Y-136861930D01*
X131301048Y-135801082D01*
X131245383Y-135720554D01*
X131170773Y-135657176D01*
X131082302Y-135615268D01*
X130985998Y-135597688D01*
X130888426Y-135605630D01*
X130796235Y-135638555D01*
X130715707Y-135694220D01*
X130652329Y-135768830D01*
X130610421Y-135857301D01*
X130592841Y-135953605D01*
X114360235Y-135953605D01*
X114360235Y-134222225D01*
X158003093Y-134222225D01*
X158003093Y-143552057D01*
G37*
D11*
X116035655Y-96878966D02*
X116458989Y-97175299D01*
X116035655Y-97386966D02*
X116924655Y-97386966D01*
X116924655Y-97386966D02*
X116924655Y-97048299D01*
X116924655Y-97048299D02*
X116882322Y-96963633D01*
X116882322Y-96963633D02*
X116839989Y-96921299D01*
X116839989Y-96921299D02*
X116755322Y-96878966D01*
X116755322Y-96878966D02*
X116628322Y-96878966D01*
X116628322Y-96878966D02*
X116543655Y-96921299D01*
X116543655Y-96921299D02*
X116501322Y-96963633D01*
X116501322Y-96963633D02*
X116458989Y-97048299D01*
X116458989Y-97048299D02*
X116458989Y-97386966D01*
X116543655Y-96370966D02*
X116585989Y-96455633D01*
X116585989Y-96455633D02*
X116628322Y-96497966D01*
X116628322Y-96497966D02*
X116712989Y-96540299D01*
X116712989Y-96540299D02*
X116755322Y-96540299D01*
X116755322Y-96540299D02*
X116839989Y-96497966D01*
X116839989Y-96497966D02*
X116882322Y-96455633D01*
X116882322Y-96455633D02*
X116924655Y-96370966D01*
X116924655Y-96370966D02*
X116924655Y-96201633D01*
X116924655Y-96201633D02*
X116882322Y-96116966D01*
X116882322Y-96116966D02*
X116839989Y-96074633D01*
X116839989Y-96074633D02*
X116755322Y-96032299D01*
X116755322Y-96032299D02*
X116712989Y-96032299D01*
X116712989Y-96032299D02*
X116628322Y-96074633D01*
X116628322Y-96074633D02*
X116585989Y-96116966D01*
X116585989Y-96116966D02*
X116543655Y-96201633D01*
X116543655Y-96201633D02*
X116543655Y-96370966D01*
X116543655Y-96370966D02*
X116501322Y-96455633D01*
X116501322Y-96455633D02*
X116458989Y-96497966D01*
X116458989Y-96497966D02*
X116374322Y-96540299D01*
X116374322Y-96540299D02*
X116204989Y-96540299D01*
X116204989Y-96540299D02*
X116120322Y-96497966D01*
X116120322Y-96497966D02*
X116077989Y-96455633D01*
X116077989Y-96455633D02*
X116035655Y-96370966D01*
X116035655Y-96370966D02*
X116035655Y-96201633D01*
X116035655Y-96201633D02*
X116077989Y-96116966D01*
X116077989Y-96116966D02*
X116120322Y-96074633D01*
X116120322Y-96074633D02*
X116204989Y-96032299D01*
X116204989Y-96032299D02*
X116374322Y-96032299D01*
X116374322Y-96032299D02*
X116458989Y-96074633D01*
X116458989Y-96074633D02*
X116501322Y-96116966D01*
X116501322Y-96116966D02*
X116543655Y-96201633D01*
X139906100Y-110329077D02*
X139948433Y-110371411D01*
X139948433Y-110371411D02*
X140075433Y-110413744D01*
X140075433Y-110413744D02*
X140160100Y-110413744D01*
X140160100Y-110413744D02*
X140287100Y-110371411D01*
X140287100Y-110371411D02*
X140371767Y-110286744D01*
X140371767Y-110286744D02*
X140414100Y-110202077D01*
X140414100Y-110202077D02*
X140456433Y-110032744D01*
X140456433Y-110032744D02*
X140456433Y-109905744D01*
X140456433Y-109905744D02*
X140414100Y-109736411D01*
X140414100Y-109736411D02*
X140371767Y-109651744D01*
X140371767Y-109651744D02*
X140287100Y-109567077D01*
X140287100Y-109567077D02*
X140160100Y-109524744D01*
X140160100Y-109524744D02*
X140075433Y-109524744D01*
X140075433Y-109524744D02*
X139948433Y-109567077D01*
X139948433Y-109567077D02*
X139906100Y-109609411D01*
X139144100Y-109821077D02*
X139144100Y-110413744D01*
X139355767Y-109482411D02*
X139567433Y-110117411D01*
X139567433Y-110117411D02*
X139017100Y-110117411D01*
X138509100Y-109524744D02*
X138424433Y-109524744D01*
X138424433Y-109524744D02*
X138339766Y-109567077D01*
X138339766Y-109567077D02*
X138297433Y-109609411D01*
X138297433Y-109609411D02*
X138255100Y-109694077D01*
X138255100Y-109694077D02*
X138212766Y-109863411D01*
X138212766Y-109863411D02*
X138212766Y-110075077D01*
X138212766Y-110075077D02*
X138255100Y-110244411D01*
X138255100Y-110244411D02*
X138297433Y-110329077D01*
X138297433Y-110329077D02*
X138339766Y-110371411D01*
X138339766Y-110371411D02*
X138424433Y-110413744D01*
X138424433Y-110413744D02*
X138509100Y-110413744D01*
X138509100Y-110413744D02*
X138593766Y-110371411D01*
X138593766Y-110371411D02*
X138636100Y-110329077D01*
X138636100Y-110329077D02*
X138678433Y-110244411D01*
X138678433Y-110244411D02*
X138720766Y-110075077D01*
X138720766Y-110075077D02*
X138720766Y-109863411D01*
X138720766Y-109863411D02*
X138678433Y-109694077D01*
X138678433Y-109694077D02*
X138636100Y-109609411D01*
X138636100Y-109609411D02*
X138593766Y-109567077D01*
X138593766Y-109567077D02*
X138509100Y-109524744D01*
X153698300Y-110024277D02*
X153740633Y-110066611D01*
X153740633Y-110066611D02*
X153867633Y-110108944D01*
X153867633Y-110108944D02*
X153952300Y-110108944D01*
X153952300Y-110108944D02*
X154079300Y-110066611D01*
X154079300Y-110066611D02*
X154163967Y-109981944D01*
X154163967Y-109981944D02*
X154206300Y-109897277D01*
X154206300Y-109897277D02*
X154248633Y-109727944D01*
X154248633Y-109727944D02*
X154248633Y-109600944D01*
X154248633Y-109600944D02*
X154206300Y-109431611D01*
X154206300Y-109431611D02*
X154163967Y-109346944D01*
X154163967Y-109346944D02*
X154079300Y-109262277D01*
X154079300Y-109262277D02*
X153952300Y-109219944D01*
X153952300Y-109219944D02*
X153867633Y-109219944D01*
X153867633Y-109219944D02*
X153740633Y-109262277D01*
X153740633Y-109262277D02*
X153698300Y-109304611D01*
X152893967Y-109219944D02*
X153317300Y-109219944D01*
X153317300Y-109219944D02*
X153359633Y-109643277D01*
X153359633Y-109643277D02*
X153317300Y-109600944D01*
X153317300Y-109600944D02*
X153232633Y-109558611D01*
X153232633Y-109558611D02*
X153020967Y-109558611D01*
X153020967Y-109558611D02*
X152936300Y-109600944D01*
X152936300Y-109600944D02*
X152893967Y-109643277D01*
X152893967Y-109643277D02*
X152851633Y-109727944D01*
X152851633Y-109727944D02*
X152851633Y-109939611D01*
X152851633Y-109939611D02*
X152893967Y-110024277D01*
X152893967Y-110024277D02*
X152936300Y-110066611D01*
X152936300Y-110066611D02*
X153020967Y-110108944D01*
X153020967Y-110108944D02*
X153232633Y-110108944D01*
X153232633Y-110108944D02*
X153317300Y-110066611D01*
X153317300Y-110066611D02*
X153359633Y-110024277D01*
X152512966Y-109304611D02*
X152470633Y-109262277D01*
X152470633Y-109262277D02*
X152385966Y-109219944D01*
X152385966Y-109219944D02*
X152174300Y-109219944D01*
X152174300Y-109219944D02*
X152089633Y-109262277D01*
X152089633Y-109262277D02*
X152047300Y-109304611D01*
X152047300Y-109304611D02*
X152004966Y-109389277D01*
X152004966Y-109389277D02*
X152004966Y-109473944D01*
X152004966Y-109473944D02*
X152047300Y-109600944D01*
X152047300Y-109600944D02*
X152555300Y-110108944D01*
X152555300Y-110108944D02*
X152004966Y-110108944D01*
X158297544Y-103377833D02*
X157408544Y-103377833D01*
X157408544Y-103377833D02*
X157408544Y-103589500D01*
X157408544Y-103589500D02*
X157450877Y-103716500D01*
X157450877Y-103716500D02*
X157535544Y-103801167D01*
X157535544Y-103801167D02*
X157620211Y-103843500D01*
X157620211Y-103843500D02*
X157789544Y-103885833D01*
X157789544Y-103885833D02*
X157916544Y-103885833D01*
X157916544Y-103885833D02*
X158085877Y-103843500D01*
X158085877Y-103843500D02*
X158170544Y-103801167D01*
X158170544Y-103801167D02*
X158255211Y-103716500D01*
X158255211Y-103716500D02*
X158297544Y-103589500D01*
X158297544Y-103589500D02*
X158297544Y-103377833D01*
X157408544Y-104647833D02*
X157408544Y-104478500D01*
X157408544Y-104478500D02*
X157450877Y-104393833D01*
X157450877Y-104393833D02*
X157493211Y-104351500D01*
X157493211Y-104351500D02*
X157620211Y-104266833D01*
X157620211Y-104266833D02*
X157789544Y-104224500D01*
X157789544Y-104224500D02*
X158128211Y-104224500D01*
X158128211Y-104224500D02*
X158212877Y-104266833D01*
X158212877Y-104266833D02*
X158255211Y-104309167D01*
X158255211Y-104309167D02*
X158297544Y-104393833D01*
X158297544Y-104393833D02*
X158297544Y-104563167D01*
X158297544Y-104563167D02*
X158255211Y-104647833D01*
X158255211Y-104647833D02*
X158212877Y-104690167D01*
X158212877Y-104690167D02*
X158128211Y-104732500D01*
X158128211Y-104732500D02*
X157916544Y-104732500D01*
X157916544Y-104732500D02*
X157831877Y-104690167D01*
X157831877Y-104690167D02*
X157789544Y-104647833D01*
X157789544Y-104647833D02*
X157747211Y-104563167D01*
X157747211Y-104563167D02*
X157747211Y-104393833D01*
X157747211Y-104393833D02*
X157789544Y-104309167D01*
X157789544Y-104309167D02*
X157831877Y-104266833D01*
X157831877Y-104266833D02*
X157916544Y-104224500D01*
X153723700Y-108601877D02*
X153766033Y-108644211D01*
X153766033Y-108644211D02*
X153893033Y-108686544D01*
X153893033Y-108686544D02*
X153977700Y-108686544D01*
X153977700Y-108686544D02*
X154104700Y-108644211D01*
X154104700Y-108644211D02*
X154189367Y-108559544D01*
X154189367Y-108559544D02*
X154231700Y-108474877D01*
X154231700Y-108474877D02*
X154274033Y-108305544D01*
X154274033Y-108305544D02*
X154274033Y-108178544D01*
X154274033Y-108178544D02*
X154231700Y-108009211D01*
X154231700Y-108009211D02*
X154189367Y-107924544D01*
X154189367Y-107924544D02*
X154104700Y-107839877D01*
X154104700Y-107839877D02*
X153977700Y-107797544D01*
X153977700Y-107797544D02*
X153893033Y-107797544D01*
X153893033Y-107797544D02*
X153766033Y-107839877D01*
X153766033Y-107839877D02*
X153723700Y-107882211D01*
X152919367Y-107797544D02*
X153342700Y-107797544D01*
X153342700Y-107797544D02*
X153385033Y-108220877D01*
X153385033Y-108220877D02*
X153342700Y-108178544D01*
X153342700Y-108178544D02*
X153258033Y-108136211D01*
X153258033Y-108136211D02*
X153046367Y-108136211D01*
X153046367Y-108136211D02*
X152961700Y-108178544D01*
X152961700Y-108178544D02*
X152919367Y-108220877D01*
X152919367Y-108220877D02*
X152877033Y-108305544D01*
X152877033Y-108305544D02*
X152877033Y-108517211D01*
X152877033Y-108517211D02*
X152919367Y-108601877D01*
X152919367Y-108601877D02*
X152961700Y-108644211D01*
X152961700Y-108644211D02*
X153046367Y-108686544D01*
X153046367Y-108686544D02*
X153258033Y-108686544D01*
X153258033Y-108686544D02*
X153342700Y-108644211D01*
X153342700Y-108644211D02*
X153385033Y-108601877D01*
X152072700Y-107797544D02*
X152496033Y-107797544D01*
X152496033Y-107797544D02*
X152538366Y-108220877D01*
X152538366Y-108220877D02*
X152496033Y-108178544D01*
X152496033Y-108178544D02*
X152411366Y-108136211D01*
X152411366Y-108136211D02*
X152199700Y-108136211D01*
X152199700Y-108136211D02*
X152115033Y-108178544D01*
X152115033Y-108178544D02*
X152072700Y-108220877D01*
X152072700Y-108220877D02*
X152030366Y-108305544D01*
X152030366Y-108305544D02*
X152030366Y-108517211D01*
X152030366Y-108517211D02*
X152072700Y-108601877D01*
X152072700Y-108601877D02*
X152115033Y-108644211D01*
X152115033Y-108644211D02*
X152199700Y-108686544D01*
X152199700Y-108686544D02*
X152411366Y-108686544D01*
X152411366Y-108686544D02*
X152496033Y-108644211D01*
X152496033Y-108644211D02*
X152538366Y-108601877D01*
X169701477Y-94630699D02*
X169743811Y-94588366D01*
X169743811Y-94588366D02*
X169786144Y-94461366D01*
X169786144Y-94461366D02*
X169786144Y-94376699D01*
X169786144Y-94376699D02*
X169743811Y-94249699D01*
X169743811Y-94249699D02*
X169659144Y-94165033D01*
X169659144Y-94165033D02*
X169574477Y-94122699D01*
X169574477Y-94122699D02*
X169405144Y-94080366D01*
X169405144Y-94080366D02*
X169278144Y-94080366D01*
X169278144Y-94080366D02*
X169108811Y-94122699D01*
X169108811Y-94122699D02*
X169024144Y-94165033D01*
X169024144Y-94165033D02*
X168939477Y-94249699D01*
X168939477Y-94249699D02*
X168897144Y-94376699D01*
X168897144Y-94376699D02*
X168897144Y-94461366D01*
X168897144Y-94461366D02*
X168939477Y-94588366D01*
X168939477Y-94588366D02*
X168981811Y-94630699D01*
X169786144Y-95477366D02*
X169786144Y-94969366D01*
X169786144Y-95223366D02*
X168897144Y-95223366D01*
X168897144Y-95223366D02*
X169024144Y-95138699D01*
X169024144Y-95138699D02*
X169108811Y-95054033D01*
X169108811Y-95054033D02*
X169151144Y-94969366D01*
X168897144Y-96281700D02*
X168897144Y-95858366D01*
X168897144Y-95858366D02*
X169320477Y-95816033D01*
X169320477Y-95816033D02*
X169278144Y-95858366D01*
X169278144Y-95858366D02*
X169235811Y-95943033D01*
X169235811Y-95943033D02*
X169235811Y-96154700D01*
X169235811Y-96154700D02*
X169278144Y-96239366D01*
X169278144Y-96239366D02*
X169320477Y-96281700D01*
X169320477Y-96281700D02*
X169405144Y-96324033D01*
X169405144Y-96324033D02*
X169616811Y-96324033D01*
X169616811Y-96324033D02*
X169701477Y-96281700D01*
X169701477Y-96281700D02*
X169743811Y-96239366D01*
X169743811Y-96239366D02*
X169786144Y-96154700D01*
X169786144Y-96154700D02*
X169786144Y-95943033D01*
X169786144Y-95943033D02*
X169743811Y-95858366D01*
X169743811Y-95858366D02*
X169701477Y-95816033D01*
X144613566Y-89255544D02*
X144909899Y-88832211D01*
X145121566Y-89255544D02*
X145121566Y-88366544D01*
X145121566Y-88366544D02*
X144782899Y-88366544D01*
X144782899Y-88366544D02*
X144698233Y-88408877D01*
X144698233Y-88408877D02*
X144655899Y-88451211D01*
X144655899Y-88451211D02*
X144613566Y-88535877D01*
X144613566Y-88535877D02*
X144613566Y-88662877D01*
X144613566Y-88662877D02*
X144655899Y-88747544D01*
X144655899Y-88747544D02*
X144698233Y-88789877D01*
X144698233Y-88789877D02*
X144782899Y-88832211D01*
X144782899Y-88832211D02*
X145121566Y-88832211D01*
X143809233Y-88366544D02*
X144232566Y-88366544D01*
X144232566Y-88366544D02*
X144274899Y-88789877D01*
X144274899Y-88789877D02*
X144232566Y-88747544D01*
X144232566Y-88747544D02*
X144147899Y-88705211D01*
X144147899Y-88705211D02*
X143936233Y-88705211D01*
X143936233Y-88705211D02*
X143851566Y-88747544D01*
X143851566Y-88747544D02*
X143809233Y-88789877D01*
X143809233Y-88789877D02*
X143766899Y-88874544D01*
X143766899Y-88874544D02*
X143766899Y-89086211D01*
X143766899Y-89086211D02*
X143809233Y-89170877D01*
X143809233Y-89170877D02*
X143851566Y-89213211D01*
X143851566Y-89213211D02*
X143936233Y-89255544D01*
X143936233Y-89255544D02*
X144147899Y-89255544D01*
X144147899Y-89255544D02*
X144232566Y-89213211D01*
X144232566Y-89213211D02*
X144274899Y-89170877D01*
X160353100Y-109626344D02*
X160649433Y-109203011D01*
X160861100Y-109626344D02*
X160861100Y-108737344D01*
X160861100Y-108737344D02*
X160522433Y-108737344D01*
X160522433Y-108737344D02*
X160437767Y-108779677D01*
X160437767Y-108779677D02*
X160395433Y-108822011D01*
X160395433Y-108822011D02*
X160353100Y-108906677D01*
X160353100Y-108906677D02*
X160353100Y-109033677D01*
X160353100Y-109033677D02*
X160395433Y-109118344D01*
X160395433Y-109118344D02*
X160437767Y-109160677D01*
X160437767Y-109160677D02*
X160522433Y-109203011D01*
X160522433Y-109203011D02*
X160861100Y-109203011D01*
X160056767Y-108737344D02*
X159506433Y-108737344D01*
X159506433Y-108737344D02*
X159802767Y-109076011D01*
X159802767Y-109076011D02*
X159675767Y-109076011D01*
X159675767Y-109076011D02*
X159591100Y-109118344D01*
X159591100Y-109118344D02*
X159548767Y-109160677D01*
X159548767Y-109160677D02*
X159506433Y-109245344D01*
X159506433Y-109245344D02*
X159506433Y-109457011D01*
X159506433Y-109457011D02*
X159548767Y-109541677D01*
X159548767Y-109541677D02*
X159591100Y-109584011D01*
X159591100Y-109584011D02*
X159675767Y-109626344D01*
X159675767Y-109626344D02*
X159929767Y-109626344D01*
X159929767Y-109626344D02*
X160014433Y-109584011D01*
X160014433Y-109584011D02*
X160056767Y-109541677D01*
X158744433Y-109033677D02*
X158744433Y-109626344D01*
X158956100Y-108695011D02*
X159167766Y-109330011D01*
X159167766Y-109330011D02*
X158617433Y-109330011D01*
X141167633Y-98617322D02*
X141125300Y-98574989D01*
X141125300Y-98574989D02*
X140998300Y-98532655D01*
X140998300Y-98532655D02*
X140913633Y-98532655D01*
X140913633Y-98532655D02*
X140786633Y-98574989D01*
X140786633Y-98574989D02*
X140701967Y-98659655D01*
X140701967Y-98659655D02*
X140659633Y-98744322D01*
X140659633Y-98744322D02*
X140617300Y-98913655D01*
X140617300Y-98913655D02*
X140617300Y-99040655D01*
X140617300Y-99040655D02*
X140659633Y-99209989D01*
X140659633Y-99209989D02*
X140701967Y-99294655D01*
X140701967Y-99294655D02*
X140786633Y-99379322D01*
X140786633Y-99379322D02*
X140913633Y-99421655D01*
X140913633Y-99421655D02*
X140998300Y-99421655D01*
X140998300Y-99421655D02*
X141125300Y-99379322D01*
X141125300Y-99379322D02*
X141167633Y-99336989D01*
X141590967Y-98532655D02*
X141760300Y-98532655D01*
X141760300Y-98532655D02*
X141844967Y-98574989D01*
X141844967Y-98574989D02*
X141887300Y-98617322D01*
X141887300Y-98617322D02*
X141971967Y-98744322D01*
X141971967Y-98744322D02*
X142014300Y-98913655D01*
X142014300Y-98913655D02*
X142014300Y-99252322D01*
X142014300Y-99252322D02*
X141971967Y-99336989D01*
X141971967Y-99336989D02*
X141929633Y-99379322D01*
X141929633Y-99379322D02*
X141844967Y-99421655D01*
X141844967Y-99421655D02*
X141675633Y-99421655D01*
X141675633Y-99421655D02*
X141590967Y-99379322D01*
X141590967Y-99379322D02*
X141548633Y-99336989D01*
X141548633Y-99336989D02*
X141506300Y-99252322D01*
X141506300Y-99252322D02*
X141506300Y-99040655D01*
X141506300Y-99040655D02*
X141548633Y-98955989D01*
X141548633Y-98955989D02*
X141590967Y-98913655D01*
X141590967Y-98913655D02*
X141675633Y-98871322D01*
X141675633Y-98871322D02*
X141844967Y-98871322D01*
X141844967Y-98871322D02*
X141929633Y-98913655D01*
X141929633Y-98913655D02*
X141971967Y-98955989D01*
X141971967Y-98955989D02*
X142014300Y-99040655D01*
X162995877Y-90134899D02*
X163038211Y-90092566D01*
X163038211Y-90092566D02*
X163080544Y-89965566D01*
X163080544Y-89965566D02*
X163080544Y-89880899D01*
X163080544Y-89880899D02*
X163038211Y-89753899D01*
X163038211Y-89753899D02*
X162953544Y-89669233D01*
X162953544Y-89669233D02*
X162868877Y-89626899D01*
X162868877Y-89626899D02*
X162699544Y-89584566D01*
X162699544Y-89584566D02*
X162572544Y-89584566D01*
X162572544Y-89584566D02*
X162403211Y-89626899D01*
X162403211Y-89626899D02*
X162318544Y-89669233D01*
X162318544Y-89669233D02*
X162233877Y-89753899D01*
X162233877Y-89753899D02*
X162191544Y-89880899D01*
X162191544Y-89880899D02*
X162191544Y-89965566D01*
X162191544Y-89965566D02*
X162233877Y-90092566D01*
X162233877Y-90092566D02*
X162276211Y-90134899D01*
X163080544Y-90981566D02*
X163080544Y-90473566D01*
X163080544Y-90727566D02*
X162191544Y-90727566D01*
X162191544Y-90727566D02*
X162318544Y-90642899D01*
X162318544Y-90642899D02*
X162403211Y-90558233D01*
X162403211Y-90558233D02*
X162445544Y-90473566D01*
X163080544Y-91828233D02*
X163080544Y-91320233D01*
X163080544Y-91574233D02*
X162191544Y-91574233D01*
X162191544Y-91574233D02*
X162318544Y-91489566D01*
X162318544Y-91489566D02*
X162403211Y-91404900D01*
X162403211Y-91404900D02*
X162445544Y-91320233D01*
X158279944Y-111394699D02*
X157856611Y-111098366D01*
X158279944Y-110886699D02*
X157390944Y-110886699D01*
X157390944Y-110886699D02*
X157390944Y-111225366D01*
X157390944Y-111225366D02*
X157433277Y-111310033D01*
X157433277Y-111310033D02*
X157475611Y-111352366D01*
X157475611Y-111352366D02*
X157560277Y-111394699D01*
X157560277Y-111394699D02*
X157687277Y-111394699D01*
X157687277Y-111394699D02*
X157771944Y-111352366D01*
X157771944Y-111352366D02*
X157814277Y-111310033D01*
X157814277Y-111310033D02*
X157856611Y-111225366D01*
X157856611Y-111225366D02*
X157856611Y-110886699D01*
X157390944Y-111691033D02*
X157390944Y-112241366D01*
X157390944Y-112241366D02*
X157729611Y-111945033D01*
X157729611Y-111945033D02*
X157729611Y-112072033D01*
X157729611Y-112072033D02*
X157771944Y-112156699D01*
X157771944Y-112156699D02*
X157814277Y-112199033D01*
X157814277Y-112199033D02*
X157898944Y-112241366D01*
X157898944Y-112241366D02*
X158110611Y-112241366D01*
X158110611Y-112241366D02*
X158195277Y-112199033D01*
X158195277Y-112199033D02*
X158237611Y-112156699D01*
X158237611Y-112156699D02*
X158279944Y-112072033D01*
X158279944Y-112072033D02*
X158279944Y-111818033D01*
X158279944Y-111818033D02*
X158237611Y-111733366D01*
X158237611Y-111733366D02*
X158195277Y-111691033D01*
X157390944Y-112537700D02*
X157390944Y-113088033D01*
X157390944Y-113088033D02*
X157729611Y-112791700D01*
X157729611Y-112791700D02*
X157729611Y-112918700D01*
X157729611Y-112918700D02*
X157771944Y-113003366D01*
X157771944Y-113003366D02*
X157814277Y-113045700D01*
X157814277Y-113045700D02*
X157898944Y-113088033D01*
X157898944Y-113088033D02*
X158110611Y-113088033D01*
X158110611Y-113088033D02*
X158195277Y-113045700D01*
X158195277Y-113045700D02*
X158237611Y-113003366D01*
X158237611Y-113003366D02*
X158279944Y-112918700D01*
X158279944Y-112918700D02*
X158279944Y-112664700D01*
X158279944Y-112664700D02*
X158237611Y-112580033D01*
X158237611Y-112580033D02*
X158195277Y-112537700D01*
X140651166Y-89280944D02*
X140947499Y-88857611D01*
X141159166Y-89280944D02*
X141159166Y-88391944D01*
X141159166Y-88391944D02*
X140820499Y-88391944D01*
X140820499Y-88391944D02*
X140735833Y-88434277D01*
X140735833Y-88434277D02*
X140693499Y-88476611D01*
X140693499Y-88476611D02*
X140651166Y-88561277D01*
X140651166Y-88561277D02*
X140651166Y-88688277D01*
X140651166Y-88688277D02*
X140693499Y-88772944D01*
X140693499Y-88772944D02*
X140735833Y-88815277D01*
X140735833Y-88815277D02*
X140820499Y-88857611D01*
X140820499Y-88857611D02*
X141159166Y-88857611D01*
X139889166Y-88391944D02*
X140058499Y-88391944D01*
X140058499Y-88391944D02*
X140143166Y-88434277D01*
X140143166Y-88434277D02*
X140185499Y-88476611D01*
X140185499Y-88476611D02*
X140270166Y-88603611D01*
X140270166Y-88603611D02*
X140312499Y-88772944D01*
X140312499Y-88772944D02*
X140312499Y-89111611D01*
X140312499Y-89111611D02*
X140270166Y-89196277D01*
X140270166Y-89196277D02*
X140227833Y-89238611D01*
X140227833Y-89238611D02*
X140143166Y-89280944D01*
X140143166Y-89280944D02*
X139973833Y-89280944D01*
X139973833Y-89280944D02*
X139889166Y-89238611D01*
X139889166Y-89238611D02*
X139846833Y-89196277D01*
X139846833Y-89196277D02*
X139804499Y-89111611D01*
X139804499Y-89111611D02*
X139804499Y-88899944D01*
X139804499Y-88899944D02*
X139846833Y-88815277D01*
X139846833Y-88815277D02*
X139889166Y-88772944D01*
X139889166Y-88772944D02*
X139973833Y-88730611D01*
X139973833Y-88730611D02*
X140143166Y-88730611D01*
X140143166Y-88730611D02*
X140227833Y-88772944D01*
X140227833Y-88772944D02*
X140270166Y-88815277D01*
X140270166Y-88815277D02*
X140312499Y-88899944D01*
X160378500Y-116509744D02*
X160674833Y-116086411D01*
X160886500Y-116509744D02*
X160886500Y-115620744D01*
X160886500Y-115620744D02*
X160547833Y-115620744D01*
X160547833Y-115620744D02*
X160463167Y-115663077D01*
X160463167Y-115663077D02*
X160420833Y-115705411D01*
X160420833Y-115705411D02*
X160378500Y-115790077D01*
X160378500Y-115790077D02*
X160378500Y-115917077D01*
X160378500Y-115917077D02*
X160420833Y-116001744D01*
X160420833Y-116001744D02*
X160463167Y-116044077D01*
X160463167Y-116044077D02*
X160547833Y-116086411D01*
X160547833Y-116086411D02*
X160886500Y-116086411D01*
X160082167Y-115620744D02*
X159531833Y-115620744D01*
X159531833Y-115620744D02*
X159828167Y-115959411D01*
X159828167Y-115959411D02*
X159701167Y-115959411D01*
X159701167Y-115959411D02*
X159616500Y-116001744D01*
X159616500Y-116001744D02*
X159574167Y-116044077D01*
X159574167Y-116044077D02*
X159531833Y-116128744D01*
X159531833Y-116128744D02*
X159531833Y-116340411D01*
X159531833Y-116340411D02*
X159574167Y-116425077D01*
X159574167Y-116425077D02*
X159616500Y-116467411D01*
X159616500Y-116467411D02*
X159701167Y-116509744D01*
X159701167Y-116509744D02*
X159955167Y-116509744D01*
X159955167Y-116509744D02*
X160039833Y-116467411D01*
X160039833Y-116467411D02*
X160082167Y-116425077D01*
X158769833Y-115620744D02*
X158939166Y-115620744D01*
X158939166Y-115620744D02*
X159023833Y-115663077D01*
X159023833Y-115663077D02*
X159066166Y-115705411D01*
X159066166Y-115705411D02*
X159150833Y-115832411D01*
X159150833Y-115832411D02*
X159193166Y-116001744D01*
X159193166Y-116001744D02*
X159193166Y-116340411D01*
X159193166Y-116340411D02*
X159150833Y-116425077D01*
X159150833Y-116425077D02*
X159108500Y-116467411D01*
X159108500Y-116467411D02*
X159023833Y-116509744D01*
X159023833Y-116509744D02*
X158854500Y-116509744D01*
X158854500Y-116509744D02*
X158769833Y-116467411D01*
X158769833Y-116467411D02*
X158727500Y-116425077D01*
X158727500Y-116425077D02*
X158685166Y-116340411D01*
X158685166Y-116340411D02*
X158685166Y-116128744D01*
X158685166Y-116128744D02*
X158727500Y-116044077D01*
X158727500Y-116044077D02*
X158769833Y-116001744D01*
X158769833Y-116001744D02*
X158854500Y-115959411D01*
X158854500Y-115959411D02*
X159023833Y-115959411D01*
X159023833Y-115959411D02*
X159108500Y-116001744D01*
X159108500Y-116001744D02*
X159150833Y-116044077D01*
X159150833Y-116044077D02*
X159193166Y-116128744D01*
X162166144Y-109540499D02*
X161742811Y-109244166D01*
X162166144Y-109032499D02*
X161277144Y-109032499D01*
X161277144Y-109032499D02*
X161277144Y-109371166D01*
X161277144Y-109371166D02*
X161319477Y-109455833D01*
X161319477Y-109455833D02*
X161361811Y-109498166D01*
X161361811Y-109498166D02*
X161446477Y-109540499D01*
X161446477Y-109540499D02*
X161573477Y-109540499D01*
X161573477Y-109540499D02*
X161658144Y-109498166D01*
X161658144Y-109498166D02*
X161700477Y-109455833D01*
X161700477Y-109455833D02*
X161742811Y-109371166D01*
X161742811Y-109371166D02*
X161742811Y-109032499D01*
X161573477Y-110302499D02*
X162166144Y-110302499D01*
X161234811Y-110090833D02*
X161869811Y-109879166D01*
X161869811Y-109879166D02*
X161869811Y-110429499D01*
X161277144Y-110937500D02*
X161277144Y-111022166D01*
X161277144Y-111022166D02*
X161319477Y-111106833D01*
X161319477Y-111106833D02*
X161361811Y-111149166D01*
X161361811Y-111149166D02*
X161446477Y-111191500D01*
X161446477Y-111191500D02*
X161615811Y-111233833D01*
X161615811Y-111233833D02*
X161827477Y-111233833D01*
X161827477Y-111233833D02*
X161996811Y-111191500D01*
X161996811Y-111191500D02*
X162081477Y-111149166D01*
X162081477Y-111149166D02*
X162123811Y-111106833D01*
X162123811Y-111106833D02*
X162166144Y-111022166D01*
X162166144Y-111022166D02*
X162166144Y-110937500D01*
X162166144Y-110937500D02*
X162123811Y-110852833D01*
X162123811Y-110852833D02*
X162081477Y-110810500D01*
X162081477Y-110810500D02*
X161996811Y-110768166D01*
X161996811Y-110768166D02*
X161827477Y-110725833D01*
X161827477Y-110725833D02*
X161615811Y-110725833D01*
X161615811Y-110725833D02*
X161446477Y-110768166D01*
X161446477Y-110768166D02*
X161361811Y-110810500D01*
X161361811Y-110810500D02*
X161319477Y-110852833D01*
X161319477Y-110852833D02*
X161277144Y-110937500D01*
X166072333Y-89865144D02*
X166072333Y-90584811D01*
X166072333Y-90584811D02*
X166030000Y-90669477D01*
X166030000Y-90669477D02*
X165987666Y-90711811D01*
X165987666Y-90711811D02*
X165903000Y-90754144D01*
X165903000Y-90754144D02*
X165733666Y-90754144D01*
X165733666Y-90754144D02*
X165649000Y-90711811D01*
X165649000Y-90711811D02*
X165606666Y-90669477D01*
X165606666Y-90669477D02*
X165564333Y-90584811D01*
X165564333Y-90584811D02*
X165564333Y-89865144D01*
X164675333Y-90754144D02*
X165183333Y-90754144D01*
X164929333Y-90754144D02*
X164929333Y-89865144D01*
X164929333Y-89865144D02*
X165014000Y-89992144D01*
X165014000Y-89992144D02*
X165098667Y-90076811D01*
X165098667Y-90076811D02*
X165183333Y-90119144D01*
X145502566Y-99356277D02*
X145544899Y-99398611D01*
X145544899Y-99398611D02*
X145671899Y-99440944D01*
X145671899Y-99440944D02*
X145756566Y-99440944D01*
X145756566Y-99440944D02*
X145883566Y-99398611D01*
X145883566Y-99398611D02*
X145968233Y-99313944D01*
X145968233Y-99313944D02*
X146010566Y-99229277D01*
X146010566Y-99229277D02*
X146052899Y-99059944D01*
X146052899Y-99059944D02*
X146052899Y-98932944D01*
X146052899Y-98932944D02*
X146010566Y-98763611D01*
X146010566Y-98763611D02*
X145968233Y-98678944D01*
X145968233Y-98678944D02*
X145883566Y-98594277D01*
X145883566Y-98594277D02*
X145756566Y-98551944D01*
X145756566Y-98551944D02*
X145671899Y-98551944D01*
X145671899Y-98551944D02*
X145544899Y-98594277D01*
X145544899Y-98594277D02*
X145502566Y-98636611D01*
X145163899Y-98636611D02*
X145121566Y-98594277D01*
X145121566Y-98594277D02*
X145036899Y-98551944D01*
X145036899Y-98551944D02*
X144825233Y-98551944D01*
X144825233Y-98551944D02*
X144740566Y-98594277D01*
X144740566Y-98594277D02*
X144698233Y-98636611D01*
X144698233Y-98636611D02*
X144655899Y-98721277D01*
X144655899Y-98721277D02*
X144655899Y-98805944D01*
X144655899Y-98805944D02*
X144698233Y-98932944D01*
X144698233Y-98932944D02*
X145206233Y-99440944D01*
X145206233Y-99440944D02*
X144655899Y-99440944D01*
X149388766Y-99381677D02*
X149431099Y-99424011D01*
X149431099Y-99424011D02*
X149558099Y-99466344D01*
X149558099Y-99466344D02*
X149642766Y-99466344D01*
X149642766Y-99466344D02*
X149769766Y-99424011D01*
X149769766Y-99424011D02*
X149854433Y-99339344D01*
X149854433Y-99339344D02*
X149896766Y-99254677D01*
X149896766Y-99254677D02*
X149939099Y-99085344D01*
X149939099Y-99085344D02*
X149939099Y-98958344D01*
X149939099Y-98958344D02*
X149896766Y-98789011D01*
X149896766Y-98789011D02*
X149854433Y-98704344D01*
X149854433Y-98704344D02*
X149769766Y-98619677D01*
X149769766Y-98619677D02*
X149642766Y-98577344D01*
X149642766Y-98577344D02*
X149558099Y-98577344D01*
X149558099Y-98577344D02*
X149431099Y-98619677D01*
X149431099Y-98619677D02*
X149388766Y-98662011D01*
X148626766Y-98873677D02*
X148626766Y-99466344D01*
X148838433Y-98535011D02*
X149050099Y-99170011D01*
X149050099Y-99170011D02*
X148499766Y-99170011D01*
X160184944Y-90913833D02*
X159761611Y-90617500D01*
X160184944Y-90405833D02*
X159295944Y-90405833D01*
X159295944Y-90405833D02*
X159295944Y-90744500D01*
X159295944Y-90744500D02*
X159338277Y-90829167D01*
X159338277Y-90829167D02*
X159380611Y-90871500D01*
X159380611Y-90871500D02*
X159465277Y-90913833D01*
X159465277Y-90913833D02*
X159592277Y-90913833D01*
X159592277Y-90913833D02*
X159676944Y-90871500D01*
X159676944Y-90871500D02*
X159719277Y-90829167D01*
X159719277Y-90829167D02*
X159761611Y-90744500D01*
X159761611Y-90744500D02*
X159761611Y-90405833D01*
X159380611Y-91252500D02*
X159338277Y-91294833D01*
X159338277Y-91294833D02*
X159295944Y-91379500D01*
X159295944Y-91379500D02*
X159295944Y-91591167D01*
X159295944Y-91591167D02*
X159338277Y-91675833D01*
X159338277Y-91675833D02*
X159380611Y-91718167D01*
X159380611Y-91718167D02*
X159465277Y-91760500D01*
X159465277Y-91760500D02*
X159549944Y-91760500D01*
X159549944Y-91760500D02*
X159676944Y-91718167D01*
X159676944Y-91718167D02*
X160184944Y-91210167D01*
X160184944Y-91210167D02*
X160184944Y-91760500D01*
X153274966Y-99381677D02*
X153317299Y-99424011D01*
X153317299Y-99424011D02*
X153444299Y-99466344D01*
X153444299Y-99466344D02*
X153528966Y-99466344D01*
X153528966Y-99466344D02*
X153655966Y-99424011D01*
X153655966Y-99424011D02*
X153740633Y-99339344D01*
X153740633Y-99339344D02*
X153782966Y-99254677D01*
X153782966Y-99254677D02*
X153825299Y-99085344D01*
X153825299Y-99085344D02*
X153825299Y-98958344D01*
X153825299Y-98958344D02*
X153782966Y-98789011D01*
X153782966Y-98789011D02*
X153740633Y-98704344D01*
X153740633Y-98704344D02*
X153655966Y-98619677D01*
X153655966Y-98619677D02*
X153528966Y-98577344D01*
X153528966Y-98577344D02*
X153444299Y-98577344D01*
X153444299Y-98577344D02*
X153317299Y-98619677D01*
X153317299Y-98619677D02*
X153274966Y-98662011D01*
X152470633Y-98577344D02*
X152893966Y-98577344D01*
X152893966Y-98577344D02*
X152936299Y-99000677D01*
X152936299Y-99000677D02*
X152893966Y-98958344D01*
X152893966Y-98958344D02*
X152809299Y-98916011D01*
X152809299Y-98916011D02*
X152597633Y-98916011D01*
X152597633Y-98916011D02*
X152512966Y-98958344D01*
X152512966Y-98958344D02*
X152470633Y-99000677D01*
X152470633Y-99000677D02*
X152428299Y-99085344D01*
X152428299Y-99085344D02*
X152428299Y-99297011D01*
X152428299Y-99297011D02*
X152470633Y-99381677D01*
X152470633Y-99381677D02*
X152512966Y-99424011D01*
X152512966Y-99424011D02*
X152597633Y-99466344D01*
X152597633Y-99466344D02*
X152809299Y-99466344D01*
X152809299Y-99466344D02*
X152893966Y-99424011D01*
X152893966Y-99424011D02*
X152936299Y-99381677D01*
X168279077Y-94630699D02*
X168321411Y-94588366D01*
X168321411Y-94588366D02*
X168363744Y-94461366D01*
X168363744Y-94461366D02*
X168363744Y-94376699D01*
X168363744Y-94376699D02*
X168321411Y-94249699D01*
X168321411Y-94249699D02*
X168236744Y-94165033D01*
X168236744Y-94165033D02*
X168152077Y-94122699D01*
X168152077Y-94122699D02*
X167982744Y-94080366D01*
X167982744Y-94080366D02*
X167855744Y-94080366D01*
X167855744Y-94080366D02*
X167686411Y-94122699D01*
X167686411Y-94122699D02*
X167601744Y-94165033D01*
X167601744Y-94165033D02*
X167517077Y-94249699D01*
X167517077Y-94249699D02*
X167474744Y-94376699D01*
X167474744Y-94376699D02*
X167474744Y-94461366D01*
X167474744Y-94461366D02*
X167517077Y-94588366D01*
X167517077Y-94588366D02*
X167559411Y-94630699D01*
X168363744Y-95477366D02*
X168363744Y-94969366D01*
X168363744Y-95223366D02*
X167474744Y-95223366D01*
X167474744Y-95223366D02*
X167601744Y-95138699D01*
X167601744Y-95138699D02*
X167686411Y-95054033D01*
X167686411Y-95054033D02*
X167728744Y-94969366D01*
X167474744Y-96239366D02*
X167474744Y-96070033D01*
X167474744Y-96070033D02*
X167517077Y-95985366D01*
X167517077Y-95985366D02*
X167559411Y-95943033D01*
X167559411Y-95943033D02*
X167686411Y-95858366D01*
X167686411Y-95858366D02*
X167855744Y-95816033D01*
X167855744Y-95816033D02*
X168194411Y-95816033D01*
X168194411Y-95816033D02*
X168279077Y-95858366D01*
X168279077Y-95858366D02*
X168321411Y-95900700D01*
X168321411Y-95900700D02*
X168363744Y-95985366D01*
X168363744Y-95985366D02*
X168363744Y-96154700D01*
X168363744Y-96154700D02*
X168321411Y-96239366D01*
X168321411Y-96239366D02*
X168279077Y-96281700D01*
X168279077Y-96281700D02*
X168194411Y-96324033D01*
X168194411Y-96324033D02*
X167982744Y-96324033D01*
X167982744Y-96324033D02*
X167898077Y-96281700D01*
X167898077Y-96281700D02*
X167855744Y-96239366D01*
X167855744Y-96239366D02*
X167813411Y-96154700D01*
X167813411Y-96154700D02*
X167813411Y-95985366D01*
X167813411Y-95985366D02*
X167855744Y-95900700D01*
X167855744Y-95900700D02*
X167898077Y-95858366D01*
X167898077Y-95858366D02*
X167982744Y-95816033D01*
X153723700Y-113199277D02*
X153766033Y-113241611D01*
X153766033Y-113241611D02*
X153893033Y-113283944D01*
X153893033Y-113283944D02*
X153977700Y-113283944D01*
X153977700Y-113283944D02*
X154104700Y-113241611D01*
X154104700Y-113241611D02*
X154189367Y-113156944D01*
X154189367Y-113156944D02*
X154231700Y-113072277D01*
X154231700Y-113072277D02*
X154274033Y-112902944D01*
X154274033Y-112902944D02*
X154274033Y-112775944D01*
X154274033Y-112775944D02*
X154231700Y-112606611D01*
X154231700Y-112606611D02*
X154189367Y-112521944D01*
X154189367Y-112521944D02*
X154104700Y-112437277D01*
X154104700Y-112437277D02*
X153977700Y-112394944D01*
X153977700Y-112394944D02*
X153893033Y-112394944D01*
X153893033Y-112394944D02*
X153766033Y-112437277D01*
X153766033Y-112437277D02*
X153723700Y-112479611D01*
X152961700Y-112691277D02*
X152961700Y-113283944D01*
X153173367Y-112352611D02*
X153385033Y-112987611D01*
X153385033Y-112987611D02*
X152834700Y-112987611D01*
X152369033Y-112775944D02*
X152453700Y-112733611D01*
X152453700Y-112733611D02*
X152496033Y-112691277D01*
X152496033Y-112691277D02*
X152538366Y-112606611D01*
X152538366Y-112606611D02*
X152538366Y-112564277D01*
X152538366Y-112564277D02*
X152496033Y-112479611D01*
X152496033Y-112479611D02*
X152453700Y-112437277D01*
X152453700Y-112437277D02*
X152369033Y-112394944D01*
X152369033Y-112394944D02*
X152199700Y-112394944D01*
X152199700Y-112394944D02*
X152115033Y-112437277D01*
X152115033Y-112437277D02*
X152072700Y-112479611D01*
X152072700Y-112479611D02*
X152030366Y-112564277D01*
X152030366Y-112564277D02*
X152030366Y-112606611D01*
X152030366Y-112606611D02*
X152072700Y-112691277D01*
X152072700Y-112691277D02*
X152115033Y-112733611D01*
X152115033Y-112733611D02*
X152199700Y-112775944D01*
X152199700Y-112775944D02*
X152369033Y-112775944D01*
X152369033Y-112775944D02*
X152453700Y-112818277D01*
X152453700Y-112818277D02*
X152496033Y-112860611D01*
X152496033Y-112860611D02*
X152538366Y-112945277D01*
X152538366Y-112945277D02*
X152538366Y-113114611D01*
X152538366Y-113114611D02*
X152496033Y-113199277D01*
X152496033Y-113199277D02*
X152453700Y-113241611D01*
X152453700Y-113241611D02*
X152369033Y-113283944D01*
X152369033Y-113283944D02*
X152199700Y-113283944D01*
X152199700Y-113283944D02*
X152115033Y-113241611D01*
X152115033Y-113241611D02*
X152072700Y-113199277D01*
X152072700Y-113199277D02*
X152030366Y-113114611D01*
X152030366Y-113114611D02*
X152030366Y-112945277D01*
X152030366Y-112945277D02*
X152072700Y-112860611D01*
X152072700Y-112860611D02*
X152115033Y-112818277D01*
X152115033Y-112818277D02*
X152199700Y-112775944D01*
X160302300Y-105816344D02*
X160598633Y-105393011D01*
X160810300Y-105816344D02*
X160810300Y-104927344D01*
X160810300Y-104927344D02*
X160471633Y-104927344D01*
X160471633Y-104927344D02*
X160386967Y-104969677D01*
X160386967Y-104969677D02*
X160344633Y-105012011D01*
X160344633Y-105012011D02*
X160302300Y-105096677D01*
X160302300Y-105096677D02*
X160302300Y-105223677D01*
X160302300Y-105223677D02*
X160344633Y-105308344D01*
X160344633Y-105308344D02*
X160386967Y-105350677D01*
X160386967Y-105350677D02*
X160471633Y-105393011D01*
X160471633Y-105393011D02*
X160810300Y-105393011D01*
X160005967Y-104927344D02*
X159455633Y-104927344D01*
X159455633Y-104927344D02*
X159751967Y-105266011D01*
X159751967Y-105266011D02*
X159624967Y-105266011D01*
X159624967Y-105266011D02*
X159540300Y-105308344D01*
X159540300Y-105308344D02*
X159497967Y-105350677D01*
X159497967Y-105350677D02*
X159455633Y-105435344D01*
X159455633Y-105435344D02*
X159455633Y-105647011D01*
X159455633Y-105647011D02*
X159497967Y-105731677D01*
X159497967Y-105731677D02*
X159540300Y-105774011D01*
X159540300Y-105774011D02*
X159624967Y-105816344D01*
X159624967Y-105816344D02*
X159878967Y-105816344D01*
X159878967Y-105816344D02*
X159963633Y-105774011D01*
X159963633Y-105774011D02*
X160005967Y-105731677D01*
X158651300Y-104927344D02*
X159074633Y-104927344D01*
X159074633Y-104927344D02*
X159116966Y-105350677D01*
X159116966Y-105350677D02*
X159074633Y-105308344D01*
X159074633Y-105308344D02*
X158989966Y-105266011D01*
X158989966Y-105266011D02*
X158778300Y-105266011D01*
X158778300Y-105266011D02*
X158693633Y-105308344D01*
X158693633Y-105308344D02*
X158651300Y-105350677D01*
X158651300Y-105350677D02*
X158608966Y-105435344D01*
X158608966Y-105435344D02*
X158608966Y-105647011D01*
X158608966Y-105647011D02*
X158651300Y-105731677D01*
X158651300Y-105731677D02*
X158693633Y-105774011D01*
X158693633Y-105774011D02*
X158778300Y-105816344D01*
X158778300Y-105816344D02*
X158989966Y-105816344D01*
X158989966Y-105816344D02*
X159074633Y-105774011D01*
X159074633Y-105774011D02*
X159116966Y-105731677D01*
X111205655Y-96878966D02*
X111628989Y-97175299D01*
X111205655Y-97386966D02*
X112094655Y-97386966D01*
X112094655Y-97386966D02*
X112094655Y-97048299D01*
X112094655Y-97048299D02*
X112052322Y-96963633D01*
X112052322Y-96963633D02*
X112009989Y-96921299D01*
X112009989Y-96921299D02*
X111925322Y-96878966D01*
X111925322Y-96878966D02*
X111798322Y-96878966D01*
X111798322Y-96878966D02*
X111713655Y-96921299D01*
X111713655Y-96921299D02*
X111671322Y-96963633D01*
X111671322Y-96963633D02*
X111628989Y-97048299D01*
X111628989Y-97048299D02*
X111628989Y-97386966D01*
X112094655Y-96582633D02*
X112094655Y-95989966D01*
X112094655Y-95989966D02*
X111205655Y-96370966D01*
X139956900Y-111802277D02*
X139999233Y-111844611D01*
X139999233Y-111844611D02*
X140126233Y-111886944D01*
X140126233Y-111886944D02*
X140210900Y-111886944D01*
X140210900Y-111886944D02*
X140337900Y-111844611D01*
X140337900Y-111844611D02*
X140422567Y-111759944D01*
X140422567Y-111759944D02*
X140464900Y-111675277D01*
X140464900Y-111675277D02*
X140507233Y-111505944D01*
X140507233Y-111505944D02*
X140507233Y-111378944D01*
X140507233Y-111378944D02*
X140464900Y-111209611D01*
X140464900Y-111209611D02*
X140422567Y-111124944D01*
X140422567Y-111124944D02*
X140337900Y-111040277D01*
X140337900Y-111040277D02*
X140210900Y-110997944D01*
X140210900Y-110997944D02*
X140126233Y-110997944D01*
X140126233Y-110997944D02*
X139999233Y-111040277D01*
X139999233Y-111040277D02*
X139956900Y-111082611D01*
X139660567Y-110997944D02*
X139110233Y-110997944D01*
X139110233Y-110997944D02*
X139406567Y-111336611D01*
X139406567Y-111336611D02*
X139279567Y-111336611D01*
X139279567Y-111336611D02*
X139194900Y-111378944D01*
X139194900Y-111378944D02*
X139152567Y-111421277D01*
X139152567Y-111421277D02*
X139110233Y-111505944D01*
X139110233Y-111505944D02*
X139110233Y-111717611D01*
X139110233Y-111717611D02*
X139152567Y-111802277D01*
X139152567Y-111802277D02*
X139194900Y-111844611D01*
X139194900Y-111844611D02*
X139279567Y-111886944D01*
X139279567Y-111886944D02*
X139533567Y-111886944D01*
X139533567Y-111886944D02*
X139618233Y-111844611D01*
X139618233Y-111844611D02*
X139660567Y-111802277D01*
X138602233Y-111378944D02*
X138686900Y-111336611D01*
X138686900Y-111336611D02*
X138729233Y-111294277D01*
X138729233Y-111294277D02*
X138771566Y-111209611D01*
X138771566Y-111209611D02*
X138771566Y-111167277D01*
X138771566Y-111167277D02*
X138729233Y-111082611D01*
X138729233Y-111082611D02*
X138686900Y-111040277D01*
X138686900Y-111040277D02*
X138602233Y-110997944D01*
X138602233Y-110997944D02*
X138432900Y-110997944D01*
X138432900Y-110997944D02*
X138348233Y-111040277D01*
X138348233Y-111040277D02*
X138305900Y-111082611D01*
X138305900Y-111082611D02*
X138263566Y-111167277D01*
X138263566Y-111167277D02*
X138263566Y-111209611D01*
X138263566Y-111209611D02*
X138305900Y-111294277D01*
X138305900Y-111294277D02*
X138348233Y-111336611D01*
X138348233Y-111336611D02*
X138432900Y-111378944D01*
X138432900Y-111378944D02*
X138602233Y-111378944D01*
X138602233Y-111378944D02*
X138686900Y-111421277D01*
X138686900Y-111421277D02*
X138729233Y-111463611D01*
X138729233Y-111463611D02*
X138771566Y-111548277D01*
X138771566Y-111548277D02*
X138771566Y-111717611D01*
X138771566Y-111717611D02*
X138729233Y-111802277D01*
X138729233Y-111802277D02*
X138686900Y-111844611D01*
X138686900Y-111844611D02*
X138602233Y-111886944D01*
X138602233Y-111886944D02*
X138432900Y-111886944D01*
X138432900Y-111886944D02*
X138348233Y-111844611D01*
X138348233Y-111844611D02*
X138305900Y-111802277D01*
X138305900Y-111802277D02*
X138263566Y-111717611D01*
X138263566Y-111717611D02*
X138263566Y-111548277D01*
X138263566Y-111548277D02*
X138305900Y-111463611D01*
X138305900Y-111463611D02*
X138348233Y-111421277D01*
X138348233Y-111421277D02*
X138432900Y-111378944D01*
X153427367Y-111734544D02*
X153850700Y-111734544D01*
X153850700Y-111734544D02*
X153850700Y-110845544D01*
X153173366Y-110930211D02*
X153131033Y-110887877D01*
X153131033Y-110887877D02*
X153046366Y-110845544D01*
X153046366Y-110845544D02*
X152834700Y-110845544D01*
X152834700Y-110845544D02*
X152750033Y-110887877D01*
X152750033Y-110887877D02*
X152707700Y-110930211D01*
X152707700Y-110930211D02*
X152665366Y-111014877D01*
X152665366Y-111014877D02*
X152665366Y-111099544D01*
X152665366Y-111099544D02*
X152707700Y-111226544D01*
X152707700Y-111226544D02*
X153215700Y-111734544D01*
X153215700Y-111734544D02*
X152665366Y-111734544D01*
X161573477Y-90109499D02*
X161615811Y-90067166D01*
X161615811Y-90067166D02*
X161658144Y-89940166D01*
X161658144Y-89940166D02*
X161658144Y-89855499D01*
X161658144Y-89855499D02*
X161615811Y-89728499D01*
X161615811Y-89728499D02*
X161531144Y-89643833D01*
X161531144Y-89643833D02*
X161446477Y-89601499D01*
X161446477Y-89601499D02*
X161277144Y-89559166D01*
X161277144Y-89559166D02*
X161150144Y-89559166D01*
X161150144Y-89559166D02*
X160980811Y-89601499D01*
X160980811Y-89601499D02*
X160896144Y-89643833D01*
X160896144Y-89643833D02*
X160811477Y-89728499D01*
X160811477Y-89728499D02*
X160769144Y-89855499D01*
X160769144Y-89855499D02*
X160769144Y-89940166D01*
X160769144Y-89940166D02*
X160811477Y-90067166D01*
X160811477Y-90067166D02*
X160853811Y-90109499D01*
X161658144Y-90956166D02*
X161658144Y-90448166D01*
X161658144Y-90702166D02*
X160769144Y-90702166D01*
X160769144Y-90702166D02*
X160896144Y-90617499D01*
X160896144Y-90617499D02*
X160980811Y-90532833D01*
X160980811Y-90532833D02*
X161023144Y-90448166D01*
X160853811Y-91294833D02*
X160811477Y-91337166D01*
X160811477Y-91337166D02*
X160769144Y-91421833D01*
X160769144Y-91421833D02*
X160769144Y-91633500D01*
X160769144Y-91633500D02*
X160811477Y-91718166D01*
X160811477Y-91718166D02*
X160853811Y-91760500D01*
X160853811Y-91760500D02*
X160938477Y-91802833D01*
X160938477Y-91802833D02*
X161023144Y-91802833D01*
X161023144Y-91802833D02*
X161150144Y-91760500D01*
X161150144Y-91760500D02*
X161658144Y-91252500D01*
X161658144Y-91252500D02*
X161658144Y-91802833D01*
X162166144Y-112969499D02*
X161742811Y-112673166D01*
X162166144Y-112461499D02*
X161277144Y-112461499D01*
X161277144Y-112461499D02*
X161277144Y-112800166D01*
X161277144Y-112800166D02*
X161319477Y-112884833D01*
X161319477Y-112884833D02*
X161361811Y-112927166D01*
X161361811Y-112927166D02*
X161446477Y-112969499D01*
X161446477Y-112969499D02*
X161573477Y-112969499D01*
X161573477Y-112969499D02*
X161658144Y-112927166D01*
X161658144Y-112927166D02*
X161700477Y-112884833D01*
X161700477Y-112884833D02*
X161742811Y-112800166D01*
X161742811Y-112800166D02*
X161742811Y-112461499D01*
X161277144Y-113265833D02*
X161277144Y-113816166D01*
X161277144Y-113816166D02*
X161615811Y-113519833D01*
X161615811Y-113519833D02*
X161615811Y-113646833D01*
X161615811Y-113646833D02*
X161658144Y-113731499D01*
X161658144Y-113731499D02*
X161700477Y-113773833D01*
X161700477Y-113773833D02*
X161785144Y-113816166D01*
X161785144Y-113816166D02*
X161996811Y-113816166D01*
X161996811Y-113816166D02*
X162081477Y-113773833D01*
X162081477Y-113773833D02*
X162123811Y-113731499D01*
X162123811Y-113731499D02*
X162166144Y-113646833D01*
X162166144Y-113646833D02*
X162166144Y-113392833D01*
X162166144Y-113392833D02*
X162123811Y-113308166D01*
X162123811Y-113308166D02*
X162081477Y-113265833D01*
X161277144Y-114112500D02*
X161277144Y-114705166D01*
X161277144Y-114705166D02*
X162166144Y-114324166D01*
X157186566Y-99330877D02*
X157228899Y-99373211D01*
X157228899Y-99373211D02*
X157355899Y-99415544D01*
X157355899Y-99415544D02*
X157440566Y-99415544D01*
X157440566Y-99415544D02*
X157567566Y-99373211D01*
X157567566Y-99373211D02*
X157652233Y-99288544D01*
X157652233Y-99288544D02*
X157694566Y-99203877D01*
X157694566Y-99203877D02*
X157736899Y-99034544D01*
X157736899Y-99034544D02*
X157736899Y-98907544D01*
X157736899Y-98907544D02*
X157694566Y-98738211D01*
X157694566Y-98738211D02*
X157652233Y-98653544D01*
X157652233Y-98653544D02*
X157567566Y-98568877D01*
X157567566Y-98568877D02*
X157440566Y-98526544D01*
X157440566Y-98526544D02*
X157355899Y-98526544D01*
X157355899Y-98526544D02*
X157228899Y-98568877D01*
X157228899Y-98568877D02*
X157186566Y-98611211D01*
X156339899Y-99415544D02*
X156847899Y-99415544D01*
X156593899Y-99415544D02*
X156593899Y-98526544D01*
X156593899Y-98526544D02*
X156678566Y-98653544D01*
X156678566Y-98653544D02*
X156763233Y-98738211D01*
X156763233Y-98738211D02*
X156847899Y-98780544D01*
X147395700Y-108428477D02*
X147438033Y-108470811D01*
X147438033Y-108470811D02*
X147565033Y-108513144D01*
X147565033Y-108513144D02*
X147649700Y-108513144D01*
X147649700Y-108513144D02*
X147776700Y-108470811D01*
X147776700Y-108470811D02*
X147861367Y-108386144D01*
X147861367Y-108386144D02*
X147903700Y-108301477D01*
X147903700Y-108301477D02*
X147946033Y-108132144D01*
X147946033Y-108132144D02*
X147946033Y-108005144D01*
X147946033Y-108005144D02*
X147903700Y-107835811D01*
X147903700Y-107835811D02*
X147861367Y-107751144D01*
X147861367Y-107751144D02*
X147776700Y-107666477D01*
X147776700Y-107666477D02*
X147649700Y-107624144D01*
X147649700Y-107624144D02*
X147565033Y-107624144D01*
X147565033Y-107624144D02*
X147438033Y-107666477D01*
X147438033Y-107666477D02*
X147395700Y-107708811D01*
X147057033Y-107708811D02*
X147014700Y-107666477D01*
X147014700Y-107666477D02*
X146930033Y-107624144D01*
X146930033Y-107624144D02*
X146718367Y-107624144D01*
X146718367Y-107624144D02*
X146633700Y-107666477D01*
X146633700Y-107666477D02*
X146591367Y-107708811D01*
X146591367Y-107708811D02*
X146549033Y-107793477D01*
X146549033Y-107793477D02*
X146549033Y-107878144D01*
X146549033Y-107878144D02*
X146591367Y-108005144D01*
X146591367Y-108005144D02*
X147099367Y-108513144D01*
X147099367Y-108513144D02*
X146549033Y-108513144D01*
X145744700Y-107624144D02*
X146168033Y-107624144D01*
X146168033Y-107624144D02*
X146210366Y-108047477D01*
X146210366Y-108047477D02*
X146168033Y-108005144D01*
X146168033Y-108005144D02*
X146083366Y-107962811D01*
X146083366Y-107962811D02*
X145871700Y-107962811D01*
X145871700Y-107962811D02*
X145787033Y-108005144D01*
X145787033Y-108005144D02*
X145744700Y-108047477D01*
X145744700Y-108047477D02*
X145702366Y-108132144D01*
X145702366Y-108132144D02*
X145702366Y-108343811D01*
X145702366Y-108343811D02*
X145744700Y-108428477D01*
X145744700Y-108428477D02*
X145787033Y-108470811D01*
X145787033Y-108470811D02*
X145871700Y-108513144D01*
X145871700Y-108513144D02*
X146083366Y-108513144D01*
X146083366Y-108513144D02*
X146168033Y-108470811D01*
X146168033Y-108470811D02*
X146210366Y-108428477D01*
X162568814Y-105790513D02*
X161679814Y-105790513D01*
X161679814Y-105790513D02*
X161679814Y-106129180D01*
X161679814Y-106129180D02*
X161722147Y-106213847D01*
X161722147Y-106213847D02*
X161764481Y-106256180D01*
X161764481Y-106256180D02*
X161849147Y-106298513D01*
X161849147Y-106298513D02*
X161976147Y-106298513D01*
X161976147Y-106298513D02*
X162060814Y-106256180D01*
X162060814Y-106256180D02*
X162103147Y-106213847D01*
X162103147Y-106213847D02*
X162145481Y-106129180D01*
X162145481Y-106129180D02*
X162145481Y-105790513D01*
X162568814Y-107145180D02*
X162568814Y-106637180D01*
X162568814Y-106891180D02*
X161679814Y-106891180D01*
X161679814Y-106891180D02*
X161806814Y-106806513D01*
X161806814Y-106806513D02*
X161891481Y-106721847D01*
X161891481Y-106721847D02*
X161933814Y-106637180D01*
D12*
X114559400Y-96374742D02*
X114559400Y-96849258D01*
X115804000Y-96374742D02*
X115804000Y-96849258D01*
X136518620Y-109424400D02*
X136799780Y-109424400D01*
X136518620Y-110643600D02*
X136799780Y-110643600D01*
X155613620Y-109086900D02*
X155894780Y-109086900D01*
X155613620Y-110306100D02*
X155894780Y-110306100D01*
X153744200Y-102034000D02*
X153744200Y-107544000D01*
X153744200Y-107544000D02*
X157044200Y-107544000D01*
X157044200Y-102034000D02*
X157044200Y-107544000D01*
X155613620Y-107726900D02*
X155894780Y-107726900D01*
X155613620Y-108946100D02*
X155894780Y-108946100D01*
X168774600Y-92423420D02*
X168774600Y-92704580D01*
X169993800Y-92423420D02*
X169993800Y-92704580D01*
X144753458Y-89429200D02*
X144278942Y-89429200D01*
X144753458Y-90673800D02*
X144278942Y-90673800D01*
X159544942Y-107324200D02*
X160019458Y-107324200D01*
X159544942Y-108568800D02*
X160019458Y-108568800D01*
D11*
X139794200Y-92429900D02*
X139794200Y-97408300D01*
X142794200Y-97408300D02*
X142794200Y-92429900D01*
D13*
X141421200Y-91009100D02*
G75*
G02*
X141221200Y-91009100I-100000J0D01*
G01*
X141221200Y-91009100D02*
G75*
G02*
X141421200Y-91009100I100000J0D01*
G01*
D12*
X162104600Y-93524580D02*
X162104600Y-93243420D01*
X163323800Y-93524580D02*
X163323800Y-93243420D01*
X159544942Y-111454200D02*
X160019458Y-111454200D01*
X159544942Y-112698800D02*
X160019458Y-112698800D01*
X140713458Y-89429200D02*
X140238942Y-89429200D01*
X140713458Y-90673800D02*
X140238942Y-90673800D01*
X159544942Y-114214200D02*
X160019458Y-114214200D01*
X159544942Y-115458800D02*
X160019458Y-115458800D01*
X160447841Y-109764000D02*
X160140559Y-109764000D01*
X160447841Y-110524000D02*
X160140559Y-110524000D01*
D14*
X163844200Y-93827000D02*
X163844200Y-92127000D01*
X163944200Y-92127000D02*
X163844200Y-92127000D01*
X163944200Y-93827000D02*
X163844200Y-93827000D01*
X166844200Y-92127000D02*
X166944200Y-92127000D01*
X166844200Y-93827000D02*
X166944200Y-93827000D01*
X166944200Y-93827000D02*
X166944200Y-92127000D01*
D13*
X166444200Y-95446000D02*
G75*
G02*
X166244200Y-95446000I-100000J0D01*
G01*
X166244200Y-95446000D02*
G75*
G02*
X166444200Y-95446000I100000J0D01*
G01*
D15*
X118364200Y-100294000D02*
X119864200Y-100294000D01*
X118364200Y-106294000D02*
X119864200Y-106294000D01*
X119864200Y-101794000D02*
X119864200Y-100294000D01*
X119864200Y-104794000D02*
X119864200Y-106294000D01*
D11*
X143844200Y-92409900D02*
X143844200Y-97388300D01*
X146844200Y-97388300D02*
X146844200Y-92409900D01*
D13*
X145471200Y-90989100D02*
G75*
G02*
X145271200Y-90989100I-100000J0D01*
G01*
X145271200Y-90989100D02*
G75*
G02*
X145471200Y-90989100I100000J0D01*
G01*
D11*
X147744200Y-92409900D02*
X147744200Y-97388300D01*
X150744200Y-97388300D02*
X150744200Y-92409900D01*
D13*
X149371200Y-90989100D02*
G75*
G02*
X149171200Y-90989100I-100000J0D01*
G01*
X149171200Y-90989100D02*
G75*
G02*
X149371200Y-90989100I100000J0D01*
G01*
D12*
X159164400Y-93613258D02*
X159164400Y-93138742D01*
X160409000Y-93613258D02*
X160409000Y-93138742D01*
D11*
X151634200Y-92419900D02*
X151634200Y-97398300D01*
X154634200Y-97398300D02*
X154634200Y-92419900D01*
D13*
X153261200Y-90999100D02*
G75*
G02*
X153061200Y-90999100I-100000J0D01*
G01*
X153061200Y-90999100D02*
G75*
G02*
X153261200Y-90999100I100000J0D01*
G01*
D12*
X167364600Y-92423420D02*
X167364600Y-92704580D01*
X168583800Y-92423420D02*
X168583800Y-92704580D01*
X155904780Y-112264400D02*
X155623620Y-112264400D01*
X155904780Y-113483600D02*
X155623620Y-113483600D01*
X159544942Y-105994200D02*
X160019458Y-105994200D01*
X159544942Y-107238800D02*
X160019458Y-107238800D01*
X109729400Y-96374742D02*
X109729400Y-96849258D01*
X110974000Y-96374742D02*
X110974000Y-96849258D01*
X136523620Y-110864400D02*
X136804780Y-110864400D01*
X136523620Y-112083600D02*
X136804780Y-112083600D01*
X155795728Y-110449500D02*
X155341600Y-110449500D01*
X155797264Y-112125900D02*
X155343136Y-112125900D01*
X160654600Y-93524580D02*
X160654600Y-93243420D01*
X161873800Y-93524580D02*
X161873800Y-93243420D01*
X159544942Y-112854200D02*
X160019458Y-112854200D01*
X159544942Y-114098800D02*
X160019458Y-114098800D01*
D11*
X155534200Y-92406400D02*
X155534200Y-97384800D01*
X158534200Y-97384800D02*
X158534200Y-92406400D01*
D13*
X157161200Y-90985600D02*
G75*
G02*
X156961200Y-90985600I-100000J0D01*
G01*
X156961200Y-90985600D02*
G75*
G02*
X157161200Y-90985600I100000J0D01*
G01*
D12*
X146964780Y-105544400D02*
X146683620Y-105544400D01*
X146964780Y-106763600D02*
X146683620Y-106763600D01*
D14*
X164224200Y-115094000D02*
X164224200Y-118194000D01*
X178194200Y-104737000D02*
X178194200Y-111670900D01*
X179210200Y-117191900D02*
X179210200Y-119723000D01*
X179026200Y-116192000D02*
G75*
G02*
X178194199Y-111670900I11868060J4521140D01*
G01*
X179026200Y-116192000D02*
G75*
G02*
X179210204Y-117191900I-2623700J-999700D01*
G01*
%LPC*%
D12*
X173649200Y-84254000D02*
G75*
G02*
X171849200Y-84254000I-900000J0D01*
G01*
X171849200Y-84254000D02*
G75*
G02*
X173649200Y-84254000I900000J0D01*
G01*
X178049200Y-84254000D02*
G75*
G02*
X176449200Y-84254000I-800000J0D01*
G01*
X176449200Y-84254000D02*
G75*
G02*
X178049200Y-84254000I800000J0D01*
G01*
D16*
X142069200Y-78399000D03*
X158299200Y-78399000D03*
X142069200Y-72049000D03*
X158299200Y-72049000D03*
X142069200Y-84749000D03*
X158299200Y-84749000D03*
D17*
X108274200Y-73204000D03*
X108977144Y-71506944D03*
X108977144Y-74901056D03*
X110674200Y-70804000D03*
D18*
X110674200Y-73204000D03*
D17*
X110674200Y-75604000D03*
X112371256Y-71506944D03*
X112371256Y-74901056D03*
X113074200Y-73204000D03*
D19*
X172749200Y-84254000D03*
D20*
X177249200Y-84254000D03*
D21*
X115179200Y-83701500D03*
D22*
X115179200Y-88401500D03*
X115179200Y-93101500D03*
X110349200Y-83701500D03*
X110349200Y-88401500D03*
X110349200Y-93101500D03*
D23*
X112034200Y-126439000D03*
D24*
X112034200Y-128979000D03*
X112034200Y-131519000D03*
D17*
X173614200Y-146024000D03*
X174317144Y-144326944D03*
X174317144Y-147721056D03*
X176014200Y-143624000D03*
D18*
X176014200Y-146024000D03*
D17*
X176014200Y-148424000D03*
X177711256Y-144326944D03*
X177711256Y-147721056D03*
X178414200Y-146024000D03*
X108194200Y-146024000D03*
X108897144Y-144326944D03*
X108897144Y-147721056D03*
X110594200Y-143624000D03*
D18*
X110594200Y-146024000D03*
D17*
X110594200Y-148424000D03*
X112291256Y-144326944D03*
X112291256Y-147721056D03*
X112994200Y-146024000D03*
X173664200Y-73254000D03*
X174367144Y-71556944D03*
X174367144Y-74951056D03*
X176064200Y-70854000D03*
D18*
X176064200Y-73254000D03*
D17*
X176064200Y-75654000D03*
X177761256Y-71556944D03*
X177761256Y-74951056D03*
X178464200Y-73254000D03*
D23*
X164984200Y-85694000D03*
D24*
X164984200Y-88234000D03*
D23*
X123319200Y-126439000D03*
D24*
X123319200Y-128979000D03*
X123319200Y-131519000D03*
D23*
X123319200Y-115074000D03*
D24*
X123319200Y-117614000D03*
X123319200Y-120154000D03*
D23*
X112034200Y-115074000D03*
D24*
X112034200Y-117614000D03*
X112034200Y-120154000D03*
D23*
X117724200Y-115334000D03*
D24*
X117724200Y-117874000D03*
X117724200Y-120414000D03*
D23*
X117724200Y-126439000D03*
D24*
X117724200Y-128979000D03*
X117724200Y-131519000D03*
D23*
X177206000Y-129771600D03*
D24*
X177206000Y-132311600D03*
X177206000Y-134851600D03*
X177206000Y-137391600D03*
D16*
X120879200Y-78359000D03*
X137109200Y-78359000D03*
X120879200Y-72009000D03*
X137109200Y-72009000D03*
X120879200Y-84709000D03*
X137109200Y-84709000D03*
D25*
X115184000Y-97437000D03*
X115184000Y-95787000D03*
D26*
X137434200Y-110034000D03*
X135884200Y-110034000D03*
X156529200Y-109696500D03*
X154979200Y-109696500D03*
D27*
X155394200Y-106034000D03*
X155394200Y-102034000D03*
D26*
X156529200Y-108336500D03*
X154979200Y-108336500D03*
D28*
X169384200Y-93339000D03*
X169384200Y-91789000D03*
D29*
X143691200Y-90053800D03*
X145341200Y-90053800D03*
D30*
X160607200Y-107944200D03*
X158957200Y-107944200D03*
D31*
X141294200Y-92582300D03*
X141294200Y-97052700D03*
D32*
X162714200Y-92609000D03*
X162714200Y-94159000D03*
D30*
X160607200Y-112074200D03*
X158957200Y-112074200D03*
D29*
X139651200Y-90053800D03*
X141301200Y-90053800D03*
D30*
X160607200Y-114834200D03*
X158957200Y-114834200D03*
D33*
X159784200Y-110144000D03*
X160804200Y-110144000D03*
D34*
X166344200Y-94162000D03*
X165394200Y-94162000D03*
X164444200Y-94162000D03*
X164444200Y-91792000D03*
X166344200Y-91792000D03*
D35*
X110864200Y-103294000D03*
X116864200Y-103294000D03*
D36*
X110164200Y-99794000D03*
X110164200Y-106794000D03*
X116864200Y-99794000D03*
X116864200Y-106794000D03*
X113364200Y-99794000D03*
X113364200Y-106794000D03*
D31*
X145344200Y-92562300D03*
X145344200Y-97032700D03*
X149244200Y-92562300D03*
X149244200Y-97032700D03*
D37*
X159784400Y-92551000D03*
X159784400Y-94201000D03*
D31*
X153134200Y-92572300D03*
X153134200Y-97042700D03*
D28*
X167974200Y-93339000D03*
X167974200Y-91789000D03*
D38*
X154989200Y-112874000D03*
X156539200Y-112874000D03*
D30*
X160607200Y-106614200D03*
X158957200Y-106614200D03*
D25*
X110354000Y-97437000D03*
X110354000Y-95787000D03*
D26*
X137439200Y-111474000D03*
X135889200Y-111474000D03*
D39*
X154656164Y-111286100D03*
X156481164Y-111286100D03*
D32*
X161264200Y-92609000D03*
X161264200Y-94159000D03*
D30*
X160607200Y-113474200D03*
X158957200Y-113474200D03*
D31*
X157034200Y-92558800D03*
X157034200Y-97029200D03*
D38*
X146049200Y-106154000D03*
X147599200Y-106154000D03*
D40*
X174724200Y-107344000D03*
X174724200Y-115344000D03*
D41*
X164224200Y-114544000D03*
X164224200Y-113444000D03*
X164224200Y-112344000D03*
X164224200Y-111244000D03*
X164224200Y-110144000D03*
X164224200Y-109044000D03*
X164224200Y-107944000D03*
X164224200Y-106844000D03*
X164224200Y-105744000D03*
D42*
X164824200Y-104444000D03*
D43*
X174324200Y-104444000D03*
X174324200Y-120144000D03*
D44*
X164724200Y-119244000D03*
G36*
X173259985Y-148511085D02*
G01*
X173279766Y-148526866D01*
X173705809Y-148944660D01*
X173739892Y-149005653D01*
X173742935Y-149029522D01*
X173746700Y-149156610D01*
X173746749Y-149159152D01*
X173749755Y-149488870D01*
X173730682Y-149556086D01*
X173678298Y-149602320D01*
X173625760Y-149614000D01*
X113019400Y-149614000D01*
X112952361Y-149594315D01*
X112906606Y-149541511D01*
X112895400Y-149490000D01*
X112895400Y-148979092D01*
X112915085Y-148912053D01*
X112940783Y-148883199D01*
X113076235Y-148772149D01*
X113128697Y-148721468D01*
X113172439Y-148677416D01*
X113172572Y-148677282D01*
X113216195Y-148633482D01*
X113218093Y-148631618D01*
X113288859Y-148563549D01*
X113288863Y-148563545D01*
X113318571Y-148531334D01*
X113378491Y-148495398D01*
X113409724Y-148491400D01*
X173192946Y-148491400D01*
X173259985Y-148511085D01*
G37*
G36*
X179597239Y-75511485D02*
G01*
X179642994Y-75564289D01*
X179654200Y-75615800D01*
X179654200Y-143640800D01*
X179634515Y-143707839D01*
X179581711Y-143753594D01*
X179530200Y-143764800D01*
X179039893Y-143764800D01*
X178972854Y-143745115D01*
X178944001Y-143719417D01*
X178832956Y-143583971D01*
X178782268Y-143531502D01*
X178738082Y-143487628D01*
X178737947Y-143487493D01*
X178694281Y-143444002D01*
X178692418Y-143442107D01*
X178624337Y-143371328D01*
X178592132Y-143341626D01*
X178556197Y-143281706D01*
X178552200Y-143250475D01*
X178552200Y-76049726D01*
X178571885Y-75982687D01*
X178586795Y-75963803D01*
X179003824Y-75529877D01*
X179064471Y-75495181D01*
X179093229Y-75491800D01*
X179530200Y-75491800D01*
X179597239Y-75511485D01*
G37*
G36*
X107773546Y-75513685D02*
G01*
X107802399Y-75539383D01*
X107913443Y-75674828D01*
X107964130Y-75727297D01*
X108008183Y-75771037D01*
X108008279Y-75771212D01*
X108008319Y-75771173D01*
X108052118Y-75814796D01*
X108053981Y-75816692D01*
X108122060Y-75887469D01*
X108154266Y-75917171D01*
X108190202Y-75977091D01*
X108194200Y-76008324D01*
X108194200Y-143141800D01*
X108174515Y-143208839D01*
X108156868Y-143230483D01*
X107780105Y-143598683D01*
X107718401Y-143631461D01*
X107693437Y-143634000D01*
X107198200Y-143634000D01*
X107131161Y-143614315D01*
X107085406Y-143561511D01*
X107074200Y-143510000D01*
X107074200Y-75618000D01*
X107093885Y-75550961D01*
X107146689Y-75505206D01*
X107198200Y-75494000D01*
X107706507Y-75494000D01*
X107773546Y-75513685D01*
G37*
%LPD*%
M02*
