%TF.GenerationSoftware,KiCad,Pcbnew,8.0.3*%
%TF.CreationDate,2025-02-06T22:11:14+07:00*%
%TF.ProjectId,Digital_Multi_Pedal_v1,44696769-7461-46c5-9f4d-756c74695f50,rev?*%
%TF.SameCoordinates,Original*%
%TF.FileFunction,Drillmap*%
%TF.FilePolarity,Positive*%
%FSLAX45Y45*%
G04 Gerber Fmt 4.5, Leading zero omitted, Abs format (unit mm)*
G04 Created by KiCad (PCBNEW 8.0.3) date 2025-02-06 22:11:14*
%MOMM*%
%LPD*%
G01*
G04 APERTURE LIST*
%ADD10C,0.200000*%
%ADD11C,0.100000*%
%ADD12C,0.140000*%
%ADD13C,0.185000*%
%ADD14C,0.320000*%
G04 APERTURE END LIST*
D10*
X10834420Y-14961400D02*
G75*
G02*
X10707420Y-14834400I0J127000D01*
G01*
X17838420Y-14961400D02*
X10834420Y-14961400D01*
X10707420Y-7088400D02*
G75*
G02*
X10834420Y-6961400I127000J0D01*
G01*
X17838420Y-6961400D02*
G75*
G02*
X17965420Y-7088400I0J-127000D01*
G01*
X10707420Y-14834400D02*
X10707420Y-7088400D01*
X17965420Y-14834400D02*
G75*
G02*
X17838420Y-14961400I-127000J0D01*
G01*
X10834420Y-6961400D02*
X17838420Y-6961400D01*
X17965420Y-7088400D02*
X17965420Y-14834400D01*
D11*
X10743460Y-7620540D02*
X10773460Y-7650540D01*
X10773460Y-7620540D02*
X10743460Y-7650540D01*
X10743460Y-7743636D02*
X10773460Y-7773636D01*
X10773460Y-7743636D02*
X10743460Y-7773636D01*
X10743460Y-7866732D02*
X10773460Y-7896732D01*
X10773460Y-7866732D02*
X10743460Y-7896732D01*
X10743460Y-7989828D02*
X10773460Y-8019828D01*
X10773460Y-7989828D02*
X10743460Y-8019828D01*
X10743460Y-8112924D02*
X10773460Y-8142924D01*
X10773460Y-8112924D02*
X10743460Y-8142924D01*
X10743460Y-8236019D02*
X10773460Y-8266019D01*
X10773460Y-8236019D02*
X10743460Y-8266019D01*
X10743460Y-8359115D02*
X10773460Y-8389115D01*
X10773460Y-8359115D02*
X10743460Y-8389115D01*
X10743460Y-8482211D02*
X10773460Y-8512211D01*
X10773460Y-8482211D02*
X10743460Y-8512211D01*
X10743460Y-8605307D02*
X10773460Y-8635307D01*
X10773460Y-8605307D02*
X10743460Y-8635307D01*
X10743460Y-8728403D02*
X10773460Y-8758403D01*
X10773460Y-8728403D02*
X10743460Y-8758403D01*
X10743460Y-8851499D02*
X10773460Y-8881499D01*
X10773460Y-8851499D02*
X10743460Y-8881499D01*
X10743460Y-8974595D02*
X10773460Y-9004595D01*
X10773460Y-8974595D02*
X10743460Y-9004595D01*
X10743460Y-9097691D02*
X10773460Y-9127691D01*
X10773460Y-9097691D02*
X10743460Y-9127691D01*
X10743460Y-9220787D02*
X10773460Y-9250787D01*
X10773460Y-9220787D02*
X10743460Y-9250787D01*
X10743460Y-9343883D02*
X10773460Y-9373883D01*
X10773460Y-9343883D02*
X10743460Y-9373883D01*
X10743460Y-9466979D02*
X10773460Y-9496979D01*
X10773460Y-9466979D02*
X10743460Y-9496979D01*
X10743460Y-9590074D02*
X10773460Y-9620074D01*
X10773460Y-9590074D02*
X10743460Y-9620074D01*
X10743460Y-9713170D02*
X10773460Y-9743170D01*
X10773460Y-9713170D02*
X10743460Y-9743170D01*
X10743460Y-9836266D02*
X10773460Y-9866266D01*
X10773460Y-9836266D02*
X10743460Y-9866266D01*
X10743460Y-9959362D02*
X10773460Y-9989362D01*
X10773460Y-9959362D02*
X10743460Y-9989362D01*
X10743460Y-10082458D02*
X10773460Y-10112458D01*
X10773460Y-10082458D02*
X10743460Y-10112458D01*
X10743460Y-10205554D02*
X10773460Y-10235554D01*
X10773460Y-10205554D02*
X10743460Y-10235554D01*
X10743460Y-10328650D02*
X10773460Y-10358650D01*
X10773460Y-10328650D02*
X10743460Y-10358650D01*
X10743460Y-10451746D02*
X10773460Y-10481746D01*
X10773460Y-10451746D02*
X10743460Y-10481746D01*
X10743460Y-10574842D02*
X10773460Y-10604842D01*
X10773460Y-10574842D02*
X10743460Y-10604842D01*
X10743460Y-10697938D02*
X10773460Y-10727938D01*
X10773460Y-10697938D02*
X10743460Y-10727938D01*
X10743460Y-10821033D02*
X10773460Y-10851033D01*
X10773460Y-10821033D02*
X10743460Y-10851033D01*
X10743460Y-10944129D02*
X10773460Y-10974129D01*
X10773460Y-10944129D02*
X10743460Y-10974129D01*
X10743460Y-11067225D02*
X10773460Y-11097225D01*
X10773460Y-11067225D02*
X10743460Y-11097225D01*
X10743460Y-11190321D02*
X10773460Y-11220321D01*
X10773460Y-11190321D02*
X10743460Y-11220321D01*
X10743460Y-11313417D02*
X10773460Y-11343417D01*
X10773460Y-11313417D02*
X10743460Y-11343417D01*
X10743460Y-11436513D02*
X10773460Y-11466513D01*
X10773460Y-11436513D02*
X10743460Y-11466513D01*
X10743460Y-11559609D02*
X10773460Y-11589609D01*
X10773460Y-11559609D02*
X10743460Y-11589609D01*
X10743460Y-11682705D02*
X10773460Y-11712705D01*
X10773460Y-11682705D02*
X10743460Y-11712705D01*
X10743460Y-11805801D02*
X10773460Y-11835801D01*
X10773460Y-11805801D02*
X10743460Y-11835801D01*
X10743460Y-11928896D02*
X10773460Y-11958896D01*
X10773460Y-11928896D02*
X10743460Y-11958896D01*
X10743460Y-12051992D02*
X10773460Y-12081992D01*
X10773460Y-12051992D02*
X10743460Y-12081992D01*
X10743460Y-12175088D02*
X10773460Y-12205088D01*
X10773460Y-12175088D02*
X10743460Y-12205088D01*
X10743460Y-12298184D02*
X10773460Y-12328184D01*
X10773460Y-12298184D02*
X10743460Y-12328184D01*
X10743460Y-12421280D02*
X10773460Y-12451280D01*
X10773460Y-12421280D02*
X10743460Y-12451280D01*
X10743460Y-12544376D02*
X10773460Y-12574376D01*
X10773460Y-12544376D02*
X10743460Y-12574376D01*
X10743460Y-12667472D02*
X10773460Y-12697472D01*
X10773460Y-12667472D02*
X10743460Y-12697472D01*
X10743460Y-12790568D02*
X10773460Y-12820568D01*
X10773460Y-12790568D02*
X10743460Y-12820568D01*
X10743460Y-12913664D02*
X10773460Y-12943664D01*
X10773460Y-12913664D02*
X10743460Y-12943664D01*
X10743460Y-13036760D02*
X10773460Y-13066760D01*
X10773460Y-13036760D02*
X10743460Y-13066760D01*
X10743460Y-13159855D02*
X10773460Y-13189855D01*
X10773460Y-13159855D02*
X10743460Y-13189855D01*
X10743460Y-13282951D02*
X10773460Y-13312951D01*
X10773460Y-13282951D02*
X10743460Y-13312951D01*
X10743460Y-13406047D02*
X10773460Y-13436047D01*
X10773460Y-13406047D02*
X10743460Y-13436047D01*
X10743460Y-13529143D02*
X10773460Y-13559143D01*
X10773460Y-13529143D02*
X10743460Y-13559143D01*
X10743460Y-13652239D02*
X10773460Y-13682239D01*
X10773460Y-13652239D02*
X10743460Y-13682239D01*
X10743460Y-13775335D02*
X10773460Y-13805335D01*
X10773460Y-13775335D02*
X10743460Y-13805335D01*
X10743460Y-13898431D02*
X10773460Y-13928431D01*
X10773460Y-13898431D02*
X10743460Y-13928431D01*
X10743460Y-14021527D02*
X10773460Y-14051527D01*
X10773460Y-14021527D02*
X10743460Y-14051527D01*
X10743460Y-14144623D02*
X10773460Y-14174623D01*
X10773460Y-14144623D02*
X10743460Y-14174623D01*
X10743460Y-14267720D02*
X10773460Y-14297720D01*
X10773460Y-14267720D02*
X10743460Y-14297720D01*
X10860300Y-10940320D02*
X10890300Y-10970320D01*
X10890300Y-10940320D02*
X10860300Y-10970320D01*
X10982946Y-10940320D02*
X11012946Y-10970320D01*
X11012946Y-10940320D02*
X10982946Y-10970320D01*
X11105591Y-10940320D02*
X11135591Y-10970320D01*
X11135591Y-10940320D02*
X11105591Y-10970320D01*
X11228237Y-10940320D02*
X11258237Y-10970320D01*
X11258237Y-10940320D02*
X11228237Y-10970320D01*
X11350883Y-10940320D02*
X11380883Y-10970320D01*
X11380883Y-10940320D02*
X11350883Y-10970320D01*
X11373380Y-14895100D02*
X11403380Y-14925100D01*
X11403380Y-14895100D02*
X11373380Y-14925100D01*
X11473528Y-10940320D02*
X11503528Y-10970320D01*
X11503528Y-10940320D02*
X11473528Y-10970320D01*
X11496476Y-14895100D02*
X11526476Y-14925100D01*
X11526476Y-14895100D02*
X11496476Y-14925100D01*
X11525780Y-12367800D02*
X11555780Y-12397800D01*
X11555780Y-12367800D02*
X11525780Y-12397800D01*
X11596174Y-10940320D02*
X11626174Y-10970320D01*
X11626174Y-10940320D02*
X11596174Y-10970320D01*
X11619572Y-14895100D02*
X11649572Y-14925100D01*
X11649572Y-14895100D02*
X11619572Y-14925100D01*
X11718820Y-10940320D02*
X11748820Y-10970320D01*
X11748820Y-10940320D02*
X11718820Y-10970320D01*
X11742668Y-14895100D02*
X11772668Y-14925100D01*
X11772668Y-14895100D02*
X11742668Y-14925100D01*
X11800100Y-10876820D02*
X11830100Y-10906820D01*
X11830100Y-10876820D02*
X11800100Y-10906820D01*
X11865764Y-14895100D02*
X11895764Y-14925100D01*
X11895764Y-14895100D02*
X11865764Y-14925100D01*
X11868680Y-10808240D02*
X11898680Y-10838240D01*
X11898680Y-10808240D02*
X11868680Y-10838240D01*
X11967270Y-10762520D02*
X11997270Y-10792520D01*
X11997270Y-10762520D02*
X11967270Y-10792520D01*
X11988859Y-14895100D02*
X12018859Y-14925100D01*
X12018859Y-14895100D02*
X11988859Y-14925100D01*
X12087120Y-12370340D02*
X12117120Y-12400340D01*
X12117120Y-12370340D02*
X12087120Y-12400340D01*
X12111955Y-14895100D02*
X12141955Y-14925100D01*
X12141955Y-14895100D02*
X12111955Y-14925100D01*
X12193366Y-10762520D02*
X12223366Y-10792520D01*
X12223366Y-10762520D02*
X12193366Y-10792520D01*
X12235051Y-14895100D02*
X12265051Y-14925100D01*
X12265051Y-14895100D02*
X12235051Y-14925100D01*
X12290320Y-14068380D02*
X12320320Y-14098380D01*
X12320320Y-14068380D02*
X12290320Y-14098380D01*
X12306414Y-10762520D02*
X12336414Y-10792520D01*
X12336414Y-10762520D02*
X12306414Y-10792520D01*
X12358147Y-14895100D02*
X12388147Y-14925100D01*
X12388147Y-14895100D02*
X12358147Y-14925100D01*
X12419462Y-10762520D02*
X12449462Y-10792520D01*
X12449462Y-10762520D02*
X12419462Y-10792520D01*
X12481243Y-14895100D02*
X12511243Y-14925100D01*
X12511243Y-14895100D02*
X12481243Y-14925100D01*
X12518920Y-9375680D02*
X12548920Y-9405680D01*
X12548920Y-9375680D02*
X12518920Y-9405680D01*
X12518920Y-9601740D02*
X12548920Y-9631740D01*
X12548920Y-9601740D02*
X12518920Y-9631740D01*
X12532510Y-10762520D02*
X12562510Y-10792520D01*
X12562510Y-10762520D02*
X12532510Y-10792520D01*
X12604339Y-14895100D02*
X12634339Y-14925100D01*
X12634339Y-14895100D02*
X12604339Y-14925100D01*
X12645558Y-10762520D02*
X12675558Y-10792520D01*
X12675558Y-10762520D02*
X12645558Y-10792520D01*
X12727435Y-14895100D02*
X12757435Y-14925100D01*
X12757435Y-14895100D02*
X12727435Y-14925100D01*
X12800860Y-10762520D02*
X12830860Y-10792520D01*
X12830860Y-10762520D02*
X12800860Y-10792520D01*
X12813420Y-14483760D02*
X12843420Y-14513760D01*
X12843420Y-14483760D02*
X12813420Y-14513760D01*
X12850531Y-14895100D02*
X12880531Y-14925100D01*
X12880531Y-14895100D02*
X12850531Y-14925100D01*
X12871420Y-9806560D02*
X12901420Y-9836560D01*
X12901420Y-9806560D02*
X12871420Y-9836560D01*
X12973627Y-14895100D02*
X13003627Y-14925100D01*
X13003627Y-14895100D02*
X12973627Y-14925100D01*
X12984702Y-10762520D02*
X13014702Y-10792520D01*
X13014702Y-10762520D02*
X12984702Y-10792520D01*
X12995420Y-11734400D02*
X13025420Y-11764400D01*
X13025420Y-11734400D02*
X12995420Y-11764400D01*
X13096723Y-14895100D02*
X13126723Y-14925100D01*
X13126723Y-14895100D02*
X13096723Y-14925100D01*
X13097750Y-10762520D02*
X13127750Y-10792520D01*
X13127750Y-10762520D02*
X13097750Y-10792520D01*
X13219818Y-14895100D02*
X13249818Y-14925100D01*
X13249818Y-14895100D02*
X13219818Y-14925100D01*
X13242420Y-12091400D02*
X13272420Y-12121400D01*
X13272420Y-12091400D02*
X13242420Y-12121400D01*
X13323846Y-10762520D02*
X13353846Y-10792520D01*
X13353846Y-10762520D02*
X13323846Y-10792520D01*
X13327420Y-12860400D02*
X13357420Y-12890400D01*
X13357420Y-12860400D02*
X13327420Y-12890400D01*
X13327420Y-13108400D02*
X13357420Y-13138400D01*
X13357420Y-13108400D02*
X13327420Y-13138400D01*
X13342914Y-14895100D02*
X13372914Y-14925100D01*
X13372914Y-14895100D02*
X13342914Y-14925100D01*
X13344420Y-10160540D02*
X13374420Y-10190540D01*
X13374420Y-10160540D02*
X13344420Y-10190540D01*
X13352040Y-10000740D02*
X13382040Y-10030740D01*
X13382040Y-10000740D02*
X13352040Y-10030740D01*
X13393260Y-12483215D02*
X13423260Y-12513215D01*
X13423260Y-12483215D02*
X13393260Y-12513215D01*
X13436894Y-10762520D02*
X13466894Y-10792520D01*
X13466894Y-10762520D02*
X13436894Y-10792520D01*
X13466010Y-14895100D02*
X13496010Y-14925100D01*
X13496010Y-14895100D02*
X13466010Y-14925100D01*
X13470420Y-12752400D02*
X13500420Y-12782400D01*
X13500420Y-12752400D02*
X13470420Y-12782400D01*
X13493900Y-13546740D02*
X13523900Y-13576740D01*
X13523900Y-13546740D02*
X13493900Y-13576740D01*
X13517420Y-12304400D02*
X13547420Y-12334400D01*
X13547420Y-12304400D02*
X13517420Y-12334400D01*
X13549942Y-10762520D02*
X13579942Y-10792520D01*
X13579942Y-10762520D02*
X13549942Y-10792520D01*
X13580640Y-11806460D02*
X13610640Y-11836460D01*
X13610640Y-11806460D02*
X13580640Y-11836460D01*
X13589106Y-14895100D02*
X13619106Y-14925100D01*
X13619106Y-14895100D02*
X13589106Y-14925100D01*
X13597680Y-12801400D02*
X13627680Y-12831400D01*
X13627680Y-12801400D02*
X13597680Y-12831400D01*
X13613660Y-11555000D02*
X13643660Y-11585000D01*
X13643660Y-11555000D02*
X13613660Y-11585000D01*
X13662990Y-10762520D02*
X13692990Y-10792520D01*
X13692990Y-10762520D02*
X13662990Y-10792520D01*
X13712202Y-14895100D02*
X13742202Y-14925100D01*
X13742202Y-14895100D02*
X13712202Y-14925100D01*
X13730420Y-10500400D02*
X13760420Y-10530400D01*
X13760420Y-10500400D02*
X13730420Y-10530400D01*
X13730420Y-11524400D02*
X13760420Y-11554400D01*
X13760420Y-11524400D02*
X13730420Y-11554400D01*
X13748280Y-8989600D02*
X13778280Y-9019600D01*
X13778280Y-8989600D02*
X13748280Y-9019600D01*
X13776038Y-10762520D02*
X13806038Y-10792520D01*
X13806038Y-10762520D02*
X13776038Y-10792520D01*
X13835298Y-14895100D02*
X13865298Y-14925100D01*
X13865298Y-14895100D02*
X13835298Y-14925100D01*
X13889086Y-10762520D02*
X13919086Y-10792520D01*
X13919086Y-10762520D02*
X13889086Y-10792520D01*
X13893420Y-8830400D02*
X13923420Y-8860400D01*
X13923420Y-8830400D02*
X13893420Y-8860400D01*
X13958394Y-14895100D02*
X13988394Y-14925100D01*
X13988394Y-14895100D02*
X13958394Y-14925100D01*
X13974340Y-12286520D02*
X14004340Y-12316520D01*
X14004340Y-12286520D02*
X13974340Y-12316520D01*
X14002134Y-10762520D02*
X14032134Y-10792520D01*
X14032134Y-10762520D02*
X14002134Y-10792520D01*
X14027680Y-13698760D02*
X14057680Y-13728760D01*
X14057680Y-13698760D02*
X14027680Y-13728760D01*
X14081490Y-14895100D02*
X14111490Y-14925100D01*
X14111490Y-14895100D02*
X14081490Y-14925100D01*
X14115182Y-10762520D02*
X14145182Y-10792520D01*
X14145182Y-10762520D02*
X14115182Y-10792520D01*
X14117460Y-9460360D02*
X14147460Y-9490360D01*
X14147460Y-9460360D02*
X14117460Y-9490360D01*
X14204586Y-14895100D02*
X14234586Y-14925100D01*
X14234586Y-14895100D02*
X14204586Y-14925100D01*
X14216420Y-11808400D02*
X14246420Y-11838400D01*
X14246420Y-11808400D02*
X14216420Y-11838400D01*
X14228230Y-10762520D02*
X14258230Y-10792520D01*
X14258230Y-10762520D02*
X14228230Y-10792520D01*
X14321420Y-12059400D02*
X14351420Y-12089400D01*
X14351420Y-12059400D02*
X14321420Y-12089400D01*
X14326420Y-10087400D02*
X14356420Y-10117400D01*
X14356420Y-10087400D02*
X14326420Y-10117400D01*
X14327682Y-14895100D02*
X14357682Y-14925100D01*
X14357682Y-14895100D02*
X14327682Y-14925100D01*
X14341278Y-10762520D02*
X14371278Y-10792520D01*
X14371278Y-10762520D02*
X14341278Y-10792520D01*
X14408420Y-11112400D02*
X14438420Y-11142400D01*
X14438420Y-11112400D02*
X14408420Y-11142400D01*
X14413420Y-14523400D02*
X14443420Y-14553400D01*
X14443420Y-14523400D02*
X14413420Y-14553400D01*
X14450777Y-14895100D02*
X14480777Y-14925100D01*
X14480777Y-14895100D02*
X14450777Y-14925100D01*
X14454326Y-10762520D02*
X14484326Y-10792520D01*
X14484326Y-10762520D02*
X14454326Y-10792520D01*
X14513420Y-14523400D02*
X14543420Y-14553400D01*
X14543420Y-14523400D02*
X14513420Y-14553400D01*
X14567374Y-10762520D02*
X14597374Y-10792520D01*
X14597374Y-10762520D02*
X14567374Y-10792520D01*
X14573873Y-14895100D02*
X14603873Y-14925100D01*
X14603873Y-14895100D02*
X14573873Y-14925100D01*
X14611880Y-11229880D02*
X14641880Y-11259880D01*
X14641880Y-11229880D02*
X14611880Y-11259880D01*
X14613420Y-14523400D02*
X14643420Y-14553400D01*
X14643420Y-14523400D02*
X14613420Y-14553400D01*
X14680422Y-10762520D02*
X14710422Y-10792520D01*
X14710422Y-10762520D02*
X14680422Y-10792520D01*
X14696969Y-14895100D02*
X14726969Y-14925100D01*
X14726969Y-14895100D02*
X14696969Y-14925100D01*
X14713420Y-14116400D02*
X14743420Y-14146400D01*
X14743420Y-14116400D02*
X14713420Y-14146400D01*
X14713420Y-14523400D02*
X14743420Y-14553400D01*
X14743420Y-14523400D02*
X14713420Y-14553400D01*
X14744420Y-10495400D02*
X14774420Y-10525400D01*
X14774420Y-10495400D02*
X14744420Y-10525400D01*
X14793470Y-10762520D02*
X14823470Y-10792520D01*
X14823470Y-10762520D02*
X14793470Y-10792520D01*
X14804920Y-8872760D02*
X14834920Y-8902760D01*
X14834920Y-8872760D02*
X14804920Y-8902760D01*
X14810000Y-13698760D02*
X14840000Y-13728760D01*
X14840000Y-13698760D02*
X14810000Y-13728760D01*
X14813420Y-14049240D02*
X14843420Y-14079240D01*
X14843420Y-14049240D02*
X14813420Y-14079240D01*
X14813420Y-14523400D02*
X14843420Y-14553400D01*
X14843420Y-14523400D02*
X14813420Y-14553400D01*
X14820065Y-14895100D02*
X14850065Y-14925100D01*
X14850065Y-14895100D02*
X14820065Y-14925100D01*
X14873302Y-10028263D02*
X14903302Y-10058263D01*
X14903302Y-10028263D02*
X14873302Y-10058263D01*
X14906520Y-10762520D02*
X14936520Y-10792520D01*
X14936520Y-10762520D02*
X14906520Y-10792520D01*
X14913420Y-13991240D02*
X14943420Y-14021240D01*
X14943420Y-13991240D02*
X14913420Y-14021240D01*
X14914420Y-14523400D02*
X14944420Y-14553400D01*
X14944420Y-14523400D02*
X14914420Y-14553400D01*
X14943161Y-14895100D02*
X14973161Y-14925100D01*
X14973161Y-14895100D02*
X14943161Y-14925100D01*
X15013420Y-13931240D02*
X15043420Y-13961240D01*
X15043420Y-13931240D02*
X15013420Y-13961240D01*
X15013420Y-14523400D02*
X15043420Y-14553400D01*
X15043420Y-14523400D02*
X15013420Y-14553400D01*
X15047380Y-13494400D02*
X15077380Y-13524400D01*
X15077380Y-13494400D02*
X15047380Y-13524400D01*
X15066257Y-14895100D02*
X15096257Y-14925100D01*
X15096257Y-14895100D02*
X15066257Y-14925100D01*
X15113420Y-13871400D02*
X15143420Y-13901400D01*
X15143420Y-13871400D02*
X15113420Y-13901400D01*
X15113420Y-14523400D02*
X15143420Y-14553400D01*
X15143420Y-14523400D02*
X15113420Y-14553400D01*
X15189353Y-14895100D02*
X15219353Y-14925100D01*
X15219353Y-14895100D02*
X15189353Y-14925100D01*
X15213420Y-13809240D02*
X15243420Y-13839240D01*
X15243420Y-13809240D02*
X15213420Y-13839240D01*
X15213420Y-14523400D02*
X15243420Y-14553400D01*
X15243420Y-14523400D02*
X15213420Y-14553400D01*
X15312449Y-14895100D02*
X15342449Y-14925100D01*
X15342449Y-14895100D02*
X15312449Y-14925100D01*
X15313420Y-13743400D02*
X15343420Y-13773400D01*
X15343420Y-13743400D02*
X15313420Y-13773400D01*
X15314420Y-14523400D02*
X15344420Y-14553400D01*
X15344420Y-14523400D02*
X15314420Y-14553400D01*
X15376420Y-12474480D02*
X15406420Y-12504480D01*
X15406420Y-12474480D02*
X15376420Y-12504480D01*
X15413420Y-13673400D02*
X15443420Y-13703400D01*
X15443420Y-13673400D02*
X15413420Y-13703400D01*
X15413420Y-14521400D02*
X15443420Y-14551400D01*
X15443420Y-14521400D02*
X15413420Y-14551400D01*
X15435545Y-14895100D02*
X15465545Y-14925100D01*
X15465545Y-14895100D02*
X15435545Y-14925100D01*
X15470400Y-13494400D02*
X15500400Y-13524400D01*
X15500400Y-13494400D02*
X15470400Y-13524400D01*
X15513420Y-14523400D02*
X15543420Y-14553400D01*
X15543420Y-14523400D02*
X15513420Y-14553400D01*
X15558641Y-14895100D02*
X15588641Y-14925100D01*
X15588641Y-14895100D02*
X15558641Y-14925100D01*
X15607560Y-13505720D02*
X15637560Y-13535720D01*
X15637560Y-13505720D02*
X15607560Y-13535720D01*
X15614420Y-14523400D02*
X15644420Y-14553400D01*
X15644420Y-14523400D02*
X15614420Y-14553400D01*
X15681736Y-14895100D02*
X15711736Y-14925100D01*
X15711736Y-14895100D02*
X15681736Y-14925100D01*
X15713420Y-14523400D02*
X15743420Y-14553400D01*
X15743420Y-14523400D02*
X15713420Y-14553400D01*
X15716420Y-13244400D02*
X15746420Y-13274400D01*
X15746420Y-13244400D02*
X15716420Y-13274400D01*
X15734560Y-12474480D02*
X15764560Y-12504480D01*
X15764560Y-12474480D02*
X15734560Y-12504480D01*
X15761420Y-13117400D02*
X15791420Y-13147400D01*
X15791420Y-13117400D02*
X15761420Y-13147400D01*
X15767580Y-11461020D02*
X15797580Y-11491020D01*
X15797580Y-11461020D02*
X15767580Y-11491020D01*
X15771420Y-13028400D02*
X15801420Y-13058400D01*
X15801420Y-13028400D02*
X15771420Y-13058400D01*
X15772660Y-10780300D02*
X15802660Y-10810300D01*
X15802660Y-10780300D02*
X15772660Y-10810300D01*
X15772660Y-11191780D02*
X15802660Y-11221780D01*
X15802660Y-11191780D02*
X15772660Y-11221780D01*
X15789170Y-11292110D02*
X15819170Y-11322110D01*
X15819170Y-11292110D02*
X15789170Y-11322110D01*
X15789420Y-13211400D02*
X15819420Y-13241400D01*
X15819420Y-13211400D02*
X15789420Y-13241400D01*
X15804832Y-14895100D02*
X15834832Y-14925100D01*
X15834832Y-14895100D02*
X15804832Y-14925100D01*
X15813420Y-14523400D02*
X15843420Y-14553400D01*
X15843420Y-14523400D02*
X15813420Y-14553400D01*
X15831420Y-12943400D02*
X15861420Y-12973400D01*
X15861420Y-12943400D02*
X15831420Y-12973400D01*
X15891420Y-12867400D02*
X15921420Y-12897400D01*
X15921420Y-12867400D02*
X15891420Y-12897400D01*
X15913420Y-14523400D02*
X15943420Y-14553400D01*
X15943420Y-14523400D02*
X15913420Y-14553400D01*
X15927928Y-14895100D02*
X15957928Y-14925100D01*
X15957928Y-14895100D02*
X15927928Y-14925100D01*
X15961420Y-12616400D02*
X15991420Y-12646400D01*
X15991420Y-12616400D02*
X15961420Y-12646400D01*
X15963580Y-10898400D02*
X15993580Y-10928400D01*
X15993580Y-10898400D02*
X15963580Y-10928400D01*
X16013420Y-14523400D02*
X16043420Y-14553400D01*
X16043420Y-14523400D02*
X16013420Y-14553400D01*
X16030420Y-12981400D02*
X16060420Y-13011400D01*
X16060420Y-12981400D02*
X16030420Y-13011400D01*
X16051024Y-14895100D02*
X16081024Y-14925100D01*
X16081024Y-14895100D02*
X16051024Y-14925100D01*
X16110420Y-9486400D02*
X16140420Y-9516400D01*
X16140420Y-9486400D02*
X16110420Y-9516400D01*
X16113420Y-14524400D02*
X16143420Y-14554400D01*
X16143420Y-14524400D02*
X16113420Y-14554400D01*
X16132420Y-13041560D02*
X16162420Y-13071560D01*
X16162420Y-13041560D02*
X16132420Y-13071560D01*
X16150420Y-10559400D02*
X16180420Y-10589400D01*
X16180420Y-10559400D02*
X16150420Y-10589400D01*
X16174120Y-14895100D02*
X16204120Y-14925100D01*
X16204120Y-14895100D02*
X16174120Y-14925100D01*
X16199380Y-7838980D02*
X16229380Y-7868980D01*
X16229380Y-7838980D02*
X16199380Y-7868980D01*
X16213420Y-14523400D02*
X16243420Y-14553400D01*
X16243420Y-14523400D02*
X16213420Y-14553400D01*
X16221420Y-13091560D02*
X16251420Y-13121560D01*
X16251420Y-13091560D02*
X16221420Y-13121560D01*
X16263120Y-13320700D02*
X16293120Y-13350700D01*
X16293120Y-13320700D02*
X16263120Y-13350700D01*
X16296920Y-13194900D02*
X16326920Y-13224900D01*
X16326920Y-13194900D02*
X16296920Y-13224900D01*
X16297216Y-14895100D02*
X16327216Y-14925100D01*
X16327216Y-14895100D02*
X16297216Y-14925100D01*
X16313420Y-14523400D02*
X16343420Y-14553400D01*
X16343420Y-14523400D02*
X16313420Y-14553400D01*
X16403260Y-13169400D02*
X16433260Y-13199400D01*
X16433260Y-13169400D02*
X16403260Y-13199400D01*
X16412420Y-12073400D02*
X16442420Y-12103400D01*
X16442420Y-12073400D02*
X16412420Y-12103400D01*
X16414420Y-14523400D02*
X16444420Y-14553400D01*
X16444420Y-14523400D02*
X16414420Y-14553400D01*
X16420312Y-14895100D02*
X16450312Y-14925100D01*
X16450312Y-14895100D02*
X16420312Y-14925100D01*
X16463420Y-12518400D02*
X16493420Y-12548400D01*
X16493420Y-12518400D02*
X16463420Y-12548400D01*
X16471420Y-12139400D02*
X16501420Y-12169400D01*
X16501420Y-12139400D02*
X16471420Y-12169400D01*
X16512420Y-14522400D02*
X16542420Y-14552400D01*
X16542420Y-14522400D02*
X16512420Y-14552400D01*
X16543408Y-14895100D02*
X16573408Y-14925100D01*
X16573408Y-14895100D02*
X16543408Y-14925100D01*
X16547420Y-12526400D02*
X16577420Y-12556400D01*
X16577420Y-12526400D02*
X16547420Y-12556400D01*
X16561420Y-11219400D02*
X16591420Y-11249400D01*
X16591420Y-11219400D02*
X16561420Y-11249400D01*
X16615820Y-10889400D02*
X16645820Y-10919400D01*
X16645820Y-10889400D02*
X16615820Y-10919400D01*
X16666504Y-14895100D02*
X16696504Y-14925100D01*
X16696504Y-14895100D02*
X16666504Y-14925100D01*
X16667420Y-10669400D02*
X16697420Y-10699400D01*
X16697420Y-10669400D02*
X16667420Y-10699400D01*
X16735420Y-11329400D02*
X16765420Y-11359400D01*
X16765420Y-11329400D02*
X16735420Y-11359400D01*
X16789600Y-14895100D02*
X16819600Y-14925100D01*
X16819600Y-14895100D02*
X16789600Y-14925100D01*
X16813420Y-11439400D02*
X16843420Y-11469400D01*
X16843420Y-11439400D02*
X16813420Y-11469400D01*
X16844540Y-7811040D02*
X16874540Y-7841040D01*
X16874540Y-7811040D02*
X16844540Y-7841040D01*
X16855920Y-12781900D02*
X16885920Y-12811900D01*
X16885920Y-12781900D02*
X16855920Y-12811900D01*
X16859780Y-10851420D02*
X16889780Y-10881420D01*
X16889780Y-10851420D02*
X16859780Y-10881420D01*
X16882640Y-14269400D02*
X16912640Y-14299400D01*
X16912640Y-14269400D02*
X16882640Y-14299400D01*
X16885180Y-12896120D02*
X16915180Y-12926120D01*
X16915180Y-12896120D02*
X16885180Y-12926120D01*
X16892420Y-11617400D02*
X16922420Y-11647400D01*
X16922420Y-11617400D02*
X16892420Y-11647400D01*
X16912696Y-14895100D02*
X16942696Y-14925100D01*
X16942696Y-14895100D02*
X16912696Y-14925100D01*
X16918200Y-10912380D02*
X16948200Y-10942380D01*
X16948200Y-10912380D02*
X16918200Y-10942380D01*
X17035791Y-14895100D02*
X17065791Y-14925100D01*
X17065791Y-14895100D02*
X17035791Y-14925100D01*
X17101080Y-9901460D02*
X17131080Y-9931460D01*
X17131080Y-9901460D02*
X17101080Y-9931460D01*
X17121400Y-11549120D02*
X17151400Y-11579120D01*
X17151400Y-11549120D02*
X17121400Y-11579120D01*
X17158887Y-14895100D02*
X17188887Y-14925100D01*
X17188887Y-14895100D02*
X17158887Y-14925100D01*
X17226420Y-12973400D02*
X17256420Y-13003400D01*
X17256420Y-12973400D02*
X17226420Y-13003400D01*
X17281985Y-14895100D02*
X17311985Y-14925100D01*
X17311985Y-14895100D02*
X17281985Y-14925100D01*
X17309920Y-12925900D02*
X17339920Y-12955900D01*
X17339920Y-12925900D02*
X17309920Y-12955900D01*
X17312260Y-12274819D02*
X17342260Y-12304819D01*
X17342260Y-12274819D02*
X17312260Y-12304819D01*
X17388260Y-12881400D02*
X17418260Y-12911400D01*
X17418260Y-12881400D02*
X17388260Y-12911400D01*
X17441440Y-10940320D02*
X17471440Y-10970320D01*
X17471440Y-10940320D02*
X17441440Y-10970320D01*
X17448420Y-12641400D02*
X17478420Y-12671400D01*
X17478420Y-12641400D02*
X17448420Y-12671400D01*
X17549420Y-10799560D02*
X17579420Y-10829560D01*
X17579420Y-10799560D02*
X17549420Y-10829560D01*
X17553200Y-9909080D02*
X17583200Y-9939080D01*
X17583200Y-9909080D02*
X17553200Y-9939080D01*
X17587320Y-12341300D02*
X17617320Y-12371300D01*
X17617320Y-12341300D02*
X17587320Y-12371300D01*
X17634480Y-10940320D02*
X17664480Y-10970320D01*
X17664480Y-10940320D02*
X17634480Y-10970320D01*
X17637020Y-13904500D02*
X17667020Y-13934500D01*
X17667020Y-13904500D02*
X17637020Y-13934500D01*
X17694420Y-11671400D02*
X17724420Y-11701400D01*
X17724420Y-11671400D02*
X17694420Y-11701400D01*
X17898640Y-7633240D02*
X17928640Y-7663240D01*
X17928640Y-7633240D02*
X17898640Y-7663240D01*
X17898640Y-7756336D02*
X17928640Y-7786336D01*
X17928640Y-7756336D02*
X17898640Y-7786336D01*
X17898640Y-7879432D02*
X17928640Y-7909432D01*
X17928640Y-7879432D02*
X17898640Y-7909432D01*
X17898640Y-8002528D02*
X17928640Y-8032528D01*
X17928640Y-8002528D02*
X17898640Y-8032528D01*
X17898640Y-8125624D02*
X17928640Y-8155624D01*
X17928640Y-8125624D02*
X17898640Y-8155624D01*
X17898640Y-8248719D02*
X17928640Y-8278719D01*
X17928640Y-8248719D02*
X17898640Y-8278719D01*
X17898640Y-8371815D02*
X17928640Y-8401815D01*
X17928640Y-8371815D02*
X17898640Y-8401815D01*
X17898640Y-8494911D02*
X17928640Y-8524911D01*
X17928640Y-8494911D02*
X17898640Y-8524911D01*
X17898640Y-8618007D02*
X17928640Y-8648007D01*
X17928640Y-8618007D02*
X17898640Y-8648007D01*
X17898640Y-8741103D02*
X17928640Y-8771103D01*
X17928640Y-8741103D02*
X17898640Y-8771103D01*
X17898640Y-8864199D02*
X17928640Y-8894199D01*
X17928640Y-8864199D02*
X17898640Y-8894199D01*
X17898640Y-8987295D02*
X17928640Y-9017295D01*
X17928640Y-8987295D02*
X17898640Y-9017295D01*
X17898640Y-9110391D02*
X17928640Y-9140391D01*
X17928640Y-9110391D02*
X17898640Y-9140391D01*
X17898640Y-9233487D02*
X17928640Y-9263487D01*
X17928640Y-9233487D02*
X17898640Y-9263487D01*
X17898640Y-9356583D02*
X17928640Y-9386583D01*
X17928640Y-9356583D02*
X17898640Y-9386583D01*
X17898640Y-9479679D02*
X17928640Y-9509679D01*
X17928640Y-9479679D02*
X17898640Y-9509679D01*
X17898640Y-9602774D02*
X17928640Y-9632774D01*
X17928640Y-9602774D02*
X17898640Y-9632774D01*
X17898640Y-9725870D02*
X17928640Y-9755870D01*
X17928640Y-9725870D02*
X17898640Y-9755870D01*
X17898640Y-9848966D02*
X17928640Y-9878966D01*
X17928640Y-9848966D02*
X17898640Y-9878966D01*
X17898640Y-9972062D02*
X17928640Y-10002062D01*
X17928640Y-9972062D02*
X17898640Y-10002062D01*
X17898640Y-10095158D02*
X17928640Y-10125158D01*
X17928640Y-10095158D02*
X17898640Y-10125158D01*
X17898640Y-10218254D02*
X17928640Y-10248254D01*
X17928640Y-10218254D02*
X17898640Y-10248254D01*
X17898640Y-10341350D02*
X17928640Y-10371350D01*
X17928640Y-10341350D02*
X17898640Y-10371350D01*
X17898640Y-10464446D02*
X17928640Y-10494446D01*
X17928640Y-10464446D02*
X17898640Y-10494446D01*
X17898640Y-10587542D02*
X17928640Y-10617542D01*
X17928640Y-10587542D02*
X17898640Y-10617542D01*
X17898640Y-10710638D02*
X17928640Y-10740638D01*
X17928640Y-10710638D02*
X17898640Y-10740638D01*
X17898640Y-10833733D02*
X17928640Y-10863733D01*
X17928640Y-10833733D02*
X17898640Y-10863733D01*
X17898640Y-10956829D02*
X17928640Y-10986829D01*
X17928640Y-10956829D02*
X17898640Y-10986829D01*
X17898640Y-11079925D02*
X17928640Y-11109925D01*
X17928640Y-11079925D02*
X17898640Y-11109925D01*
X17898640Y-11203021D02*
X17928640Y-11233021D01*
X17928640Y-11203021D02*
X17898640Y-11233021D01*
X17898640Y-11326117D02*
X17928640Y-11356117D01*
X17928640Y-11326117D02*
X17898640Y-11356117D01*
X17898640Y-11449213D02*
X17928640Y-11479213D01*
X17928640Y-11449213D02*
X17898640Y-11479213D01*
X17898640Y-11572309D02*
X17928640Y-11602309D01*
X17928640Y-11572309D02*
X17898640Y-11602309D01*
X17898640Y-11695405D02*
X17928640Y-11725405D01*
X17928640Y-11695405D02*
X17898640Y-11725405D01*
X17898640Y-11818501D02*
X17928640Y-11848501D01*
X17928640Y-11818501D02*
X17898640Y-11848501D01*
X17898640Y-11941596D02*
X17928640Y-11971596D01*
X17928640Y-11941596D02*
X17898640Y-11971596D01*
X17898640Y-12064692D02*
X17928640Y-12094692D01*
X17928640Y-12064692D02*
X17898640Y-12094692D01*
X17898640Y-12187788D02*
X17928640Y-12217788D01*
X17928640Y-12187788D02*
X17898640Y-12217788D01*
X17898640Y-12310884D02*
X17928640Y-12340884D01*
X17928640Y-12310884D02*
X17898640Y-12340884D01*
X17898640Y-12433980D02*
X17928640Y-12463980D01*
X17928640Y-12433980D02*
X17898640Y-12463980D01*
X17898640Y-12557076D02*
X17928640Y-12587076D01*
X17928640Y-12557076D02*
X17898640Y-12587076D01*
X17898640Y-12680172D02*
X17928640Y-12710172D01*
X17928640Y-12680172D02*
X17898640Y-12710172D01*
X17898640Y-12803268D02*
X17928640Y-12833268D01*
X17928640Y-12803268D02*
X17898640Y-12833268D01*
X17898640Y-12926364D02*
X17928640Y-12956364D01*
X17928640Y-12926364D02*
X17898640Y-12956364D01*
X17898640Y-13049460D02*
X17928640Y-13079460D01*
X17928640Y-13049460D02*
X17898640Y-13079460D01*
X17898640Y-13172555D02*
X17928640Y-13202555D01*
X17928640Y-13172555D02*
X17898640Y-13202555D01*
X17898640Y-13295651D02*
X17928640Y-13325651D01*
X17928640Y-13295651D02*
X17898640Y-13325651D01*
X17898640Y-13418747D02*
X17928640Y-13448747D01*
X17928640Y-13418747D02*
X17898640Y-13448747D01*
X17898640Y-13541843D02*
X17928640Y-13571843D01*
X17928640Y-13541843D02*
X17898640Y-13571843D01*
X17898640Y-13664939D02*
X17928640Y-13694939D01*
X17928640Y-13664939D02*
X17898640Y-13694939D01*
X17898640Y-13788035D02*
X17928640Y-13818035D01*
X17928640Y-13788035D02*
X17898640Y-13818035D01*
X17898640Y-13911131D02*
X17928640Y-13941131D01*
X17928640Y-13911131D02*
X17898640Y-13941131D01*
X17898640Y-14034227D02*
X17928640Y-14064227D01*
X17928640Y-14034227D02*
X17898640Y-14064227D01*
X17898640Y-14157323D02*
X17928640Y-14187323D01*
X17928640Y-14157323D02*
X17898640Y-14187323D01*
X17898640Y-14280420D02*
X17928640Y-14310420D01*
X17928640Y-14280420D02*
X17898640Y-14310420D01*
X10844420Y-14602400D02*
G75*
G02*
X10794420Y-14602400I-25000J0D01*
G01*
X10794420Y-14602400D02*
G75*
G02*
X10844420Y-14602400I25000J0D01*
G01*
X10852420Y-7320400D02*
G75*
G02*
X10802420Y-7320400I-25000J0D01*
G01*
X10802420Y-7320400D02*
G75*
G02*
X10852420Y-7320400I25000J0D01*
G01*
X10914714Y-14432694D02*
G75*
G02*
X10864714Y-14432694I-25000J0D01*
G01*
X10864714Y-14432694D02*
G75*
G02*
X10914714Y-14432694I25000J0D01*
G01*
X10914714Y-14772106D02*
G75*
G02*
X10864714Y-14772106I-25000J0D01*
G01*
X10864714Y-14772106D02*
G75*
G02*
X10914714Y-14772106I25000J0D01*
G01*
X10922714Y-7150694D02*
G75*
G02*
X10872714Y-7150694I-25000J0D01*
G01*
X10872714Y-7150694D02*
G75*
G02*
X10922714Y-7150694I25000J0D01*
G01*
X10922714Y-7490106D02*
G75*
G02*
X10872714Y-7490106I-25000J0D01*
G01*
X10872714Y-7490106D02*
G75*
G02*
X10922714Y-7490106I25000J0D01*
G01*
X11084420Y-14362400D02*
G75*
G02*
X11034420Y-14362400I-25000J0D01*
G01*
X11034420Y-14362400D02*
G75*
G02*
X11084420Y-14362400I25000J0D01*
G01*
X11084420Y-14842400D02*
G75*
G02*
X11034420Y-14842400I-25000J0D01*
G01*
X11034420Y-14842400D02*
G75*
G02*
X11084420Y-14842400I25000J0D01*
G01*
X11092420Y-7080400D02*
G75*
G02*
X11042420Y-7080400I-25000J0D01*
G01*
X11042420Y-7080400D02*
G75*
G02*
X11092420Y-7080400I25000J0D01*
G01*
X11092420Y-7560400D02*
G75*
G02*
X11042420Y-7560400I-25000J0D01*
G01*
X11042420Y-7560400D02*
G75*
G02*
X11092420Y-7560400I25000J0D01*
G01*
X11254126Y-14432694D02*
G75*
G02*
X11204126Y-14432694I-25000J0D01*
G01*
X11204126Y-14432694D02*
G75*
G02*
X11254126Y-14432694I25000J0D01*
G01*
X11254126Y-14772106D02*
G75*
G02*
X11204126Y-14772106I-25000J0D01*
G01*
X11204126Y-14772106D02*
G75*
G02*
X11254126Y-14772106I25000J0D01*
G01*
X11262126Y-7150694D02*
G75*
G02*
X11212126Y-7150694I-25000J0D01*
G01*
X11212126Y-7150694D02*
G75*
G02*
X11262126Y-7150694I25000J0D01*
G01*
X11262126Y-7490106D02*
G75*
G02*
X11212126Y-7490106I-25000J0D01*
G01*
X11212126Y-7490106D02*
G75*
G02*
X11262126Y-7490106I25000J0D01*
G01*
X11324420Y-14602400D02*
G75*
G02*
X11274420Y-14602400I-25000J0D01*
G01*
X11274420Y-14602400D02*
G75*
G02*
X11324420Y-14602400I25000J0D01*
G01*
X11332420Y-7320400D02*
G75*
G02*
X11282420Y-7320400I-25000J0D01*
G01*
X11282420Y-7320400D02*
G75*
G02*
X11332420Y-7320400I25000J0D01*
G01*
X17386420Y-14602400D02*
G75*
G02*
X17336420Y-14602400I-25000J0D01*
G01*
X17336420Y-14602400D02*
G75*
G02*
X17386420Y-14602400I25000J0D01*
G01*
X17391420Y-7325400D02*
G75*
G02*
X17341420Y-7325400I-25000J0D01*
G01*
X17341420Y-7325400D02*
G75*
G02*
X17391420Y-7325400I25000J0D01*
G01*
X17456714Y-14432694D02*
G75*
G02*
X17406714Y-14432694I-25000J0D01*
G01*
X17406714Y-14432694D02*
G75*
G02*
X17456714Y-14432694I25000J0D01*
G01*
X17456714Y-14772106D02*
G75*
G02*
X17406714Y-14772106I-25000J0D01*
G01*
X17406714Y-14772106D02*
G75*
G02*
X17456714Y-14772106I25000J0D01*
G01*
X17461714Y-7155694D02*
G75*
G02*
X17411714Y-7155694I-25000J0D01*
G01*
X17411714Y-7155694D02*
G75*
G02*
X17461714Y-7155694I25000J0D01*
G01*
X17461714Y-7495106D02*
G75*
G02*
X17411714Y-7495106I-25000J0D01*
G01*
X17411714Y-7495106D02*
G75*
G02*
X17461714Y-7495106I25000J0D01*
G01*
X17626420Y-14362400D02*
G75*
G02*
X17576420Y-14362400I-25000J0D01*
G01*
X17576420Y-14362400D02*
G75*
G02*
X17626420Y-14362400I25000J0D01*
G01*
X17626420Y-14842400D02*
G75*
G02*
X17576420Y-14842400I-25000J0D01*
G01*
X17576420Y-14842400D02*
G75*
G02*
X17626420Y-14842400I25000J0D01*
G01*
X17631420Y-7085400D02*
G75*
G02*
X17581420Y-7085400I-25000J0D01*
G01*
X17581420Y-7085400D02*
G75*
G02*
X17631420Y-7085400I25000J0D01*
G01*
X17631420Y-7565400D02*
G75*
G02*
X17581420Y-7565400I-25000J0D01*
G01*
X17581420Y-7565400D02*
G75*
G02*
X17631420Y-7565400I25000J0D01*
G01*
X17796126Y-14432694D02*
G75*
G02*
X17746126Y-14432694I-25000J0D01*
G01*
X17746126Y-14432694D02*
G75*
G02*
X17796126Y-14432694I25000J0D01*
G01*
X17796126Y-14772106D02*
G75*
G02*
X17746126Y-14772106I-25000J0D01*
G01*
X17746126Y-14772106D02*
G75*
G02*
X17796126Y-14772106I25000J0D01*
G01*
X17801126Y-7155694D02*
G75*
G02*
X17751126Y-7155694I-25000J0D01*
G01*
X17751126Y-7155694D02*
G75*
G02*
X17801126Y-7155694I25000J0D01*
G01*
X17801126Y-7495106D02*
G75*
G02*
X17751126Y-7495106I-25000J0D01*
G01*
X17751126Y-7495106D02*
G75*
G02*
X17801126Y-7495106I25000J0D01*
G01*
X17866420Y-14602400D02*
G75*
G02*
X17816420Y-14602400I-25000J0D01*
G01*
X17816420Y-14602400D02*
G75*
G02*
X17866420Y-14602400I25000J0D01*
G01*
X17871420Y-7325400D02*
G75*
G02*
X17821420Y-7325400I-25000J0D01*
G01*
X17821420Y-7325400D02*
G75*
G02*
X17871420Y-7325400I25000J0D01*
G01*
X11203420Y-11457400D02*
X11203420Y-11557400D01*
X11153420Y-11507400D02*
X11253420Y-11507400D01*
X11203420Y-11711400D02*
X11203420Y-11811400D01*
X11153420Y-11761400D02*
X11253420Y-11761400D01*
X11203420Y-11965400D02*
X11203420Y-12065400D01*
X11153420Y-12015400D02*
X11253420Y-12015400D01*
X11203420Y-12593900D02*
X11203420Y-12693900D01*
X11153420Y-12643900D02*
X11253420Y-12643900D01*
X11203420Y-12847900D02*
X11203420Y-12947900D01*
X11153420Y-12897900D02*
X11253420Y-12897900D01*
X11203420Y-13101900D02*
X11203420Y-13201900D01*
X11153420Y-13151900D02*
X11253420Y-13151900D01*
X11772420Y-11483400D02*
X11772420Y-11583400D01*
X11722420Y-11533400D02*
X11822420Y-11533400D01*
X11772420Y-11737400D02*
X11772420Y-11837400D01*
X11722420Y-11787400D02*
X11822420Y-11787400D01*
X11772420Y-11991400D02*
X11772420Y-12091400D01*
X11722420Y-12041400D02*
X11822420Y-12041400D01*
X11772420Y-12593900D02*
X11772420Y-12693900D01*
X11722420Y-12643900D02*
X11822420Y-12643900D01*
X11772420Y-12847900D02*
X11772420Y-12947900D01*
X11722420Y-12897900D02*
X11822420Y-12897900D01*
X11772420Y-13101900D02*
X11772420Y-13201900D01*
X11722420Y-13151900D02*
X11822420Y-13151900D01*
X12331920Y-11457400D02*
X12331920Y-11557400D01*
X12281920Y-11507400D02*
X12381920Y-11507400D01*
X12331920Y-11711400D02*
X12331920Y-11811400D01*
X12281920Y-11761400D02*
X12381920Y-11761400D01*
X12331920Y-11965400D02*
X12331920Y-12065400D01*
X12281920Y-12015400D02*
X12381920Y-12015400D01*
X12331920Y-12593900D02*
X12331920Y-12693900D01*
X12281920Y-12643900D02*
X12381920Y-12643900D01*
X12331920Y-12847900D02*
X12331920Y-12947900D01*
X12281920Y-12897900D02*
X12381920Y-12897900D01*
X12331920Y-13101900D02*
X12331920Y-13201900D01*
X12281920Y-13151900D02*
X12381920Y-13151900D01*
X16498420Y-8519400D02*
X16498420Y-8619400D01*
X16448420Y-8569400D02*
X16548420Y-8569400D01*
X16498420Y-8773400D02*
X16498420Y-8873400D01*
X16448420Y-8823400D02*
X16548420Y-8823400D01*
X17720600Y-12927160D02*
X17720600Y-13027160D01*
X17670600Y-12977160D02*
X17770600Y-12977160D01*
X17720600Y-13181160D02*
X17720600Y-13281160D01*
X17670600Y-13231160D02*
X17770600Y-13231160D01*
X17720600Y-13435160D02*
X17720600Y-13535160D01*
X17670600Y-13485160D02*
X17770600Y-13485160D01*
X17720600Y-13689160D02*
X17720600Y-13789160D01*
X17670600Y-13739160D02*
X17770600Y-13739160D01*
D12*
X12137418Y-7250398D02*
X12137418Y-7151402D01*
X12038422Y-7151402D01*
X12038422Y-7250398D01*
X12137418Y-7250398D01*
X12137418Y-7885398D02*
X12137418Y-7786402D01*
X12038422Y-7786402D01*
X12038422Y-7885398D01*
X12137418Y-7885398D01*
X12137418Y-8520398D02*
X12137418Y-8421402D01*
X12038422Y-8421402D01*
X12038422Y-8520398D01*
X12137418Y-8520398D01*
X13760418Y-7250398D02*
X13760418Y-7151402D01*
X13661422Y-7151402D01*
X13661422Y-7250398D01*
X13760418Y-7250398D01*
X13760418Y-7885398D02*
X13760418Y-7786402D01*
X13661422Y-7786402D01*
X13661422Y-7885398D01*
X13760418Y-7885398D01*
X13760418Y-8520398D02*
X13760418Y-8421402D01*
X13661422Y-8421402D01*
X13661422Y-8520398D01*
X13760418Y-8520398D01*
X14256418Y-7254398D02*
X14256418Y-7155402D01*
X14157422Y-7155402D01*
X14157422Y-7254398D01*
X14256418Y-7254398D01*
X14256418Y-7889398D02*
X14256418Y-7790402D01*
X14157422Y-7790402D01*
X14157422Y-7889398D01*
X14256418Y-7889398D01*
X14256418Y-8524398D02*
X14256418Y-8425402D01*
X14157422Y-8425402D01*
X14157422Y-8524398D01*
X14256418Y-8524398D01*
X15879418Y-7254398D02*
X15879418Y-7155402D01*
X15780422Y-7155402D01*
X15780422Y-7254398D01*
X15879418Y-7254398D01*
X15879418Y-7889398D02*
X15879418Y-7790402D01*
X15780422Y-7790402D01*
X15780422Y-7889398D01*
X15879418Y-7889398D01*
X15879418Y-8524398D02*
X15879418Y-8425402D01*
X15780422Y-8425402D01*
X15780422Y-8524398D01*
X15879418Y-8524398D01*
D13*
X11034920Y-8462650D02*
X11127420Y-8370150D01*
X11034920Y-8277650D01*
X10942420Y-8370150D01*
X11034920Y-8462650D01*
X11034920Y-8932650D02*
X11127420Y-8840150D01*
X11034920Y-8747650D01*
X10942420Y-8840150D01*
X11034920Y-8932650D01*
X11034920Y-9402650D02*
X11127420Y-9310150D01*
X11034920Y-9217650D01*
X10942420Y-9310150D01*
X11034920Y-9402650D01*
X11517920Y-8462650D02*
X11610420Y-8370150D01*
X11517920Y-8277650D01*
X11425420Y-8370150D01*
X11517920Y-8462650D01*
X11517920Y-8932650D02*
X11610420Y-8840150D01*
X11517920Y-8747650D01*
X11425420Y-8840150D01*
X11517920Y-8932650D01*
X11517920Y-9402650D02*
X11610420Y-9310150D01*
X11517920Y-9217650D01*
X11425420Y-9310150D01*
X11517920Y-9402650D01*
D14*
X10899420Y-14442400D02*
X11219420Y-14762400D01*
X11219420Y-14442400D02*
X10899420Y-14762400D01*
X11219420Y-14602400D02*
G75*
G02*
X10899420Y-14602400I-160000J0D01*
G01*
X10899420Y-14602400D02*
G75*
G02*
X11219420Y-14602400I160000J0D01*
G01*
X10907420Y-7160400D02*
X11227420Y-7480400D01*
X11227420Y-7160400D02*
X10907420Y-7480400D01*
X11227420Y-7320400D02*
G75*
G02*
X10907420Y-7320400I-160000J0D01*
G01*
X10907420Y-7320400D02*
G75*
G02*
X11227420Y-7320400I160000J0D01*
G01*
X17441420Y-14442400D02*
X17761420Y-14762400D01*
X17761420Y-14442400D02*
X17441420Y-14762400D01*
X17761420Y-14602400D02*
G75*
G02*
X17441420Y-14602400I-160000J0D01*
G01*
X17441420Y-14602400D02*
G75*
G02*
X17761420Y-14602400I160000J0D01*
G01*
X17446420Y-7165400D02*
X17766420Y-7485400D01*
X17766420Y-7165400D02*
X17446420Y-7485400D01*
X17766420Y-7325400D02*
G75*
G02*
X17446420Y-7325400I-160000J0D01*
G01*
X17446420Y-7325400D02*
G75*
G02*
X17766420Y-7325400I160000J0D01*
G01*
D10*
X10958197Y-15282884D02*
X10958197Y-15082884D01*
X10958197Y-15082884D02*
X11005816Y-15082884D01*
X11005816Y-15082884D02*
X11034387Y-15092408D01*
X11034387Y-15092408D02*
X11053435Y-15111455D01*
X11053435Y-15111455D02*
X11062959Y-15130503D01*
X11062959Y-15130503D02*
X11072483Y-15168598D01*
X11072483Y-15168598D02*
X11072483Y-15197169D01*
X11072483Y-15197169D02*
X11062959Y-15235265D01*
X11062959Y-15235265D02*
X11053435Y-15254312D01*
X11053435Y-15254312D02*
X11034387Y-15273360D01*
X11034387Y-15273360D02*
X11005816Y-15282884D01*
X11005816Y-15282884D02*
X10958197Y-15282884D01*
X11158197Y-15282884D02*
X11158197Y-15149550D01*
X11158197Y-15187646D02*
X11167721Y-15168598D01*
X11167721Y-15168598D02*
X11177244Y-15159074D01*
X11177244Y-15159074D02*
X11196292Y-15149550D01*
X11196292Y-15149550D02*
X11215340Y-15149550D01*
X11282006Y-15282884D02*
X11282006Y-15149550D01*
X11282006Y-15082884D02*
X11272482Y-15092408D01*
X11272482Y-15092408D02*
X11282006Y-15101931D01*
X11282006Y-15101931D02*
X11291530Y-15092408D01*
X11291530Y-15092408D02*
X11282006Y-15082884D01*
X11282006Y-15082884D02*
X11282006Y-15101931D01*
X11405816Y-15282884D02*
X11386768Y-15273360D01*
X11386768Y-15273360D02*
X11377244Y-15254312D01*
X11377244Y-15254312D02*
X11377244Y-15082884D01*
X11510578Y-15282884D02*
X11491530Y-15273360D01*
X11491530Y-15273360D02*
X11482006Y-15254312D01*
X11482006Y-15254312D02*
X11482006Y-15082884D01*
X11739149Y-15282884D02*
X11739149Y-15082884D01*
X11739149Y-15082884D02*
X11805816Y-15225741D01*
X11805816Y-15225741D02*
X11872482Y-15082884D01*
X11872482Y-15082884D02*
X11872482Y-15282884D01*
X12053435Y-15282884D02*
X12053435Y-15178122D01*
X12053435Y-15178122D02*
X12043911Y-15159074D01*
X12043911Y-15159074D02*
X12024863Y-15149550D01*
X12024863Y-15149550D02*
X11986768Y-15149550D01*
X11986768Y-15149550D02*
X11967721Y-15159074D01*
X12053435Y-15273360D02*
X12034387Y-15282884D01*
X12034387Y-15282884D02*
X11986768Y-15282884D01*
X11986768Y-15282884D02*
X11967721Y-15273360D01*
X11967721Y-15273360D02*
X11958197Y-15254312D01*
X11958197Y-15254312D02*
X11958197Y-15235265D01*
X11958197Y-15235265D02*
X11967721Y-15216217D01*
X11967721Y-15216217D02*
X11986768Y-15206693D01*
X11986768Y-15206693D02*
X12034387Y-15206693D01*
X12034387Y-15206693D02*
X12053435Y-15197169D01*
X12148673Y-15149550D02*
X12148673Y-15349550D01*
X12148673Y-15159074D02*
X12167721Y-15149550D01*
X12167721Y-15149550D02*
X12205816Y-15149550D01*
X12205816Y-15149550D02*
X12224863Y-15159074D01*
X12224863Y-15159074D02*
X12234387Y-15168598D01*
X12234387Y-15168598D02*
X12243911Y-15187646D01*
X12243911Y-15187646D02*
X12243911Y-15244788D01*
X12243911Y-15244788D02*
X12234387Y-15263836D01*
X12234387Y-15263836D02*
X12224863Y-15273360D01*
X12224863Y-15273360D02*
X12205816Y-15282884D01*
X12205816Y-15282884D02*
X12167721Y-15282884D01*
X12167721Y-15282884D02*
X12148673Y-15273360D01*
X12329625Y-15263836D02*
X12339149Y-15273360D01*
X12339149Y-15273360D02*
X12329625Y-15282884D01*
X12329625Y-15282884D02*
X12320102Y-15273360D01*
X12320102Y-15273360D02*
X12329625Y-15263836D01*
X12329625Y-15263836D02*
X12329625Y-15282884D01*
X12329625Y-15159074D02*
X12339149Y-15168598D01*
X12339149Y-15168598D02*
X12329625Y-15178122D01*
X12329625Y-15178122D02*
X12320102Y-15168598D01*
X12320102Y-15168598D02*
X12329625Y-15159074D01*
X12329625Y-15159074D02*
X12329625Y-15178122D01*
D11*
X10667420Y-15596400D02*
X10697420Y-15626400D01*
X10697420Y-15596400D02*
X10667420Y-15626400D01*
D10*
X10996292Y-15502884D02*
X11015340Y-15502884D01*
X11015340Y-15502884D02*
X11034387Y-15512408D01*
X11034387Y-15512408D02*
X11043911Y-15521931D01*
X11043911Y-15521931D02*
X11053435Y-15540979D01*
X11053435Y-15540979D02*
X11062959Y-15579074D01*
X11062959Y-15579074D02*
X11062959Y-15626693D01*
X11062959Y-15626693D02*
X11053435Y-15664788D01*
X11053435Y-15664788D02*
X11043911Y-15683836D01*
X11043911Y-15683836D02*
X11034387Y-15693360D01*
X11034387Y-15693360D02*
X11015340Y-15702884D01*
X11015340Y-15702884D02*
X10996292Y-15702884D01*
X10996292Y-15702884D02*
X10977244Y-15693360D01*
X10977244Y-15693360D02*
X10967721Y-15683836D01*
X10967721Y-15683836D02*
X10958197Y-15664788D01*
X10958197Y-15664788D02*
X10948673Y-15626693D01*
X10948673Y-15626693D02*
X10948673Y-15579074D01*
X10948673Y-15579074D02*
X10958197Y-15540979D01*
X10958197Y-15540979D02*
X10967721Y-15521931D01*
X10967721Y-15521931D02*
X10977244Y-15512408D01*
X10977244Y-15512408D02*
X10996292Y-15502884D01*
X11148673Y-15683836D02*
X11158197Y-15693360D01*
X11158197Y-15693360D02*
X11148673Y-15702884D01*
X11148673Y-15702884D02*
X11139149Y-15693360D01*
X11139149Y-15693360D02*
X11148673Y-15683836D01*
X11148673Y-15683836D02*
X11148673Y-15702884D01*
X11224863Y-15502884D02*
X11348673Y-15502884D01*
X11348673Y-15502884D02*
X11282006Y-15579074D01*
X11282006Y-15579074D02*
X11310578Y-15579074D01*
X11310578Y-15579074D02*
X11329625Y-15588598D01*
X11329625Y-15588598D02*
X11339149Y-15598122D01*
X11339149Y-15598122D02*
X11348673Y-15617169D01*
X11348673Y-15617169D02*
X11348673Y-15664788D01*
X11348673Y-15664788D02*
X11339149Y-15683836D01*
X11339149Y-15683836D02*
X11329625Y-15693360D01*
X11329625Y-15693360D02*
X11310578Y-15702884D01*
X11310578Y-15702884D02*
X11253435Y-15702884D01*
X11253435Y-15702884D02*
X11234387Y-15693360D01*
X11234387Y-15693360D02*
X11224863Y-15683836D01*
X11472482Y-15502884D02*
X11491530Y-15502884D01*
X11491530Y-15502884D02*
X11510578Y-15512408D01*
X11510578Y-15512408D02*
X11520102Y-15521931D01*
X11520102Y-15521931D02*
X11529625Y-15540979D01*
X11529625Y-15540979D02*
X11539149Y-15579074D01*
X11539149Y-15579074D02*
X11539149Y-15626693D01*
X11539149Y-15626693D02*
X11529625Y-15664788D01*
X11529625Y-15664788D02*
X11520102Y-15683836D01*
X11520102Y-15683836D02*
X11510578Y-15693360D01*
X11510578Y-15693360D02*
X11491530Y-15702884D01*
X11491530Y-15702884D02*
X11472482Y-15702884D01*
X11472482Y-15702884D02*
X11453435Y-15693360D01*
X11453435Y-15693360D02*
X11443911Y-15683836D01*
X11443911Y-15683836D02*
X11434387Y-15664788D01*
X11434387Y-15664788D02*
X11424863Y-15626693D01*
X11424863Y-15626693D02*
X11424863Y-15579074D01*
X11424863Y-15579074D02*
X11434387Y-15540979D01*
X11434387Y-15540979D02*
X11443911Y-15521931D01*
X11443911Y-15521931D02*
X11453435Y-15512408D01*
X11453435Y-15512408D02*
X11472482Y-15502884D01*
X11662959Y-15502884D02*
X11682006Y-15502884D01*
X11682006Y-15502884D02*
X11701054Y-15512408D01*
X11701054Y-15512408D02*
X11710578Y-15521931D01*
X11710578Y-15521931D02*
X11720102Y-15540979D01*
X11720102Y-15540979D02*
X11729625Y-15579074D01*
X11729625Y-15579074D02*
X11729625Y-15626693D01*
X11729625Y-15626693D02*
X11720102Y-15664788D01*
X11720102Y-15664788D02*
X11710578Y-15683836D01*
X11710578Y-15683836D02*
X11701054Y-15693360D01*
X11701054Y-15693360D02*
X11682006Y-15702884D01*
X11682006Y-15702884D02*
X11662959Y-15702884D01*
X11662959Y-15702884D02*
X11643911Y-15693360D01*
X11643911Y-15693360D02*
X11634387Y-15683836D01*
X11634387Y-15683836D02*
X11624863Y-15664788D01*
X11624863Y-15664788D02*
X11615340Y-15626693D01*
X11615340Y-15626693D02*
X11615340Y-15579074D01*
X11615340Y-15579074D02*
X11624863Y-15540979D01*
X11624863Y-15540979D02*
X11634387Y-15521931D01*
X11634387Y-15521931D02*
X11643911Y-15512408D01*
X11643911Y-15512408D02*
X11662959Y-15502884D01*
X11815340Y-15702884D02*
X11815340Y-15569550D01*
X11815340Y-15588598D02*
X11824863Y-15579074D01*
X11824863Y-15579074D02*
X11843911Y-15569550D01*
X11843911Y-15569550D02*
X11872483Y-15569550D01*
X11872483Y-15569550D02*
X11891530Y-15579074D01*
X11891530Y-15579074D02*
X11901054Y-15598122D01*
X11901054Y-15598122D02*
X11901054Y-15702884D01*
X11901054Y-15598122D02*
X11910578Y-15579074D01*
X11910578Y-15579074D02*
X11929625Y-15569550D01*
X11929625Y-15569550D02*
X11958197Y-15569550D01*
X11958197Y-15569550D02*
X11977244Y-15579074D01*
X11977244Y-15579074D02*
X11986768Y-15598122D01*
X11986768Y-15598122D02*
X11986768Y-15702884D01*
X12082006Y-15702884D02*
X12082006Y-15569550D01*
X12082006Y-15588598D02*
X12091530Y-15579074D01*
X12091530Y-15579074D02*
X12110578Y-15569550D01*
X12110578Y-15569550D02*
X12139149Y-15569550D01*
X12139149Y-15569550D02*
X12158197Y-15579074D01*
X12158197Y-15579074D02*
X12167721Y-15598122D01*
X12167721Y-15598122D02*
X12167721Y-15702884D01*
X12167721Y-15598122D02*
X12177244Y-15579074D01*
X12177244Y-15579074D02*
X12196292Y-15569550D01*
X12196292Y-15569550D02*
X12224863Y-15569550D01*
X12224863Y-15569550D02*
X12243911Y-15579074D01*
X12243911Y-15579074D02*
X12253435Y-15598122D01*
X12253435Y-15598122D02*
X12253435Y-15702884D01*
X12643911Y-15493360D02*
X12472483Y-15750503D01*
X12901054Y-15502884D02*
X12920102Y-15502884D01*
X12920102Y-15502884D02*
X12939149Y-15512408D01*
X12939149Y-15512408D02*
X12948673Y-15521931D01*
X12948673Y-15521931D02*
X12958197Y-15540979D01*
X12958197Y-15540979D02*
X12967721Y-15579074D01*
X12967721Y-15579074D02*
X12967721Y-15626693D01*
X12967721Y-15626693D02*
X12958197Y-15664788D01*
X12958197Y-15664788D02*
X12948673Y-15683836D01*
X12948673Y-15683836D02*
X12939149Y-15693360D01*
X12939149Y-15693360D02*
X12920102Y-15702884D01*
X12920102Y-15702884D02*
X12901054Y-15702884D01*
X12901054Y-15702884D02*
X12882006Y-15693360D01*
X12882006Y-15693360D02*
X12872483Y-15683836D01*
X12872483Y-15683836D02*
X12862959Y-15664788D01*
X12862959Y-15664788D02*
X12853435Y-15626693D01*
X12853435Y-15626693D02*
X12853435Y-15579074D01*
X12853435Y-15579074D02*
X12862959Y-15540979D01*
X12862959Y-15540979D02*
X12872483Y-15521931D01*
X12872483Y-15521931D02*
X12882006Y-15512408D01*
X12882006Y-15512408D02*
X12901054Y-15502884D01*
X13053435Y-15683836D02*
X13062959Y-15693360D01*
X13062959Y-15693360D02*
X13053435Y-15702884D01*
X13053435Y-15702884D02*
X13043911Y-15693360D01*
X13043911Y-15693360D02*
X13053435Y-15683836D01*
X13053435Y-15683836D02*
X13053435Y-15702884D01*
X13186768Y-15502884D02*
X13205816Y-15502884D01*
X13205816Y-15502884D02*
X13224864Y-15512408D01*
X13224864Y-15512408D02*
X13234387Y-15521931D01*
X13234387Y-15521931D02*
X13243911Y-15540979D01*
X13243911Y-15540979D02*
X13253435Y-15579074D01*
X13253435Y-15579074D02*
X13253435Y-15626693D01*
X13253435Y-15626693D02*
X13243911Y-15664788D01*
X13243911Y-15664788D02*
X13234387Y-15683836D01*
X13234387Y-15683836D02*
X13224864Y-15693360D01*
X13224864Y-15693360D02*
X13205816Y-15702884D01*
X13205816Y-15702884D02*
X13186768Y-15702884D01*
X13186768Y-15702884D02*
X13167721Y-15693360D01*
X13167721Y-15693360D02*
X13158197Y-15683836D01*
X13158197Y-15683836D02*
X13148673Y-15664788D01*
X13148673Y-15664788D02*
X13139149Y-15626693D01*
X13139149Y-15626693D02*
X13139149Y-15579074D01*
X13139149Y-15579074D02*
X13148673Y-15540979D01*
X13148673Y-15540979D02*
X13158197Y-15521931D01*
X13158197Y-15521931D02*
X13167721Y-15512408D01*
X13167721Y-15512408D02*
X13186768Y-15502884D01*
X13443911Y-15702884D02*
X13329626Y-15702884D01*
X13386768Y-15702884D02*
X13386768Y-15502884D01*
X13386768Y-15502884D02*
X13367721Y-15531455D01*
X13367721Y-15531455D02*
X13348673Y-15550503D01*
X13348673Y-15550503D02*
X13329626Y-15560027D01*
X13634387Y-15702884D02*
X13520102Y-15702884D01*
X13577245Y-15702884D02*
X13577245Y-15502884D01*
X13577245Y-15502884D02*
X13558197Y-15531455D01*
X13558197Y-15531455D02*
X13539149Y-15550503D01*
X13539149Y-15550503D02*
X13520102Y-15560027D01*
X13748673Y-15588598D02*
X13729626Y-15579074D01*
X13729626Y-15579074D02*
X13720102Y-15569550D01*
X13720102Y-15569550D02*
X13710578Y-15550503D01*
X13710578Y-15550503D02*
X13710578Y-15540979D01*
X13710578Y-15540979D02*
X13720102Y-15521931D01*
X13720102Y-15521931D02*
X13729626Y-15512408D01*
X13729626Y-15512408D02*
X13748673Y-15502884D01*
X13748673Y-15502884D02*
X13786768Y-15502884D01*
X13786768Y-15502884D02*
X13805816Y-15512408D01*
X13805816Y-15512408D02*
X13815340Y-15521931D01*
X13815340Y-15521931D02*
X13824864Y-15540979D01*
X13824864Y-15540979D02*
X13824864Y-15550503D01*
X13824864Y-15550503D02*
X13815340Y-15569550D01*
X13815340Y-15569550D02*
X13805816Y-15579074D01*
X13805816Y-15579074D02*
X13786768Y-15588598D01*
X13786768Y-15588598D02*
X13748673Y-15588598D01*
X13748673Y-15588598D02*
X13729626Y-15598122D01*
X13729626Y-15598122D02*
X13720102Y-15607646D01*
X13720102Y-15607646D02*
X13710578Y-15626693D01*
X13710578Y-15626693D02*
X13710578Y-15664788D01*
X13710578Y-15664788D02*
X13720102Y-15683836D01*
X13720102Y-15683836D02*
X13729626Y-15693360D01*
X13729626Y-15693360D02*
X13748673Y-15702884D01*
X13748673Y-15702884D02*
X13786768Y-15702884D01*
X13786768Y-15702884D02*
X13805816Y-15693360D01*
X13805816Y-15693360D02*
X13815340Y-15683836D01*
X13815340Y-15683836D02*
X13824864Y-15664788D01*
X13824864Y-15664788D02*
X13824864Y-15626693D01*
X13824864Y-15626693D02*
X13815340Y-15607646D01*
X13815340Y-15607646D02*
X13805816Y-15598122D01*
X13805816Y-15598122D02*
X13786768Y-15588598D01*
X13901054Y-15502884D02*
X13901054Y-15540979D01*
X13977245Y-15502884D02*
X13977245Y-15540979D01*
X14272483Y-15779074D02*
X14262959Y-15769550D01*
X14262959Y-15769550D02*
X14243911Y-15740979D01*
X14243911Y-15740979D02*
X14234388Y-15721931D01*
X14234388Y-15721931D02*
X14224864Y-15693360D01*
X14224864Y-15693360D02*
X14215340Y-15645741D01*
X14215340Y-15645741D02*
X14215340Y-15607646D01*
X14215340Y-15607646D02*
X14224864Y-15560027D01*
X14224864Y-15560027D02*
X14234388Y-15531455D01*
X14234388Y-15531455D02*
X14243911Y-15512408D01*
X14243911Y-15512408D02*
X14262959Y-15483836D01*
X14262959Y-15483836D02*
X14272483Y-15474312D01*
X14329626Y-15502884D02*
X14453435Y-15502884D01*
X14453435Y-15502884D02*
X14386768Y-15579074D01*
X14386768Y-15579074D02*
X14415340Y-15579074D01*
X14415340Y-15579074D02*
X14434388Y-15588598D01*
X14434388Y-15588598D02*
X14443911Y-15598122D01*
X14443911Y-15598122D02*
X14453435Y-15617169D01*
X14453435Y-15617169D02*
X14453435Y-15664788D01*
X14453435Y-15664788D02*
X14443911Y-15683836D01*
X14443911Y-15683836D02*
X14434388Y-15693360D01*
X14434388Y-15693360D02*
X14415340Y-15702884D01*
X14415340Y-15702884D02*
X14358197Y-15702884D01*
X14358197Y-15702884D02*
X14339149Y-15693360D01*
X14339149Y-15693360D02*
X14329626Y-15683836D01*
X14643911Y-15702884D02*
X14529626Y-15702884D01*
X14586768Y-15702884D02*
X14586768Y-15502884D01*
X14586768Y-15502884D02*
X14567721Y-15531455D01*
X14567721Y-15531455D02*
X14548673Y-15550503D01*
X14548673Y-15550503D02*
X14529626Y-15560027D01*
X14824864Y-15502884D02*
X14729626Y-15502884D01*
X14729626Y-15502884D02*
X14720102Y-15598122D01*
X14720102Y-15598122D02*
X14729626Y-15588598D01*
X14729626Y-15588598D02*
X14748673Y-15579074D01*
X14748673Y-15579074D02*
X14796292Y-15579074D01*
X14796292Y-15579074D02*
X14815340Y-15588598D01*
X14815340Y-15588598D02*
X14824864Y-15598122D01*
X14824864Y-15598122D02*
X14834388Y-15617169D01*
X14834388Y-15617169D02*
X14834388Y-15664788D01*
X14834388Y-15664788D02*
X14824864Y-15683836D01*
X14824864Y-15683836D02*
X14815340Y-15693360D01*
X14815340Y-15693360D02*
X14796292Y-15702884D01*
X14796292Y-15702884D02*
X14748673Y-15702884D01*
X14748673Y-15702884D02*
X14729626Y-15693360D01*
X14729626Y-15693360D02*
X14720102Y-15683836D01*
X15072483Y-15702884D02*
X15072483Y-15502884D01*
X15158197Y-15702884D02*
X15158197Y-15598122D01*
X15158197Y-15598122D02*
X15148673Y-15579074D01*
X15148673Y-15579074D02*
X15129626Y-15569550D01*
X15129626Y-15569550D02*
X15101054Y-15569550D01*
X15101054Y-15569550D02*
X15082007Y-15579074D01*
X15082007Y-15579074D02*
X15072483Y-15588598D01*
X15282007Y-15702884D02*
X15262959Y-15693360D01*
X15262959Y-15693360D02*
X15253435Y-15683836D01*
X15253435Y-15683836D02*
X15243911Y-15664788D01*
X15243911Y-15664788D02*
X15243911Y-15607646D01*
X15243911Y-15607646D02*
X15253435Y-15588598D01*
X15253435Y-15588598D02*
X15262959Y-15579074D01*
X15262959Y-15579074D02*
X15282007Y-15569550D01*
X15282007Y-15569550D02*
X15310578Y-15569550D01*
X15310578Y-15569550D02*
X15329626Y-15579074D01*
X15329626Y-15579074D02*
X15339150Y-15588598D01*
X15339150Y-15588598D02*
X15348673Y-15607646D01*
X15348673Y-15607646D02*
X15348673Y-15664788D01*
X15348673Y-15664788D02*
X15339150Y-15683836D01*
X15339150Y-15683836D02*
X15329626Y-15693360D01*
X15329626Y-15693360D02*
X15310578Y-15702884D01*
X15310578Y-15702884D02*
X15282007Y-15702884D01*
X15462959Y-15702884D02*
X15443911Y-15693360D01*
X15443911Y-15693360D02*
X15434388Y-15674312D01*
X15434388Y-15674312D02*
X15434388Y-15502884D01*
X15615340Y-15693360D02*
X15596292Y-15702884D01*
X15596292Y-15702884D02*
X15558197Y-15702884D01*
X15558197Y-15702884D02*
X15539150Y-15693360D01*
X15539150Y-15693360D02*
X15529626Y-15674312D01*
X15529626Y-15674312D02*
X15529626Y-15598122D01*
X15529626Y-15598122D02*
X15539150Y-15579074D01*
X15539150Y-15579074D02*
X15558197Y-15569550D01*
X15558197Y-15569550D02*
X15596292Y-15569550D01*
X15596292Y-15569550D02*
X15615340Y-15579074D01*
X15615340Y-15579074D02*
X15624864Y-15598122D01*
X15624864Y-15598122D02*
X15624864Y-15617169D01*
X15624864Y-15617169D02*
X15529626Y-15636217D01*
X15701054Y-15693360D02*
X15720102Y-15702884D01*
X15720102Y-15702884D02*
X15758197Y-15702884D01*
X15758197Y-15702884D02*
X15777245Y-15693360D01*
X15777245Y-15693360D02*
X15786769Y-15674312D01*
X15786769Y-15674312D02*
X15786769Y-15664788D01*
X15786769Y-15664788D02*
X15777245Y-15645741D01*
X15777245Y-15645741D02*
X15758197Y-15636217D01*
X15758197Y-15636217D02*
X15729626Y-15636217D01*
X15729626Y-15636217D02*
X15710578Y-15626693D01*
X15710578Y-15626693D02*
X15701054Y-15607646D01*
X15701054Y-15607646D02*
X15701054Y-15598122D01*
X15701054Y-15598122D02*
X15710578Y-15579074D01*
X15710578Y-15579074D02*
X15729626Y-15569550D01*
X15729626Y-15569550D02*
X15758197Y-15569550D01*
X15758197Y-15569550D02*
X15777245Y-15579074D01*
X15853435Y-15779074D02*
X15862959Y-15769550D01*
X15862959Y-15769550D02*
X15882007Y-15740979D01*
X15882007Y-15740979D02*
X15891531Y-15721931D01*
X15891531Y-15721931D02*
X15901054Y-15693360D01*
X15901054Y-15693360D02*
X15910578Y-15645741D01*
X15910578Y-15645741D02*
X15910578Y-15607646D01*
X15910578Y-15607646D02*
X15901054Y-15560027D01*
X15901054Y-15560027D02*
X15891531Y-15531455D01*
X15891531Y-15531455D02*
X15882007Y-15512408D01*
X15882007Y-15512408D02*
X15862959Y-15483836D01*
X15862959Y-15483836D02*
X15853435Y-15474312D01*
D11*
X10697420Y-15875400D02*
G75*
G02*
X10647420Y-15875400I-25000J0D01*
G01*
X10647420Y-15875400D02*
G75*
G02*
X10697420Y-15875400I25000J0D01*
G01*
D10*
X10996292Y-15766884D02*
X11015340Y-15766884D01*
X11015340Y-15766884D02*
X11034387Y-15776408D01*
X11034387Y-15776408D02*
X11043911Y-15785931D01*
X11043911Y-15785931D02*
X11053435Y-15804979D01*
X11053435Y-15804979D02*
X11062959Y-15843074D01*
X11062959Y-15843074D02*
X11062959Y-15890693D01*
X11062959Y-15890693D02*
X11053435Y-15928788D01*
X11053435Y-15928788D02*
X11043911Y-15947836D01*
X11043911Y-15947836D02*
X11034387Y-15957360D01*
X11034387Y-15957360D02*
X11015340Y-15966884D01*
X11015340Y-15966884D02*
X10996292Y-15966884D01*
X10996292Y-15966884D02*
X10977244Y-15957360D01*
X10977244Y-15957360D02*
X10967721Y-15947836D01*
X10967721Y-15947836D02*
X10958197Y-15928788D01*
X10958197Y-15928788D02*
X10948673Y-15890693D01*
X10948673Y-15890693D02*
X10948673Y-15843074D01*
X10948673Y-15843074D02*
X10958197Y-15804979D01*
X10958197Y-15804979D02*
X10967721Y-15785931D01*
X10967721Y-15785931D02*
X10977244Y-15776408D01*
X10977244Y-15776408D02*
X10996292Y-15766884D01*
X11148673Y-15947836D02*
X11158197Y-15957360D01*
X11158197Y-15957360D02*
X11148673Y-15966884D01*
X11148673Y-15966884D02*
X11139149Y-15957360D01*
X11139149Y-15957360D02*
X11148673Y-15947836D01*
X11148673Y-15947836D02*
X11148673Y-15966884D01*
X11339149Y-15766884D02*
X11243911Y-15766884D01*
X11243911Y-15766884D02*
X11234387Y-15862122D01*
X11234387Y-15862122D02*
X11243911Y-15852598D01*
X11243911Y-15852598D02*
X11262959Y-15843074D01*
X11262959Y-15843074D02*
X11310578Y-15843074D01*
X11310578Y-15843074D02*
X11329625Y-15852598D01*
X11329625Y-15852598D02*
X11339149Y-15862122D01*
X11339149Y-15862122D02*
X11348673Y-15881169D01*
X11348673Y-15881169D02*
X11348673Y-15928788D01*
X11348673Y-15928788D02*
X11339149Y-15947836D01*
X11339149Y-15947836D02*
X11329625Y-15957360D01*
X11329625Y-15957360D02*
X11310578Y-15966884D01*
X11310578Y-15966884D02*
X11262959Y-15966884D01*
X11262959Y-15966884D02*
X11243911Y-15957360D01*
X11243911Y-15957360D02*
X11234387Y-15947836D01*
X11472482Y-15766884D02*
X11491530Y-15766884D01*
X11491530Y-15766884D02*
X11510578Y-15776408D01*
X11510578Y-15776408D02*
X11520102Y-15785931D01*
X11520102Y-15785931D02*
X11529625Y-15804979D01*
X11529625Y-15804979D02*
X11539149Y-15843074D01*
X11539149Y-15843074D02*
X11539149Y-15890693D01*
X11539149Y-15890693D02*
X11529625Y-15928788D01*
X11529625Y-15928788D02*
X11520102Y-15947836D01*
X11520102Y-15947836D02*
X11510578Y-15957360D01*
X11510578Y-15957360D02*
X11491530Y-15966884D01*
X11491530Y-15966884D02*
X11472482Y-15966884D01*
X11472482Y-15966884D02*
X11453435Y-15957360D01*
X11453435Y-15957360D02*
X11443911Y-15947836D01*
X11443911Y-15947836D02*
X11434387Y-15928788D01*
X11434387Y-15928788D02*
X11424863Y-15890693D01*
X11424863Y-15890693D02*
X11424863Y-15843074D01*
X11424863Y-15843074D02*
X11434387Y-15804979D01*
X11434387Y-15804979D02*
X11443911Y-15785931D01*
X11443911Y-15785931D02*
X11453435Y-15776408D01*
X11453435Y-15776408D02*
X11472482Y-15766884D01*
X11662959Y-15766884D02*
X11682006Y-15766884D01*
X11682006Y-15766884D02*
X11701054Y-15776408D01*
X11701054Y-15776408D02*
X11710578Y-15785931D01*
X11710578Y-15785931D02*
X11720102Y-15804979D01*
X11720102Y-15804979D02*
X11729625Y-15843074D01*
X11729625Y-15843074D02*
X11729625Y-15890693D01*
X11729625Y-15890693D02*
X11720102Y-15928788D01*
X11720102Y-15928788D02*
X11710578Y-15947836D01*
X11710578Y-15947836D02*
X11701054Y-15957360D01*
X11701054Y-15957360D02*
X11682006Y-15966884D01*
X11682006Y-15966884D02*
X11662959Y-15966884D01*
X11662959Y-15966884D02*
X11643911Y-15957360D01*
X11643911Y-15957360D02*
X11634387Y-15947836D01*
X11634387Y-15947836D02*
X11624863Y-15928788D01*
X11624863Y-15928788D02*
X11615340Y-15890693D01*
X11615340Y-15890693D02*
X11615340Y-15843074D01*
X11615340Y-15843074D02*
X11624863Y-15804979D01*
X11624863Y-15804979D02*
X11634387Y-15785931D01*
X11634387Y-15785931D02*
X11643911Y-15776408D01*
X11643911Y-15776408D02*
X11662959Y-15766884D01*
X11815340Y-15966884D02*
X11815340Y-15833550D01*
X11815340Y-15852598D02*
X11824863Y-15843074D01*
X11824863Y-15843074D02*
X11843911Y-15833550D01*
X11843911Y-15833550D02*
X11872483Y-15833550D01*
X11872483Y-15833550D02*
X11891530Y-15843074D01*
X11891530Y-15843074D02*
X11901054Y-15862122D01*
X11901054Y-15862122D02*
X11901054Y-15966884D01*
X11901054Y-15862122D02*
X11910578Y-15843074D01*
X11910578Y-15843074D02*
X11929625Y-15833550D01*
X11929625Y-15833550D02*
X11958197Y-15833550D01*
X11958197Y-15833550D02*
X11977244Y-15843074D01*
X11977244Y-15843074D02*
X11986768Y-15862122D01*
X11986768Y-15862122D02*
X11986768Y-15966884D01*
X12082006Y-15966884D02*
X12082006Y-15833550D01*
X12082006Y-15852598D02*
X12091530Y-15843074D01*
X12091530Y-15843074D02*
X12110578Y-15833550D01*
X12110578Y-15833550D02*
X12139149Y-15833550D01*
X12139149Y-15833550D02*
X12158197Y-15843074D01*
X12158197Y-15843074D02*
X12167721Y-15862122D01*
X12167721Y-15862122D02*
X12167721Y-15966884D01*
X12167721Y-15862122D02*
X12177244Y-15843074D01*
X12177244Y-15843074D02*
X12196292Y-15833550D01*
X12196292Y-15833550D02*
X12224863Y-15833550D01*
X12224863Y-15833550D02*
X12243911Y-15843074D01*
X12243911Y-15843074D02*
X12253435Y-15862122D01*
X12253435Y-15862122D02*
X12253435Y-15966884D01*
X12643911Y-15757360D02*
X12472483Y-16014503D01*
X12901054Y-15766884D02*
X12920102Y-15766884D01*
X12920102Y-15766884D02*
X12939149Y-15776408D01*
X12939149Y-15776408D02*
X12948673Y-15785931D01*
X12948673Y-15785931D02*
X12958197Y-15804979D01*
X12958197Y-15804979D02*
X12967721Y-15843074D01*
X12967721Y-15843074D02*
X12967721Y-15890693D01*
X12967721Y-15890693D02*
X12958197Y-15928788D01*
X12958197Y-15928788D02*
X12948673Y-15947836D01*
X12948673Y-15947836D02*
X12939149Y-15957360D01*
X12939149Y-15957360D02*
X12920102Y-15966884D01*
X12920102Y-15966884D02*
X12901054Y-15966884D01*
X12901054Y-15966884D02*
X12882006Y-15957360D01*
X12882006Y-15957360D02*
X12872483Y-15947836D01*
X12872483Y-15947836D02*
X12862959Y-15928788D01*
X12862959Y-15928788D02*
X12853435Y-15890693D01*
X12853435Y-15890693D02*
X12853435Y-15843074D01*
X12853435Y-15843074D02*
X12862959Y-15804979D01*
X12862959Y-15804979D02*
X12872483Y-15785931D01*
X12872483Y-15785931D02*
X12882006Y-15776408D01*
X12882006Y-15776408D02*
X12901054Y-15766884D01*
X13053435Y-15947836D02*
X13062959Y-15957360D01*
X13062959Y-15957360D02*
X13053435Y-15966884D01*
X13053435Y-15966884D02*
X13043911Y-15957360D01*
X13043911Y-15957360D02*
X13053435Y-15947836D01*
X13053435Y-15947836D02*
X13053435Y-15966884D01*
X13186768Y-15766884D02*
X13205816Y-15766884D01*
X13205816Y-15766884D02*
X13224864Y-15776408D01*
X13224864Y-15776408D02*
X13234387Y-15785931D01*
X13234387Y-15785931D02*
X13243911Y-15804979D01*
X13243911Y-15804979D02*
X13253435Y-15843074D01*
X13253435Y-15843074D02*
X13253435Y-15890693D01*
X13253435Y-15890693D02*
X13243911Y-15928788D01*
X13243911Y-15928788D02*
X13234387Y-15947836D01*
X13234387Y-15947836D02*
X13224864Y-15957360D01*
X13224864Y-15957360D02*
X13205816Y-15966884D01*
X13205816Y-15966884D02*
X13186768Y-15966884D01*
X13186768Y-15966884D02*
X13167721Y-15957360D01*
X13167721Y-15957360D02*
X13158197Y-15947836D01*
X13158197Y-15947836D02*
X13148673Y-15928788D01*
X13148673Y-15928788D02*
X13139149Y-15890693D01*
X13139149Y-15890693D02*
X13139149Y-15843074D01*
X13139149Y-15843074D02*
X13148673Y-15804979D01*
X13148673Y-15804979D02*
X13158197Y-15785931D01*
X13158197Y-15785931D02*
X13167721Y-15776408D01*
X13167721Y-15776408D02*
X13186768Y-15766884D01*
X13443911Y-15966884D02*
X13329626Y-15966884D01*
X13386768Y-15966884D02*
X13386768Y-15766884D01*
X13386768Y-15766884D02*
X13367721Y-15795455D01*
X13367721Y-15795455D02*
X13348673Y-15814503D01*
X13348673Y-15814503D02*
X13329626Y-15824027D01*
X13539149Y-15966884D02*
X13577245Y-15966884D01*
X13577245Y-15966884D02*
X13596292Y-15957360D01*
X13596292Y-15957360D02*
X13605816Y-15947836D01*
X13605816Y-15947836D02*
X13624864Y-15919265D01*
X13624864Y-15919265D02*
X13634387Y-15881169D01*
X13634387Y-15881169D02*
X13634387Y-15804979D01*
X13634387Y-15804979D02*
X13624864Y-15785931D01*
X13624864Y-15785931D02*
X13615340Y-15776408D01*
X13615340Y-15776408D02*
X13596292Y-15766884D01*
X13596292Y-15766884D02*
X13558197Y-15766884D01*
X13558197Y-15766884D02*
X13539149Y-15776408D01*
X13539149Y-15776408D02*
X13529626Y-15785931D01*
X13529626Y-15785931D02*
X13520102Y-15804979D01*
X13520102Y-15804979D02*
X13520102Y-15852598D01*
X13520102Y-15852598D02*
X13529626Y-15871646D01*
X13529626Y-15871646D02*
X13539149Y-15881169D01*
X13539149Y-15881169D02*
X13558197Y-15890693D01*
X13558197Y-15890693D02*
X13596292Y-15890693D01*
X13596292Y-15890693D02*
X13615340Y-15881169D01*
X13615340Y-15881169D02*
X13624864Y-15871646D01*
X13624864Y-15871646D02*
X13634387Y-15852598D01*
X13701054Y-15766884D02*
X13834387Y-15766884D01*
X13834387Y-15766884D02*
X13748673Y-15966884D01*
X13901054Y-15766884D02*
X13901054Y-15804979D01*
X13977245Y-15766884D02*
X13977245Y-15804979D01*
X14272483Y-16043074D02*
X14262959Y-16033550D01*
X14262959Y-16033550D02*
X14243911Y-16004979D01*
X14243911Y-16004979D02*
X14234388Y-15985931D01*
X14234388Y-15985931D02*
X14224864Y-15957360D01*
X14224864Y-15957360D02*
X14215340Y-15909741D01*
X14215340Y-15909741D02*
X14215340Y-15871646D01*
X14215340Y-15871646D02*
X14224864Y-15824027D01*
X14224864Y-15824027D02*
X14234388Y-15795455D01*
X14234388Y-15795455D02*
X14243911Y-15776408D01*
X14243911Y-15776408D02*
X14262959Y-15747836D01*
X14262959Y-15747836D02*
X14272483Y-15738312D01*
X14329626Y-15766884D02*
X14453435Y-15766884D01*
X14453435Y-15766884D02*
X14386768Y-15843074D01*
X14386768Y-15843074D02*
X14415340Y-15843074D01*
X14415340Y-15843074D02*
X14434388Y-15852598D01*
X14434388Y-15852598D02*
X14443911Y-15862122D01*
X14443911Y-15862122D02*
X14453435Y-15881169D01*
X14453435Y-15881169D02*
X14453435Y-15928788D01*
X14453435Y-15928788D02*
X14443911Y-15947836D01*
X14443911Y-15947836D02*
X14434388Y-15957360D01*
X14434388Y-15957360D02*
X14415340Y-15966884D01*
X14415340Y-15966884D02*
X14358197Y-15966884D01*
X14358197Y-15966884D02*
X14339149Y-15957360D01*
X14339149Y-15957360D02*
X14329626Y-15947836D01*
X14529626Y-15785931D02*
X14539149Y-15776408D01*
X14539149Y-15776408D02*
X14558197Y-15766884D01*
X14558197Y-15766884D02*
X14605816Y-15766884D01*
X14605816Y-15766884D02*
X14624864Y-15776408D01*
X14624864Y-15776408D02*
X14634388Y-15785931D01*
X14634388Y-15785931D02*
X14643911Y-15804979D01*
X14643911Y-15804979D02*
X14643911Y-15824027D01*
X14643911Y-15824027D02*
X14634388Y-15852598D01*
X14634388Y-15852598D02*
X14520102Y-15966884D01*
X14520102Y-15966884D02*
X14643911Y-15966884D01*
X14882007Y-15966884D02*
X14882007Y-15766884D01*
X14967721Y-15966884D02*
X14967721Y-15862122D01*
X14967721Y-15862122D02*
X14958197Y-15843074D01*
X14958197Y-15843074D02*
X14939150Y-15833550D01*
X14939150Y-15833550D02*
X14910578Y-15833550D01*
X14910578Y-15833550D02*
X14891530Y-15843074D01*
X14891530Y-15843074D02*
X14882007Y-15852598D01*
X15091530Y-15966884D02*
X15072483Y-15957360D01*
X15072483Y-15957360D02*
X15062959Y-15947836D01*
X15062959Y-15947836D02*
X15053435Y-15928788D01*
X15053435Y-15928788D02*
X15053435Y-15871646D01*
X15053435Y-15871646D02*
X15062959Y-15852598D01*
X15062959Y-15852598D02*
X15072483Y-15843074D01*
X15072483Y-15843074D02*
X15091530Y-15833550D01*
X15091530Y-15833550D02*
X15120102Y-15833550D01*
X15120102Y-15833550D02*
X15139150Y-15843074D01*
X15139150Y-15843074D02*
X15148673Y-15852598D01*
X15148673Y-15852598D02*
X15158197Y-15871646D01*
X15158197Y-15871646D02*
X15158197Y-15928788D01*
X15158197Y-15928788D02*
X15148673Y-15947836D01*
X15148673Y-15947836D02*
X15139150Y-15957360D01*
X15139150Y-15957360D02*
X15120102Y-15966884D01*
X15120102Y-15966884D02*
X15091530Y-15966884D01*
X15272483Y-15966884D02*
X15253435Y-15957360D01*
X15253435Y-15957360D02*
X15243911Y-15938312D01*
X15243911Y-15938312D02*
X15243911Y-15766884D01*
X15424864Y-15957360D02*
X15405816Y-15966884D01*
X15405816Y-15966884D02*
X15367721Y-15966884D01*
X15367721Y-15966884D02*
X15348673Y-15957360D01*
X15348673Y-15957360D02*
X15339150Y-15938312D01*
X15339150Y-15938312D02*
X15339150Y-15862122D01*
X15339150Y-15862122D02*
X15348673Y-15843074D01*
X15348673Y-15843074D02*
X15367721Y-15833550D01*
X15367721Y-15833550D02*
X15405816Y-15833550D01*
X15405816Y-15833550D02*
X15424864Y-15843074D01*
X15424864Y-15843074D02*
X15434388Y-15862122D01*
X15434388Y-15862122D02*
X15434388Y-15881169D01*
X15434388Y-15881169D02*
X15339150Y-15900217D01*
X15510578Y-15957360D02*
X15529626Y-15966884D01*
X15529626Y-15966884D02*
X15567721Y-15966884D01*
X15567721Y-15966884D02*
X15586769Y-15957360D01*
X15586769Y-15957360D02*
X15596292Y-15938312D01*
X15596292Y-15938312D02*
X15596292Y-15928788D01*
X15596292Y-15928788D02*
X15586769Y-15909741D01*
X15586769Y-15909741D02*
X15567721Y-15900217D01*
X15567721Y-15900217D02*
X15539150Y-15900217D01*
X15539150Y-15900217D02*
X15520102Y-15890693D01*
X15520102Y-15890693D02*
X15510578Y-15871646D01*
X15510578Y-15871646D02*
X15510578Y-15862122D01*
X15510578Y-15862122D02*
X15520102Y-15843074D01*
X15520102Y-15843074D02*
X15539150Y-15833550D01*
X15539150Y-15833550D02*
X15567721Y-15833550D01*
X15567721Y-15833550D02*
X15586769Y-15843074D01*
X15662959Y-16043074D02*
X15672483Y-16033550D01*
X15672483Y-16033550D02*
X15691531Y-16004979D01*
X15691531Y-16004979D02*
X15701054Y-15985931D01*
X15701054Y-15985931D02*
X15710578Y-15957360D01*
X15710578Y-15957360D02*
X15720102Y-15909741D01*
X15720102Y-15909741D02*
X15720102Y-15871646D01*
X15720102Y-15871646D02*
X15710578Y-15824027D01*
X15710578Y-15824027D02*
X15701054Y-15795455D01*
X15701054Y-15795455D02*
X15691531Y-15776408D01*
X15691531Y-15776408D02*
X15672483Y-15747836D01*
X15672483Y-15747836D02*
X15662959Y-15738312D01*
D11*
X10647420Y-16089400D02*
X10647420Y-16189400D01*
X10597420Y-16139400D02*
X10697420Y-16139400D01*
D10*
X11062959Y-16230884D02*
X10948673Y-16230884D01*
X11005816Y-16230884D02*
X11005816Y-16030884D01*
X11005816Y-16030884D02*
X10986768Y-16059455D01*
X10986768Y-16059455D02*
X10967721Y-16078503D01*
X10967721Y-16078503D02*
X10948673Y-16088027D01*
X11148673Y-16211836D02*
X11158197Y-16221360D01*
X11158197Y-16221360D02*
X11148673Y-16230884D01*
X11148673Y-16230884D02*
X11139149Y-16221360D01*
X11139149Y-16221360D02*
X11148673Y-16211836D01*
X11148673Y-16211836D02*
X11148673Y-16230884D01*
X11282006Y-16030884D02*
X11301054Y-16030884D01*
X11301054Y-16030884D02*
X11320102Y-16040408D01*
X11320102Y-16040408D02*
X11329625Y-16049931D01*
X11329625Y-16049931D02*
X11339149Y-16068979D01*
X11339149Y-16068979D02*
X11348673Y-16107074D01*
X11348673Y-16107074D02*
X11348673Y-16154693D01*
X11348673Y-16154693D02*
X11339149Y-16192788D01*
X11339149Y-16192788D02*
X11329625Y-16211836D01*
X11329625Y-16211836D02*
X11320102Y-16221360D01*
X11320102Y-16221360D02*
X11301054Y-16230884D01*
X11301054Y-16230884D02*
X11282006Y-16230884D01*
X11282006Y-16230884D02*
X11262959Y-16221360D01*
X11262959Y-16221360D02*
X11253435Y-16211836D01*
X11253435Y-16211836D02*
X11243911Y-16192788D01*
X11243911Y-16192788D02*
X11234387Y-16154693D01*
X11234387Y-16154693D02*
X11234387Y-16107074D01*
X11234387Y-16107074D02*
X11243911Y-16068979D01*
X11243911Y-16068979D02*
X11253435Y-16049931D01*
X11253435Y-16049931D02*
X11262959Y-16040408D01*
X11262959Y-16040408D02*
X11282006Y-16030884D01*
X11472482Y-16030884D02*
X11491530Y-16030884D01*
X11491530Y-16030884D02*
X11510578Y-16040408D01*
X11510578Y-16040408D02*
X11520102Y-16049931D01*
X11520102Y-16049931D02*
X11529625Y-16068979D01*
X11529625Y-16068979D02*
X11539149Y-16107074D01*
X11539149Y-16107074D02*
X11539149Y-16154693D01*
X11539149Y-16154693D02*
X11529625Y-16192788D01*
X11529625Y-16192788D02*
X11520102Y-16211836D01*
X11520102Y-16211836D02*
X11510578Y-16221360D01*
X11510578Y-16221360D02*
X11491530Y-16230884D01*
X11491530Y-16230884D02*
X11472482Y-16230884D01*
X11472482Y-16230884D02*
X11453435Y-16221360D01*
X11453435Y-16221360D02*
X11443911Y-16211836D01*
X11443911Y-16211836D02*
X11434387Y-16192788D01*
X11434387Y-16192788D02*
X11424863Y-16154693D01*
X11424863Y-16154693D02*
X11424863Y-16107074D01*
X11424863Y-16107074D02*
X11434387Y-16068979D01*
X11434387Y-16068979D02*
X11443911Y-16049931D01*
X11443911Y-16049931D02*
X11453435Y-16040408D01*
X11453435Y-16040408D02*
X11472482Y-16030884D01*
X11662959Y-16030884D02*
X11682006Y-16030884D01*
X11682006Y-16030884D02*
X11701054Y-16040408D01*
X11701054Y-16040408D02*
X11710578Y-16049931D01*
X11710578Y-16049931D02*
X11720102Y-16068979D01*
X11720102Y-16068979D02*
X11729625Y-16107074D01*
X11729625Y-16107074D02*
X11729625Y-16154693D01*
X11729625Y-16154693D02*
X11720102Y-16192788D01*
X11720102Y-16192788D02*
X11710578Y-16211836D01*
X11710578Y-16211836D02*
X11701054Y-16221360D01*
X11701054Y-16221360D02*
X11682006Y-16230884D01*
X11682006Y-16230884D02*
X11662959Y-16230884D01*
X11662959Y-16230884D02*
X11643911Y-16221360D01*
X11643911Y-16221360D02*
X11634387Y-16211836D01*
X11634387Y-16211836D02*
X11624863Y-16192788D01*
X11624863Y-16192788D02*
X11615340Y-16154693D01*
X11615340Y-16154693D02*
X11615340Y-16107074D01*
X11615340Y-16107074D02*
X11624863Y-16068979D01*
X11624863Y-16068979D02*
X11634387Y-16049931D01*
X11634387Y-16049931D02*
X11643911Y-16040408D01*
X11643911Y-16040408D02*
X11662959Y-16030884D01*
X11815340Y-16230884D02*
X11815340Y-16097550D01*
X11815340Y-16116598D02*
X11824863Y-16107074D01*
X11824863Y-16107074D02*
X11843911Y-16097550D01*
X11843911Y-16097550D02*
X11872483Y-16097550D01*
X11872483Y-16097550D02*
X11891530Y-16107074D01*
X11891530Y-16107074D02*
X11901054Y-16126122D01*
X11901054Y-16126122D02*
X11901054Y-16230884D01*
X11901054Y-16126122D02*
X11910578Y-16107074D01*
X11910578Y-16107074D02*
X11929625Y-16097550D01*
X11929625Y-16097550D02*
X11958197Y-16097550D01*
X11958197Y-16097550D02*
X11977244Y-16107074D01*
X11977244Y-16107074D02*
X11986768Y-16126122D01*
X11986768Y-16126122D02*
X11986768Y-16230884D01*
X12082006Y-16230884D02*
X12082006Y-16097550D01*
X12082006Y-16116598D02*
X12091530Y-16107074D01*
X12091530Y-16107074D02*
X12110578Y-16097550D01*
X12110578Y-16097550D02*
X12139149Y-16097550D01*
X12139149Y-16097550D02*
X12158197Y-16107074D01*
X12158197Y-16107074D02*
X12167721Y-16126122D01*
X12167721Y-16126122D02*
X12167721Y-16230884D01*
X12167721Y-16126122D02*
X12177244Y-16107074D01*
X12177244Y-16107074D02*
X12196292Y-16097550D01*
X12196292Y-16097550D02*
X12224863Y-16097550D01*
X12224863Y-16097550D02*
X12243911Y-16107074D01*
X12243911Y-16107074D02*
X12253435Y-16126122D01*
X12253435Y-16126122D02*
X12253435Y-16230884D01*
X12643911Y-16021360D02*
X12472483Y-16278503D01*
X12901054Y-16030884D02*
X12920102Y-16030884D01*
X12920102Y-16030884D02*
X12939149Y-16040408D01*
X12939149Y-16040408D02*
X12948673Y-16049931D01*
X12948673Y-16049931D02*
X12958197Y-16068979D01*
X12958197Y-16068979D02*
X12967721Y-16107074D01*
X12967721Y-16107074D02*
X12967721Y-16154693D01*
X12967721Y-16154693D02*
X12958197Y-16192788D01*
X12958197Y-16192788D02*
X12948673Y-16211836D01*
X12948673Y-16211836D02*
X12939149Y-16221360D01*
X12939149Y-16221360D02*
X12920102Y-16230884D01*
X12920102Y-16230884D02*
X12901054Y-16230884D01*
X12901054Y-16230884D02*
X12882006Y-16221360D01*
X12882006Y-16221360D02*
X12872483Y-16211836D01*
X12872483Y-16211836D02*
X12862959Y-16192788D01*
X12862959Y-16192788D02*
X12853435Y-16154693D01*
X12853435Y-16154693D02*
X12853435Y-16107074D01*
X12853435Y-16107074D02*
X12862959Y-16068979D01*
X12862959Y-16068979D02*
X12872483Y-16049931D01*
X12872483Y-16049931D02*
X12882006Y-16040408D01*
X12882006Y-16040408D02*
X12901054Y-16030884D01*
X13053435Y-16211836D02*
X13062959Y-16221360D01*
X13062959Y-16221360D02*
X13053435Y-16230884D01*
X13053435Y-16230884D02*
X13043911Y-16221360D01*
X13043911Y-16221360D02*
X13053435Y-16211836D01*
X13053435Y-16211836D02*
X13053435Y-16230884D01*
X13186768Y-16030884D02*
X13205816Y-16030884D01*
X13205816Y-16030884D02*
X13224864Y-16040408D01*
X13224864Y-16040408D02*
X13234387Y-16049931D01*
X13234387Y-16049931D02*
X13243911Y-16068979D01*
X13243911Y-16068979D02*
X13253435Y-16107074D01*
X13253435Y-16107074D02*
X13253435Y-16154693D01*
X13253435Y-16154693D02*
X13243911Y-16192788D01*
X13243911Y-16192788D02*
X13234387Y-16211836D01*
X13234387Y-16211836D02*
X13224864Y-16221360D01*
X13224864Y-16221360D02*
X13205816Y-16230884D01*
X13205816Y-16230884D02*
X13186768Y-16230884D01*
X13186768Y-16230884D02*
X13167721Y-16221360D01*
X13167721Y-16221360D02*
X13158197Y-16211836D01*
X13158197Y-16211836D02*
X13148673Y-16192788D01*
X13148673Y-16192788D02*
X13139149Y-16154693D01*
X13139149Y-16154693D02*
X13139149Y-16107074D01*
X13139149Y-16107074D02*
X13148673Y-16068979D01*
X13148673Y-16068979D02*
X13158197Y-16049931D01*
X13158197Y-16049931D02*
X13167721Y-16040408D01*
X13167721Y-16040408D02*
X13186768Y-16030884D01*
X13320102Y-16030884D02*
X13443911Y-16030884D01*
X13443911Y-16030884D02*
X13377245Y-16107074D01*
X13377245Y-16107074D02*
X13405816Y-16107074D01*
X13405816Y-16107074D02*
X13424864Y-16116598D01*
X13424864Y-16116598D02*
X13434387Y-16126122D01*
X13434387Y-16126122D02*
X13443911Y-16145169D01*
X13443911Y-16145169D02*
X13443911Y-16192788D01*
X13443911Y-16192788D02*
X13434387Y-16211836D01*
X13434387Y-16211836D02*
X13424864Y-16221360D01*
X13424864Y-16221360D02*
X13405816Y-16230884D01*
X13405816Y-16230884D02*
X13348673Y-16230884D01*
X13348673Y-16230884D02*
X13329626Y-16221360D01*
X13329626Y-16221360D02*
X13320102Y-16211836D01*
X13539149Y-16230884D02*
X13577245Y-16230884D01*
X13577245Y-16230884D02*
X13596292Y-16221360D01*
X13596292Y-16221360D02*
X13605816Y-16211836D01*
X13605816Y-16211836D02*
X13624864Y-16183265D01*
X13624864Y-16183265D02*
X13634387Y-16145169D01*
X13634387Y-16145169D02*
X13634387Y-16068979D01*
X13634387Y-16068979D02*
X13624864Y-16049931D01*
X13624864Y-16049931D02*
X13615340Y-16040408D01*
X13615340Y-16040408D02*
X13596292Y-16030884D01*
X13596292Y-16030884D02*
X13558197Y-16030884D01*
X13558197Y-16030884D02*
X13539149Y-16040408D01*
X13539149Y-16040408D02*
X13529626Y-16049931D01*
X13529626Y-16049931D02*
X13520102Y-16068979D01*
X13520102Y-16068979D02*
X13520102Y-16116598D01*
X13520102Y-16116598D02*
X13529626Y-16135646D01*
X13529626Y-16135646D02*
X13539149Y-16145169D01*
X13539149Y-16145169D02*
X13558197Y-16154693D01*
X13558197Y-16154693D02*
X13596292Y-16154693D01*
X13596292Y-16154693D02*
X13615340Y-16145169D01*
X13615340Y-16145169D02*
X13624864Y-16135646D01*
X13624864Y-16135646D02*
X13634387Y-16116598D01*
X13805816Y-16097550D02*
X13805816Y-16230884D01*
X13758197Y-16021360D02*
X13710578Y-16164217D01*
X13710578Y-16164217D02*
X13834387Y-16164217D01*
X13901054Y-16030884D02*
X13901054Y-16068979D01*
X13977245Y-16030884D02*
X13977245Y-16068979D01*
X14272483Y-16307074D02*
X14262959Y-16297550D01*
X14262959Y-16297550D02*
X14243911Y-16268979D01*
X14243911Y-16268979D02*
X14234388Y-16249931D01*
X14234388Y-16249931D02*
X14224864Y-16221360D01*
X14224864Y-16221360D02*
X14215340Y-16173741D01*
X14215340Y-16173741D02*
X14215340Y-16135646D01*
X14215340Y-16135646D02*
X14224864Y-16088027D01*
X14224864Y-16088027D02*
X14234388Y-16059455D01*
X14234388Y-16059455D02*
X14243911Y-16040408D01*
X14243911Y-16040408D02*
X14262959Y-16011836D01*
X14262959Y-16011836D02*
X14272483Y-16002312D01*
X14339149Y-16049931D02*
X14348673Y-16040408D01*
X14348673Y-16040408D02*
X14367721Y-16030884D01*
X14367721Y-16030884D02*
X14415340Y-16030884D01*
X14415340Y-16030884D02*
X14434388Y-16040408D01*
X14434388Y-16040408D02*
X14443911Y-16049931D01*
X14443911Y-16049931D02*
X14453435Y-16068979D01*
X14453435Y-16068979D02*
X14453435Y-16088027D01*
X14453435Y-16088027D02*
X14443911Y-16116598D01*
X14443911Y-16116598D02*
X14329626Y-16230884D01*
X14329626Y-16230884D02*
X14453435Y-16230884D01*
X14624864Y-16097550D02*
X14624864Y-16230884D01*
X14577245Y-16021360D02*
X14529626Y-16164217D01*
X14529626Y-16164217D02*
X14653435Y-16164217D01*
X14882007Y-16230884D02*
X14882007Y-16030884D01*
X14967721Y-16230884D02*
X14967721Y-16126122D01*
X14967721Y-16126122D02*
X14958197Y-16107074D01*
X14958197Y-16107074D02*
X14939150Y-16097550D01*
X14939150Y-16097550D02*
X14910578Y-16097550D01*
X14910578Y-16097550D02*
X14891530Y-16107074D01*
X14891530Y-16107074D02*
X14882007Y-16116598D01*
X15091530Y-16230884D02*
X15072483Y-16221360D01*
X15072483Y-16221360D02*
X15062959Y-16211836D01*
X15062959Y-16211836D02*
X15053435Y-16192788D01*
X15053435Y-16192788D02*
X15053435Y-16135646D01*
X15053435Y-16135646D02*
X15062959Y-16116598D01*
X15062959Y-16116598D02*
X15072483Y-16107074D01*
X15072483Y-16107074D02*
X15091530Y-16097550D01*
X15091530Y-16097550D02*
X15120102Y-16097550D01*
X15120102Y-16097550D02*
X15139150Y-16107074D01*
X15139150Y-16107074D02*
X15148673Y-16116598D01*
X15148673Y-16116598D02*
X15158197Y-16135646D01*
X15158197Y-16135646D02*
X15158197Y-16192788D01*
X15158197Y-16192788D02*
X15148673Y-16211836D01*
X15148673Y-16211836D02*
X15139150Y-16221360D01*
X15139150Y-16221360D02*
X15120102Y-16230884D01*
X15120102Y-16230884D02*
X15091530Y-16230884D01*
X15272483Y-16230884D02*
X15253435Y-16221360D01*
X15253435Y-16221360D02*
X15243911Y-16202312D01*
X15243911Y-16202312D02*
X15243911Y-16030884D01*
X15424864Y-16221360D02*
X15405816Y-16230884D01*
X15405816Y-16230884D02*
X15367721Y-16230884D01*
X15367721Y-16230884D02*
X15348673Y-16221360D01*
X15348673Y-16221360D02*
X15339150Y-16202312D01*
X15339150Y-16202312D02*
X15339150Y-16126122D01*
X15339150Y-16126122D02*
X15348673Y-16107074D01*
X15348673Y-16107074D02*
X15367721Y-16097550D01*
X15367721Y-16097550D02*
X15405816Y-16097550D01*
X15405816Y-16097550D02*
X15424864Y-16107074D01*
X15424864Y-16107074D02*
X15434388Y-16126122D01*
X15434388Y-16126122D02*
X15434388Y-16145169D01*
X15434388Y-16145169D02*
X15339150Y-16164217D01*
X15510578Y-16221360D02*
X15529626Y-16230884D01*
X15529626Y-16230884D02*
X15567721Y-16230884D01*
X15567721Y-16230884D02*
X15586769Y-16221360D01*
X15586769Y-16221360D02*
X15596292Y-16202312D01*
X15596292Y-16202312D02*
X15596292Y-16192788D01*
X15596292Y-16192788D02*
X15586769Y-16173741D01*
X15586769Y-16173741D02*
X15567721Y-16164217D01*
X15567721Y-16164217D02*
X15539150Y-16164217D01*
X15539150Y-16164217D02*
X15520102Y-16154693D01*
X15520102Y-16154693D02*
X15510578Y-16135646D01*
X15510578Y-16135646D02*
X15510578Y-16126122D01*
X15510578Y-16126122D02*
X15520102Y-16107074D01*
X15520102Y-16107074D02*
X15539150Y-16097550D01*
X15539150Y-16097550D02*
X15567721Y-16097550D01*
X15567721Y-16097550D02*
X15586769Y-16107074D01*
X15662959Y-16307074D02*
X15672483Y-16297550D01*
X15672483Y-16297550D02*
X15691531Y-16268979D01*
X15691531Y-16268979D02*
X15701054Y-16249931D01*
X15701054Y-16249931D02*
X15710578Y-16221360D01*
X15710578Y-16221360D02*
X15720102Y-16173741D01*
X15720102Y-16173741D02*
X15720102Y-16135646D01*
X15720102Y-16135646D02*
X15710578Y-16088027D01*
X15710578Y-16088027D02*
X15701054Y-16059455D01*
X15701054Y-16059455D02*
X15691531Y-16040408D01*
X15691531Y-16040408D02*
X15672483Y-16011836D01*
X15672483Y-16011836D02*
X15662959Y-16002312D01*
D12*
X10676918Y-16452898D02*
X10676918Y-16353902D01*
X10577922Y-16353902D01*
X10577922Y-16452898D01*
X10676918Y-16452898D01*
D10*
X11062959Y-16494884D02*
X10948673Y-16494884D01*
X11005816Y-16494884D02*
X11005816Y-16294884D01*
X11005816Y-16294884D02*
X10986768Y-16323455D01*
X10986768Y-16323455D02*
X10967721Y-16342503D01*
X10967721Y-16342503D02*
X10948673Y-16352027D01*
X11148673Y-16475836D02*
X11158197Y-16485360D01*
X11158197Y-16485360D02*
X11148673Y-16494884D01*
X11148673Y-16494884D02*
X11139149Y-16485360D01*
X11139149Y-16485360D02*
X11148673Y-16475836D01*
X11148673Y-16475836D02*
X11148673Y-16494884D01*
X11329625Y-16361550D02*
X11329625Y-16494884D01*
X11282006Y-16285360D02*
X11234387Y-16428217D01*
X11234387Y-16428217D02*
X11358197Y-16428217D01*
X11472482Y-16294884D02*
X11491530Y-16294884D01*
X11491530Y-16294884D02*
X11510578Y-16304408D01*
X11510578Y-16304408D02*
X11520102Y-16313931D01*
X11520102Y-16313931D02*
X11529625Y-16332979D01*
X11529625Y-16332979D02*
X11539149Y-16371074D01*
X11539149Y-16371074D02*
X11539149Y-16418693D01*
X11539149Y-16418693D02*
X11529625Y-16456788D01*
X11529625Y-16456788D02*
X11520102Y-16475836D01*
X11520102Y-16475836D02*
X11510578Y-16485360D01*
X11510578Y-16485360D02*
X11491530Y-16494884D01*
X11491530Y-16494884D02*
X11472482Y-16494884D01*
X11472482Y-16494884D02*
X11453435Y-16485360D01*
X11453435Y-16485360D02*
X11443911Y-16475836D01*
X11443911Y-16475836D02*
X11434387Y-16456788D01*
X11434387Y-16456788D02*
X11424863Y-16418693D01*
X11424863Y-16418693D02*
X11424863Y-16371074D01*
X11424863Y-16371074D02*
X11434387Y-16332979D01*
X11434387Y-16332979D02*
X11443911Y-16313931D01*
X11443911Y-16313931D02*
X11453435Y-16304408D01*
X11453435Y-16304408D02*
X11472482Y-16294884D01*
X11662959Y-16294884D02*
X11682006Y-16294884D01*
X11682006Y-16294884D02*
X11701054Y-16304408D01*
X11701054Y-16304408D02*
X11710578Y-16313931D01*
X11710578Y-16313931D02*
X11720102Y-16332979D01*
X11720102Y-16332979D02*
X11729625Y-16371074D01*
X11729625Y-16371074D02*
X11729625Y-16418693D01*
X11729625Y-16418693D02*
X11720102Y-16456788D01*
X11720102Y-16456788D02*
X11710578Y-16475836D01*
X11710578Y-16475836D02*
X11701054Y-16485360D01*
X11701054Y-16485360D02*
X11682006Y-16494884D01*
X11682006Y-16494884D02*
X11662959Y-16494884D01*
X11662959Y-16494884D02*
X11643911Y-16485360D01*
X11643911Y-16485360D02*
X11634387Y-16475836D01*
X11634387Y-16475836D02*
X11624863Y-16456788D01*
X11624863Y-16456788D02*
X11615340Y-16418693D01*
X11615340Y-16418693D02*
X11615340Y-16371074D01*
X11615340Y-16371074D02*
X11624863Y-16332979D01*
X11624863Y-16332979D02*
X11634387Y-16313931D01*
X11634387Y-16313931D02*
X11643911Y-16304408D01*
X11643911Y-16304408D02*
X11662959Y-16294884D01*
X11815340Y-16494884D02*
X11815340Y-16361550D01*
X11815340Y-16380598D02*
X11824863Y-16371074D01*
X11824863Y-16371074D02*
X11843911Y-16361550D01*
X11843911Y-16361550D02*
X11872483Y-16361550D01*
X11872483Y-16361550D02*
X11891530Y-16371074D01*
X11891530Y-16371074D02*
X11901054Y-16390122D01*
X11901054Y-16390122D02*
X11901054Y-16494884D01*
X11901054Y-16390122D02*
X11910578Y-16371074D01*
X11910578Y-16371074D02*
X11929625Y-16361550D01*
X11929625Y-16361550D02*
X11958197Y-16361550D01*
X11958197Y-16361550D02*
X11977244Y-16371074D01*
X11977244Y-16371074D02*
X11986768Y-16390122D01*
X11986768Y-16390122D02*
X11986768Y-16494884D01*
X12082006Y-16494884D02*
X12082006Y-16361550D01*
X12082006Y-16380598D02*
X12091530Y-16371074D01*
X12091530Y-16371074D02*
X12110578Y-16361550D01*
X12110578Y-16361550D02*
X12139149Y-16361550D01*
X12139149Y-16361550D02*
X12158197Y-16371074D01*
X12158197Y-16371074D02*
X12167721Y-16390122D01*
X12167721Y-16390122D02*
X12167721Y-16494884D01*
X12167721Y-16390122D02*
X12177244Y-16371074D01*
X12177244Y-16371074D02*
X12196292Y-16361550D01*
X12196292Y-16361550D02*
X12224863Y-16361550D01*
X12224863Y-16361550D02*
X12243911Y-16371074D01*
X12243911Y-16371074D02*
X12253435Y-16390122D01*
X12253435Y-16390122D02*
X12253435Y-16494884D01*
X12643911Y-16285360D02*
X12472483Y-16542503D01*
X12901054Y-16294884D02*
X12920102Y-16294884D01*
X12920102Y-16294884D02*
X12939149Y-16304408D01*
X12939149Y-16304408D02*
X12948673Y-16313931D01*
X12948673Y-16313931D02*
X12958197Y-16332979D01*
X12958197Y-16332979D02*
X12967721Y-16371074D01*
X12967721Y-16371074D02*
X12967721Y-16418693D01*
X12967721Y-16418693D02*
X12958197Y-16456788D01*
X12958197Y-16456788D02*
X12948673Y-16475836D01*
X12948673Y-16475836D02*
X12939149Y-16485360D01*
X12939149Y-16485360D02*
X12920102Y-16494884D01*
X12920102Y-16494884D02*
X12901054Y-16494884D01*
X12901054Y-16494884D02*
X12882006Y-16485360D01*
X12882006Y-16485360D02*
X12872483Y-16475836D01*
X12872483Y-16475836D02*
X12862959Y-16456788D01*
X12862959Y-16456788D02*
X12853435Y-16418693D01*
X12853435Y-16418693D02*
X12853435Y-16371074D01*
X12853435Y-16371074D02*
X12862959Y-16332979D01*
X12862959Y-16332979D02*
X12872483Y-16313931D01*
X12872483Y-16313931D02*
X12882006Y-16304408D01*
X12882006Y-16304408D02*
X12901054Y-16294884D01*
X13053435Y-16475836D02*
X13062959Y-16485360D01*
X13062959Y-16485360D02*
X13053435Y-16494884D01*
X13053435Y-16494884D02*
X13043911Y-16485360D01*
X13043911Y-16485360D02*
X13053435Y-16475836D01*
X13053435Y-16475836D02*
X13053435Y-16494884D01*
X13186768Y-16294884D02*
X13205816Y-16294884D01*
X13205816Y-16294884D02*
X13224864Y-16304408D01*
X13224864Y-16304408D02*
X13234387Y-16313931D01*
X13234387Y-16313931D02*
X13243911Y-16332979D01*
X13243911Y-16332979D02*
X13253435Y-16371074D01*
X13253435Y-16371074D02*
X13253435Y-16418693D01*
X13253435Y-16418693D02*
X13243911Y-16456788D01*
X13243911Y-16456788D02*
X13234387Y-16475836D01*
X13234387Y-16475836D02*
X13224864Y-16485360D01*
X13224864Y-16485360D02*
X13205816Y-16494884D01*
X13205816Y-16494884D02*
X13186768Y-16494884D01*
X13186768Y-16494884D02*
X13167721Y-16485360D01*
X13167721Y-16485360D02*
X13158197Y-16475836D01*
X13158197Y-16475836D02*
X13148673Y-16456788D01*
X13148673Y-16456788D02*
X13139149Y-16418693D01*
X13139149Y-16418693D02*
X13139149Y-16371074D01*
X13139149Y-16371074D02*
X13148673Y-16332979D01*
X13148673Y-16332979D02*
X13158197Y-16313931D01*
X13158197Y-16313931D02*
X13167721Y-16304408D01*
X13167721Y-16304408D02*
X13186768Y-16294884D01*
X13434387Y-16294884D02*
X13339149Y-16294884D01*
X13339149Y-16294884D02*
X13329626Y-16390122D01*
X13329626Y-16390122D02*
X13339149Y-16380598D01*
X13339149Y-16380598D02*
X13358197Y-16371074D01*
X13358197Y-16371074D02*
X13405816Y-16371074D01*
X13405816Y-16371074D02*
X13424864Y-16380598D01*
X13424864Y-16380598D02*
X13434387Y-16390122D01*
X13434387Y-16390122D02*
X13443911Y-16409169D01*
X13443911Y-16409169D02*
X13443911Y-16456788D01*
X13443911Y-16456788D02*
X13434387Y-16475836D01*
X13434387Y-16475836D02*
X13424864Y-16485360D01*
X13424864Y-16485360D02*
X13405816Y-16494884D01*
X13405816Y-16494884D02*
X13358197Y-16494884D01*
X13358197Y-16494884D02*
X13339149Y-16485360D01*
X13339149Y-16485360D02*
X13329626Y-16475836D01*
X13624864Y-16294884D02*
X13529626Y-16294884D01*
X13529626Y-16294884D02*
X13520102Y-16390122D01*
X13520102Y-16390122D02*
X13529626Y-16380598D01*
X13529626Y-16380598D02*
X13548673Y-16371074D01*
X13548673Y-16371074D02*
X13596292Y-16371074D01*
X13596292Y-16371074D02*
X13615340Y-16380598D01*
X13615340Y-16380598D02*
X13624864Y-16390122D01*
X13624864Y-16390122D02*
X13634387Y-16409169D01*
X13634387Y-16409169D02*
X13634387Y-16456788D01*
X13634387Y-16456788D02*
X13624864Y-16475836D01*
X13624864Y-16475836D02*
X13615340Y-16485360D01*
X13615340Y-16485360D02*
X13596292Y-16494884D01*
X13596292Y-16494884D02*
X13548673Y-16494884D01*
X13548673Y-16494884D02*
X13529626Y-16485360D01*
X13529626Y-16485360D02*
X13520102Y-16475836D01*
X13824864Y-16494884D02*
X13710578Y-16494884D01*
X13767721Y-16494884D02*
X13767721Y-16294884D01*
X13767721Y-16294884D02*
X13748673Y-16323455D01*
X13748673Y-16323455D02*
X13729626Y-16342503D01*
X13729626Y-16342503D02*
X13710578Y-16352027D01*
X13901054Y-16294884D02*
X13901054Y-16332979D01*
X13977245Y-16294884D02*
X13977245Y-16332979D01*
X14272483Y-16571074D02*
X14262959Y-16561550D01*
X14262959Y-16561550D02*
X14243911Y-16532979D01*
X14243911Y-16532979D02*
X14234388Y-16513931D01*
X14234388Y-16513931D02*
X14224864Y-16485360D01*
X14224864Y-16485360D02*
X14215340Y-16437741D01*
X14215340Y-16437741D02*
X14215340Y-16399646D01*
X14215340Y-16399646D02*
X14224864Y-16352027D01*
X14224864Y-16352027D02*
X14234388Y-16323455D01*
X14234388Y-16323455D02*
X14243911Y-16304408D01*
X14243911Y-16304408D02*
X14262959Y-16275836D01*
X14262959Y-16275836D02*
X14272483Y-16266312D01*
X14453435Y-16494884D02*
X14339149Y-16494884D01*
X14396292Y-16494884D02*
X14396292Y-16294884D01*
X14396292Y-16294884D02*
X14377245Y-16323455D01*
X14377245Y-16323455D02*
X14358197Y-16342503D01*
X14358197Y-16342503D02*
X14339149Y-16352027D01*
X14529626Y-16313931D02*
X14539149Y-16304408D01*
X14539149Y-16304408D02*
X14558197Y-16294884D01*
X14558197Y-16294884D02*
X14605816Y-16294884D01*
X14605816Y-16294884D02*
X14624864Y-16304408D01*
X14624864Y-16304408D02*
X14634388Y-16313931D01*
X14634388Y-16313931D02*
X14643911Y-16332979D01*
X14643911Y-16332979D02*
X14643911Y-16352027D01*
X14643911Y-16352027D02*
X14634388Y-16380598D01*
X14634388Y-16380598D02*
X14520102Y-16494884D01*
X14520102Y-16494884D02*
X14643911Y-16494884D01*
X14882007Y-16494884D02*
X14882007Y-16294884D01*
X14967721Y-16494884D02*
X14967721Y-16390122D01*
X14967721Y-16390122D02*
X14958197Y-16371074D01*
X14958197Y-16371074D02*
X14939150Y-16361550D01*
X14939150Y-16361550D02*
X14910578Y-16361550D01*
X14910578Y-16361550D02*
X14891530Y-16371074D01*
X14891530Y-16371074D02*
X14882007Y-16380598D01*
X15091530Y-16494884D02*
X15072483Y-16485360D01*
X15072483Y-16485360D02*
X15062959Y-16475836D01*
X15062959Y-16475836D02*
X15053435Y-16456788D01*
X15053435Y-16456788D02*
X15053435Y-16399646D01*
X15053435Y-16399646D02*
X15062959Y-16380598D01*
X15062959Y-16380598D02*
X15072483Y-16371074D01*
X15072483Y-16371074D02*
X15091530Y-16361550D01*
X15091530Y-16361550D02*
X15120102Y-16361550D01*
X15120102Y-16361550D02*
X15139150Y-16371074D01*
X15139150Y-16371074D02*
X15148673Y-16380598D01*
X15148673Y-16380598D02*
X15158197Y-16399646D01*
X15158197Y-16399646D02*
X15158197Y-16456788D01*
X15158197Y-16456788D02*
X15148673Y-16475836D01*
X15148673Y-16475836D02*
X15139150Y-16485360D01*
X15139150Y-16485360D02*
X15120102Y-16494884D01*
X15120102Y-16494884D02*
X15091530Y-16494884D01*
X15272483Y-16494884D02*
X15253435Y-16485360D01*
X15253435Y-16485360D02*
X15243911Y-16466312D01*
X15243911Y-16466312D02*
X15243911Y-16294884D01*
X15424864Y-16485360D02*
X15405816Y-16494884D01*
X15405816Y-16494884D02*
X15367721Y-16494884D01*
X15367721Y-16494884D02*
X15348673Y-16485360D01*
X15348673Y-16485360D02*
X15339150Y-16466312D01*
X15339150Y-16466312D02*
X15339150Y-16390122D01*
X15339150Y-16390122D02*
X15348673Y-16371074D01*
X15348673Y-16371074D02*
X15367721Y-16361550D01*
X15367721Y-16361550D02*
X15405816Y-16361550D01*
X15405816Y-16361550D02*
X15424864Y-16371074D01*
X15424864Y-16371074D02*
X15434388Y-16390122D01*
X15434388Y-16390122D02*
X15434388Y-16409169D01*
X15434388Y-16409169D02*
X15339150Y-16428217D01*
X15510578Y-16485360D02*
X15529626Y-16494884D01*
X15529626Y-16494884D02*
X15567721Y-16494884D01*
X15567721Y-16494884D02*
X15586769Y-16485360D01*
X15586769Y-16485360D02*
X15596292Y-16466312D01*
X15596292Y-16466312D02*
X15596292Y-16456788D01*
X15596292Y-16456788D02*
X15586769Y-16437741D01*
X15586769Y-16437741D02*
X15567721Y-16428217D01*
X15567721Y-16428217D02*
X15539150Y-16428217D01*
X15539150Y-16428217D02*
X15520102Y-16418693D01*
X15520102Y-16418693D02*
X15510578Y-16399646D01*
X15510578Y-16399646D02*
X15510578Y-16390122D01*
X15510578Y-16390122D02*
X15520102Y-16371074D01*
X15520102Y-16371074D02*
X15539150Y-16361550D01*
X15539150Y-16361550D02*
X15567721Y-16361550D01*
X15567721Y-16361550D02*
X15586769Y-16371074D01*
X15662959Y-16571074D02*
X15672483Y-16561550D01*
X15672483Y-16561550D02*
X15691531Y-16532979D01*
X15691531Y-16532979D02*
X15701054Y-16513931D01*
X15701054Y-16513931D02*
X15710578Y-16485360D01*
X15710578Y-16485360D02*
X15720102Y-16437741D01*
X15720102Y-16437741D02*
X15720102Y-16399646D01*
X15720102Y-16399646D02*
X15710578Y-16352027D01*
X15710578Y-16352027D02*
X15701054Y-16323455D01*
X15701054Y-16323455D02*
X15691531Y-16304408D01*
X15691531Y-16304408D02*
X15672483Y-16275836D01*
X15672483Y-16275836D02*
X15662959Y-16266312D01*
D13*
X10604920Y-16759900D02*
X10697420Y-16667400D01*
X10604920Y-16574900D01*
X10512420Y-16667400D01*
X10604920Y-16759900D01*
D10*
X11062959Y-16758884D02*
X10948673Y-16758884D01*
X11005816Y-16758884D02*
X11005816Y-16558884D01*
X11005816Y-16558884D02*
X10986768Y-16587455D01*
X10986768Y-16587455D02*
X10967721Y-16606503D01*
X10967721Y-16606503D02*
X10948673Y-16616027D01*
X11148673Y-16739836D02*
X11158197Y-16749360D01*
X11158197Y-16749360D02*
X11148673Y-16758884D01*
X11148673Y-16758884D02*
X11139149Y-16749360D01*
X11139149Y-16749360D02*
X11148673Y-16739836D01*
X11148673Y-16739836D02*
X11148673Y-16758884D01*
X11272482Y-16644598D02*
X11253435Y-16635074D01*
X11253435Y-16635074D02*
X11243911Y-16625550D01*
X11243911Y-16625550D02*
X11234387Y-16606503D01*
X11234387Y-16606503D02*
X11234387Y-16596979D01*
X11234387Y-16596979D02*
X11243911Y-16577931D01*
X11243911Y-16577931D02*
X11253435Y-16568408D01*
X11253435Y-16568408D02*
X11272482Y-16558884D01*
X11272482Y-16558884D02*
X11310578Y-16558884D01*
X11310578Y-16558884D02*
X11329625Y-16568408D01*
X11329625Y-16568408D02*
X11339149Y-16577931D01*
X11339149Y-16577931D02*
X11348673Y-16596979D01*
X11348673Y-16596979D02*
X11348673Y-16606503D01*
X11348673Y-16606503D02*
X11339149Y-16625550D01*
X11339149Y-16625550D02*
X11329625Y-16635074D01*
X11329625Y-16635074D02*
X11310578Y-16644598D01*
X11310578Y-16644598D02*
X11272482Y-16644598D01*
X11272482Y-16644598D02*
X11253435Y-16654122D01*
X11253435Y-16654122D02*
X11243911Y-16663646D01*
X11243911Y-16663646D02*
X11234387Y-16682693D01*
X11234387Y-16682693D02*
X11234387Y-16720788D01*
X11234387Y-16720788D02*
X11243911Y-16739836D01*
X11243911Y-16739836D02*
X11253435Y-16749360D01*
X11253435Y-16749360D02*
X11272482Y-16758884D01*
X11272482Y-16758884D02*
X11310578Y-16758884D01*
X11310578Y-16758884D02*
X11329625Y-16749360D01*
X11329625Y-16749360D02*
X11339149Y-16739836D01*
X11339149Y-16739836D02*
X11348673Y-16720788D01*
X11348673Y-16720788D02*
X11348673Y-16682693D01*
X11348673Y-16682693D02*
X11339149Y-16663646D01*
X11339149Y-16663646D02*
X11329625Y-16654122D01*
X11329625Y-16654122D02*
X11310578Y-16644598D01*
X11529625Y-16558884D02*
X11434387Y-16558884D01*
X11434387Y-16558884D02*
X11424863Y-16654122D01*
X11424863Y-16654122D02*
X11434387Y-16644598D01*
X11434387Y-16644598D02*
X11453435Y-16635074D01*
X11453435Y-16635074D02*
X11501054Y-16635074D01*
X11501054Y-16635074D02*
X11520102Y-16644598D01*
X11520102Y-16644598D02*
X11529625Y-16654122D01*
X11529625Y-16654122D02*
X11539149Y-16673169D01*
X11539149Y-16673169D02*
X11539149Y-16720788D01*
X11539149Y-16720788D02*
X11529625Y-16739836D01*
X11529625Y-16739836D02*
X11520102Y-16749360D01*
X11520102Y-16749360D02*
X11501054Y-16758884D01*
X11501054Y-16758884D02*
X11453435Y-16758884D01*
X11453435Y-16758884D02*
X11434387Y-16749360D01*
X11434387Y-16749360D02*
X11424863Y-16739836D01*
X11662959Y-16558884D02*
X11682006Y-16558884D01*
X11682006Y-16558884D02*
X11701054Y-16568408D01*
X11701054Y-16568408D02*
X11710578Y-16577931D01*
X11710578Y-16577931D02*
X11720102Y-16596979D01*
X11720102Y-16596979D02*
X11729625Y-16635074D01*
X11729625Y-16635074D02*
X11729625Y-16682693D01*
X11729625Y-16682693D02*
X11720102Y-16720788D01*
X11720102Y-16720788D02*
X11710578Y-16739836D01*
X11710578Y-16739836D02*
X11701054Y-16749360D01*
X11701054Y-16749360D02*
X11682006Y-16758884D01*
X11682006Y-16758884D02*
X11662959Y-16758884D01*
X11662959Y-16758884D02*
X11643911Y-16749360D01*
X11643911Y-16749360D02*
X11634387Y-16739836D01*
X11634387Y-16739836D02*
X11624863Y-16720788D01*
X11624863Y-16720788D02*
X11615340Y-16682693D01*
X11615340Y-16682693D02*
X11615340Y-16635074D01*
X11615340Y-16635074D02*
X11624863Y-16596979D01*
X11624863Y-16596979D02*
X11634387Y-16577931D01*
X11634387Y-16577931D02*
X11643911Y-16568408D01*
X11643911Y-16568408D02*
X11662959Y-16558884D01*
X11815340Y-16758884D02*
X11815340Y-16625550D01*
X11815340Y-16644598D02*
X11824863Y-16635074D01*
X11824863Y-16635074D02*
X11843911Y-16625550D01*
X11843911Y-16625550D02*
X11872483Y-16625550D01*
X11872483Y-16625550D02*
X11891530Y-16635074D01*
X11891530Y-16635074D02*
X11901054Y-16654122D01*
X11901054Y-16654122D02*
X11901054Y-16758884D01*
X11901054Y-16654122D02*
X11910578Y-16635074D01*
X11910578Y-16635074D02*
X11929625Y-16625550D01*
X11929625Y-16625550D02*
X11958197Y-16625550D01*
X11958197Y-16625550D02*
X11977244Y-16635074D01*
X11977244Y-16635074D02*
X11986768Y-16654122D01*
X11986768Y-16654122D02*
X11986768Y-16758884D01*
X12082006Y-16758884D02*
X12082006Y-16625550D01*
X12082006Y-16644598D02*
X12091530Y-16635074D01*
X12091530Y-16635074D02*
X12110578Y-16625550D01*
X12110578Y-16625550D02*
X12139149Y-16625550D01*
X12139149Y-16625550D02*
X12158197Y-16635074D01*
X12158197Y-16635074D02*
X12167721Y-16654122D01*
X12167721Y-16654122D02*
X12167721Y-16758884D01*
X12167721Y-16654122D02*
X12177244Y-16635074D01*
X12177244Y-16635074D02*
X12196292Y-16625550D01*
X12196292Y-16625550D02*
X12224863Y-16625550D01*
X12224863Y-16625550D02*
X12243911Y-16635074D01*
X12243911Y-16635074D02*
X12253435Y-16654122D01*
X12253435Y-16654122D02*
X12253435Y-16758884D01*
X12643911Y-16549360D02*
X12472483Y-16806503D01*
X12901054Y-16558884D02*
X12920102Y-16558884D01*
X12920102Y-16558884D02*
X12939149Y-16568408D01*
X12939149Y-16568408D02*
X12948673Y-16577931D01*
X12948673Y-16577931D02*
X12958197Y-16596979D01*
X12958197Y-16596979D02*
X12967721Y-16635074D01*
X12967721Y-16635074D02*
X12967721Y-16682693D01*
X12967721Y-16682693D02*
X12958197Y-16720788D01*
X12958197Y-16720788D02*
X12948673Y-16739836D01*
X12948673Y-16739836D02*
X12939149Y-16749360D01*
X12939149Y-16749360D02*
X12920102Y-16758884D01*
X12920102Y-16758884D02*
X12901054Y-16758884D01*
X12901054Y-16758884D02*
X12882006Y-16749360D01*
X12882006Y-16749360D02*
X12872483Y-16739836D01*
X12872483Y-16739836D02*
X12862959Y-16720788D01*
X12862959Y-16720788D02*
X12853435Y-16682693D01*
X12853435Y-16682693D02*
X12853435Y-16635074D01*
X12853435Y-16635074D02*
X12862959Y-16596979D01*
X12862959Y-16596979D02*
X12872483Y-16577931D01*
X12872483Y-16577931D02*
X12882006Y-16568408D01*
X12882006Y-16568408D02*
X12901054Y-16558884D01*
X13053435Y-16739836D02*
X13062959Y-16749360D01*
X13062959Y-16749360D02*
X13053435Y-16758884D01*
X13053435Y-16758884D02*
X13043911Y-16749360D01*
X13043911Y-16749360D02*
X13053435Y-16739836D01*
X13053435Y-16739836D02*
X13053435Y-16758884D01*
X13186768Y-16558884D02*
X13205816Y-16558884D01*
X13205816Y-16558884D02*
X13224864Y-16568408D01*
X13224864Y-16568408D02*
X13234387Y-16577931D01*
X13234387Y-16577931D02*
X13243911Y-16596979D01*
X13243911Y-16596979D02*
X13253435Y-16635074D01*
X13253435Y-16635074D02*
X13253435Y-16682693D01*
X13253435Y-16682693D02*
X13243911Y-16720788D01*
X13243911Y-16720788D02*
X13234387Y-16739836D01*
X13234387Y-16739836D02*
X13224864Y-16749360D01*
X13224864Y-16749360D02*
X13205816Y-16758884D01*
X13205816Y-16758884D02*
X13186768Y-16758884D01*
X13186768Y-16758884D02*
X13167721Y-16749360D01*
X13167721Y-16749360D02*
X13158197Y-16739836D01*
X13158197Y-16739836D02*
X13148673Y-16720788D01*
X13148673Y-16720788D02*
X13139149Y-16682693D01*
X13139149Y-16682693D02*
X13139149Y-16635074D01*
X13139149Y-16635074D02*
X13148673Y-16596979D01*
X13148673Y-16596979D02*
X13158197Y-16577931D01*
X13158197Y-16577931D02*
X13167721Y-16568408D01*
X13167721Y-16568408D02*
X13186768Y-16558884D01*
X13320102Y-16558884D02*
X13453435Y-16558884D01*
X13453435Y-16558884D02*
X13367721Y-16758884D01*
X13520102Y-16577931D02*
X13529626Y-16568408D01*
X13529626Y-16568408D02*
X13548673Y-16558884D01*
X13548673Y-16558884D02*
X13596292Y-16558884D01*
X13596292Y-16558884D02*
X13615340Y-16568408D01*
X13615340Y-16568408D02*
X13624864Y-16577931D01*
X13624864Y-16577931D02*
X13634387Y-16596979D01*
X13634387Y-16596979D02*
X13634387Y-16616027D01*
X13634387Y-16616027D02*
X13624864Y-16644598D01*
X13624864Y-16644598D02*
X13510578Y-16758884D01*
X13510578Y-16758884D02*
X13634387Y-16758884D01*
X13748673Y-16644598D02*
X13729626Y-16635074D01*
X13729626Y-16635074D02*
X13720102Y-16625550D01*
X13720102Y-16625550D02*
X13710578Y-16606503D01*
X13710578Y-16606503D02*
X13710578Y-16596979D01*
X13710578Y-16596979D02*
X13720102Y-16577931D01*
X13720102Y-16577931D02*
X13729626Y-16568408D01*
X13729626Y-16568408D02*
X13748673Y-16558884D01*
X13748673Y-16558884D02*
X13786768Y-16558884D01*
X13786768Y-16558884D02*
X13805816Y-16568408D01*
X13805816Y-16568408D02*
X13815340Y-16577931D01*
X13815340Y-16577931D02*
X13824864Y-16596979D01*
X13824864Y-16596979D02*
X13824864Y-16606503D01*
X13824864Y-16606503D02*
X13815340Y-16625550D01*
X13815340Y-16625550D02*
X13805816Y-16635074D01*
X13805816Y-16635074D02*
X13786768Y-16644598D01*
X13786768Y-16644598D02*
X13748673Y-16644598D01*
X13748673Y-16644598D02*
X13729626Y-16654122D01*
X13729626Y-16654122D02*
X13720102Y-16663646D01*
X13720102Y-16663646D02*
X13710578Y-16682693D01*
X13710578Y-16682693D02*
X13710578Y-16720788D01*
X13710578Y-16720788D02*
X13720102Y-16739836D01*
X13720102Y-16739836D02*
X13729626Y-16749360D01*
X13729626Y-16749360D02*
X13748673Y-16758884D01*
X13748673Y-16758884D02*
X13786768Y-16758884D01*
X13786768Y-16758884D02*
X13805816Y-16749360D01*
X13805816Y-16749360D02*
X13815340Y-16739836D01*
X13815340Y-16739836D02*
X13824864Y-16720788D01*
X13824864Y-16720788D02*
X13824864Y-16682693D01*
X13824864Y-16682693D02*
X13815340Y-16663646D01*
X13815340Y-16663646D02*
X13805816Y-16654122D01*
X13805816Y-16654122D02*
X13786768Y-16644598D01*
X13901054Y-16558884D02*
X13901054Y-16596979D01*
X13977245Y-16558884D02*
X13977245Y-16596979D01*
X14272483Y-16835074D02*
X14262959Y-16825550D01*
X14262959Y-16825550D02*
X14243911Y-16796979D01*
X14243911Y-16796979D02*
X14234388Y-16777931D01*
X14234388Y-16777931D02*
X14224864Y-16749360D01*
X14224864Y-16749360D02*
X14215340Y-16701741D01*
X14215340Y-16701741D02*
X14215340Y-16663646D01*
X14215340Y-16663646D02*
X14224864Y-16616027D01*
X14224864Y-16616027D02*
X14234388Y-16587455D01*
X14234388Y-16587455D02*
X14243911Y-16568408D01*
X14243911Y-16568408D02*
X14262959Y-16539836D01*
X14262959Y-16539836D02*
X14272483Y-16530312D01*
X14434388Y-16558884D02*
X14396292Y-16558884D01*
X14396292Y-16558884D02*
X14377245Y-16568408D01*
X14377245Y-16568408D02*
X14367721Y-16577931D01*
X14367721Y-16577931D02*
X14348673Y-16606503D01*
X14348673Y-16606503D02*
X14339149Y-16644598D01*
X14339149Y-16644598D02*
X14339149Y-16720788D01*
X14339149Y-16720788D02*
X14348673Y-16739836D01*
X14348673Y-16739836D02*
X14358197Y-16749360D01*
X14358197Y-16749360D02*
X14377245Y-16758884D01*
X14377245Y-16758884D02*
X14415340Y-16758884D01*
X14415340Y-16758884D02*
X14434388Y-16749360D01*
X14434388Y-16749360D02*
X14443911Y-16739836D01*
X14443911Y-16739836D02*
X14453435Y-16720788D01*
X14453435Y-16720788D02*
X14453435Y-16673169D01*
X14453435Y-16673169D02*
X14443911Y-16654122D01*
X14443911Y-16654122D02*
X14434388Y-16644598D01*
X14434388Y-16644598D02*
X14415340Y-16635074D01*
X14415340Y-16635074D02*
X14377245Y-16635074D01*
X14377245Y-16635074D02*
X14358197Y-16644598D01*
X14358197Y-16644598D02*
X14348673Y-16654122D01*
X14348673Y-16654122D02*
X14339149Y-16673169D01*
X14691530Y-16758884D02*
X14691530Y-16558884D01*
X14777245Y-16758884D02*
X14777245Y-16654122D01*
X14777245Y-16654122D02*
X14767721Y-16635074D01*
X14767721Y-16635074D02*
X14748673Y-16625550D01*
X14748673Y-16625550D02*
X14720102Y-16625550D01*
X14720102Y-16625550D02*
X14701054Y-16635074D01*
X14701054Y-16635074D02*
X14691530Y-16644598D01*
X14901054Y-16758884D02*
X14882007Y-16749360D01*
X14882007Y-16749360D02*
X14872483Y-16739836D01*
X14872483Y-16739836D02*
X14862959Y-16720788D01*
X14862959Y-16720788D02*
X14862959Y-16663646D01*
X14862959Y-16663646D02*
X14872483Y-16644598D01*
X14872483Y-16644598D02*
X14882007Y-16635074D01*
X14882007Y-16635074D02*
X14901054Y-16625550D01*
X14901054Y-16625550D02*
X14929626Y-16625550D01*
X14929626Y-16625550D02*
X14948673Y-16635074D01*
X14948673Y-16635074D02*
X14958197Y-16644598D01*
X14958197Y-16644598D02*
X14967721Y-16663646D01*
X14967721Y-16663646D02*
X14967721Y-16720788D01*
X14967721Y-16720788D02*
X14958197Y-16739836D01*
X14958197Y-16739836D02*
X14948673Y-16749360D01*
X14948673Y-16749360D02*
X14929626Y-16758884D01*
X14929626Y-16758884D02*
X14901054Y-16758884D01*
X15082007Y-16758884D02*
X15062959Y-16749360D01*
X15062959Y-16749360D02*
X15053435Y-16730312D01*
X15053435Y-16730312D02*
X15053435Y-16558884D01*
X15234388Y-16749360D02*
X15215340Y-16758884D01*
X15215340Y-16758884D02*
X15177245Y-16758884D01*
X15177245Y-16758884D02*
X15158197Y-16749360D01*
X15158197Y-16749360D02*
X15148673Y-16730312D01*
X15148673Y-16730312D02*
X15148673Y-16654122D01*
X15148673Y-16654122D02*
X15158197Y-16635074D01*
X15158197Y-16635074D02*
X15177245Y-16625550D01*
X15177245Y-16625550D02*
X15215340Y-16625550D01*
X15215340Y-16625550D02*
X15234388Y-16635074D01*
X15234388Y-16635074D02*
X15243911Y-16654122D01*
X15243911Y-16654122D02*
X15243911Y-16673169D01*
X15243911Y-16673169D02*
X15148673Y-16692217D01*
X15320102Y-16749360D02*
X15339150Y-16758884D01*
X15339150Y-16758884D02*
X15377245Y-16758884D01*
X15377245Y-16758884D02*
X15396292Y-16749360D01*
X15396292Y-16749360D02*
X15405816Y-16730312D01*
X15405816Y-16730312D02*
X15405816Y-16720788D01*
X15405816Y-16720788D02*
X15396292Y-16701741D01*
X15396292Y-16701741D02*
X15377245Y-16692217D01*
X15377245Y-16692217D02*
X15348673Y-16692217D01*
X15348673Y-16692217D02*
X15329626Y-16682693D01*
X15329626Y-16682693D02*
X15320102Y-16663646D01*
X15320102Y-16663646D02*
X15320102Y-16654122D01*
X15320102Y-16654122D02*
X15329626Y-16635074D01*
X15329626Y-16635074D02*
X15348673Y-16625550D01*
X15348673Y-16625550D02*
X15377245Y-16625550D01*
X15377245Y-16625550D02*
X15396292Y-16635074D01*
X15472483Y-16835074D02*
X15482007Y-16825550D01*
X15482007Y-16825550D02*
X15501054Y-16796979D01*
X15501054Y-16796979D02*
X15510578Y-16777931D01*
X15510578Y-16777931D02*
X15520102Y-16749360D01*
X15520102Y-16749360D02*
X15529626Y-16701741D01*
X15529626Y-16701741D02*
X15529626Y-16663646D01*
X15529626Y-16663646D02*
X15520102Y-16616027D01*
X15520102Y-16616027D02*
X15510578Y-16587455D01*
X15510578Y-16587455D02*
X15501054Y-16568408D01*
X15501054Y-16568408D02*
X15482007Y-16539836D01*
X15482007Y-16539836D02*
X15472483Y-16530312D01*
X10497420Y-16872400D02*
X10697420Y-17072400D01*
X10697420Y-16872400D02*
X10497420Y-17072400D01*
X10697420Y-16972400D02*
G75*
G02*
X10497420Y-16972400I-100000J0D01*
G01*
X10497420Y-16972400D02*
G75*
G02*
X10697420Y-16972400I100000J0D01*
G01*
X10939149Y-16863884D02*
X11062959Y-16863884D01*
X11062959Y-16863884D02*
X10996292Y-16940074D01*
X10996292Y-16940074D02*
X11024864Y-16940074D01*
X11024864Y-16940074D02*
X11043911Y-16949598D01*
X11043911Y-16949598D02*
X11053435Y-16959122D01*
X11053435Y-16959122D02*
X11062959Y-16978170D01*
X11062959Y-16978170D02*
X11062959Y-17025789D01*
X11062959Y-17025789D02*
X11053435Y-17044836D01*
X11053435Y-17044836D02*
X11043911Y-17054360D01*
X11043911Y-17054360D02*
X11024864Y-17063884D01*
X11024864Y-17063884D02*
X10967721Y-17063884D01*
X10967721Y-17063884D02*
X10948673Y-17054360D01*
X10948673Y-17054360D02*
X10939149Y-17044836D01*
X11148673Y-17044836D02*
X11158197Y-17054360D01*
X11158197Y-17054360D02*
X11148673Y-17063884D01*
X11148673Y-17063884D02*
X11139149Y-17054360D01*
X11139149Y-17054360D02*
X11148673Y-17044836D01*
X11148673Y-17044836D02*
X11148673Y-17063884D01*
X11234387Y-16882931D02*
X11243911Y-16873408D01*
X11243911Y-16873408D02*
X11262959Y-16863884D01*
X11262959Y-16863884D02*
X11310578Y-16863884D01*
X11310578Y-16863884D02*
X11329625Y-16873408D01*
X11329625Y-16873408D02*
X11339149Y-16882931D01*
X11339149Y-16882931D02*
X11348673Y-16901979D01*
X11348673Y-16901979D02*
X11348673Y-16921027D01*
X11348673Y-16921027D02*
X11339149Y-16949598D01*
X11339149Y-16949598D02*
X11224863Y-17063884D01*
X11224863Y-17063884D02*
X11348673Y-17063884D01*
X11472482Y-16863884D02*
X11491530Y-16863884D01*
X11491530Y-16863884D02*
X11510578Y-16873408D01*
X11510578Y-16873408D02*
X11520102Y-16882931D01*
X11520102Y-16882931D02*
X11529625Y-16901979D01*
X11529625Y-16901979D02*
X11539149Y-16940074D01*
X11539149Y-16940074D02*
X11539149Y-16987693D01*
X11539149Y-16987693D02*
X11529625Y-17025789D01*
X11529625Y-17025789D02*
X11520102Y-17044836D01*
X11520102Y-17044836D02*
X11510578Y-17054360D01*
X11510578Y-17054360D02*
X11491530Y-17063884D01*
X11491530Y-17063884D02*
X11472482Y-17063884D01*
X11472482Y-17063884D02*
X11453435Y-17054360D01*
X11453435Y-17054360D02*
X11443911Y-17044836D01*
X11443911Y-17044836D02*
X11434387Y-17025789D01*
X11434387Y-17025789D02*
X11424863Y-16987693D01*
X11424863Y-16987693D02*
X11424863Y-16940074D01*
X11424863Y-16940074D02*
X11434387Y-16901979D01*
X11434387Y-16901979D02*
X11443911Y-16882931D01*
X11443911Y-16882931D02*
X11453435Y-16873408D01*
X11453435Y-16873408D02*
X11472482Y-16863884D01*
X11662959Y-16863884D02*
X11682006Y-16863884D01*
X11682006Y-16863884D02*
X11701054Y-16873408D01*
X11701054Y-16873408D02*
X11710578Y-16882931D01*
X11710578Y-16882931D02*
X11720102Y-16901979D01*
X11720102Y-16901979D02*
X11729625Y-16940074D01*
X11729625Y-16940074D02*
X11729625Y-16987693D01*
X11729625Y-16987693D02*
X11720102Y-17025789D01*
X11720102Y-17025789D02*
X11710578Y-17044836D01*
X11710578Y-17044836D02*
X11701054Y-17054360D01*
X11701054Y-17054360D02*
X11682006Y-17063884D01*
X11682006Y-17063884D02*
X11662959Y-17063884D01*
X11662959Y-17063884D02*
X11643911Y-17054360D01*
X11643911Y-17054360D02*
X11634387Y-17044836D01*
X11634387Y-17044836D02*
X11624863Y-17025789D01*
X11624863Y-17025789D02*
X11615340Y-16987693D01*
X11615340Y-16987693D02*
X11615340Y-16940074D01*
X11615340Y-16940074D02*
X11624863Y-16901979D01*
X11624863Y-16901979D02*
X11634387Y-16882931D01*
X11634387Y-16882931D02*
X11643911Y-16873408D01*
X11643911Y-16873408D02*
X11662959Y-16863884D01*
X11815340Y-17063884D02*
X11815340Y-16930550D01*
X11815340Y-16949598D02*
X11824863Y-16940074D01*
X11824863Y-16940074D02*
X11843911Y-16930550D01*
X11843911Y-16930550D02*
X11872483Y-16930550D01*
X11872483Y-16930550D02*
X11891530Y-16940074D01*
X11891530Y-16940074D02*
X11901054Y-16959122D01*
X11901054Y-16959122D02*
X11901054Y-17063884D01*
X11901054Y-16959122D02*
X11910578Y-16940074D01*
X11910578Y-16940074D02*
X11929625Y-16930550D01*
X11929625Y-16930550D02*
X11958197Y-16930550D01*
X11958197Y-16930550D02*
X11977244Y-16940074D01*
X11977244Y-16940074D02*
X11986768Y-16959122D01*
X11986768Y-16959122D02*
X11986768Y-17063884D01*
X12082006Y-17063884D02*
X12082006Y-16930550D01*
X12082006Y-16949598D02*
X12091530Y-16940074D01*
X12091530Y-16940074D02*
X12110578Y-16930550D01*
X12110578Y-16930550D02*
X12139149Y-16930550D01*
X12139149Y-16930550D02*
X12158197Y-16940074D01*
X12158197Y-16940074D02*
X12167721Y-16959122D01*
X12167721Y-16959122D02*
X12167721Y-17063884D01*
X12167721Y-16959122D02*
X12177244Y-16940074D01*
X12177244Y-16940074D02*
X12196292Y-16930550D01*
X12196292Y-16930550D02*
X12224863Y-16930550D01*
X12224863Y-16930550D02*
X12243911Y-16940074D01*
X12243911Y-16940074D02*
X12253435Y-16959122D01*
X12253435Y-16959122D02*
X12253435Y-17063884D01*
X12643911Y-16854360D02*
X12472483Y-17111503D01*
X12901054Y-16863884D02*
X12920102Y-16863884D01*
X12920102Y-16863884D02*
X12939149Y-16873408D01*
X12939149Y-16873408D02*
X12948673Y-16882931D01*
X12948673Y-16882931D02*
X12958197Y-16901979D01*
X12958197Y-16901979D02*
X12967721Y-16940074D01*
X12967721Y-16940074D02*
X12967721Y-16987693D01*
X12967721Y-16987693D02*
X12958197Y-17025789D01*
X12958197Y-17025789D02*
X12948673Y-17044836D01*
X12948673Y-17044836D02*
X12939149Y-17054360D01*
X12939149Y-17054360D02*
X12920102Y-17063884D01*
X12920102Y-17063884D02*
X12901054Y-17063884D01*
X12901054Y-17063884D02*
X12882006Y-17054360D01*
X12882006Y-17054360D02*
X12872483Y-17044836D01*
X12872483Y-17044836D02*
X12862959Y-17025789D01*
X12862959Y-17025789D02*
X12853435Y-16987693D01*
X12853435Y-16987693D02*
X12853435Y-16940074D01*
X12853435Y-16940074D02*
X12862959Y-16901979D01*
X12862959Y-16901979D02*
X12872483Y-16882931D01*
X12872483Y-16882931D02*
X12882006Y-16873408D01*
X12882006Y-16873408D02*
X12901054Y-16863884D01*
X13053435Y-17044836D02*
X13062959Y-17054360D01*
X13062959Y-17054360D02*
X13053435Y-17063884D01*
X13053435Y-17063884D02*
X13043911Y-17054360D01*
X13043911Y-17054360D02*
X13053435Y-17044836D01*
X13053435Y-17044836D02*
X13053435Y-17063884D01*
X13253435Y-17063884D02*
X13139149Y-17063884D01*
X13196292Y-17063884D02*
X13196292Y-16863884D01*
X13196292Y-16863884D02*
X13177245Y-16892455D01*
X13177245Y-16892455D02*
X13158197Y-16911503D01*
X13158197Y-16911503D02*
X13139149Y-16921027D01*
X13329626Y-16882931D02*
X13339149Y-16873408D01*
X13339149Y-16873408D02*
X13358197Y-16863884D01*
X13358197Y-16863884D02*
X13405816Y-16863884D01*
X13405816Y-16863884D02*
X13424864Y-16873408D01*
X13424864Y-16873408D02*
X13434387Y-16882931D01*
X13434387Y-16882931D02*
X13443911Y-16901979D01*
X13443911Y-16901979D02*
X13443911Y-16921027D01*
X13443911Y-16921027D02*
X13434387Y-16949598D01*
X13434387Y-16949598D02*
X13320102Y-17063884D01*
X13320102Y-17063884D02*
X13443911Y-17063884D01*
X13615340Y-16863884D02*
X13577245Y-16863884D01*
X13577245Y-16863884D02*
X13558197Y-16873408D01*
X13558197Y-16873408D02*
X13548673Y-16882931D01*
X13548673Y-16882931D02*
X13529626Y-16911503D01*
X13529626Y-16911503D02*
X13520102Y-16949598D01*
X13520102Y-16949598D02*
X13520102Y-17025789D01*
X13520102Y-17025789D02*
X13529626Y-17044836D01*
X13529626Y-17044836D02*
X13539149Y-17054360D01*
X13539149Y-17054360D02*
X13558197Y-17063884D01*
X13558197Y-17063884D02*
X13596292Y-17063884D01*
X13596292Y-17063884D02*
X13615340Y-17054360D01*
X13615340Y-17054360D02*
X13624864Y-17044836D01*
X13624864Y-17044836D02*
X13634387Y-17025789D01*
X13634387Y-17025789D02*
X13634387Y-16978170D01*
X13634387Y-16978170D02*
X13624864Y-16959122D01*
X13624864Y-16959122D02*
X13615340Y-16949598D01*
X13615340Y-16949598D02*
X13596292Y-16940074D01*
X13596292Y-16940074D02*
X13558197Y-16940074D01*
X13558197Y-16940074D02*
X13539149Y-16949598D01*
X13539149Y-16949598D02*
X13529626Y-16959122D01*
X13529626Y-16959122D02*
X13520102Y-16978170D01*
X13758197Y-16863884D02*
X13777245Y-16863884D01*
X13777245Y-16863884D02*
X13796292Y-16873408D01*
X13796292Y-16873408D02*
X13805816Y-16882931D01*
X13805816Y-16882931D02*
X13815340Y-16901979D01*
X13815340Y-16901979D02*
X13824864Y-16940074D01*
X13824864Y-16940074D02*
X13824864Y-16987693D01*
X13824864Y-16987693D02*
X13815340Y-17025789D01*
X13815340Y-17025789D02*
X13805816Y-17044836D01*
X13805816Y-17044836D02*
X13796292Y-17054360D01*
X13796292Y-17054360D02*
X13777245Y-17063884D01*
X13777245Y-17063884D02*
X13758197Y-17063884D01*
X13758197Y-17063884D02*
X13739149Y-17054360D01*
X13739149Y-17054360D02*
X13729626Y-17044836D01*
X13729626Y-17044836D02*
X13720102Y-17025789D01*
X13720102Y-17025789D02*
X13710578Y-16987693D01*
X13710578Y-16987693D02*
X13710578Y-16940074D01*
X13710578Y-16940074D02*
X13720102Y-16901979D01*
X13720102Y-16901979D02*
X13729626Y-16882931D01*
X13729626Y-16882931D02*
X13739149Y-16873408D01*
X13739149Y-16873408D02*
X13758197Y-16863884D01*
X13901054Y-16863884D02*
X13901054Y-16901979D01*
X13977245Y-16863884D02*
X13977245Y-16901979D01*
X14272483Y-17140074D02*
X14262959Y-17130550D01*
X14262959Y-17130550D02*
X14243911Y-17101979D01*
X14243911Y-17101979D02*
X14234388Y-17082931D01*
X14234388Y-17082931D02*
X14224864Y-17054360D01*
X14224864Y-17054360D02*
X14215340Y-17006741D01*
X14215340Y-17006741D02*
X14215340Y-16968646D01*
X14215340Y-16968646D02*
X14224864Y-16921027D01*
X14224864Y-16921027D02*
X14234388Y-16892455D01*
X14234388Y-16892455D02*
X14243911Y-16873408D01*
X14243911Y-16873408D02*
X14262959Y-16844836D01*
X14262959Y-16844836D02*
X14272483Y-16835312D01*
X14434388Y-16930550D02*
X14434388Y-17063884D01*
X14386768Y-16854360D02*
X14339149Y-16997217D01*
X14339149Y-16997217D02*
X14462959Y-16997217D01*
X14691530Y-17063884D02*
X14691530Y-16863884D01*
X14777245Y-17063884D02*
X14777245Y-16959122D01*
X14777245Y-16959122D02*
X14767721Y-16940074D01*
X14767721Y-16940074D02*
X14748673Y-16930550D01*
X14748673Y-16930550D02*
X14720102Y-16930550D01*
X14720102Y-16930550D02*
X14701054Y-16940074D01*
X14701054Y-16940074D02*
X14691530Y-16949598D01*
X14901054Y-17063884D02*
X14882007Y-17054360D01*
X14882007Y-17054360D02*
X14872483Y-17044836D01*
X14872483Y-17044836D02*
X14862959Y-17025789D01*
X14862959Y-17025789D02*
X14862959Y-16968646D01*
X14862959Y-16968646D02*
X14872483Y-16949598D01*
X14872483Y-16949598D02*
X14882007Y-16940074D01*
X14882007Y-16940074D02*
X14901054Y-16930550D01*
X14901054Y-16930550D02*
X14929626Y-16930550D01*
X14929626Y-16930550D02*
X14948673Y-16940074D01*
X14948673Y-16940074D02*
X14958197Y-16949598D01*
X14958197Y-16949598D02*
X14967721Y-16968646D01*
X14967721Y-16968646D02*
X14967721Y-17025789D01*
X14967721Y-17025789D02*
X14958197Y-17044836D01*
X14958197Y-17044836D02*
X14948673Y-17054360D01*
X14948673Y-17054360D02*
X14929626Y-17063884D01*
X14929626Y-17063884D02*
X14901054Y-17063884D01*
X15082007Y-17063884D02*
X15062959Y-17054360D01*
X15062959Y-17054360D02*
X15053435Y-17035312D01*
X15053435Y-17035312D02*
X15053435Y-16863884D01*
X15234388Y-17054360D02*
X15215340Y-17063884D01*
X15215340Y-17063884D02*
X15177245Y-17063884D01*
X15177245Y-17063884D02*
X15158197Y-17054360D01*
X15158197Y-17054360D02*
X15148673Y-17035312D01*
X15148673Y-17035312D02*
X15148673Y-16959122D01*
X15148673Y-16959122D02*
X15158197Y-16940074D01*
X15158197Y-16940074D02*
X15177245Y-16930550D01*
X15177245Y-16930550D02*
X15215340Y-16930550D01*
X15215340Y-16930550D02*
X15234388Y-16940074D01*
X15234388Y-16940074D02*
X15243911Y-16959122D01*
X15243911Y-16959122D02*
X15243911Y-16978170D01*
X15243911Y-16978170D02*
X15148673Y-16997217D01*
X15320102Y-17054360D02*
X15339150Y-17063884D01*
X15339150Y-17063884D02*
X15377245Y-17063884D01*
X15377245Y-17063884D02*
X15396292Y-17054360D01*
X15396292Y-17054360D02*
X15405816Y-17035312D01*
X15405816Y-17035312D02*
X15405816Y-17025789D01*
X15405816Y-17025789D02*
X15396292Y-17006741D01*
X15396292Y-17006741D02*
X15377245Y-16997217D01*
X15377245Y-16997217D02*
X15348673Y-16997217D01*
X15348673Y-16997217D02*
X15329626Y-16987693D01*
X15329626Y-16987693D02*
X15320102Y-16968646D01*
X15320102Y-16968646D02*
X15320102Y-16959122D01*
X15320102Y-16959122D02*
X15329626Y-16940074D01*
X15329626Y-16940074D02*
X15348673Y-16930550D01*
X15348673Y-16930550D02*
X15377245Y-16930550D01*
X15377245Y-16930550D02*
X15396292Y-16940074D01*
X15472483Y-17140074D02*
X15482007Y-17130550D01*
X15482007Y-17130550D02*
X15501054Y-17101979D01*
X15501054Y-17101979D02*
X15510578Y-17082931D01*
X15510578Y-17082931D02*
X15520102Y-17054360D01*
X15520102Y-17054360D02*
X15529626Y-17006741D01*
X15529626Y-17006741D02*
X15529626Y-16968646D01*
X15529626Y-16968646D02*
X15520102Y-16921027D01*
X15520102Y-16921027D02*
X15510578Y-16892455D01*
X15510578Y-16892455D02*
X15501054Y-16873408D01*
X15501054Y-16873408D02*
X15482007Y-16844836D01*
X15482007Y-16844836D02*
X15472483Y-16835312D01*
M02*
