G04 #@! TF.GenerationSoftware,KiCad,Pcbnew,8.0.3*
G04 #@! TF.CreationDate,2025-02-06T22:10:45+07:00*
G04 #@! TF.ProjectId,Digital_Multi_Pedal_v1,44696769-7461-46c5-9f4d-756c74695f50,rev?*
G04 #@! TF.SameCoordinates,Original*
G04 #@! TF.FileFunction,Soldermask,Bot*
G04 #@! TF.FilePolarity,Negative*
%FSLAX46Y46*%
G04 Gerber Fmt 4.6, Leading zero omitted, Abs format (unit mm)*
G04 Created by KiCad (PCBNEW 8.0.3) date 2025-02-06 22:10:45*
%MOMM*%
%LPD*%
G01*
G04 APERTURE LIST*
G04 Aperture macros list*
%AMRoundRect*
0 Rectangle with rounded corners*
0 $1 Rounding radius*
0 $2 $3 $4 $5 $6 $7 $8 $9 X,Y pos of 4 corners*
0 Add a 4 corners polygon primitive as box body*
4,1,4,$2,$3,$4,$5,$6,$7,$8,$9,$2,$3,0*
0 Add four circle primitives for the rounded corners*
1,1,$1+$1,$2,$3*
1,1,$1+$1,$4,$5*
1,1,$1+$1,$6,$7*
1,1,$1+$1,$8,$9*
0 Add four rect primitives between the rounded corners*
20,1,$1+$1,$2,$3,$4,$5,0*
20,1,$1+$1,$4,$5,$6,$7,0*
20,1,$1+$1,$6,$7,$8,$9,0*
20,1,$1+$1,$8,$9,$2,$3,0*%
G04 Aperture macros list end*
%ADD10C,0.120000*%
%ADD11C,3.000000*%
%ADD12C,0.800000*%
%ADD13C,6.400000*%
%ADD14C,1.800000*%
%ADD15C,1.600000*%
%ADD16RoundRect,0.102000X-1.387500X1.387500X-1.387500X-1.387500X1.387500X-1.387500X1.387500X1.387500X0*%
%ADD17C,2.979000*%
%ADD18R,1.700000X1.700000*%
%ADD19O,1.700000X1.700000*%
%ADD20RoundRect,0.251000X0.326000X-0.251000X0.326000X0.251000X-0.326000X0.251000X-0.326000X-0.251000X0*%
%ADD21RoundRect,0.276000X0.276000X0.301000X-0.276000X0.301000X-0.276000X-0.301000X0.276000X-0.301000X0*%
%ADD22RoundRect,0.250000X0.650000X-1.000000X0.650000X1.000000X-0.650000X1.000000X-0.650000X-1.000000X0*%
%ADD23RoundRect,0.276000X0.301000X-0.276000X0.301000X0.276000X-0.301000X0.276000X-0.301000X-0.276000X0*%
%ADD24RoundRect,0.251000X-0.251000X-0.326000X0.251000X-0.326000X0.251000X0.326000X-0.251000X0.326000X0*%
%ADD25RoundRect,0.251000X0.251000X0.326000X-0.251000X0.326000X-0.251000X-0.326000X0.251000X-0.326000X0*%
%ADD26RoundRect,0.102000X1.200000X1.250000X-1.200000X1.250000X-1.200000X-1.250000X1.200000X-1.250000X0*%
%ADD27RoundRect,0.276000X-0.301000X0.276000X-0.301000X-0.276000X0.301000X-0.276000X0.301000X0.276000X0*%
%ADD28RoundRect,0.135000X-0.135000X-0.185000X0.135000X-0.185000X0.135000X0.185000X-0.135000X0.185000X0*%
%ADD29RoundRect,0.060300X0.341700X-0.716700X0.341700X0.716700X-0.341700X0.716700X-0.341700X-0.716700X0*%
%ADD30C,1.500000*%
%ADD31R,1.600000X1.600000*%
%ADD32RoundRect,0.251000X-0.326000X0.251000X-0.326000X-0.251000X0.326000X-0.251000X0.326000X0.251000X0*%
%ADD33RoundRect,0.276000X-0.276000X-0.301000X0.276000X-0.301000X0.276000X0.301000X-0.276000X0.301000X0*%
%ADD34RoundRect,0.299756X-0.314744X-0.502244X0.314744X-0.502244X0.314744X0.502244X-0.314744X0.502244X0*%
%ADD35C,0.900000*%
%ADD36RoundRect,0.102000X-0.800000X0.350000X-0.800000X-0.350000X0.800000X-0.350000X0.800000X0.350000X0*%
%ADD37RoundRect,0.102000X-0.800000X0.700000X-0.800000X-0.700000X0.800000X-0.700000X0.800000X0.700000X0*%
%ADD38RoundRect,0.102000X-1.100000X0.700000X-1.100000X-0.700000X1.100000X-0.700000X1.100000X0.700000X0*%
%ADD39RoundRect,0.102000X-0.700000X0.900000X-0.700000X-0.900000X0.700000X-0.900000X0.700000X0.900000X0*%
G04 APERTURE END LIST*
D10*
X173649200Y-84254000D02*
G75*
G02*
X171849200Y-84254000I-900000J0D01*
G01*
X171849200Y-84254000D02*
G75*
G02*
X173649200Y-84254000I900000J0D01*
G01*
X178049200Y-84254000D02*
G75*
G02*
X176449200Y-84254000I-800000J0D01*
G01*
X176449200Y-84254000D02*
G75*
G02*
X178049200Y-84254000I800000J0D01*
G01*
D11*
X142069200Y-78399000D03*
X158299200Y-78399000D03*
X142069200Y-72049000D03*
X158299200Y-72049000D03*
X142069200Y-84749000D03*
X158299200Y-84749000D03*
D12*
X108274200Y-73204000D03*
X108977144Y-71506944D03*
X108977144Y-74901056D03*
X110674200Y-70804000D03*
D13*
X110674200Y-73204000D03*
D12*
X110674200Y-75604000D03*
X112371256Y-71506944D03*
X112371256Y-74901056D03*
X113074200Y-73204000D03*
D14*
X172749200Y-84254000D03*
D15*
X177249200Y-84254000D03*
D16*
X115179200Y-83701500D03*
D17*
X115179200Y-88401500D03*
X115179200Y-93101500D03*
X110349200Y-83701500D03*
X110349200Y-88401500D03*
X110349200Y-93101500D03*
D18*
X112034200Y-126439000D03*
D19*
X112034200Y-128979000D03*
X112034200Y-131519000D03*
D12*
X173614200Y-146024000D03*
X174317144Y-144326944D03*
X174317144Y-147721056D03*
X176014200Y-143624000D03*
D13*
X176014200Y-146024000D03*
D12*
X176014200Y-148424000D03*
X177711256Y-144326944D03*
X177711256Y-147721056D03*
X178414200Y-146024000D03*
X108194200Y-146024000D03*
X108897144Y-144326944D03*
X108897144Y-147721056D03*
X110594200Y-143624000D03*
D13*
X110594200Y-146024000D03*
D12*
X110594200Y-148424000D03*
X112291256Y-144326944D03*
X112291256Y-147721056D03*
X112994200Y-146024000D03*
X173664200Y-73254000D03*
X174367144Y-71556944D03*
X174367144Y-74951056D03*
X176064200Y-70854000D03*
D13*
X176064200Y-73254000D03*
D12*
X176064200Y-75654000D03*
X177761256Y-71556944D03*
X177761256Y-74951056D03*
X178464200Y-73254000D03*
D18*
X164984200Y-85694000D03*
D19*
X164984200Y-88234000D03*
D18*
X123319200Y-126439000D03*
D19*
X123319200Y-128979000D03*
X123319200Y-131519000D03*
D18*
X123319200Y-115074000D03*
D19*
X123319200Y-117614000D03*
X123319200Y-120154000D03*
D18*
X112034200Y-115074000D03*
D19*
X112034200Y-117614000D03*
X112034200Y-120154000D03*
D18*
X117724200Y-115334000D03*
D19*
X117724200Y-117874000D03*
X117724200Y-120414000D03*
D18*
X117724200Y-126439000D03*
D19*
X117724200Y-128979000D03*
X117724200Y-131519000D03*
D18*
X177206000Y-129771600D03*
D19*
X177206000Y-132311600D03*
X177206000Y-134851600D03*
X177206000Y-137391600D03*
D11*
X120879200Y-78359000D03*
X137109200Y-78359000D03*
X120879200Y-72009000D03*
X137109200Y-72009000D03*
X120879200Y-84709000D03*
X137109200Y-84709000D03*
D20*
X115184000Y-97437000D03*
X115184000Y-95787000D03*
D21*
X137434200Y-110034000D03*
X135884200Y-110034000D03*
X156529200Y-109696500D03*
X154979200Y-109696500D03*
D22*
X155394200Y-106034000D03*
X155394200Y-102034000D03*
D21*
X156529200Y-108336500D03*
X154979200Y-108336500D03*
D23*
X169384200Y-93339000D03*
X169384200Y-91789000D03*
D24*
X143691200Y-90053800D03*
X145341200Y-90053800D03*
D25*
X160607200Y-107944200D03*
X158957200Y-107944200D03*
D26*
X141294200Y-92582300D03*
X141294200Y-97052700D03*
D27*
X162714200Y-92609000D03*
X162714200Y-94159000D03*
D25*
X160607200Y-112074200D03*
X158957200Y-112074200D03*
D24*
X139651200Y-90053800D03*
X141301200Y-90053800D03*
D25*
X160607200Y-114834200D03*
X158957200Y-114834200D03*
D28*
X159784200Y-110144000D03*
X160804200Y-110144000D03*
D29*
X166344200Y-94162000D03*
X165394200Y-94162000D03*
X164444200Y-94162000D03*
X164444200Y-91792000D03*
X166344200Y-91792000D03*
D30*
X110864200Y-103294000D03*
X116864200Y-103294000D03*
D31*
X110164200Y-99794000D03*
X110164200Y-106794000D03*
X116864200Y-99794000D03*
X116864200Y-106794000D03*
X113364200Y-99794000D03*
X113364200Y-106794000D03*
D26*
X145344200Y-92562300D03*
X145344200Y-97032700D03*
X149244200Y-92562300D03*
X149244200Y-97032700D03*
D32*
X159784400Y-92551000D03*
X159784400Y-94201000D03*
D26*
X153134200Y-92572300D03*
X153134200Y-97042700D03*
D23*
X167974200Y-93339000D03*
X167974200Y-91789000D03*
D33*
X154989200Y-112874000D03*
X156539200Y-112874000D03*
D25*
X160607200Y-106614200D03*
X158957200Y-106614200D03*
D20*
X110354000Y-97437000D03*
X110354000Y-95787000D03*
D21*
X137439200Y-111474000D03*
X135889200Y-111474000D03*
D34*
X154656164Y-111286100D03*
X156481164Y-111286100D03*
D27*
X161264200Y-92609000D03*
X161264200Y-94159000D03*
D25*
X160607200Y-113474200D03*
X158957200Y-113474200D03*
D26*
X157034200Y-92558800D03*
X157034200Y-97029200D03*
D33*
X146049200Y-106154000D03*
X147599200Y-106154000D03*
D35*
X174724200Y-107344000D03*
X174724200Y-115344000D03*
D36*
X164224200Y-114544000D03*
X164224200Y-113444000D03*
X164224200Y-112344000D03*
X164224200Y-111244000D03*
X164224200Y-110144000D03*
X164224200Y-109044000D03*
X164224200Y-107944000D03*
X164224200Y-106844000D03*
X164224200Y-105744000D03*
D37*
X164824200Y-104444000D03*
D38*
X174324200Y-104444000D03*
X174324200Y-120144000D03*
D39*
X164724200Y-119244000D03*
G36*
X173259985Y-148511085D02*
G01*
X173279766Y-148526866D01*
X173705809Y-148944660D01*
X173739892Y-149005653D01*
X173742935Y-149029522D01*
X173746700Y-149156610D01*
X173746749Y-149159152D01*
X173749755Y-149488870D01*
X173730682Y-149556086D01*
X173678298Y-149602320D01*
X173625760Y-149614000D01*
X113019400Y-149614000D01*
X112952361Y-149594315D01*
X112906606Y-149541511D01*
X112895400Y-149490000D01*
X112895400Y-148979092D01*
X112915085Y-148912053D01*
X112940783Y-148883199D01*
X113076235Y-148772149D01*
X113128697Y-148721468D01*
X113172439Y-148677416D01*
X113172572Y-148677282D01*
X113216195Y-148633482D01*
X113218093Y-148631618D01*
X113288859Y-148563549D01*
X113288863Y-148563545D01*
X113318571Y-148531334D01*
X113378491Y-148495398D01*
X113409724Y-148491400D01*
X173192946Y-148491400D01*
X173259985Y-148511085D01*
G37*
G36*
X179597239Y-75511485D02*
G01*
X179642994Y-75564289D01*
X179654200Y-75615800D01*
X179654200Y-143640800D01*
X179634515Y-143707839D01*
X179581711Y-143753594D01*
X179530200Y-143764800D01*
X179039893Y-143764800D01*
X178972854Y-143745115D01*
X178944001Y-143719417D01*
X178832956Y-143583971D01*
X178782268Y-143531502D01*
X178738082Y-143487628D01*
X178737947Y-143487493D01*
X178694281Y-143444002D01*
X178692418Y-143442107D01*
X178624337Y-143371328D01*
X178592132Y-143341626D01*
X178556197Y-143281706D01*
X178552200Y-143250475D01*
X178552200Y-76049726D01*
X178571885Y-75982687D01*
X178586795Y-75963803D01*
X179003824Y-75529877D01*
X179064471Y-75495181D01*
X179093229Y-75491800D01*
X179530200Y-75491800D01*
X179597239Y-75511485D01*
G37*
G36*
X107773546Y-75513685D02*
G01*
X107802399Y-75539383D01*
X107913443Y-75674828D01*
X107964130Y-75727297D01*
X108008183Y-75771037D01*
X108008279Y-75771212D01*
X108008319Y-75771173D01*
X108052118Y-75814796D01*
X108053981Y-75816692D01*
X108122060Y-75887469D01*
X108154266Y-75917171D01*
X108190202Y-75977091D01*
X108194200Y-76008324D01*
X108194200Y-143141800D01*
X108174515Y-143208839D01*
X108156868Y-143230483D01*
X107780105Y-143598683D01*
X107718401Y-143631461D01*
X107693437Y-143634000D01*
X107198200Y-143634000D01*
X107131161Y-143614315D01*
X107085406Y-143561511D01*
X107074200Y-143510000D01*
X107074200Y-75618000D01*
X107093885Y-75550961D01*
X107146689Y-75505206D01*
X107198200Y-75494000D01*
X107706507Y-75494000D01*
X107773546Y-75513685D01*
G37*
M02*
