G04 #@! TF.GenerationSoftware,KiCad,Pcbnew,8.0.3*
G04 #@! TF.CreationDate,2025-02-06T22:10:45+07:00*
G04 #@! TF.ProjectId,Digital_Multi_Pedal_v1,44696769-7461-46c5-9f4d-756c74695f50,rev?*
G04 #@! TF.SameCoordinates,Original*
G04 #@! TF.FileFunction,Paste,Top*
G04 #@! TF.FilePolarity,Positive*
%FSLAX46Y46*%
G04 Gerber Fmt 4.6, Leading zero omitted, Abs format (unit mm)*
G04 Created by KiCad (PCBNEW 8.0.3) date 2025-02-06 22:10:45*
%MOMM*%
%LPD*%
G01*
G04 APERTURE LIST*
G04 Aperture macros list*
%AMRoundRect*
0 Rectangle with rounded corners*
0 $1 Rounding radius*
0 $2 $3 $4 $5 $6 $7 $8 $9 X,Y pos of 4 corners*
0 Add a 4 corners polygon primitive as box body*
4,1,4,$2,$3,$4,$5,$6,$7,$8,$9,$2,$3,0*
0 Add four circle primitives for the rounded corners*
1,1,$1+$1,$2,$3*
1,1,$1+$1,$4,$5*
1,1,$1+$1,$6,$7*
1,1,$1+$1,$8,$9*
0 Add four rect primitives between the rounded corners*
20,1,$1+$1,$2,$3,$4,$5,0*
20,1,$1+$1,$4,$5,$6,$7,0*
20,1,$1+$1,$6,$7,$8,$9,0*
20,1,$1+$1,$8,$9,$2,$3,0*%
G04 Aperture macros list end*
%ADD10RoundRect,0.196000X-0.196000X-0.269500X0.196000X-0.269500X0.196000X0.269500X-0.196000X0.269500X0*%
%ADD11RoundRect,0.200000X-0.200000X-0.275000X0.200000X-0.275000X0.200000X0.275000X-0.200000X0.275000X0*%
%ADD12RoundRect,0.196000X0.196000X0.269500X-0.196000X0.269500X-0.196000X-0.269500X0.196000X-0.269500X0*%
%ADD13RoundRect,0.200000X0.200000X0.275000X-0.200000X0.275000X-0.200000X-0.275000X0.200000X-0.275000X0*%
%ADD14RoundRect,0.250000X-0.450000X0.262500X-0.450000X-0.262500X0.450000X-0.262500X0.450000X0.262500X0*%
%ADD15RoundRect,0.224400X-0.435600X0.680600X-0.435600X-0.680600X0.435600X-0.680600X0.435600X0.680600X0*%
%ADD16RoundRect,0.225000X-0.250000X0.225000X-0.250000X-0.225000X0.250000X-0.225000X0.250000X0.225000X0*%
%ADD17RoundRect,0.225000X-0.225000X-0.250000X0.225000X-0.250000X0.225000X0.250000X-0.225000X0.250000X0*%
%ADD18RoundRect,0.225000X0.250000X-0.225000X0.250000X0.225000X-0.250000X0.225000X-0.250000X-0.225000X0*%
%ADD19RoundRect,0.224400X0.680600X0.435600X-0.680600X0.435600X-0.680600X-0.435600X0.680600X-0.435600X0*%
%ADD20RoundRect,0.196000X0.269500X-0.196000X0.269500X0.196000X-0.269500X0.196000X-0.269500X-0.196000X0*%
%ADD21RoundRect,0.200000X0.275000X-0.200000X0.275000X0.200000X-0.275000X0.200000X-0.275000X-0.200000X0*%
%ADD22RoundRect,0.250000X0.750000X-0.750000X0.750000X0.750000X-0.750000X0.750000X-0.750000X-0.750000X0*%
%ADD23RoundRect,0.243750X0.456250X-0.243750X0.456250X0.243750X-0.456250X0.243750X-0.456250X-0.243750X0*%
%ADD24RoundRect,0.225000X0.225000X0.250000X-0.225000X0.250000X-0.225000X-0.250000X0.225000X-0.250000X0*%
%ADD25R,0.558800X1.981200*%
%ADD26RoundRect,0.243750X-0.243750X-0.456250X0.243750X-0.456250X0.243750X0.456250X-0.243750X0.456250X0*%
%ADD27RoundRect,0.224400X0.435600X-0.680600X0.435600X0.680600X-0.435600X0.680600X-0.435600X-0.680600X0*%
%ADD28RoundRect,0.224400X-0.680600X-0.435600X0.680600X-0.435600X0.680600X0.435600X-0.680600X0.435600X0*%
%ADD29RoundRect,0.196000X-0.269500X0.196000X-0.269500X-0.196000X0.269500X-0.196000X0.269500X0.196000X0*%
%ADD30RoundRect,0.200000X-0.275000X0.200000X-0.275000X-0.200000X0.275000X-0.200000X0.275000X0.200000X0*%
%ADD31R,0.355600X1.358900*%
%ADD32RoundRect,0.250000X0.475000X-0.337500X0.475000X0.337500X-0.475000X0.337500X-0.475000X-0.337500X0*%
%ADD33R,3.149600X1.778000*%
%ADD34RoundRect,0.250000X-0.475000X0.337500X-0.475000X-0.337500X0.475000X-0.337500X0.475000X0.337500X0*%
%ADD35R,1.150000X1.400000*%
%ADD36R,1.500000X1.700000*%
%ADD37R,1.475000X0.300000*%
%ADD38R,0.300000X1.475000*%
%ADD39RoundRect,0.250000X0.650000X-1.000000X0.650000X1.000000X-0.650000X1.000000X-0.650000X-1.000000X0*%
%ADD40RoundRect,0.375000X0.625000X0.375000X-0.625000X0.375000X-0.625000X-0.375000X0.625000X-0.375000X0*%
%ADD41RoundRect,0.500000X0.500000X1.400000X-0.500000X1.400000X-0.500000X-1.400000X0.500000X-1.400000X0*%
%ADD42RoundRect,0.250000X0.262500X0.450000X-0.262500X0.450000X-0.262500X-0.450000X0.262500X-0.450000X0*%
%ADD43R,0.600000X1.700000*%
%ADD44R,2.500000X2.800000*%
G04 APERTURE END LIST*
D10*
X169661200Y-73934200D03*
D11*
X171311200Y-73934200D03*
D12*
X129277200Y-140833800D03*
D13*
X127627200Y-140833800D03*
D14*
X149794200Y-129079000D03*
X149794200Y-130904000D03*
D10*
X122596200Y-112394200D03*
D11*
X124246200Y-112394200D03*
D15*
X164961700Y-92669000D03*
X164961700Y-95269000D03*
D16*
X172769200Y-120409000D03*
X172769200Y-121959000D03*
D17*
X140524200Y-99167900D03*
X142074200Y-99167900D03*
D18*
X151364200Y-130969000D03*
X151364200Y-129419000D03*
D15*
X153881700Y-105349000D03*
X153881700Y-107949000D03*
D19*
X133909200Y-96181500D03*
X131309200Y-96181500D03*
D17*
X152279200Y-133744000D03*
X153829200Y-133744000D03*
D10*
X162131200Y-73934200D03*
D11*
X163781200Y-73934200D03*
D10*
X143371200Y-118234200D03*
D11*
X145021200Y-118234200D03*
D20*
X149509400Y-103470900D03*
D21*
X149509400Y-101820900D03*
D22*
X171099200Y-89754000D03*
X177249200Y-89754000D03*
X177249200Y-78754000D03*
X171099200Y-78754000D03*
D18*
X127444200Y-103599000D03*
X127444200Y-102049000D03*
D17*
X169814200Y-117494000D03*
X171364200Y-117494000D03*
D18*
X172759200Y-119029000D03*
X172759200Y-117479000D03*
X150939200Y-103429000D03*
X150939200Y-101879000D03*
D23*
X149794200Y-116731500D03*
X149794200Y-114856500D03*
D18*
X174169200Y-136259000D03*
X174169200Y-134709000D03*
D24*
X138349200Y-121594000D03*
X136799200Y-121594000D03*
D18*
X128854200Y-103619000D03*
X128854200Y-102069000D03*
X170584200Y-102109000D03*
X170584200Y-100559000D03*
D25*
X137469200Y-98767900D03*
X136199200Y-98767900D03*
X134929200Y-98767900D03*
X133659200Y-98767900D03*
X133659200Y-103695500D03*
X134929200Y-103695500D03*
X136199200Y-103695500D03*
X137469200Y-103695500D03*
D26*
X169556700Y-72114000D03*
X171431700Y-72114000D03*
D17*
X155149200Y-117444000D03*
X156699200Y-117444000D03*
D27*
X176836700Y-95559000D03*
X176836700Y-92959000D03*
D16*
X148214200Y-129419000D03*
X148214200Y-130969000D03*
D17*
X135909200Y-106184000D03*
X137459200Y-106184000D03*
D24*
X156699200Y-116104800D03*
X155149200Y-116104800D03*
D17*
X175689200Y-97984000D03*
X177239200Y-97984000D03*
D12*
X142132200Y-97777700D03*
D13*
X140482200Y-97777700D03*
D12*
X145047200Y-115303800D03*
D13*
X143397200Y-115303800D03*
D10*
X158626200Y-117384200D03*
D11*
X160276200Y-117384200D03*
D17*
X155149200Y-114754000D03*
X156699200Y-114754000D03*
D24*
X138349200Y-123024000D03*
X136799200Y-123024000D03*
D28*
X161819200Y-97956500D03*
X164419200Y-97956500D03*
D29*
X130304000Y-102071000D03*
D30*
X130304000Y-103721000D03*
D17*
X122544200Y-123844000D03*
X124094200Y-123844000D03*
D16*
X136534200Y-109999000D03*
X136534200Y-111549000D03*
D18*
X152694600Y-130972036D03*
X152694600Y-129422036D03*
D15*
X150931700Y-105349000D03*
X150931700Y-107949000D03*
D24*
X153829200Y-135094000D03*
X152279200Y-135094000D03*
D26*
X165766700Y-72114000D03*
X167641700Y-72114000D03*
D31*
X134199201Y-119731350D03*
X134849200Y-119731350D03*
X135499198Y-119731350D03*
X136149199Y-119731350D03*
X136799198Y-119731350D03*
X137449199Y-119731350D03*
X138099198Y-119731350D03*
X138749199Y-119731350D03*
X139399198Y-119731350D03*
X140049199Y-119731350D03*
X140699198Y-119731350D03*
X141349199Y-119731350D03*
X141349199Y-113876650D03*
X140699200Y-113876650D03*
X140049199Y-113876650D03*
X139399201Y-113876650D03*
X138749199Y-113876650D03*
X138099201Y-113876650D03*
X137449202Y-113876650D03*
X136799201Y-113876650D03*
X136149202Y-113876650D03*
X135499201Y-113876650D03*
X134849202Y-113876650D03*
X134199201Y-113876650D03*
D32*
X138154200Y-111410900D03*
X138154200Y-109335900D03*
D10*
X143361200Y-119734200D03*
D11*
X145011200Y-119734200D03*
D16*
X131764200Y-102139000D03*
X131764200Y-103689000D03*
D12*
X145047200Y-116733800D03*
D13*
X143397200Y-116733800D03*
D20*
X152404400Y-103497000D03*
D21*
X152404400Y-101847000D03*
D17*
X116949200Y-123844000D03*
X118499200Y-123844000D03*
D33*
X168515300Y-92682300D03*
X168515300Y-97889300D03*
D16*
X172810800Y-134700800D03*
X172810800Y-136250800D03*
D29*
X149799000Y-93274900D03*
D30*
X149799000Y-94924900D03*
D18*
X148209200Y-94892900D03*
X148209200Y-93342900D03*
X153874200Y-103439000D03*
X153874200Y-101889000D03*
D34*
X133594200Y-109317100D03*
X133594200Y-111392100D03*
D20*
X145039400Y-94940900D03*
D21*
X145039400Y-93290900D03*
D24*
X162809200Y-95834000D03*
X161259200Y-95834000D03*
D29*
X146609000Y-93284900D03*
D30*
X146609000Y-94934900D03*
D16*
X140559200Y-102102900D03*
X140559200Y-103652900D03*
D19*
X133919200Y-93901500D03*
X131319200Y-93901500D03*
D29*
X128854000Y-99111000D03*
D30*
X128854000Y-100761000D03*
D24*
X170234200Y-136754000D03*
X168684200Y-136754000D03*
X151004200Y-124971500D03*
X149454200Y-124971500D03*
D29*
X130324000Y-99111000D03*
D30*
X130324000Y-100761000D03*
D18*
X128319200Y-134474000D03*
X128319200Y-132924000D03*
D29*
X137574000Y-95001000D03*
D30*
X137574000Y-96651000D03*
D25*
X147579200Y-98647900D03*
X146309200Y-98647900D03*
X145039200Y-98647900D03*
X143769200Y-98647900D03*
X143769200Y-103575500D03*
X145039200Y-103575500D03*
X146309200Y-103575500D03*
X147579200Y-103575500D03*
D12*
X142132200Y-100567700D03*
D13*
X140482200Y-100567700D03*
D10*
X127541200Y-96164200D03*
D11*
X129191200Y-96164200D03*
D20*
X127454400Y-100747000D03*
D21*
X127454400Y-99097000D03*
D26*
X161986700Y-72114000D03*
X163861700Y-72114000D03*
D35*
X149409200Y-121094000D03*
X149409200Y-123294000D03*
X151009200Y-123294000D03*
X151009200Y-121094000D03*
D10*
X117001200Y-112654200D03*
D11*
X118651200Y-112654200D03*
D10*
X111311200Y-112394200D03*
D11*
X112961200Y-112394200D03*
D36*
X130002200Y-132940000D03*
X133402200Y-132940000D03*
D29*
X131164000Y-117491000D03*
D30*
X131164000Y-119141000D03*
D29*
X132594000Y-117491000D03*
D30*
X132594000Y-119141000D03*
D29*
X136204000Y-95001000D03*
D30*
X136204000Y-96651000D03*
D18*
X172134200Y-102109000D03*
X172134200Y-100559000D03*
D37*
X155543200Y-120964000D03*
X155543200Y-121464000D03*
X155543200Y-121964000D03*
X155543200Y-122464000D03*
X155543200Y-122964000D03*
X155543200Y-123464000D03*
X155543200Y-123964000D03*
X155543200Y-124464000D03*
X155543200Y-124964000D03*
X155543200Y-125464000D03*
X155543200Y-125964000D03*
X155543200Y-126464000D03*
X155543200Y-126964000D03*
X155543200Y-127464000D03*
X155543200Y-127964000D03*
X155543200Y-128464000D03*
X155543200Y-128964000D03*
X155543200Y-129464000D03*
X155543200Y-129964000D03*
X155543200Y-130464000D03*
X155543200Y-130964000D03*
X155543200Y-131464000D03*
X155543200Y-131964000D03*
X155543200Y-132464000D03*
X155543200Y-132964000D03*
D38*
X157281200Y-134702000D03*
X157781200Y-134702000D03*
X158281200Y-134702000D03*
X158781200Y-134702000D03*
X159281200Y-134702000D03*
X159781200Y-134702000D03*
X160281200Y-134702000D03*
X160781200Y-134702000D03*
X161281200Y-134702000D03*
X161781200Y-134702000D03*
X162281200Y-134702000D03*
X162781200Y-134702000D03*
X163281200Y-134702000D03*
X163781200Y-134702000D03*
X164281200Y-134702000D03*
X164781200Y-134702000D03*
X165281200Y-134702000D03*
X165781200Y-134702000D03*
X166281200Y-134702000D03*
X166781200Y-134702000D03*
X167281200Y-134702000D03*
X167781200Y-134702000D03*
X168281200Y-134702000D03*
X168781200Y-134702000D03*
X169281200Y-134702000D03*
D37*
X171019200Y-132964000D03*
X171019200Y-132464000D03*
X171019200Y-131964000D03*
X171019200Y-131464000D03*
X171019200Y-130964000D03*
X171019200Y-130464000D03*
X171019200Y-129964000D03*
X171019200Y-129464000D03*
X171019200Y-128964000D03*
X171019200Y-128464000D03*
X171019200Y-127964000D03*
X171019200Y-127464000D03*
X171019200Y-126964000D03*
X171019200Y-126464000D03*
X171019200Y-125964000D03*
X171019200Y-125464000D03*
X171019200Y-124964000D03*
X171019200Y-124464000D03*
X171019200Y-123964000D03*
X171019200Y-123464000D03*
X171019200Y-122964000D03*
X171019200Y-122464000D03*
X171019200Y-121964000D03*
X171019200Y-121464000D03*
X171019200Y-120964000D03*
D38*
X169281200Y-119226000D03*
X168781200Y-119226000D03*
X168281200Y-119226000D03*
X167781200Y-119226000D03*
X167281200Y-119226000D03*
X166781200Y-119226000D03*
X166281200Y-119226000D03*
X165781200Y-119226000D03*
X165281200Y-119226000D03*
X164781200Y-119226000D03*
X164281200Y-119226000D03*
X163781200Y-119226000D03*
X163281200Y-119226000D03*
X162781200Y-119226000D03*
X162281200Y-119226000D03*
X161781200Y-119226000D03*
X161281200Y-119226000D03*
X160781200Y-119226000D03*
X160281200Y-119226000D03*
X159781200Y-119226000D03*
X159281200Y-119226000D03*
X158781200Y-119226000D03*
X158281200Y-119226000D03*
X157781200Y-119226000D03*
X157281200Y-119226000D03*
D29*
X135089000Y-132936000D03*
D30*
X135089000Y-134586000D03*
D10*
X127561200Y-93904200D03*
D11*
X129211200Y-93904200D03*
D39*
X173004200Y-97101500D03*
X173004200Y-93101500D03*
D12*
X145047200Y-113873800D03*
D13*
X143397200Y-113873800D03*
D18*
X135204200Y-111549000D03*
X135204200Y-109999000D03*
D24*
X146594200Y-96387900D03*
X145044200Y-96387900D03*
D17*
X149414200Y-119414000D03*
X150964200Y-119414000D03*
D40*
X168114200Y-105154000D03*
X168114200Y-102854000D03*
D41*
X161814200Y-102854000D03*
D40*
X168114200Y-100554000D03*
D12*
X145047200Y-112433800D03*
D13*
X143397200Y-112433800D03*
D20*
X151574400Y-116687000D03*
D21*
X151574400Y-115037000D03*
D17*
X111259200Y-123844000D03*
X112809200Y-123844000D03*
D20*
X142044400Y-103647000D03*
D21*
X142044400Y-101997000D03*
D42*
X177232236Y-100793600D03*
X175407236Y-100793600D03*
D10*
X165821200Y-73934200D03*
D11*
X167471200Y-73934200D03*
D18*
X173684200Y-102109000D03*
X173684200Y-100559000D03*
D16*
X131754200Y-99209000D03*
X131754200Y-100759000D03*
D43*
X167284200Y-142844000D03*
X166284200Y-142844000D03*
X165284200Y-142844000D03*
X164284200Y-142844000D03*
X163284200Y-142844000D03*
X162284200Y-142844000D03*
X161284200Y-142844000D03*
X160284200Y-142844000D03*
X159284200Y-142844000D03*
X158284200Y-142844000D03*
X157284200Y-142844000D03*
X156284200Y-142844000D03*
X155284200Y-142844000D03*
X154284200Y-142844000D03*
X153284200Y-142844000D03*
X152284200Y-142844000D03*
X151284200Y-142844000D03*
X150284200Y-142844000D03*
X149284200Y-142844000D03*
X148284200Y-142844000D03*
X147284200Y-142844000D03*
X146284200Y-142844000D03*
X145284200Y-142844000D03*
X144284200Y-142844000D03*
X143284200Y-142844000D03*
X142284200Y-142844000D03*
X141284200Y-142844000D03*
X140284200Y-142844000D03*
X139284200Y-142844000D03*
X138284200Y-142844000D03*
X137284200Y-142844000D03*
X136284200Y-142844000D03*
X135284200Y-142844000D03*
X134284200Y-142844000D03*
X133284200Y-142844000D03*
X132284200Y-142844000D03*
X131284200Y-142844000D03*
X130284200Y-142844000D03*
X129284200Y-142844000D03*
X128284200Y-142844000D03*
D44*
X170034200Y-145294000D03*
X125534200Y-145294000D03*
G36*
X173259985Y-148511085D02*
G01*
X173279766Y-148526866D01*
X173705809Y-148944660D01*
X173739892Y-149005653D01*
X173742935Y-149029522D01*
X173746700Y-149156610D01*
X173746749Y-149159152D01*
X173749755Y-149488870D01*
X173730682Y-149556086D01*
X173678298Y-149602320D01*
X173625760Y-149614000D01*
X113019400Y-149614000D01*
X112952361Y-149594315D01*
X112906606Y-149541511D01*
X112895400Y-149490000D01*
X112895400Y-148979092D01*
X112915085Y-148912053D01*
X112940783Y-148883199D01*
X113076235Y-148772149D01*
X113128697Y-148721468D01*
X113172439Y-148677416D01*
X113172572Y-148677282D01*
X113216195Y-148633482D01*
X113218093Y-148631618D01*
X113288859Y-148563549D01*
X113288863Y-148563545D01*
X113318571Y-148531334D01*
X113378491Y-148495398D01*
X113409724Y-148491400D01*
X173192946Y-148491400D01*
X173259985Y-148511085D01*
G37*
G36*
X179597239Y-75511485D02*
G01*
X179642994Y-75564289D01*
X179654200Y-75615800D01*
X179654200Y-143640800D01*
X179634515Y-143707839D01*
X179581711Y-143753594D01*
X179530200Y-143764800D01*
X179039893Y-143764800D01*
X178972854Y-143745115D01*
X178944001Y-143719417D01*
X178832956Y-143583971D01*
X178782268Y-143531502D01*
X178738082Y-143487628D01*
X178737947Y-143487493D01*
X178694281Y-143444002D01*
X178692418Y-143442107D01*
X178624337Y-143371328D01*
X178592132Y-143341626D01*
X178556197Y-143281706D01*
X178552200Y-143250475D01*
X178552200Y-76049726D01*
X178571885Y-75982687D01*
X178586795Y-75963803D01*
X179003824Y-75529877D01*
X179064471Y-75495181D01*
X179093229Y-75491800D01*
X179530200Y-75491800D01*
X179597239Y-75511485D01*
G37*
G36*
X107773546Y-75513685D02*
G01*
X107802399Y-75539383D01*
X107913443Y-75674828D01*
X107964130Y-75727297D01*
X108008183Y-75771037D01*
X108008279Y-75771212D01*
X108008319Y-75771173D01*
X108052118Y-75814796D01*
X108053981Y-75816692D01*
X108122060Y-75887469D01*
X108154266Y-75917171D01*
X108190202Y-75977091D01*
X108194200Y-76008324D01*
X108194200Y-143141800D01*
X108174515Y-143208839D01*
X108156868Y-143230483D01*
X107780105Y-143598683D01*
X107718401Y-143631461D01*
X107693437Y-143634000D01*
X107198200Y-143634000D01*
X107131161Y-143614315D01*
X107085406Y-143561511D01*
X107074200Y-143510000D01*
X107074200Y-75618000D01*
X107093885Y-75550961D01*
X107146689Y-75505206D01*
X107198200Y-75494000D01*
X107706507Y-75494000D01*
X107773546Y-75513685D01*
G37*
M02*
