%TF.GenerationSoftware,KiCad,Pcbnew,8.0.3*%
%TF.CreationDate,2025-02-06T23:25:19+07:00*%
%TF.ProjectId,Digital_Multi_Pedal_v1,44696769-7461-46c5-9f4d-756c74695f50,rev?*%
%TF.SameCoordinates,Original*%
%TF.FileFunction,Drillmap*%
%TF.FilePolarity,Positive*%
%FSLAX45Y45*%
G04 Gerber Fmt 4.5, Leading zero omitted, Abs format (unit mm)*
G04 Created by KiCad (PCBNEW 8.0.3) date 2025-02-06 23:25:19*
%MOMM*%
%LPD*%
G01*
G04 APERTURE LIST*
%ADD10C,0.200000*%
%ADD11C,0.100000*%
%ADD12C,0.150000*%
%ADD13C,0.160000*%
%ADD14C,0.180000*%
G04 APERTURE END LIST*
D10*
X10834420Y-14961400D02*
G75*
G02*
X10707420Y-14834400I0J127000D01*
G01*
X17838420Y-14961400D02*
X10834420Y-14961400D01*
X10707420Y-7088400D02*
G75*
G02*
X10834420Y-6961400I127000J0D01*
G01*
X17838420Y-6961400D02*
G75*
G02*
X17965420Y-7088400I0J-127000D01*
G01*
X10707420Y-14834400D02*
X10707420Y-7088400D01*
X17965420Y-14834400D02*
G75*
G02*
X17838420Y-14961400I-127000J0D01*
G01*
X10834420Y-6961400D02*
X17838420Y-6961400D01*
X17965420Y-7088400D02*
X17965420Y-14834400D01*
D11*
X17427420Y-10689400D02*
X17517420Y-10779400D01*
X17517420Y-10689400D02*
X17427420Y-10779400D01*
X17427420Y-11489400D02*
X17517420Y-11579400D01*
X17517420Y-11489400D02*
X17427420Y-11579400D01*
D12*
X11161420Y-10329400D02*
G75*
G02*
X11011420Y-10329400I-75000J0D01*
G01*
X11011420Y-10329400D02*
G75*
G02*
X11161420Y-10329400I75000J0D01*
G01*
X11761420Y-10329400D02*
G75*
G02*
X11611420Y-10329400I-75000J0D01*
G01*
X11611420Y-10329400D02*
G75*
G02*
X11761420Y-10329400I75000J0D01*
G01*
D13*
X17724920Y-8345400D02*
X17724920Y-8505400D01*
X17644920Y-8425400D02*
X17804920Y-8425400D01*
D14*
X17338560Y-8489040D02*
X17338560Y-8361760D01*
X17211280Y-8361760D01*
X17211280Y-8489040D01*
X17338560Y-8489040D01*
D10*
X10958197Y-15282884D02*
X10958197Y-15082884D01*
X10958197Y-15082884D02*
X11005816Y-15082884D01*
X11005816Y-15082884D02*
X11034387Y-15092408D01*
X11034387Y-15092408D02*
X11053435Y-15111455D01*
X11053435Y-15111455D02*
X11062959Y-15130503D01*
X11062959Y-15130503D02*
X11072483Y-15168598D01*
X11072483Y-15168598D02*
X11072483Y-15197169D01*
X11072483Y-15197169D02*
X11062959Y-15235265D01*
X11062959Y-15235265D02*
X11053435Y-15254312D01*
X11053435Y-15254312D02*
X11034387Y-15273360D01*
X11034387Y-15273360D02*
X11005816Y-15282884D01*
X11005816Y-15282884D02*
X10958197Y-15282884D01*
X11158197Y-15282884D02*
X11158197Y-15149550D01*
X11158197Y-15187646D02*
X11167721Y-15168598D01*
X11167721Y-15168598D02*
X11177244Y-15159074D01*
X11177244Y-15159074D02*
X11196292Y-15149550D01*
X11196292Y-15149550D02*
X11215340Y-15149550D01*
X11282006Y-15282884D02*
X11282006Y-15149550D01*
X11282006Y-15082884D02*
X11272482Y-15092408D01*
X11272482Y-15092408D02*
X11282006Y-15101931D01*
X11282006Y-15101931D02*
X11291530Y-15092408D01*
X11291530Y-15092408D02*
X11282006Y-15082884D01*
X11282006Y-15082884D02*
X11282006Y-15101931D01*
X11405816Y-15282884D02*
X11386768Y-15273360D01*
X11386768Y-15273360D02*
X11377244Y-15254312D01*
X11377244Y-15254312D02*
X11377244Y-15082884D01*
X11510578Y-15282884D02*
X11491530Y-15273360D01*
X11491530Y-15273360D02*
X11482006Y-15254312D01*
X11482006Y-15254312D02*
X11482006Y-15082884D01*
X11739149Y-15282884D02*
X11739149Y-15082884D01*
X11739149Y-15082884D02*
X11805816Y-15225741D01*
X11805816Y-15225741D02*
X11872482Y-15082884D01*
X11872482Y-15082884D02*
X11872482Y-15282884D01*
X12053435Y-15282884D02*
X12053435Y-15178122D01*
X12053435Y-15178122D02*
X12043911Y-15159074D01*
X12043911Y-15159074D02*
X12024863Y-15149550D01*
X12024863Y-15149550D02*
X11986768Y-15149550D01*
X11986768Y-15149550D02*
X11967721Y-15159074D01*
X12053435Y-15273360D02*
X12034387Y-15282884D01*
X12034387Y-15282884D02*
X11986768Y-15282884D01*
X11986768Y-15282884D02*
X11967721Y-15273360D01*
X11967721Y-15273360D02*
X11958197Y-15254312D01*
X11958197Y-15254312D02*
X11958197Y-15235265D01*
X11958197Y-15235265D02*
X11967721Y-15216217D01*
X11967721Y-15216217D02*
X11986768Y-15206693D01*
X11986768Y-15206693D02*
X12034387Y-15206693D01*
X12034387Y-15206693D02*
X12053435Y-15197169D01*
X12148673Y-15149550D02*
X12148673Y-15349550D01*
X12148673Y-15159074D02*
X12167721Y-15149550D01*
X12167721Y-15149550D02*
X12205816Y-15149550D01*
X12205816Y-15149550D02*
X12224863Y-15159074D01*
X12224863Y-15159074D02*
X12234387Y-15168598D01*
X12234387Y-15168598D02*
X12243911Y-15187646D01*
X12243911Y-15187646D02*
X12243911Y-15244788D01*
X12243911Y-15244788D02*
X12234387Y-15263836D01*
X12234387Y-15263836D02*
X12224863Y-15273360D01*
X12224863Y-15273360D02*
X12205816Y-15282884D01*
X12205816Y-15282884D02*
X12167721Y-15282884D01*
X12167721Y-15282884D02*
X12148673Y-15273360D01*
X12329625Y-15263836D02*
X12339149Y-15273360D01*
X12339149Y-15273360D02*
X12329625Y-15282884D01*
X12329625Y-15282884D02*
X12320102Y-15273360D01*
X12320102Y-15273360D02*
X12329625Y-15263836D01*
X12329625Y-15263836D02*
X12329625Y-15282884D01*
X12329625Y-15159074D02*
X12339149Y-15168598D01*
X12339149Y-15168598D02*
X12329625Y-15178122D01*
X12329625Y-15178122D02*
X12320102Y-15168598D01*
X12320102Y-15168598D02*
X12329625Y-15159074D01*
X12329625Y-15159074D02*
X12329625Y-15178122D01*
D11*
X10607420Y-15566400D02*
X10697420Y-15656400D01*
X10697420Y-15566400D02*
X10607420Y-15656400D01*
D10*
X10996292Y-15502884D02*
X11015340Y-15502884D01*
X11015340Y-15502884D02*
X11034387Y-15512408D01*
X11034387Y-15512408D02*
X11043911Y-15521931D01*
X11043911Y-15521931D02*
X11053435Y-15540979D01*
X11053435Y-15540979D02*
X11062959Y-15579074D01*
X11062959Y-15579074D02*
X11062959Y-15626693D01*
X11062959Y-15626693D02*
X11053435Y-15664788D01*
X11053435Y-15664788D02*
X11043911Y-15683836D01*
X11043911Y-15683836D02*
X11034387Y-15693360D01*
X11034387Y-15693360D02*
X11015340Y-15702884D01*
X11015340Y-15702884D02*
X10996292Y-15702884D01*
X10996292Y-15702884D02*
X10977244Y-15693360D01*
X10977244Y-15693360D02*
X10967721Y-15683836D01*
X10967721Y-15683836D02*
X10958197Y-15664788D01*
X10958197Y-15664788D02*
X10948673Y-15626693D01*
X10948673Y-15626693D02*
X10948673Y-15579074D01*
X10948673Y-15579074D02*
X10958197Y-15540979D01*
X10958197Y-15540979D02*
X10967721Y-15521931D01*
X10967721Y-15521931D02*
X10977244Y-15512408D01*
X10977244Y-15512408D02*
X10996292Y-15502884D01*
X11148673Y-15683836D02*
X11158197Y-15693360D01*
X11158197Y-15693360D02*
X11148673Y-15702884D01*
X11148673Y-15702884D02*
X11139149Y-15693360D01*
X11139149Y-15693360D02*
X11148673Y-15683836D01*
X11148673Y-15683836D02*
X11148673Y-15702884D01*
X11253435Y-15702884D02*
X11291530Y-15702884D01*
X11291530Y-15702884D02*
X11310578Y-15693360D01*
X11310578Y-15693360D02*
X11320102Y-15683836D01*
X11320102Y-15683836D02*
X11339149Y-15655265D01*
X11339149Y-15655265D02*
X11348673Y-15617169D01*
X11348673Y-15617169D02*
X11348673Y-15540979D01*
X11348673Y-15540979D02*
X11339149Y-15521931D01*
X11339149Y-15521931D02*
X11329625Y-15512408D01*
X11329625Y-15512408D02*
X11310578Y-15502884D01*
X11310578Y-15502884D02*
X11272482Y-15502884D01*
X11272482Y-15502884D02*
X11253435Y-15512408D01*
X11253435Y-15512408D02*
X11243911Y-15521931D01*
X11243911Y-15521931D02*
X11234387Y-15540979D01*
X11234387Y-15540979D02*
X11234387Y-15588598D01*
X11234387Y-15588598D02*
X11243911Y-15607646D01*
X11243911Y-15607646D02*
X11253435Y-15617169D01*
X11253435Y-15617169D02*
X11272482Y-15626693D01*
X11272482Y-15626693D02*
X11310578Y-15626693D01*
X11310578Y-15626693D02*
X11329625Y-15617169D01*
X11329625Y-15617169D02*
X11339149Y-15607646D01*
X11339149Y-15607646D02*
X11348673Y-15588598D01*
X11472482Y-15502884D02*
X11491530Y-15502884D01*
X11491530Y-15502884D02*
X11510578Y-15512408D01*
X11510578Y-15512408D02*
X11520102Y-15521931D01*
X11520102Y-15521931D02*
X11529625Y-15540979D01*
X11529625Y-15540979D02*
X11539149Y-15579074D01*
X11539149Y-15579074D02*
X11539149Y-15626693D01*
X11539149Y-15626693D02*
X11529625Y-15664788D01*
X11529625Y-15664788D02*
X11520102Y-15683836D01*
X11520102Y-15683836D02*
X11510578Y-15693360D01*
X11510578Y-15693360D02*
X11491530Y-15702884D01*
X11491530Y-15702884D02*
X11472482Y-15702884D01*
X11472482Y-15702884D02*
X11453435Y-15693360D01*
X11453435Y-15693360D02*
X11443911Y-15683836D01*
X11443911Y-15683836D02*
X11434387Y-15664788D01*
X11434387Y-15664788D02*
X11424863Y-15626693D01*
X11424863Y-15626693D02*
X11424863Y-15579074D01*
X11424863Y-15579074D02*
X11434387Y-15540979D01*
X11434387Y-15540979D02*
X11443911Y-15521931D01*
X11443911Y-15521931D02*
X11453435Y-15512408D01*
X11453435Y-15512408D02*
X11472482Y-15502884D01*
X11662959Y-15502884D02*
X11682006Y-15502884D01*
X11682006Y-15502884D02*
X11701054Y-15512408D01*
X11701054Y-15512408D02*
X11710578Y-15521931D01*
X11710578Y-15521931D02*
X11720102Y-15540979D01*
X11720102Y-15540979D02*
X11729625Y-15579074D01*
X11729625Y-15579074D02*
X11729625Y-15626693D01*
X11729625Y-15626693D02*
X11720102Y-15664788D01*
X11720102Y-15664788D02*
X11710578Y-15683836D01*
X11710578Y-15683836D02*
X11701054Y-15693360D01*
X11701054Y-15693360D02*
X11682006Y-15702884D01*
X11682006Y-15702884D02*
X11662959Y-15702884D01*
X11662959Y-15702884D02*
X11643911Y-15693360D01*
X11643911Y-15693360D02*
X11634387Y-15683836D01*
X11634387Y-15683836D02*
X11624863Y-15664788D01*
X11624863Y-15664788D02*
X11615340Y-15626693D01*
X11615340Y-15626693D02*
X11615340Y-15579074D01*
X11615340Y-15579074D02*
X11624863Y-15540979D01*
X11624863Y-15540979D02*
X11634387Y-15521931D01*
X11634387Y-15521931D02*
X11643911Y-15512408D01*
X11643911Y-15512408D02*
X11662959Y-15502884D01*
X11815340Y-15702884D02*
X11815340Y-15569550D01*
X11815340Y-15588598D02*
X11824863Y-15579074D01*
X11824863Y-15579074D02*
X11843911Y-15569550D01*
X11843911Y-15569550D02*
X11872483Y-15569550D01*
X11872483Y-15569550D02*
X11891530Y-15579074D01*
X11891530Y-15579074D02*
X11901054Y-15598122D01*
X11901054Y-15598122D02*
X11901054Y-15702884D01*
X11901054Y-15598122D02*
X11910578Y-15579074D01*
X11910578Y-15579074D02*
X11929625Y-15569550D01*
X11929625Y-15569550D02*
X11958197Y-15569550D01*
X11958197Y-15569550D02*
X11977244Y-15579074D01*
X11977244Y-15579074D02*
X11986768Y-15598122D01*
X11986768Y-15598122D02*
X11986768Y-15702884D01*
X12082006Y-15702884D02*
X12082006Y-15569550D01*
X12082006Y-15588598D02*
X12091530Y-15579074D01*
X12091530Y-15579074D02*
X12110578Y-15569550D01*
X12110578Y-15569550D02*
X12139149Y-15569550D01*
X12139149Y-15569550D02*
X12158197Y-15579074D01*
X12158197Y-15579074D02*
X12167721Y-15598122D01*
X12167721Y-15598122D02*
X12167721Y-15702884D01*
X12167721Y-15598122D02*
X12177244Y-15579074D01*
X12177244Y-15579074D02*
X12196292Y-15569550D01*
X12196292Y-15569550D02*
X12224863Y-15569550D01*
X12224863Y-15569550D02*
X12243911Y-15579074D01*
X12243911Y-15579074D02*
X12253435Y-15598122D01*
X12253435Y-15598122D02*
X12253435Y-15702884D01*
X12643911Y-15493360D02*
X12472483Y-15750503D01*
X12901054Y-15502884D02*
X12920102Y-15502884D01*
X12920102Y-15502884D02*
X12939149Y-15512408D01*
X12939149Y-15512408D02*
X12948673Y-15521931D01*
X12948673Y-15521931D02*
X12958197Y-15540979D01*
X12958197Y-15540979D02*
X12967721Y-15579074D01*
X12967721Y-15579074D02*
X12967721Y-15626693D01*
X12967721Y-15626693D02*
X12958197Y-15664788D01*
X12958197Y-15664788D02*
X12948673Y-15683836D01*
X12948673Y-15683836D02*
X12939149Y-15693360D01*
X12939149Y-15693360D02*
X12920102Y-15702884D01*
X12920102Y-15702884D02*
X12901054Y-15702884D01*
X12901054Y-15702884D02*
X12882006Y-15693360D01*
X12882006Y-15693360D02*
X12872483Y-15683836D01*
X12872483Y-15683836D02*
X12862959Y-15664788D01*
X12862959Y-15664788D02*
X12853435Y-15626693D01*
X12853435Y-15626693D02*
X12853435Y-15579074D01*
X12853435Y-15579074D02*
X12862959Y-15540979D01*
X12862959Y-15540979D02*
X12872483Y-15521931D01*
X12872483Y-15521931D02*
X12882006Y-15512408D01*
X12882006Y-15512408D02*
X12901054Y-15502884D01*
X13053435Y-15683836D02*
X13062959Y-15693360D01*
X13062959Y-15693360D02*
X13053435Y-15702884D01*
X13053435Y-15702884D02*
X13043911Y-15693360D01*
X13043911Y-15693360D02*
X13053435Y-15683836D01*
X13053435Y-15683836D02*
X13053435Y-15702884D01*
X13186768Y-15502884D02*
X13205816Y-15502884D01*
X13205816Y-15502884D02*
X13224864Y-15512408D01*
X13224864Y-15512408D02*
X13234387Y-15521931D01*
X13234387Y-15521931D02*
X13243911Y-15540979D01*
X13243911Y-15540979D02*
X13253435Y-15579074D01*
X13253435Y-15579074D02*
X13253435Y-15626693D01*
X13253435Y-15626693D02*
X13243911Y-15664788D01*
X13243911Y-15664788D02*
X13234387Y-15683836D01*
X13234387Y-15683836D02*
X13224864Y-15693360D01*
X13224864Y-15693360D02*
X13205816Y-15702884D01*
X13205816Y-15702884D02*
X13186768Y-15702884D01*
X13186768Y-15702884D02*
X13167721Y-15693360D01*
X13167721Y-15693360D02*
X13158197Y-15683836D01*
X13158197Y-15683836D02*
X13148673Y-15664788D01*
X13148673Y-15664788D02*
X13139149Y-15626693D01*
X13139149Y-15626693D02*
X13139149Y-15579074D01*
X13139149Y-15579074D02*
X13148673Y-15540979D01*
X13148673Y-15540979D02*
X13158197Y-15521931D01*
X13158197Y-15521931D02*
X13167721Y-15512408D01*
X13167721Y-15512408D02*
X13186768Y-15502884D01*
X13320102Y-15502884D02*
X13443911Y-15502884D01*
X13443911Y-15502884D02*
X13377245Y-15579074D01*
X13377245Y-15579074D02*
X13405816Y-15579074D01*
X13405816Y-15579074D02*
X13424864Y-15588598D01*
X13424864Y-15588598D02*
X13434387Y-15598122D01*
X13434387Y-15598122D02*
X13443911Y-15617169D01*
X13443911Y-15617169D02*
X13443911Y-15664788D01*
X13443911Y-15664788D02*
X13434387Y-15683836D01*
X13434387Y-15683836D02*
X13424864Y-15693360D01*
X13424864Y-15693360D02*
X13405816Y-15702884D01*
X13405816Y-15702884D02*
X13348673Y-15702884D01*
X13348673Y-15702884D02*
X13329626Y-15693360D01*
X13329626Y-15693360D02*
X13320102Y-15683836D01*
X13624864Y-15502884D02*
X13529626Y-15502884D01*
X13529626Y-15502884D02*
X13520102Y-15598122D01*
X13520102Y-15598122D02*
X13529626Y-15588598D01*
X13529626Y-15588598D02*
X13548673Y-15579074D01*
X13548673Y-15579074D02*
X13596292Y-15579074D01*
X13596292Y-15579074D02*
X13615340Y-15588598D01*
X13615340Y-15588598D02*
X13624864Y-15598122D01*
X13624864Y-15598122D02*
X13634387Y-15617169D01*
X13634387Y-15617169D02*
X13634387Y-15664788D01*
X13634387Y-15664788D02*
X13624864Y-15683836D01*
X13624864Y-15683836D02*
X13615340Y-15693360D01*
X13615340Y-15693360D02*
X13596292Y-15702884D01*
X13596292Y-15702884D02*
X13548673Y-15702884D01*
X13548673Y-15702884D02*
X13529626Y-15693360D01*
X13529626Y-15693360D02*
X13520102Y-15683836D01*
X13805816Y-15569550D02*
X13805816Y-15702884D01*
X13758197Y-15493360D02*
X13710578Y-15636217D01*
X13710578Y-15636217D02*
X13834387Y-15636217D01*
X13901054Y-15502884D02*
X13901054Y-15540979D01*
X13977245Y-15502884D02*
X13977245Y-15540979D01*
X14272483Y-15779074D02*
X14262959Y-15769550D01*
X14262959Y-15769550D02*
X14243911Y-15740979D01*
X14243911Y-15740979D02*
X14234388Y-15721931D01*
X14234388Y-15721931D02*
X14224864Y-15693360D01*
X14224864Y-15693360D02*
X14215340Y-15645741D01*
X14215340Y-15645741D02*
X14215340Y-15607646D01*
X14215340Y-15607646D02*
X14224864Y-15560027D01*
X14224864Y-15560027D02*
X14234388Y-15531455D01*
X14234388Y-15531455D02*
X14243911Y-15512408D01*
X14243911Y-15512408D02*
X14262959Y-15483836D01*
X14262959Y-15483836D02*
X14272483Y-15474312D01*
X14339149Y-15521931D02*
X14348673Y-15512408D01*
X14348673Y-15512408D02*
X14367721Y-15502884D01*
X14367721Y-15502884D02*
X14415340Y-15502884D01*
X14415340Y-15502884D02*
X14434388Y-15512408D01*
X14434388Y-15512408D02*
X14443911Y-15521931D01*
X14443911Y-15521931D02*
X14453435Y-15540979D01*
X14453435Y-15540979D02*
X14453435Y-15560027D01*
X14453435Y-15560027D02*
X14443911Y-15588598D01*
X14443911Y-15588598D02*
X14329626Y-15702884D01*
X14329626Y-15702884D02*
X14453435Y-15702884D01*
X14691530Y-15702884D02*
X14691530Y-15502884D01*
X14777245Y-15702884D02*
X14777245Y-15598122D01*
X14777245Y-15598122D02*
X14767721Y-15579074D01*
X14767721Y-15579074D02*
X14748673Y-15569550D01*
X14748673Y-15569550D02*
X14720102Y-15569550D01*
X14720102Y-15569550D02*
X14701054Y-15579074D01*
X14701054Y-15579074D02*
X14691530Y-15588598D01*
X14901054Y-15702884D02*
X14882007Y-15693360D01*
X14882007Y-15693360D02*
X14872483Y-15683836D01*
X14872483Y-15683836D02*
X14862959Y-15664788D01*
X14862959Y-15664788D02*
X14862959Y-15607646D01*
X14862959Y-15607646D02*
X14872483Y-15588598D01*
X14872483Y-15588598D02*
X14882007Y-15579074D01*
X14882007Y-15579074D02*
X14901054Y-15569550D01*
X14901054Y-15569550D02*
X14929626Y-15569550D01*
X14929626Y-15569550D02*
X14948673Y-15579074D01*
X14948673Y-15579074D02*
X14958197Y-15588598D01*
X14958197Y-15588598D02*
X14967721Y-15607646D01*
X14967721Y-15607646D02*
X14967721Y-15664788D01*
X14967721Y-15664788D02*
X14958197Y-15683836D01*
X14958197Y-15683836D02*
X14948673Y-15693360D01*
X14948673Y-15693360D02*
X14929626Y-15702884D01*
X14929626Y-15702884D02*
X14901054Y-15702884D01*
X15082007Y-15702884D02*
X15062959Y-15693360D01*
X15062959Y-15693360D02*
X15053435Y-15674312D01*
X15053435Y-15674312D02*
X15053435Y-15502884D01*
X15234388Y-15693360D02*
X15215340Y-15702884D01*
X15215340Y-15702884D02*
X15177245Y-15702884D01*
X15177245Y-15702884D02*
X15158197Y-15693360D01*
X15158197Y-15693360D02*
X15148673Y-15674312D01*
X15148673Y-15674312D02*
X15148673Y-15598122D01*
X15148673Y-15598122D02*
X15158197Y-15579074D01*
X15158197Y-15579074D02*
X15177245Y-15569550D01*
X15177245Y-15569550D02*
X15215340Y-15569550D01*
X15215340Y-15569550D02*
X15234388Y-15579074D01*
X15234388Y-15579074D02*
X15243911Y-15598122D01*
X15243911Y-15598122D02*
X15243911Y-15617169D01*
X15243911Y-15617169D02*
X15148673Y-15636217D01*
X15320102Y-15693360D02*
X15339150Y-15702884D01*
X15339150Y-15702884D02*
X15377245Y-15702884D01*
X15377245Y-15702884D02*
X15396292Y-15693360D01*
X15396292Y-15693360D02*
X15405816Y-15674312D01*
X15405816Y-15674312D02*
X15405816Y-15664788D01*
X15405816Y-15664788D02*
X15396292Y-15645741D01*
X15396292Y-15645741D02*
X15377245Y-15636217D01*
X15377245Y-15636217D02*
X15348673Y-15636217D01*
X15348673Y-15636217D02*
X15329626Y-15626693D01*
X15329626Y-15626693D02*
X15320102Y-15607646D01*
X15320102Y-15607646D02*
X15320102Y-15598122D01*
X15320102Y-15598122D02*
X15329626Y-15579074D01*
X15329626Y-15579074D02*
X15348673Y-15569550D01*
X15348673Y-15569550D02*
X15377245Y-15569550D01*
X15377245Y-15569550D02*
X15396292Y-15579074D01*
X15472483Y-15779074D02*
X15482007Y-15769550D01*
X15482007Y-15769550D02*
X15501054Y-15740979D01*
X15501054Y-15740979D02*
X15510578Y-15721931D01*
X15510578Y-15721931D02*
X15520102Y-15693360D01*
X15520102Y-15693360D02*
X15529626Y-15645741D01*
X15529626Y-15645741D02*
X15529626Y-15607646D01*
X15529626Y-15607646D02*
X15520102Y-15560027D01*
X15520102Y-15560027D02*
X15510578Y-15531455D01*
X15510578Y-15531455D02*
X15501054Y-15512408D01*
X15501054Y-15512408D02*
X15482007Y-15483836D01*
X15482007Y-15483836D02*
X15472483Y-15474312D01*
X15834388Y-15779074D02*
X15824864Y-15769550D01*
X15824864Y-15769550D02*
X15805816Y-15740979D01*
X15805816Y-15740979D02*
X15796292Y-15721931D01*
X15796292Y-15721931D02*
X15786769Y-15693360D01*
X15786769Y-15693360D02*
X15777245Y-15645741D01*
X15777245Y-15645741D02*
X15777245Y-15607646D01*
X15777245Y-15607646D02*
X15786769Y-15560027D01*
X15786769Y-15560027D02*
X15796292Y-15531455D01*
X15796292Y-15531455D02*
X15805816Y-15512408D01*
X15805816Y-15512408D02*
X15824864Y-15483836D01*
X15824864Y-15483836D02*
X15834388Y-15474312D01*
X15910578Y-15569550D02*
X15910578Y-15702884D01*
X15910578Y-15588598D02*
X15920102Y-15579074D01*
X15920102Y-15579074D02*
X15939150Y-15569550D01*
X15939150Y-15569550D02*
X15967721Y-15569550D01*
X15967721Y-15569550D02*
X15986769Y-15579074D01*
X15986769Y-15579074D02*
X15996292Y-15598122D01*
X15996292Y-15598122D02*
X15996292Y-15702884D01*
X16120102Y-15702884D02*
X16101054Y-15693360D01*
X16101054Y-15693360D02*
X16091531Y-15683836D01*
X16091531Y-15683836D02*
X16082007Y-15664788D01*
X16082007Y-15664788D02*
X16082007Y-15607646D01*
X16082007Y-15607646D02*
X16091531Y-15588598D01*
X16091531Y-15588598D02*
X16101054Y-15579074D01*
X16101054Y-15579074D02*
X16120102Y-15569550D01*
X16120102Y-15569550D02*
X16148673Y-15569550D01*
X16148673Y-15569550D02*
X16167721Y-15579074D01*
X16167721Y-15579074D02*
X16177245Y-15588598D01*
X16177245Y-15588598D02*
X16186769Y-15607646D01*
X16186769Y-15607646D02*
X16186769Y-15664788D01*
X16186769Y-15664788D02*
X16177245Y-15683836D01*
X16177245Y-15683836D02*
X16167721Y-15693360D01*
X16167721Y-15693360D02*
X16148673Y-15702884D01*
X16148673Y-15702884D02*
X16120102Y-15702884D01*
X16243912Y-15569550D02*
X16320102Y-15569550D01*
X16272483Y-15502884D02*
X16272483Y-15674312D01*
X16272483Y-15674312D02*
X16282007Y-15693360D01*
X16282007Y-15693360D02*
X16301054Y-15702884D01*
X16301054Y-15702884D02*
X16320102Y-15702884D01*
X16539150Y-15569550D02*
X16539150Y-15769550D01*
X16539150Y-15579074D02*
X16558197Y-15569550D01*
X16558197Y-15569550D02*
X16596293Y-15569550D01*
X16596293Y-15569550D02*
X16615340Y-15579074D01*
X16615340Y-15579074D02*
X16624864Y-15588598D01*
X16624864Y-15588598D02*
X16634388Y-15607646D01*
X16634388Y-15607646D02*
X16634388Y-15664788D01*
X16634388Y-15664788D02*
X16624864Y-15683836D01*
X16624864Y-15683836D02*
X16615340Y-15693360D01*
X16615340Y-15693360D02*
X16596293Y-15702884D01*
X16596293Y-15702884D02*
X16558197Y-15702884D01*
X16558197Y-15702884D02*
X16539150Y-15693360D01*
X16748673Y-15702884D02*
X16729626Y-15693360D01*
X16729626Y-15693360D02*
X16720102Y-15674312D01*
X16720102Y-15674312D02*
X16720102Y-15502884D01*
X16910578Y-15702884D02*
X16910578Y-15598122D01*
X16910578Y-15598122D02*
X16901055Y-15579074D01*
X16901055Y-15579074D02*
X16882007Y-15569550D01*
X16882007Y-15569550D02*
X16843912Y-15569550D01*
X16843912Y-15569550D02*
X16824864Y-15579074D01*
X16910578Y-15693360D02*
X16891531Y-15702884D01*
X16891531Y-15702884D02*
X16843912Y-15702884D01*
X16843912Y-15702884D02*
X16824864Y-15693360D01*
X16824864Y-15693360D02*
X16815340Y-15674312D01*
X16815340Y-15674312D02*
X16815340Y-15655265D01*
X16815340Y-15655265D02*
X16824864Y-15636217D01*
X16824864Y-15636217D02*
X16843912Y-15626693D01*
X16843912Y-15626693D02*
X16891531Y-15626693D01*
X16891531Y-15626693D02*
X16910578Y-15617169D01*
X16977245Y-15569550D02*
X17053435Y-15569550D01*
X17005816Y-15502884D02*
X17005816Y-15674312D01*
X17005816Y-15674312D02*
X17015340Y-15693360D01*
X17015340Y-15693360D02*
X17034388Y-15702884D01*
X17034388Y-15702884D02*
X17053435Y-15702884D01*
X17196293Y-15693360D02*
X17177245Y-15702884D01*
X17177245Y-15702884D02*
X17139150Y-15702884D01*
X17139150Y-15702884D02*
X17120102Y-15693360D01*
X17120102Y-15693360D02*
X17110578Y-15674312D01*
X17110578Y-15674312D02*
X17110578Y-15598122D01*
X17110578Y-15598122D02*
X17120102Y-15579074D01*
X17120102Y-15579074D02*
X17139150Y-15569550D01*
X17139150Y-15569550D02*
X17177245Y-15569550D01*
X17177245Y-15569550D02*
X17196293Y-15579074D01*
X17196293Y-15579074D02*
X17205816Y-15598122D01*
X17205816Y-15598122D02*
X17205816Y-15617169D01*
X17205816Y-15617169D02*
X17110578Y-15636217D01*
X17377245Y-15702884D02*
X17377245Y-15502884D01*
X17377245Y-15693360D02*
X17358197Y-15702884D01*
X17358197Y-15702884D02*
X17320102Y-15702884D01*
X17320102Y-15702884D02*
X17301055Y-15693360D01*
X17301055Y-15693360D02*
X17291531Y-15683836D01*
X17291531Y-15683836D02*
X17282007Y-15664788D01*
X17282007Y-15664788D02*
X17282007Y-15607646D01*
X17282007Y-15607646D02*
X17291531Y-15588598D01*
X17291531Y-15588598D02*
X17301055Y-15579074D01*
X17301055Y-15579074D02*
X17320102Y-15569550D01*
X17320102Y-15569550D02*
X17358197Y-15569550D01*
X17358197Y-15569550D02*
X17377245Y-15579074D01*
X17453436Y-15779074D02*
X17462959Y-15769550D01*
X17462959Y-15769550D02*
X17482007Y-15740979D01*
X17482007Y-15740979D02*
X17491531Y-15721931D01*
X17491531Y-15721931D02*
X17501055Y-15693360D01*
X17501055Y-15693360D02*
X17510578Y-15645741D01*
X17510578Y-15645741D02*
X17510578Y-15607646D01*
X17510578Y-15607646D02*
X17501055Y-15560027D01*
X17501055Y-15560027D02*
X17491531Y-15531455D01*
X17491531Y-15531455D02*
X17482007Y-15512408D01*
X17482007Y-15512408D02*
X17462959Y-15483836D01*
X17462959Y-15483836D02*
X17453436Y-15474312D01*
D12*
X10697420Y-15875400D02*
G75*
G02*
X10547420Y-15875400I-75000J0D01*
G01*
X10547420Y-15875400D02*
G75*
G02*
X10697420Y-15875400I75000J0D01*
G01*
D10*
X11062959Y-15966884D02*
X10948673Y-15966884D01*
X11005816Y-15966884D02*
X11005816Y-15766884D01*
X11005816Y-15766884D02*
X10986768Y-15795455D01*
X10986768Y-15795455D02*
X10967721Y-15814503D01*
X10967721Y-15814503D02*
X10948673Y-15824027D01*
X11148673Y-15947836D02*
X11158197Y-15957360D01*
X11158197Y-15957360D02*
X11148673Y-15966884D01*
X11148673Y-15966884D02*
X11139149Y-15957360D01*
X11139149Y-15957360D02*
X11148673Y-15947836D01*
X11148673Y-15947836D02*
X11148673Y-15966884D01*
X11339149Y-15766884D02*
X11243911Y-15766884D01*
X11243911Y-15766884D02*
X11234387Y-15862122D01*
X11234387Y-15862122D02*
X11243911Y-15852598D01*
X11243911Y-15852598D02*
X11262959Y-15843074D01*
X11262959Y-15843074D02*
X11310578Y-15843074D01*
X11310578Y-15843074D02*
X11329625Y-15852598D01*
X11329625Y-15852598D02*
X11339149Y-15862122D01*
X11339149Y-15862122D02*
X11348673Y-15881169D01*
X11348673Y-15881169D02*
X11348673Y-15928788D01*
X11348673Y-15928788D02*
X11339149Y-15947836D01*
X11339149Y-15947836D02*
X11329625Y-15957360D01*
X11329625Y-15957360D02*
X11310578Y-15966884D01*
X11310578Y-15966884D02*
X11262959Y-15966884D01*
X11262959Y-15966884D02*
X11243911Y-15957360D01*
X11243911Y-15957360D02*
X11234387Y-15947836D01*
X11472482Y-15766884D02*
X11491530Y-15766884D01*
X11491530Y-15766884D02*
X11510578Y-15776408D01*
X11510578Y-15776408D02*
X11520102Y-15785931D01*
X11520102Y-15785931D02*
X11529625Y-15804979D01*
X11529625Y-15804979D02*
X11539149Y-15843074D01*
X11539149Y-15843074D02*
X11539149Y-15890693D01*
X11539149Y-15890693D02*
X11529625Y-15928788D01*
X11529625Y-15928788D02*
X11520102Y-15947836D01*
X11520102Y-15947836D02*
X11510578Y-15957360D01*
X11510578Y-15957360D02*
X11491530Y-15966884D01*
X11491530Y-15966884D02*
X11472482Y-15966884D01*
X11472482Y-15966884D02*
X11453435Y-15957360D01*
X11453435Y-15957360D02*
X11443911Y-15947836D01*
X11443911Y-15947836D02*
X11434387Y-15928788D01*
X11434387Y-15928788D02*
X11424863Y-15890693D01*
X11424863Y-15890693D02*
X11424863Y-15843074D01*
X11424863Y-15843074D02*
X11434387Y-15804979D01*
X11434387Y-15804979D02*
X11443911Y-15785931D01*
X11443911Y-15785931D02*
X11453435Y-15776408D01*
X11453435Y-15776408D02*
X11472482Y-15766884D01*
X11662959Y-15766884D02*
X11682006Y-15766884D01*
X11682006Y-15766884D02*
X11701054Y-15776408D01*
X11701054Y-15776408D02*
X11710578Y-15785931D01*
X11710578Y-15785931D02*
X11720102Y-15804979D01*
X11720102Y-15804979D02*
X11729625Y-15843074D01*
X11729625Y-15843074D02*
X11729625Y-15890693D01*
X11729625Y-15890693D02*
X11720102Y-15928788D01*
X11720102Y-15928788D02*
X11710578Y-15947836D01*
X11710578Y-15947836D02*
X11701054Y-15957360D01*
X11701054Y-15957360D02*
X11682006Y-15966884D01*
X11682006Y-15966884D02*
X11662959Y-15966884D01*
X11662959Y-15966884D02*
X11643911Y-15957360D01*
X11643911Y-15957360D02*
X11634387Y-15947836D01*
X11634387Y-15947836D02*
X11624863Y-15928788D01*
X11624863Y-15928788D02*
X11615340Y-15890693D01*
X11615340Y-15890693D02*
X11615340Y-15843074D01*
X11615340Y-15843074D02*
X11624863Y-15804979D01*
X11624863Y-15804979D02*
X11634387Y-15785931D01*
X11634387Y-15785931D02*
X11643911Y-15776408D01*
X11643911Y-15776408D02*
X11662959Y-15766884D01*
X11815340Y-15966884D02*
X11815340Y-15833550D01*
X11815340Y-15852598D02*
X11824863Y-15843074D01*
X11824863Y-15843074D02*
X11843911Y-15833550D01*
X11843911Y-15833550D02*
X11872483Y-15833550D01*
X11872483Y-15833550D02*
X11891530Y-15843074D01*
X11891530Y-15843074D02*
X11901054Y-15862122D01*
X11901054Y-15862122D02*
X11901054Y-15966884D01*
X11901054Y-15862122D02*
X11910578Y-15843074D01*
X11910578Y-15843074D02*
X11929625Y-15833550D01*
X11929625Y-15833550D02*
X11958197Y-15833550D01*
X11958197Y-15833550D02*
X11977244Y-15843074D01*
X11977244Y-15843074D02*
X11986768Y-15862122D01*
X11986768Y-15862122D02*
X11986768Y-15966884D01*
X12082006Y-15966884D02*
X12082006Y-15833550D01*
X12082006Y-15852598D02*
X12091530Y-15843074D01*
X12091530Y-15843074D02*
X12110578Y-15833550D01*
X12110578Y-15833550D02*
X12139149Y-15833550D01*
X12139149Y-15833550D02*
X12158197Y-15843074D01*
X12158197Y-15843074D02*
X12167721Y-15862122D01*
X12167721Y-15862122D02*
X12167721Y-15966884D01*
X12167721Y-15862122D02*
X12177244Y-15843074D01*
X12177244Y-15843074D02*
X12196292Y-15833550D01*
X12196292Y-15833550D02*
X12224863Y-15833550D01*
X12224863Y-15833550D02*
X12243911Y-15843074D01*
X12243911Y-15843074D02*
X12253435Y-15862122D01*
X12253435Y-15862122D02*
X12253435Y-15966884D01*
X12643911Y-15757360D02*
X12472483Y-16014503D01*
X12901054Y-15766884D02*
X12920102Y-15766884D01*
X12920102Y-15766884D02*
X12939149Y-15776408D01*
X12939149Y-15776408D02*
X12948673Y-15785931D01*
X12948673Y-15785931D02*
X12958197Y-15804979D01*
X12958197Y-15804979D02*
X12967721Y-15843074D01*
X12967721Y-15843074D02*
X12967721Y-15890693D01*
X12967721Y-15890693D02*
X12958197Y-15928788D01*
X12958197Y-15928788D02*
X12948673Y-15947836D01*
X12948673Y-15947836D02*
X12939149Y-15957360D01*
X12939149Y-15957360D02*
X12920102Y-15966884D01*
X12920102Y-15966884D02*
X12901054Y-15966884D01*
X12901054Y-15966884D02*
X12882006Y-15957360D01*
X12882006Y-15957360D02*
X12872483Y-15947836D01*
X12872483Y-15947836D02*
X12862959Y-15928788D01*
X12862959Y-15928788D02*
X12853435Y-15890693D01*
X12853435Y-15890693D02*
X12853435Y-15843074D01*
X12853435Y-15843074D02*
X12862959Y-15804979D01*
X12862959Y-15804979D02*
X12872483Y-15785931D01*
X12872483Y-15785931D02*
X12882006Y-15776408D01*
X12882006Y-15776408D02*
X12901054Y-15766884D01*
X13053435Y-15947836D02*
X13062959Y-15957360D01*
X13062959Y-15957360D02*
X13053435Y-15966884D01*
X13053435Y-15966884D02*
X13043911Y-15957360D01*
X13043911Y-15957360D02*
X13053435Y-15947836D01*
X13053435Y-15947836D02*
X13053435Y-15966884D01*
X13186768Y-15766884D02*
X13205816Y-15766884D01*
X13205816Y-15766884D02*
X13224864Y-15776408D01*
X13224864Y-15776408D02*
X13234387Y-15785931D01*
X13234387Y-15785931D02*
X13243911Y-15804979D01*
X13243911Y-15804979D02*
X13253435Y-15843074D01*
X13253435Y-15843074D02*
X13253435Y-15890693D01*
X13253435Y-15890693D02*
X13243911Y-15928788D01*
X13243911Y-15928788D02*
X13234387Y-15947836D01*
X13234387Y-15947836D02*
X13224864Y-15957360D01*
X13224864Y-15957360D02*
X13205816Y-15966884D01*
X13205816Y-15966884D02*
X13186768Y-15966884D01*
X13186768Y-15966884D02*
X13167721Y-15957360D01*
X13167721Y-15957360D02*
X13158197Y-15947836D01*
X13158197Y-15947836D02*
X13148673Y-15928788D01*
X13148673Y-15928788D02*
X13139149Y-15890693D01*
X13139149Y-15890693D02*
X13139149Y-15843074D01*
X13139149Y-15843074D02*
X13148673Y-15804979D01*
X13148673Y-15804979D02*
X13158197Y-15785931D01*
X13158197Y-15785931D02*
X13167721Y-15776408D01*
X13167721Y-15776408D02*
X13186768Y-15766884D01*
X13434387Y-15766884D02*
X13339149Y-15766884D01*
X13339149Y-15766884D02*
X13329626Y-15862122D01*
X13329626Y-15862122D02*
X13339149Y-15852598D01*
X13339149Y-15852598D02*
X13358197Y-15843074D01*
X13358197Y-15843074D02*
X13405816Y-15843074D01*
X13405816Y-15843074D02*
X13424864Y-15852598D01*
X13424864Y-15852598D02*
X13434387Y-15862122D01*
X13434387Y-15862122D02*
X13443911Y-15881169D01*
X13443911Y-15881169D02*
X13443911Y-15928788D01*
X13443911Y-15928788D02*
X13434387Y-15947836D01*
X13434387Y-15947836D02*
X13424864Y-15957360D01*
X13424864Y-15957360D02*
X13405816Y-15966884D01*
X13405816Y-15966884D02*
X13358197Y-15966884D01*
X13358197Y-15966884D02*
X13339149Y-15957360D01*
X13339149Y-15957360D02*
X13329626Y-15947836D01*
X13539149Y-15966884D02*
X13577245Y-15966884D01*
X13577245Y-15966884D02*
X13596292Y-15957360D01*
X13596292Y-15957360D02*
X13605816Y-15947836D01*
X13605816Y-15947836D02*
X13624864Y-15919265D01*
X13624864Y-15919265D02*
X13634387Y-15881169D01*
X13634387Y-15881169D02*
X13634387Y-15804979D01*
X13634387Y-15804979D02*
X13624864Y-15785931D01*
X13624864Y-15785931D02*
X13615340Y-15776408D01*
X13615340Y-15776408D02*
X13596292Y-15766884D01*
X13596292Y-15766884D02*
X13558197Y-15766884D01*
X13558197Y-15766884D02*
X13539149Y-15776408D01*
X13539149Y-15776408D02*
X13529626Y-15785931D01*
X13529626Y-15785931D02*
X13520102Y-15804979D01*
X13520102Y-15804979D02*
X13520102Y-15852598D01*
X13520102Y-15852598D02*
X13529626Y-15871646D01*
X13529626Y-15871646D02*
X13539149Y-15881169D01*
X13539149Y-15881169D02*
X13558197Y-15890693D01*
X13558197Y-15890693D02*
X13596292Y-15890693D01*
X13596292Y-15890693D02*
X13615340Y-15881169D01*
X13615340Y-15881169D02*
X13624864Y-15871646D01*
X13624864Y-15871646D02*
X13634387Y-15852598D01*
X13824864Y-15966884D02*
X13710578Y-15966884D01*
X13767721Y-15966884D02*
X13767721Y-15766884D01*
X13767721Y-15766884D02*
X13748673Y-15795455D01*
X13748673Y-15795455D02*
X13729626Y-15814503D01*
X13729626Y-15814503D02*
X13710578Y-15824027D01*
X13901054Y-15766884D02*
X13901054Y-15804979D01*
X13977245Y-15766884D02*
X13977245Y-15804979D01*
X14272483Y-16043074D02*
X14262959Y-16033550D01*
X14262959Y-16033550D02*
X14243911Y-16004979D01*
X14243911Y-16004979D02*
X14234388Y-15985931D01*
X14234388Y-15985931D02*
X14224864Y-15957360D01*
X14224864Y-15957360D02*
X14215340Y-15909741D01*
X14215340Y-15909741D02*
X14215340Y-15871646D01*
X14215340Y-15871646D02*
X14224864Y-15824027D01*
X14224864Y-15824027D02*
X14234388Y-15795455D01*
X14234388Y-15795455D02*
X14243911Y-15776408D01*
X14243911Y-15776408D02*
X14262959Y-15747836D01*
X14262959Y-15747836D02*
X14272483Y-15738312D01*
X14339149Y-15785931D02*
X14348673Y-15776408D01*
X14348673Y-15776408D02*
X14367721Y-15766884D01*
X14367721Y-15766884D02*
X14415340Y-15766884D01*
X14415340Y-15766884D02*
X14434388Y-15776408D01*
X14434388Y-15776408D02*
X14443911Y-15785931D01*
X14443911Y-15785931D02*
X14453435Y-15804979D01*
X14453435Y-15804979D02*
X14453435Y-15824027D01*
X14453435Y-15824027D02*
X14443911Y-15852598D01*
X14443911Y-15852598D02*
X14329626Y-15966884D01*
X14329626Y-15966884D02*
X14453435Y-15966884D01*
X14691530Y-15966884D02*
X14691530Y-15766884D01*
X14777245Y-15966884D02*
X14777245Y-15862122D01*
X14777245Y-15862122D02*
X14767721Y-15843074D01*
X14767721Y-15843074D02*
X14748673Y-15833550D01*
X14748673Y-15833550D02*
X14720102Y-15833550D01*
X14720102Y-15833550D02*
X14701054Y-15843074D01*
X14701054Y-15843074D02*
X14691530Y-15852598D01*
X14901054Y-15966884D02*
X14882007Y-15957360D01*
X14882007Y-15957360D02*
X14872483Y-15947836D01*
X14872483Y-15947836D02*
X14862959Y-15928788D01*
X14862959Y-15928788D02*
X14862959Y-15871646D01*
X14862959Y-15871646D02*
X14872483Y-15852598D01*
X14872483Y-15852598D02*
X14882007Y-15843074D01*
X14882007Y-15843074D02*
X14901054Y-15833550D01*
X14901054Y-15833550D02*
X14929626Y-15833550D01*
X14929626Y-15833550D02*
X14948673Y-15843074D01*
X14948673Y-15843074D02*
X14958197Y-15852598D01*
X14958197Y-15852598D02*
X14967721Y-15871646D01*
X14967721Y-15871646D02*
X14967721Y-15928788D01*
X14967721Y-15928788D02*
X14958197Y-15947836D01*
X14958197Y-15947836D02*
X14948673Y-15957360D01*
X14948673Y-15957360D02*
X14929626Y-15966884D01*
X14929626Y-15966884D02*
X14901054Y-15966884D01*
X15082007Y-15966884D02*
X15062959Y-15957360D01*
X15062959Y-15957360D02*
X15053435Y-15938312D01*
X15053435Y-15938312D02*
X15053435Y-15766884D01*
X15234388Y-15957360D02*
X15215340Y-15966884D01*
X15215340Y-15966884D02*
X15177245Y-15966884D01*
X15177245Y-15966884D02*
X15158197Y-15957360D01*
X15158197Y-15957360D02*
X15148673Y-15938312D01*
X15148673Y-15938312D02*
X15148673Y-15862122D01*
X15148673Y-15862122D02*
X15158197Y-15843074D01*
X15158197Y-15843074D02*
X15177245Y-15833550D01*
X15177245Y-15833550D02*
X15215340Y-15833550D01*
X15215340Y-15833550D02*
X15234388Y-15843074D01*
X15234388Y-15843074D02*
X15243911Y-15862122D01*
X15243911Y-15862122D02*
X15243911Y-15881169D01*
X15243911Y-15881169D02*
X15148673Y-15900217D01*
X15320102Y-15957360D02*
X15339150Y-15966884D01*
X15339150Y-15966884D02*
X15377245Y-15966884D01*
X15377245Y-15966884D02*
X15396292Y-15957360D01*
X15396292Y-15957360D02*
X15405816Y-15938312D01*
X15405816Y-15938312D02*
X15405816Y-15928788D01*
X15405816Y-15928788D02*
X15396292Y-15909741D01*
X15396292Y-15909741D02*
X15377245Y-15900217D01*
X15377245Y-15900217D02*
X15348673Y-15900217D01*
X15348673Y-15900217D02*
X15329626Y-15890693D01*
X15329626Y-15890693D02*
X15320102Y-15871646D01*
X15320102Y-15871646D02*
X15320102Y-15862122D01*
X15320102Y-15862122D02*
X15329626Y-15843074D01*
X15329626Y-15843074D02*
X15348673Y-15833550D01*
X15348673Y-15833550D02*
X15377245Y-15833550D01*
X15377245Y-15833550D02*
X15396292Y-15843074D01*
X15472483Y-16043074D02*
X15482007Y-16033550D01*
X15482007Y-16033550D02*
X15501054Y-16004979D01*
X15501054Y-16004979D02*
X15510578Y-15985931D01*
X15510578Y-15985931D02*
X15520102Y-15957360D01*
X15520102Y-15957360D02*
X15529626Y-15909741D01*
X15529626Y-15909741D02*
X15529626Y-15871646D01*
X15529626Y-15871646D02*
X15520102Y-15824027D01*
X15520102Y-15824027D02*
X15510578Y-15795455D01*
X15510578Y-15795455D02*
X15501054Y-15776408D01*
X15501054Y-15776408D02*
X15482007Y-15747836D01*
X15482007Y-15747836D02*
X15472483Y-15738312D01*
X15834388Y-16043074D02*
X15824864Y-16033550D01*
X15824864Y-16033550D02*
X15805816Y-16004979D01*
X15805816Y-16004979D02*
X15796292Y-15985931D01*
X15796292Y-15985931D02*
X15786769Y-15957360D01*
X15786769Y-15957360D02*
X15777245Y-15909741D01*
X15777245Y-15909741D02*
X15777245Y-15871646D01*
X15777245Y-15871646D02*
X15786769Y-15824027D01*
X15786769Y-15824027D02*
X15796292Y-15795455D01*
X15796292Y-15795455D02*
X15805816Y-15776408D01*
X15805816Y-15776408D02*
X15824864Y-15747836D01*
X15824864Y-15747836D02*
X15834388Y-15738312D01*
X15910578Y-15833550D02*
X15910578Y-15966884D01*
X15910578Y-15852598D02*
X15920102Y-15843074D01*
X15920102Y-15843074D02*
X15939150Y-15833550D01*
X15939150Y-15833550D02*
X15967721Y-15833550D01*
X15967721Y-15833550D02*
X15986769Y-15843074D01*
X15986769Y-15843074D02*
X15996292Y-15862122D01*
X15996292Y-15862122D02*
X15996292Y-15966884D01*
X16120102Y-15966884D02*
X16101054Y-15957360D01*
X16101054Y-15957360D02*
X16091531Y-15947836D01*
X16091531Y-15947836D02*
X16082007Y-15928788D01*
X16082007Y-15928788D02*
X16082007Y-15871646D01*
X16082007Y-15871646D02*
X16091531Y-15852598D01*
X16091531Y-15852598D02*
X16101054Y-15843074D01*
X16101054Y-15843074D02*
X16120102Y-15833550D01*
X16120102Y-15833550D02*
X16148673Y-15833550D01*
X16148673Y-15833550D02*
X16167721Y-15843074D01*
X16167721Y-15843074D02*
X16177245Y-15852598D01*
X16177245Y-15852598D02*
X16186769Y-15871646D01*
X16186769Y-15871646D02*
X16186769Y-15928788D01*
X16186769Y-15928788D02*
X16177245Y-15947836D01*
X16177245Y-15947836D02*
X16167721Y-15957360D01*
X16167721Y-15957360D02*
X16148673Y-15966884D01*
X16148673Y-15966884D02*
X16120102Y-15966884D01*
X16243912Y-15833550D02*
X16320102Y-15833550D01*
X16272483Y-15766884D02*
X16272483Y-15938312D01*
X16272483Y-15938312D02*
X16282007Y-15957360D01*
X16282007Y-15957360D02*
X16301054Y-15966884D01*
X16301054Y-15966884D02*
X16320102Y-15966884D01*
X16539150Y-15833550D02*
X16539150Y-16033550D01*
X16539150Y-15843074D02*
X16558197Y-15833550D01*
X16558197Y-15833550D02*
X16596293Y-15833550D01*
X16596293Y-15833550D02*
X16615340Y-15843074D01*
X16615340Y-15843074D02*
X16624864Y-15852598D01*
X16624864Y-15852598D02*
X16634388Y-15871646D01*
X16634388Y-15871646D02*
X16634388Y-15928788D01*
X16634388Y-15928788D02*
X16624864Y-15947836D01*
X16624864Y-15947836D02*
X16615340Y-15957360D01*
X16615340Y-15957360D02*
X16596293Y-15966884D01*
X16596293Y-15966884D02*
X16558197Y-15966884D01*
X16558197Y-15966884D02*
X16539150Y-15957360D01*
X16748673Y-15966884D02*
X16729626Y-15957360D01*
X16729626Y-15957360D02*
X16720102Y-15938312D01*
X16720102Y-15938312D02*
X16720102Y-15766884D01*
X16910578Y-15966884D02*
X16910578Y-15862122D01*
X16910578Y-15862122D02*
X16901055Y-15843074D01*
X16901055Y-15843074D02*
X16882007Y-15833550D01*
X16882007Y-15833550D02*
X16843912Y-15833550D01*
X16843912Y-15833550D02*
X16824864Y-15843074D01*
X16910578Y-15957360D02*
X16891531Y-15966884D01*
X16891531Y-15966884D02*
X16843912Y-15966884D01*
X16843912Y-15966884D02*
X16824864Y-15957360D01*
X16824864Y-15957360D02*
X16815340Y-15938312D01*
X16815340Y-15938312D02*
X16815340Y-15919265D01*
X16815340Y-15919265D02*
X16824864Y-15900217D01*
X16824864Y-15900217D02*
X16843912Y-15890693D01*
X16843912Y-15890693D02*
X16891531Y-15890693D01*
X16891531Y-15890693D02*
X16910578Y-15881169D01*
X16977245Y-15833550D02*
X17053435Y-15833550D01*
X17005816Y-15766884D02*
X17005816Y-15938312D01*
X17005816Y-15938312D02*
X17015340Y-15957360D01*
X17015340Y-15957360D02*
X17034388Y-15966884D01*
X17034388Y-15966884D02*
X17053435Y-15966884D01*
X17196293Y-15957360D02*
X17177245Y-15966884D01*
X17177245Y-15966884D02*
X17139150Y-15966884D01*
X17139150Y-15966884D02*
X17120102Y-15957360D01*
X17120102Y-15957360D02*
X17110578Y-15938312D01*
X17110578Y-15938312D02*
X17110578Y-15862122D01*
X17110578Y-15862122D02*
X17120102Y-15843074D01*
X17120102Y-15843074D02*
X17139150Y-15833550D01*
X17139150Y-15833550D02*
X17177245Y-15833550D01*
X17177245Y-15833550D02*
X17196293Y-15843074D01*
X17196293Y-15843074D02*
X17205816Y-15862122D01*
X17205816Y-15862122D02*
X17205816Y-15881169D01*
X17205816Y-15881169D02*
X17110578Y-15900217D01*
X17377245Y-15966884D02*
X17377245Y-15766884D01*
X17377245Y-15957360D02*
X17358197Y-15966884D01*
X17358197Y-15966884D02*
X17320102Y-15966884D01*
X17320102Y-15966884D02*
X17301055Y-15957360D01*
X17301055Y-15957360D02*
X17291531Y-15947836D01*
X17291531Y-15947836D02*
X17282007Y-15928788D01*
X17282007Y-15928788D02*
X17282007Y-15871646D01*
X17282007Y-15871646D02*
X17291531Y-15852598D01*
X17291531Y-15852598D02*
X17301055Y-15843074D01*
X17301055Y-15843074D02*
X17320102Y-15833550D01*
X17320102Y-15833550D02*
X17358197Y-15833550D01*
X17358197Y-15833550D02*
X17377245Y-15843074D01*
X17453436Y-16043074D02*
X17462959Y-16033550D01*
X17462959Y-16033550D02*
X17482007Y-16004979D01*
X17482007Y-16004979D02*
X17491531Y-15985931D01*
X17491531Y-15985931D02*
X17501055Y-15957360D01*
X17501055Y-15957360D02*
X17510578Y-15909741D01*
X17510578Y-15909741D02*
X17510578Y-15871646D01*
X17510578Y-15871646D02*
X17501055Y-15824027D01*
X17501055Y-15824027D02*
X17491531Y-15795455D01*
X17491531Y-15795455D02*
X17482007Y-15776408D01*
X17482007Y-15776408D02*
X17462959Y-15747836D01*
X17462959Y-15747836D02*
X17453436Y-15738312D01*
D13*
X10617420Y-16065400D02*
X10617420Y-16225400D01*
X10537420Y-16145400D02*
X10697420Y-16145400D01*
D10*
X11062959Y-16236884D02*
X10948673Y-16236884D01*
X11005816Y-16236884D02*
X11005816Y-16036884D01*
X11005816Y-16036884D02*
X10986768Y-16065455D01*
X10986768Y-16065455D02*
X10967721Y-16084503D01*
X10967721Y-16084503D02*
X10948673Y-16094027D01*
X11148673Y-16217836D02*
X11158197Y-16227360D01*
X11158197Y-16227360D02*
X11148673Y-16236884D01*
X11148673Y-16236884D02*
X11139149Y-16227360D01*
X11139149Y-16227360D02*
X11148673Y-16217836D01*
X11148673Y-16217836D02*
X11148673Y-16236884D01*
X11329625Y-16036884D02*
X11291530Y-16036884D01*
X11291530Y-16036884D02*
X11272482Y-16046408D01*
X11272482Y-16046408D02*
X11262959Y-16055931D01*
X11262959Y-16055931D02*
X11243911Y-16084503D01*
X11243911Y-16084503D02*
X11234387Y-16122598D01*
X11234387Y-16122598D02*
X11234387Y-16198788D01*
X11234387Y-16198788D02*
X11243911Y-16217836D01*
X11243911Y-16217836D02*
X11253435Y-16227360D01*
X11253435Y-16227360D02*
X11272482Y-16236884D01*
X11272482Y-16236884D02*
X11310578Y-16236884D01*
X11310578Y-16236884D02*
X11329625Y-16227360D01*
X11329625Y-16227360D02*
X11339149Y-16217836D01*
X11339149Y-16217836D02*
X11348673Y-16198788D01*
X11348673Y-16198788D02*
X11348673Y-16151169D01*
X11348673Y-16151169D02*
X11339149Y-16132122D01*
X11339149Y-16132122D02*
X11329625Y-16122598D01*
X11329625Y-16122598D02*
X11310578Y-16113074D01*
X11310578Y-16113074D02*
X11272482Y-16113074D01*
X11272482Y-16113074D02*
X11253435Y-16122598D01*
X11253435Y-16122598D02*
X11243911Y-16132122D01*
X11243911Y-16132122D02*
X11234387Y-16151169D01*
X11472482Y-16036884D02*
X11491530Y-16036884D01*
X11491530Y-16036884D02*
X11510578Y-16046408D01*
X11510578Y-16046408D02*
X11520102Y-16055931D01*
X11520102Y-16055931D02*
X11529625Y-16074979D01*
X11529625Y-16074979D02*
X11539149Y-16113074D01*
X11539149Y-16113074D02*
X11539149Y-16160693D01*
X11539149Y-16160693D02*
X11529625Y-16198788D01*
X11529625Y-16198788D02*
X11520102Y-16217836D01*
X11520102Y-16217836D02*
X11510578Y-16227360D01*
X11510578Y-16227360D02*
X11491530Y-16236884D01*
X11491530Y-16236884D02*
X11472482Y-16236884D01*
X11472482Y-16236884D02*
X11453435Y-16227360D01*
X11453435Y-16227360D02*
X11443911Y-16217836D01*
X11443911Y-16217836D02*
X11434387Y-16198788D01*
X11434387Y-16198788D02*
X11424863Y-16160693D01*
X11424863Y-16160693D02*
X11424863Y-16113074D01*
X11424863Y-16113074D02*
X11434387Y-16074979D01*
X11434387Y-16074979D02*
X11443911Y-16055931D01*
X11443911Y-16055931D02*
X11453435Y-16046408D01*
X11453435Y-16046408D02*
X11472482Y-16036884D01*
X11662959Y-16036884D02*
X11682006Y-16036884D01*
X11682006Y-16036884D02*
X11701054Y-16046408D01*
X11701054Y-16046408D02*
X11710578Y-16055931D01*
X11710578Y-16055931D02*
X11720102Y-16074979D01*
X11720102Y-16074979D02*
X11729625Y-16113074D01*
X11729625Y-16113074D02*
X11729625Y-16160693D01*
X11729625Y-16160693D02*
X11720102Y-16198788D01*
X11720102Y-16198788D02*
X11710578Y-16217836D01*
X11710578Y-16217836D02*
X11701054Y-16227360D01*
X11701054Y-16227360D02*
X11682006Y-16236884D01*
X11682006Y-16236884D02*
X11662959Y-16236884D01*
X11662959Y-16236884D02*
X11643911Y-16227360D01*
X11643911Y-16227360D02*
X11634387Y-16217836D01*
X11634387Y-16217836D02*
X11624863Y-16198788D01*
X11624863Y-16198788D02*
X11615340Y-16160693D01*
X11615340Y-16160693D02*
X11615340Y-16113074D01*
X11615340Y-16113074D02*
X11624863Y-16074979D01*
X11624863Y-16074979D02*
X11634387Y-16055931D01*
X11634387Y-16055931D02*
X11643911Y-16046408D01*
X11643911Y-16046408D02*
X11662959Y-16036884D01*
X11815340Y-16236884D02*
X11815340Y-16103550D01*
X11815340Y-16122598D02*
X11824863Y-16113074D01*
X11824863Y-16113074D02*
X11843911Y-16103550D01*
X11843911Y-16103550D02*
X11872483Y-16103550D01*
X11872483Y-16103550D02*
X11891530Y-16113074D01*
X11891530Y-16113074D02*
X11901054Y-16132122D01*
X11901054Y-16132122D02*
X11901054Y-16236884D01*
X11901054Y-16132122D02*
X11910578Y-16113074D01*
X11910578Y-16113074D02*
X11929625Y-16103550D01*
X11929625Y-16103550D02*
X11958197Y-16103550D01*
X11958197Y-16103550D02*
X11977244Y-16113074D01*
X11977244Y-16113074D02*
X11986768Y-16132122D01*
X11986768Y-16132122D02*
X11986768Y-16236884D01*
X12082006Y-16236884D02*
X12082006Y-16103550D01*
X12082006Y-16122598D02*
X12091530Y-16113074D01*
X12091530Y-16113074D02*
X12110578Y-16103550D01*
X12110578Y-16103550D02*
X12139149Y-16103550D01*
X12139149Y-16103550D02*
X12158197Y-16113074D01*
X12158197Y-16113074D02*
X12167721Y-16132122D01*
X12167721Y-16132122D02*
X12167721Y-16236884D01*
X12167721Y-16132122D02*
X12177244Y-16113074D01*
X12177244Y-16113074D02*
X12196292Y-16103550D01*
X12196292Y-16103550D02*
X12224863Y-16103550D01*
X12224863Y-16103550D02*
X12243911Y-16113074D01*
X12243911Y-16113074D02*
X12253435Y-16132122D01*
X12253435Y-16132122D02*
X12253435Y-16236884D01*
X12643911Y-16027360D02*
X12472483Y-16284503D01*
X12901054Y-16036884D02*
X12920102Y-16036884D01*
X12920102Y-16036884D02*
X12939149Y-16046408D01*
X12939149Y-16046408D02*
X12948673Y-16055931D01*
X12948673Y-16055931D02*
X12958197Y-16074979D01*
X12958197Y-16074979D02*
X12967721Y-16113074D01*
X12967721Y-16113074D02*
X12967721Y-16160693D01*
X12967721Y-16160693D02*
X12958197Y-16198788D01*
X12958197Y-16198788D02*
X12948673Y-16217836D01*
X12948673Y-16217836D02*
X12939149Y-16227360D01*
X12939149Y-16227360D02*
X12920102Y-16236884D01*
X12920102Y-16236884D02*
X12901054Y-16236884D01*
X12901054Y-16236884D02*
X12882006Y-16227360D01*
X12882006Y-16227360D02*
X12872483Y-16217836D01*
X12872483Y-16217836D02*
X12862959Y-16198788D01*
X12862959Y-16198788D02*
X12853435Y-16160693D01*
X12853435Y-16160693D02*
X12853435Y-16113074D01*
X12853435Y-16113074D02*
X12862959Y-16074979D01*
X12862959Y-16074979D02*
X12872483Y-16055931D01*
X12872483Y-16055931D02*
X12882006Y-16046408D01*
X12882006Y-16046408D02*
X12901054Y-16036884D01*
X13053435Y-16217836D02*
X13062959Y-16227360D01*
X13062959Y-16227360D02*
X13053435Y-16236884D01*
X13053435Y-16236884D02*
X13043911Y-16227360D01*
X13043911Y-16227360D02*
X13053435Y-16217836D01*
X13053435Y-16217836D02*
X13053435Y-16236884D01*
X13186768Y-16036884D02*
X13205816Y-16036884D01*
X13205816Y-16036884D02*
X13224864Y-16046408D01*
X13224864Y-16046408D02*
X13234387Y-16055931D01*
X13234387Y-16055931D02*
X13243911Y-16074979D01*
X13243911Y-16074979D02*
X13253435Y-16113074D01*
X13253435Y-16113074D02*
X13253435Y-16160693D01*
X13253435Y-16160693D02*
X13243911Y-16198788D01*
X13243911Y-16198788D02*
X13234387Y-16217836D01*
X13234387Y-16217836D02*
X13224864Y-16227360D01*
X13224864Y-16227360D02*
X13205816Y-16236884D01*
X13205816Y-16236884D02*
X13186768Y-16236884D01*
X13186768Y-16236884D02*
X13167721Y-16227360D01*
X13167721Y-16227360D02*
X13158197Y-16217836D01*
X13158197Y-16217836D02*
X13148673Y-16198788D01*
X13148673Y-16198788D02*
X13139149Y-16160693D01*
X13139149Y-16160693D02*
X13139149Y-16113074D01*
X13139149Y-16113074D02*
X13148673Y-16074979D01*
X13148673Y-16074979D02*
X13158197Y-16055931D01*
X13158197Y-16055931D02*
X13167721Y-16046408D01*
X13167721Y-16046408D02*
X13186768Y-16036884D01*
X13424864Y-16036884D02*
X13386768Y-16036884D01*
X13386768Y-16036884D02*
X13367721Y-16046408D01*
X13367721Y-16046408D02*
X13358197Y-16055931D01*
X13358197Y-16055931D02*
X13339149Y-16084503D01*
X13339149Y-16084503D02*
X13329626Y-16122598D01*
X13329626Y-16122598D02*
X13329626Y-16198788D01*
X13329626Y-16198788D02*
X13339149Y-16217836D01*
X13339149Y-16217836D02*
X13348673Y-16227360D01*
X13348673Y-16227360D02*
X13367721Y-16236884D01*
X13367721Y-16236884D02*
X13405816Y-16236884D01*
X13405816Y-16236884D02*
X13424864Y-16227360D01*
X13424864Y-16227360D02*
X13434387Y-16217836D01*
X13434387Y-16217836D02*
X13443911Y-16198788D01*
X13443911Y-16198788D02*
X13443911Y-16151169D01*
X13443911Y-16151169D02*
X13434387Y-16132122D01*
X13434387Y-16132122D02*
X13424864Y-16122598D01*
X13424864Y-16122598D02*
X13405816Y-16113074D01*
X13405816Y-16113074D02*
X13367721Y-16113074D01*
X13367721Y-16113074D02*
X13348673Y-16122598D01*
X13348673Y-16122598D02*
X13339149Y-16132122D01*
X13339149Y-16132122D02*
X13329626Y-16151169D01*
X13510578Y-16036884D02*
X13634387Y-16036884D01*
X13634387Y-16036884D02*
X13567721Y-16113074D01*
X13567721Y-16113074D02*
X13596292Y-16113074D01*
X13596292Y-16113074D02*
X13615340Y-16122598D01*
X13615340Y-16122598D02*
X13624864Y-16132122D01*
X13624864Y-16132122D02*
X13634387Y-16151169D01*
X13634387Y-16151169D02*
X13634387Y-16198788D01*
X13634387Y-16198788D02*
X13624864Y-16217836D01*
X13624864Y-16217836D02*
X13615340Y-16227360D01*
X13615340Y-16227360D02*
X13596292Y-16236884D01*
X13596292Y-16236884D02*
X13539149Y-16236884D01*
X13539149Y-16236884D02*
X13520102Y-16227360D01*
X13520102Y-16227360D02*
X13510578Y-16217836D01*
X13758197Y-16036884D02*
X13777245Y-16036884D01*
X13777245Y-16036884D02*
X13796292Y-16046408D01*
X13796292Y-16046408D02*
X13805816Y-16055931D01*
X13805816Y-16055931D02*
X13815340Y-16074979D01*
X13815340Y-16074979D02*
X13824864Y-16113074D01*
X13824864Y-16113074D02*
X13824864Y-16160693D01*
X13824864Y-16160693D02*
X13815340Y-16198788D01*
X13815340Y-16198788D02*
X13805816Y-16217836D01*
X13805816Y-16217836D02*
X13796292Y-16227360D01*
X13796292Y-16227360D02*
X13777245Y-16236884D01*
X13777245Y-16236884D02*
X13758197Y-16236884D01*
X13758197Y-16236884D02*
X13739149Y-16227360D01*
X13739149Y-16227360D02*
X13729626Y-16217836D01*
X13729626Y-16217836D02*
X13720102Y-16198788D01*
X13720102Y-16198788D02*
X13710578Y-16160693D01*
X13710578Y-16160693D02*
X13710578Y-16113074D01*
X13710578Y-16113074D02*
X13720102Y-16074979D01*
X13720102Y-16074979D02*
X13729626Y-16055931D01*
X13729626Y-16055931D02*
X13739149Y-16046408D01*
X13739149Y-16046408D02*
X13758197Y-16036884D01*
X13901054Y-16036884D02*
X13901054Y-16074979D01*
X13977245Y-16036884D02*
X13977245Y-16074979D01*
X14272483Y-16313074D02*
X14262959Y-16303550D01*
X14262959Y-16303550D02*
X14243911Y-16274979D01*
X14243911Y-16274979D02*
X14234388Y-16255931D01*
X14234388Y-16255931D02*
X14224864Y-16227360D01*
X14224864Y-16227360D02*
X14215340Y-16179741D01*
X14215340Y-16179741D02*
X14215340Y-16141646D01*
X14215340Y-16141646D02*
X14224864Y-16094027D01*
X14224864Y-16094027D02*
X14234388Y-16065455D01*
X14234388Y-16065455D02*
X14243911Y-16046408D01*
X14243911Y-16046408D02*
X14262959Y-16017836D01*
X14262959Y-16017836D02*
X14272483Y-16008312D01*
X14453435Y-16236884D02*
X14339149Y-16236884D01*
X14396292Y-16236884D02*
X14396292Y-16036884D01*
X14396292Y-16036884D02*
X14377245Y-16065455D01*
X14377245Y-16065455D02*
X14358197Y-16084503D01*
X14358197Y-16084503D02*
X14339149Y-16094027D01*
X14691530Y-16236884D02*
X14691530Y-16036884D01*
X14777245Y-16236884D02*
X14777245Y-16132122D01*
X14777245Y-16132122D02*
X14767721Y-16113074D01*
X14767721Y-16113074D02*
X14748673Y-16103550D01*
X14748673Y-16103550D02*
X14720102Y-16103550D01*
X14720102Y-16103550D02*
X14701054Y-16113074D01*
X14701054Y-16113074D02*
X14691530Y-16122598D01*
X14901054Y-16236884D02*
X14882007Y-16227360D01*
X14882007Y-16227360D02*
X14872483Y-16217836D01*
X14872483Y-16217836D02*
X14862959Y-16198788D01*
X14862959Y-16198788D02*
X14862959Y-16141646D01*
X14862959Y-16141646D02*
X14872483Y-16122598D01*
X14872483Y-16122598D02*
X14882007Y-16113074D01*
X14882007Y-16113074D02*
X14901054Y-16103550D01*
X14901054Y-16103550D02*
X14929626Y-16103550D01*
X14929626Y-16103550D02*
X14948673Y-16113074D01*
X14948673Y-16113074D02*
X14958197Y-16122598D01*
X14958197Y-16122598D02*
X14967721Y-16141646D01*
X14967721Y-16141646D02*
X14967721Y-16198788D01*
X14967721Y-16198788D02*
X14958197Y-16217836D01*
X14958197Y-16217836D02*
X14948673Y-16227360D01*
X14948673Y-16227360D02*
X14929626Y-16236884D01*
X14929626Y-16236884D02*
X14901054Y-16236884D01*
X15082007Y-16236884D02*
X15062959Y-16227360D01*
X15062959Y-16227360D02*
X15053435Y-16208312D01*
X15053435Y-16208312D02*
X15053435Y-16036884D01*
X15234388Y-16227360D02*
X15215340Y-16236884D01*
X15215340Y-16236884D02*
X15177245Y-16236884D01*
X15177245Y-16236884D02*
X15158197Y-16227360D01*
X15158197Y-16227360D02*
X15148673Y-16208312D01*
X15148673Y-16208312D02*
X15148673Y-16132122D01*
X15148673Y-16132122D02*
X15158197Y-16113074D01*
X15158197Y-16113074D02*
X15177245Y-16103550D01*
X15177245Y-16103550D02*
X15215340Y-16103550D01*
X15215340Y-16103550D02*
X15234388Y-16113074D01*
X15234388Y-16113074D02*
X15243911Y-16132122D01*
X15243911Y-16132122D02*
X15243911Y-16151169D01*
X15243911Y-16151169D02*
X15148673Y-16170217D01*
X15310578Y-16313074D02*
X15320102Y-16303550D01*
X15320102Y-16303550D02*
X15339150Y-16274979D01*
X15339150Y-16274979D02*
X15348673Y-16255931D01*
X15348673Y-16255931D02*
X15358197Y-16227360D01*
X15358197Y-16227360D02*
X15367721Y-16179741D01*
X15367721Y-16179741D02*
X15367721Y-16141646D01*
X15367721Y-16141646D02*
X15358197Y-16094027D01*
X15358197Y-16094027D02*
X15348673Y-16065455D01*
X15348673Y-16065455D02*
X15339150Y-16046408D01*
X15339150Y-16046408D02*
X15320102Y-16017836D01*
X15320102Y-16017836D02*
X15310578Y-16008312D01*
X15672483Y-16313074D02*
X15662959Y-16303550D01*
X15662959Y-16303550D02*
X15643911Y-16274979D01*
X15643911Y-16274979D02*
X15634388Y-16255931D01*
X15634388Y-16255931D02*
X15624864Y-16227360D01*
X15624864Y-16227360D02*
X15615340Y-16179741D01*
X15615340Y-16179741D02*
X15615340Y-16141646D01*
X15615340Y-16141646D02*
X15624864Y-16094027D01*
X15624864Y-16094027D02*
X15634388Y-16065455D01*
X15634388Y-16065455D02*
X15643911Y-16046408D01*
X15643911Y-16046408D02*
X15662959Y-16017836D01*
X15662959Y-16017836D02*
X15672483Y-16008312D01*
X15748673Y-16103550D02*
X15748673Y-16236884D01*
X15748673Y-16122598D02*
X15758197Y-16113074D01*
X15758197Y-16113074D02*
X15777245Y-16103550D01*
X15777245Y-16103550D02*
X15805816Y-16103550D01*
X15805816Y-16103550D02*
X15824864Y-16113074D01*
X15824864Y-16113074D02*
X15834388Y-16132122D01*
X15834388Y-16132122D02*
X15834388Y-16236884D01*
X15958197Y-16236884D02*
X15939150Y-16227360D01*
X15939150Y-16227360D02*
X15929626Y-16217836D01*
X15929626Y-16217836D02*
X15920102Y-16198788D01*
X15920102Y-16198788D02*
X15920102Y-16141646D01*
X15920102Y-16141646D02*
X15929626Y-16122598D01*
X15929626Y-16122598D02*
X15939150Y-16113074D01*
X15939150Y-16113074D02*
X15958197Y-16103550D01*
X15958197Y-16103550D02*
X15986769Y-16103550D01*
X15986769Y-16103550D02*
X16005816Y-16113074D01*
X16005816Y-16113074D02*
X16015340Y-16122598D01*
X16015340Y-16122598D02*
X16024864Y-16141646D01*
X16024864Y-16141646D02*
X16024864Y-16198788D01*
X16024864Y-16198788D02*
X16015340Y-16217836D01*
X16015340Y-16217836D02*
X16005816Y-16227360D01*
X16005816Y-16227360D02*
X15986769Y-16236884D01*
X15986769Y-16236884D02*
X15958197Y-16236884D01*
X16082007Y-16103550D02*
X16158197Y-16103550D01*
X16110578Y-16036884D02*
X16110578Y-16208312D01*
X16110578Y-16208312D02*
X16120102Y-16227360D01*
X16120102Y-16227360D02*
X16139150Y-16236884D01*
X16139150Y-16236884D02*
X16158197Y-16236884D01*
X16377245Y-16103550D02*
X16377245Y-16303550D01*
X16377245Y-16113074D02*
X16396292Y-16103550D01*
X16396292Y-16103550D02*
X16434388Y-16103550D01*
X16434388Y-16103550D02*
X16453435Y-16113074D01*
X16453435Y-16113074D02*
X16462959Y-16122598D01*
X16462959Y-16122598D02*
X16472483Y-16141646D01*
X16472483Y-16141646D02*
X16472483Y-16198788D01*
X16472483Y-16198788D02*
X16462959Y-16217836D01*
X16462959Y-16217836D02*
X16453435Y-16227360D01*
X16453435Y-16227360D02*
X16434388Y-16236884D01*
X16434388Y-16236884D02*
X16396292Y-16236884D01*
X16396292Y-16236884D02*
X16377245Y-16227360D01*
X16586769Y-16236884D02*
X16567721Y-16227360D01*
X16567721Y-16227360D02*
X16558197Y-16208312D01*
X16558197Y-16208312D02*
X16558197Y-16036884D01*
X16748673Y-16236884D02*
X16748673Y-16132122D01*
X16748673Y-16132122D02*
X16739150Y-16113074D01*
X16739150Y-16113074D02*
X16720102Y-16103550D01*
X16720102Y-16103550D02*
X16682007Y-16103550D01*
X16682007Y-16103550D02*
X16662959Y-16113074D01*
X16748673Y-16227360D02*
X16729626Y-16236884D01*
X16729626Y-16236884D02*
X16682007Y-16236884D01*
X16682007Y-16236884D02*
X16662959Y-16227360D01*
X16662959Y-16227360D02*
X16653435Y-16208312D01*
X16653435Y-16208312D02*
X16653435Y-16189265D01*
X16653435Y-16189265D02*
X16662959Y-16170217D01*
X16662959Y-16170217D02*
X16682007Y-16160693D01*
X16682007Y-16160693D02*
X16729626Y-16160693D01*
X16729626Y-16160693D02*
X16748673Y-16151169D01*
X16815340Y-16103550D02*
X16891531Y-16103550D01*
X16843912Y-16036884D02*
X16843912Y-16208312D01*
X16843912Y-16208312D02*
X16853435Y-16227360D01*
X16853435Y-16227360D02*
X16872483Y-16236884D01*
X16872483Y-16236884D02*
X16891531Y-16236884D01*
X17034388Y-16227360D02*
X17015340Y-16236884D01*
X17015340Y-16236884D02*
X16977245Y-16236884D01*
X16977245Y-16236884D02*
X16958197Y-16227360D01*
X16958197Y-16227360D02*
X16948674Y-16208312D01*
X16948674Y-16208312D02*
X16948674Y-16132122D01*
X16948674Y-16132122D02*
X16958197Y-16113074D01*
X16958197Y-16113074D02*
X16977245Y-16103550D01*
X16977245Y-16103550D02*
X17015340Y-16103550D01*
X17015340Y-16103550D02*
X17034388Y-16113074D01*
X17034388Y-16113074D02*
X17043912Y-16132122D01*
X17043912Y-16132122D02*
X17043912Y-16151169D01*
X17043912Y-16151169D02*
X16948674Y-16170217D01*
X17215340Y-16236884D02*
X17215340Y-16036884D01*
X17215340Y-16227360D02*
X17196293Y-16236884D01*
X17196293Y-16236884D02*
X17158197Y-16236884D01*
X17158197Y-16236884D02*
X17139150Y-16227360D01*
X17139150Y-16227360D02*
X17129626Y-16217836D01*
X17129626Y-16217836D02*
X17120102Y-16198788D01*
X17120102Y-16198788D02*
X17120102Y-16141646D01*
X17120102Y-16141646D02*
X17129626Y-16122598D01*
X17129626Y-16122598D02*
X17139150Y-16113074D01*
X17139150Y-16113074D02*
X17158197Y-16103550D01*
X17158197Y-16103550D02*
X17196293Y-16103550D01*
X17196293Y-16103550D02*
X17215340Y-16113074D01*
X17291531Y-16313074D02*
X17301055Y-16303550D01*
X17301055Y-16303550D02*
X17320102Y-16274979D01*
X17320102Y-16274979D02*
X17329626Y-16255931D01*
X17329626Y-16255931D02*
X17339150Y-16227360D01*
X17339150Y-16227360D02*
X17348674Y-16179741D01*
X17348674Y-16179741D02*
X17348674Y-16141646D01*
X17348674Y-16141646D02*
X17339150Y-16094027D01*
X17339150Y-16094027D02*
X17329626Y-16065455D01*
X17329626Y-16065455D02*
X17320102Y-16046408D01*
X17320102Y-16046408D02*
X17301055Y-16017836D01*
X17301055Y-16017836D02*
X17291531Y-16008312D01*
D14*
X10671060Y-16489040D02*
X10671060Y-16361760D01*
X10543780Y-16361760D01*
X10543780Y-16489040D01*
X10671060Y-16489040D01*
D10*
X11062959Y-16516884D02*
X10948673Y-16516884D01*
X11005816Y-16516884D02*
X11005816Y-16316884D01*
X11005816Y-16316884D02*
X10986768Y-16345455D01*
X10986768Y-16345455D02*
X10967721Y-16364503D01*
X10967721Y-16364503D02*
X10948673Y-16374027D01*
X11148673Y-16497836D02*
X11158197Y-16507360D01*
X11158197Y-16507360D02*
X11148673Y-16516884D01*
X11148673Y-16516884D02*
X11139149Y-16507360D01*
X11139149Y-16507360D02*
X11148673Y-16497836D01*
X11148673Y-16497836D02*
X11148673Y-16516884D01*
X11272482Y-16402598D02*
X11253435Y-16393074D01*
X11253435Y-16393074D02*
X11243911Y-16383550D01*
X11243911Y-16383550D02*
X11234387Y-16364503D01*
X11234387Y-16364503D02*
X11234387Y-16354979D01*
X11234387Y-16354979D02*
X11243911Y-16335931D01*
X11243911Y-16335931D02*
X11253435Y-16326408D01*
X11253435Y-16326408D02*
X11272482Y-16316884D01*
X11272482Y-16316884D02*
X11310578Y-16316884D01*
X11310578Y-16316884D02*
X11329625Y-16326408D01*
X11329625Y-16326408D02*
X11339149Y-16335931D01*
X11339149Y-16335931D02*
X11348673Y-16354979D01*
X11348673Y-16354979D02*
X11348673Y-16364503D01*
X11348673Y-16364503D02*
X11339149Y-16383550D01*
X11339149Y-16383550D02*
X11329625Y-16393074D01*
X11329625Y-16393074D02*
X11310578Y-16402598D01*
X11310578Y-16402598D02*
X11272482Y-16402598D01*
X11272482Y-16402598D02*
X11253435Y-16412122D01*
X11253435Y-16412122D02*
X11243911Y-16421646D01*
X11243911Y-16421646D02*
X11234387Y-16440693D01*
X11234387Y-16440693D02*
X11234387Y-16478788D01*
X11234387Y-16478788D02*
X11243911Y-16497836D01*
X11243911Y-16497836D02*
X11253435Y-16507360D01*
X11253435Y-16507360D02*
X11272482Y-16516884D01*
X11272482Y-16516884D02*
X11310578Y-16516884D01*
X11310578Y-16516884D02*
X11329625Y-16507360D01*
X11329625Y-16507360D02*
X11339149Y-16497836D01*
X11339149Y-16497836D02*
X11348673Y-16478788D01*
X11348673Y-16478788D02*
X11348673Y-16440693D01*
X11348673Y-16440693D02*
X11339149Y-16421646D01*
X11339149Y-16421646D02*
X11329625Y-16412122D01*
X11329625Y-16412122D02*
X11310578Y-16402598D01*
X11472482Y-16316884D02*
X11491530Y-16316884D01*
X11491530Y-16316884D02*
X11510578Y-16326408D01*
X11510578Y-16326408D02*
X11520102Y-16335931D01*
X11520102Y-16335931D02*
X11529625Y-16354979D01*
X11529625Y-16354979D02*
X11539149Y-16393074D01*
X11539149Y-16393074D02*
X11539149Y-16440693D01*
X11539149Y-16440693D02*
X11529625Y-16478788D01*
X11529625Y-16478788D02*
X11520102Y-16497836D01*
X11520102Y-16497836D02*
X11510578Y-16507360D01*
X11510578Y-16507360D02*
X11491530Y-16516884D01*
X11491530Y-16516884D02*
X11472482Y-16516884D01*
X11472482Y-16516884D02*
X11453435Y-16507360D01*
X11453435Y-16507360D02*
X11443911Y-16497836D01*
X11443911Y-16497836D02*
X11434387Y-16478788D01*
X11434387Y-16478788D02*
X11424863Y-16440693D01*
X11424863Y-16440693D02*
X11424863Y-16393074D01*
X11424863Y-16393074D02*
X11434387Y-16354979D01*
X11434387Y-16354979D02*
X11443911Y-16335931D01*
X11443911Y-16335931D02*
X11453435Y-16326408D01*
X11453435Y-16326408D02*
X11472482Y-16316884D01*
X11662959Y-16316884D02*
X11682006Y-16316884D01*
X11682006Y-16316884D02*
X11701054Y-16326408D01*
X11701054Y-16326408D02*
X11710578Y-16335931D01*
X11710578Y-16335931D02*
X11720102Y-16354979D01*
X11720102Y-16354979D02*
X11729625Y-16393074D01*
X11729625Y-16393074D02*
X11729625Y-16440693D01*
X11729625Y-16440693D02*
X11720102Y-16478788D01*
X11720102Y-16478788D02*
X11710578Y-16497836D01*
X11710578Y-16497836D02*
X11701054Y-16507360D01*
X11701054Y-16507360D02*
X11682006Y-16516884D01*
X11682006Y-16516884D02*
X11662959Y-16516884D01*
X11662959Y-16516884D02*
X11643911Y-16507360D01*
X11643911Y-16507360D02*
X11634387Y-16497836D01*
X11634387Y-16497836D02*
X11624863Y-16478788D01*
X11624863Y-16478788D02*
X11615340Y-16440693D01*
X11615340Y-16440693D02*
X11615340Y-16393074D01*
X11615340Y-16393074D02*
X11624863Y-16354979D01*
X11624863Y-16354979D02*
X11634387Y-16335931D01*
X11634387Y-16335931D02*
X11643911Y-16326408D01*
X11643911Y-16326408D02*
X11662959Y-16316884D01*
X11815340Y-16516884D02*
X11815340Y-16383550D01*
X11815340Y-16402598D02*
X11824863Y-16393074D01*
X11824863Y-16393074D02*
X11843911Y-16383550D01*
X11843911Y-16383550D02*
X11872483Y-16383550D01*
X11872483Y-16383550D02*
X11891530Y-16393074D01*
X11891530Y-16393074D02*
X11901054Y-16412122D01*
X11901054Y-16412122D02*
X11901054Y-16516884D01*
X11901054Y-16412122D02*
X11910578Y-16393074D01*
X11910578Y-16393074D02*
X11929625Y-16383550D01*
X11929625Y-16383550D02*
X11958197Y-16383550D01*
X11958197Y-16383550D02*
X11977244Y-16393074D01*
X11977244Y-16393074D02*
X11986768Y-16412122D01*
X11986768Y-16412122D02*
X11986768Y-16516884D01*
X12082006Y-16516884D02*
X12082006Y-16383550D01*
X12082006Y-16402598D02*
X12091530Y-16393074D01*
X12091530Y-16393074D02*
X12110578Y-16383550D01*
X12110578Y-16383550D02*
X12139149Y-16383550D01*
X12139149Y-16383550D02*
X12158197Y-16393074D01*
X12158197Y-16393074D02*
X12167721Y-16412122D01*
X12167721Y-16412122D02*
X12167721Y-16516884D01*
X12167721Y-16412122D02*
X12177244Y-16393074D01*
X12177244Y-16393074D02*
X12196292Y-16383550D01*
X12196292Y-16383550D02*
X12224863Y-16383550D01*
X12224863Y-16383550D02*
X12243911Y-16393074D01*
X12243911Y-16393074D02*
X12253435Y-16412122D01*
X12253435Y-16412122D02*
X12253435Y-16516884D01*
X12643911Y-16307360D02*
X12472483Y-16564503D01*
X12901054Y-16316884D02*
X12920102Y-16316884D01*
X12920102Y-16316884D02*
X12939149Y-16326408D01*
X12939149Y-16326408D02*
X12948673Y-16335931D01*
X12948673Y-16335931D02*
X12958197Y-16354979D01*
X12958197Y-16354979D02*
X12967721Y-16393074D01*
X12967721Y-16393074D02*
X12967721Y-16440693D01*
X12967721Y-16440693D02*
X12958197Y-16478788D01*
X12958197Y-16478788D02*
X12948673Y-16497836D01*
X12948673Y-16497836D02*
X12939149Y-16507360D01*
X12939149Y-16507360D02*
X12920102Y-16516884D01*
X12920102Y-16516884D02*
X12901054Y-16516884D01*
X12901054Y-16516884D02*
X12882006Y-16507360D01*
X12882006Y-16507360D02*
X12872483Y-16497836D01*
X12872483Y-16497836D02*
X12862959Y-16478788D01*
X12862959Y-16478788D02*
X12853435Y-16440693D01*
X12853435Y-16440693D02*
X12853435Y-16393074D01*
X12853435Y-16393074D02*
X12862959Y-16354979D01*
X12862959Y-16354979D02*
X12872483Y-16335931D01*
X12872483Y-16335931D02*
X12882006Y-16326408D01*
X12882006Y-16326408D02*
X12901054Y-16316884D01*
X13053435Y-16497836D02*
X13062959Y-16507360D01*
X13062959Y-16507360D02*
X13053435Y-16516884D01*
X13053435Y-16516884D02*
X13043911Y-16507360D01*
X13043911Y-16507360D02*
X13053435Y-16497836D01*
X13053435Y-16497836D02*
X13053435Y-16516884D01*
X13186768Y-16316884D02*
X13205816Y-16316884D01*
X13205816Y-16316884D02*
X13224864Y-16326408D01*
X13224864Y-16326408D02*
X13234387Y-16335931D01*
X13234387Y-16335931D02*
X13243911Y-16354979D01*
X13243911Y-16354979D02*
X13253435Y-16393074D01*
X13253435Y-16393074D02*
X13253435Y-16440693D01*
X13253435Y-16440693D02*
X13243911Y-16478788D01*
X13243911Y-16478788D02*
X13234387Y-16497836D01*
X13234387Y-16497836D02*
X13224864Y-16507360D01*
X13224864Y-16507360D02*
X13205816Y-16516884D01*
X13205816Y-16516884D02*
X13186768Y-16516884D01*
X13186768Y-16516884D02*
X13167721Y-16507360D01*
X13167721Y-16507360D02*
X13158197Y-16497836D01*
X13158197Y-16497836D02*
X13148673Y-16478788D01*
X13148673Y-16478788D02*
X13139149Y-16440693D01*
X13139149Y-16440693D02*
X13139149Y-16393074D01*
X13139149Y-16393074D02*
X13148673Y-16354979D01*
X13148673Y-16354979D02*
X13158197Y-16335931D01*
X13158197Y-16335931D02*
X13167721Y-16326408D01*
X13167721Y-16326408D02*
X13186768Y-16316884D01*
X13320102Y-16316884D02*
X13453435Y-16316884D01*
X13453435Y-16316884D02*
X13367721Y-16516884D01*
X13567721Y-16316884D02*
X13586768Y-16316884D01*
X13586768Y-16316884D02*
X13605816Y-16326408D01*
X13605816Y-16326408D02*
X13615340Y-16335931D01*
X13615340Y-16335931D02*
X13624864Y-16354979D01*
X13624864Y-16354979D02*
X13634387Y-16393074D01*
X13634387Y-16393074D02*
X13634387Y-16440693D01*
X13634387Y-16440693D02*
X13624864Y-16478788D01*
X13624864Y-16478788D02*
X13615340Y-16497836D01*
X13615340Y-16497836D02*
X13605816Y-16507360D01*
X13605816Y-16507360D02*
X13586768Y-16516884D01*
X13586768Y-16516884D02*
X13567721Y-16516884D01*
X13567721Y-16516884D02*
X13548673Y-16507360D01*
X13548673Y-16507360D02*
X13539149Y-16497836D01*
X13539149Y-16497836D02*
X13529626Y-16478788D01*
X13529626Y-16478788D02*
X13520102Y-16440693D01*
X13520102Y-16440693D02*
X13520102Y-16393074D01*
X13520102Y-16393074D02*
X13529626Y-16354979D01*
X13529626Y-16354979D02*
X13539149Y-16335931D01*
X13539149Y-16335931D02*
X13548673Y-16326408D01*
X13548673Y-16326408D02*
X13567721Y-16316884D01*
X13729626Y-16516884D02*
X13767721Y-16516884D01*
X13767721Y-16516884D02*
X13786768Y-16507360D01*
X13786768Y-16507360D02*
X13796292Y-16497836D01*
X13796292Y-16497836D02*
X13815340Y-16469265D01*
X13815340Y-16469265D02*
X13824864Y-16431169D01*
X13824864Y-16431169D02*
X13824864Y-16354979D01*
X13824864Y-16354979D02*
X13815340Y-16335931D01*
X13815340Y-16335931D02*
X13805816Y-16326408D01*
X13805816Y-16326408D02*
X13786768Y-16316884D01*
X13786768Y-16316884D02*
X13748673Y-16316884D01*
X13748673Y-16316884D02*
X13729626Y-16326408D01*
X13729626Y-16326408D02*
X13720102Y-16335931D01*
X13720102Y-16335931D02*
X13710578Y-16354979D01*
X13710578Y-16354979D02*
X13710578Y-16402598D01*
X13710578Y-16402598D02*
X13720102Y-16421646D01*
X13720102Y-16421646D02*
X13729626Y-16431169D01*
X13729626Y-16431169D02*
X13748673Y-16440693D01*
X13748673Y-16440693D02*
X13786768Y-16440693D01*
X13786768Y-16440693D02*
X13805816Y-16431169D01*
X13805816Y-16431169D02*
X13815340Y-16421646D01*
X13815340Y-16421646D02*
X13824864Y-16402598D01*
X13901054Y-16316884D02*
X13901054Y-16354979D01*
X13977245Y-16316884D02*
X13977245Y-16354979D01*
X14272483Y-16593074D02*
X14262959Y-16583550D01*
X14262959Y-16583550D02*
X14243911Y-16554979D01*
X14243911Y-16554979D02*
X14234388Y-16535931D01*
X14234388Y-16535931D02*
X14224864Y-16507360D01*
X14224864Y-16507360D02*
X14215340Y-16459741D01*
X14215340Y-16459741D02*
X14215340Y-16421646D01*
X14215340Y-16421646D02*
X14224864Y-16374027D01*
X14224864Y-16374027D02*
X14234388Y-16345455D01*
X14234388Y-16345455D02*
X14243911Y-16326408D01*
X14243911Y-16326408D02*
X14262959Y-16297836D01*
X14262959Y-16297836D02*
X14272483Y-16288312D01*
X14453435Y-16516884D02*
X14339149Y-16516884D01*
X14396292Y-16516884D02*
X14396292Y-16316884D01*
X14396292Y-16316884D02*
X14377245Y-16345455D01*
X14377245Y-16345455D02*
X14358197Y-16364503D01*
X14358197Y-16364503D02*
X14339149Y-16374027D01*
X14691530Y-16516884D02*
X14691530Y-16316884D01*
X14777245Y-16516884D02*
X14777245Y-16412122D01*
X14777245Y-16412122D02*
X14767721Y-16393074D01*
X14767721Y-16393074D02*
X14748673Y-16383550D01*
X14748673Y-16383550D02*
X14720102Y-16383550D01*
X14720102Y-16383550D02*
X14701054Y-16393074D01*
X14701054Y-16393074D02*
X14691530Y-16402598D01*
X14901054Y-16516884D02*
X14882007Y-16507360D01*
X14882007Y-16507360D02*
X14872483Y-16497836D01*
X14872483Y-16497836D02*
X14862959Y-16478788D01*
X14862959Y-16478788D02*
X14862959Y-16421646D01*
X14862959Y-16421646D02*
X14872483Y-16402598D01*
X14872483Y-16402598D02*
X14882007Y-16393074D01*
X14882007Y-16393074D02*
X14901054Y-16383550D01*
X14901054Y-16383550D02*
X14929626Y-16383550D01*
X14929626Y-16383550D02*
X14948673Y-16393074D01*
X14948673Y-16393074D02*
X14958197Y-16402598D01*
X14958197Y-16402598D02*
X14967721Y-16421646D01*
X14967721Y-16421646D02*
X14967721Y-16478788D01*
X14967721Y-16478788D02*
X14958197Y-16497836D01*
X14958197Y-16497836D02*
X14948673Y-16507360D01*
X14948673Y-16507360D02*
X14929626Y-16516884D01*
X14929626Y-16516884D02*
X14901054Y-16516884D01*
X15082007Y-16516884D02*
X15062959Y-16507360D01*
X15062959Y-16507360D02*
X15053435Y-16488312D01*
X15053435Y-16488312D02*
X15053435Y-16316884D01*
X15234388Y-16507360D02*
X15215340Y-16516884D01*
X15215340Y-16516884D02*
X15177245Y-16516884D01*
X15177245Y-16516884D02*
X15158197Y-16507360D01*
X15158197Y-16507360D02*
X15148673Y-16488312D01*
X15148673Y-16488312D02*
X15148673Y-16412122D01*
X15148673Y-16412122D02*
X15158197Y-16393074D01*
X15158197Y-16393074D02*
X15177245Y-16383550D01*
X15177245Y-16383550D02*
X15215340Y-16383550D01*
X15215340Y-16383550D02*
X15234388Y-16393074D01*
X15234388Y-16393074D02*
X15243911Y-16412122D01*
X15243911Y-16412122D02*
X15243911Y-16431169D01*
X15243911Y-16431169D02*
X15148673Y-16450217D01*
X15310578Y-16593074D02*
X15320102Y-16583550D01*
X15320102Y-16583550D02*
X15339150Y-16554979D01*
X15339150Y-16554979D02*
X15348673Y-16535931D01*
X15348673Y-16535931D02*
X15358197Y-16507360D01*
X15358197Y-16507360D02*
X15367721Y-16459741D01*
X15367721Y-16459741D02*
X15367721Y-16421646D01*
X15367721Y-16421646D02*
X15358197Y-16374027D01*
X15358197Y-16374027D02*
X15348673Y-16345455D01*
X15348673Y-16345455D02*
X15339150Y-16326408D01*
X15339150Y-16326408D02*
X15320102Y-16297836D01*
X15320102Y-16297836D02*
X15310578Y-16288312D01*
X15672483Y-16593074D02*
X15662959Y-16583550D01*
X15662959Y-16583550D02*
X15643911Y-16554979D01*
X15643911Y-16554979D02*
X15634388Y-16535931D01*
X15634388Y-16535931D02*
X15624864Y-16507360D01*
X15624864Y-16507360D02*
X15615340Y-16459741D01*
X15615340Y-16459741D02*
X15615340Y-16421646D01*
X15615340Y-16421646D02*
X15624864Y-16374027D01*
X15624864Y-16374027D02*
X15634388Y-16345455D01*
X15634388Y-16345455D02*
X15643911Y-16326408D01*
X15643911Y-16326408D02*
X15662959Y-16297836D01*
X15662959Y-16297836D02*
X15672483Y-16288312D01*
X15748673Y-16383550D02*
X15748673Y-16516884D01*
X15748673Y-16402598D02*
X15758197Y-16393074D01*
X15758197Y-16393074D02*
X15777245Y-16383550D01*
X15777245Y-16383550D02*
X15805816Y-16383550D01*
X15805816Y-16383550D02*
X15824864Y-16393074D01*
X15824864Y-16393074D02*
X15834388Y-16412122D01*
X15834388Y-16412122D02*
X15834388Y-16516884D01*
X15958197Y-16516884D02*
X15939150Y-16507360D01*
X15939150Y-16507360D02*
X15929626Y-16497836D01*
X15929626Y-16497836D02*
X15920102Y-16478788D01*
X15920102Y-16478788D02*
X15920102Y-16421646D01*
X15920102Y-16421646D02*
X15929626Y-16402598D01*
X15929626Y-16402598D02*
X15939150Y-16393074D01*
X15939150Y-16393074D02*
X15958197Y-16383550D01*
X15958197Y-16383550D02*
X15986769Y-16383550D01*
X15986769Y-16383550D02*
X16005816Y-16393074D01*
X16005816Y-16393074D02*
X16015340Y-16402598D01*
X16015340Y-16402598D02*
X16024864Y-16421646D01*
X16024864Y-16421646D02*
X16024864Y-16478788D01*
X16024864Y-16478788D02*
X16015340Y-16497836D01*
X16015340Y-16497836D02*
X16005816Y-16507360D01*
X16005816Y-16507360D02*
X15986769Y-16516884D01*
X15986769Y-16516884D02*
X15958197Y-16516884D01*
X16082007Y-16383550D02*
X16158197Y-16383550D01*
X16110578Y-16316884D02*
X16110578Y-16488312D01*
X16110578Y-16488312D02*
X16120102Y-16507360D01*
X16120102Y-16507360D02*
X16139150Y-16516884D01*
X16139150Y-16516884D02*
X16158197Y-16516884D01*
X16377245Y-16383550D02*
X16377245Y-16583550D01*
X16377245Y-16393074D02*
X16396292Y-16383550D01*
X16396292Y-16383550D02*
X16434388Y-16383550D01*
X16434388Y-16383550D02*
X16453435Y-16393074D01*
X16453435Y-16393074D02*
X16462959Y-16402598D01*
X16462959Y-16402598D02*
X16472483Y-16421646D01*
X16472483Y-16421646D02*
X16472483Y-16478788D01*
X16472483Y-16478788D02*
X16462959Y-16497836D01*
X16462959Y-16497836D02*
X16453435Y-16507360D01*
X16453435Y-16507360D02*
X16434388Y-16516884D01*
X16434388Y-16516884D02*
X16396292Y-16516884D01*
X16396292Y-16516884D02*
X16377245Y-16507360D01*
X16586769Y-16516884D02*
X16567721Y-16507360D01*
X16567721Y-16507360D02*
X16558197Y-16488312D01*
X16558197Y-16488312D02*
X16558197Y-16316884D01*
X16748673Y-16516884D02*
X16748673Y-16412122D01*
X16748673Y-16412122D02*
X16739150Y-16393074D01*
X16739150Y-16393074D02*
X16720102Y-16383550D01*
X16720102Y-16383550D02*
X16682007Y-16383550D01*
X16682007Y-16383550D02*
X16662959Y-16393074D01*
X16748673Y-16507360D02*
X16729626Y-16516884D01*
X16729626Y-16516884D02*
X16682007Y-16516884D01*
X16682007Y-16516884D02*
X16662959Y-16507360D01*
X16662959Y-16507360D02*
X16653435Y-16488312D01*
X16653435Y-16488312D02*
X16653435Y-16469265D01*
X16653435Y-16469265D02*
X16662959Y-16450217D01*
X16662959Y-16450217D02*
X16682007Y-16440693D01*
X16682007Y-16440693D02*
X16729626Y-16440693D01*
X16729626Y-16440693D02*
X16748673Y-16431169D01*
X16815340Y-16383550D02*
X16891531Y-16383550D01*
X16843912Y-16316884D02*
X16843912Y-16488312D01*
X16843912Y-16488312D02*
X16853435Y-16507360D01*
X16853435Y-16507360D02*
X16872483Y-16516884D01*
X16872483Y-16516884D02*
X16891531Y-16516884D01*
X17034388Y-16507360D02*
X17015340Y-16516884D01*
X17015340Y-16516884D02*
X16977245Y-16516884D01*
X16977245Y-16516884D02*
X16958197Y-16507360D01*
X16958197Y-16507360D02*
X16948674Y-16488312D01*
X16948674Y-16488312D02*
X16948674Y-16412122D01*
X16948674Y-16412122D02*
X16958197Y-16393074D01*
X16958197Y-16393074D02*
X16977245Y-16383550D01*
X16977245Y-16383550D02*
X17015340Y-16383550D01*
X17015340Y-16383550D02*
X17034388Y-16393074D01*
X17034388Y-16393074D02*
X17043912Y-16412122D01*
X17043912Y-16412122D02*
X17043912Y-16431169D01*
X17043912Y-16431169D02*
X16948674Y-16450217D01*
X17215340Y-16516884D02*
X17215340Y-16316884D01*
X17215340Y-16507360D02*
X17196293Y-16516884D01*
X17196293Y-16516884D02*
X17158197Y-16516884D01*
X17158197Y-16516884D02*
X17139150Y-16507360D01*
X17139150Y-16507360D02*
X17129626Y-16497836D01*
X17129626Y-16497836D02*
X17120102Y-16478788D01*
X17120102Y-16478788D02*
X17120102Y-16421646D01*
X17120102Y-16421646D02*
X17129626Y-16402598D01*
X17129626Y-16402598D02*
X17139150Y-16393074D01*
X17139150Y-16393074D02*
X17158197Y-16383550D01*
X17158197Y-16383550D02*
X17196293Y-16383550D01*
X17196293Y-16383550D02*
X17215340Y-16393074D01*
X17291531Y-16593074D02*
X17301055Y-16583550D01*
X17301055Y-16583550D02*
X17320102Y-16554979D01*
X17320102Y-16554979D02*
X17329626Y-16535931D01*
X17329626Y-16535931D02*
X17339150Y-16507360D01*
X17339150Y-16507360D02*
X17348674Y-16459741D01*
X17348674Y-16459741D02*
X17348674Y-16421646D01*
X17348674Y-16421646D02*
X17339150Y-16374027D01*
X17339150Y-16374027D02*
X17329626Y-16345455D01*
X17329626Y-16345455D02*
X17320102Y-16326408D01*
X17320102Y-16326408D02*
X17301055Y-16297836D01*
X17301055Y-16297836D02*
X17291531Y-16288312D01*
M02*
