M48
; DRILL file {KiCad 8.0.3} date 2025-02-06T23:25:18+0700
; FORMAT={-:-/ absolute / metric / decimal}
; #@! TF.CreationDate,2025-02-06T23:25:18+07:00
; #@! TF.GenerationSoftware,Kicad,Pcbnew,8.0.3
; #@! TF.FileFunction,Plated,1,4,PTH
FMAT,2
METRIC
; #@! TA.AperFunction,Plated,PTH,ViaDrill
T1C0.300
; #@! TA.AperFunction,Plated,PTH,ComponentDrill
T2C0.500
; #@! TA.AperFunction,Plated,PTH,ComponentDrill
T3C1.000
; #@! TA.AperFunction,Plated,PTH,ComponentDrill
T4C1.400
; #@! TA.AperFunction,Plated,PTH,ComponentDrill
T5C1.850
; #@! TA.AperFunction,Plated,PTH,ComponentDrill
T6C3.200
%
G90
G05
T1
X107.585Y-76.355
X107.585Y-77.586
X107.585Y-78.817
X107.585Y-80.048
X107.585Y-81.279
X107.585Y-82.51
X107.585Y-83.741
X107.585Y-84.972
X107.585Y-86.203
X107.585Y-87.434
X107.585Y-88.665
X107.585Y-89.896
X107.585Y-91.127
X107.585Y-92.358
X107.585Y-93.589
X107.585Y-94.82
X107.585Y-96.051
X107.585Y-97.282
X107.585Y-98.513
X107.585Y-99.744
X107.585Y-100.975
X107.585Y-102.206
X107.585Y-103.436
X107.585Y-104.667
X107.585Y-105.898
X107.585Y-107.129
X107.585Y-108.36
X107.585Y-109.591
X107.585Y-110.822
X107.585Y-112.053
X107.585Y-113.284
X107.585Y-114.515
X107.585Y-115.746
X107.585Y-116.977
X107.585Y-118.208
X107.585Y-119.439
X107.585Y-120.67
X107.585Y-121.901
X107.585Y-123.132
X107.585Y-124.363
X107.585Y-125.594
X107.585Y-126.825
X107.585Y-128.056
X107.585Y-129.287
X107.585Y-130.518
X107.585Y-131.749
X107.585Y-132.98
X107.585Y-134.21
X107.585Y-135.441
X107.585Y-136.672
X107.585Y-137.903
X107.585Y-139.134
X107.585Y-140.365
X107.585Y-141.596
X107.585Y-142.827
X108.753Y-109.553
X109.979Y-109.553
X111.206Y-109.553
X112.432Y-109.553
X113.659Y-109.553
X113.884Y-149.101
X114.885Y-109.553
X115.115Y-149.101
X115.408Y-123.828
X116.112Y-109.553
X116.346Y-149.101
X117.338Y-109.553
X117.577Y-149.101
X118.151Y-108.918
X118.808Y-149.101
X118.837Y-108.232
X119.823Y-107.775
X120.039Y-149.101
X121.021Y-123.853
X121.27Y-149.101
X122.084Y-107.775
X122.501Y-149.101
X123.053Y-140.834
X123.214Y-107.775
X123.731Y-149.101
X124.345Y-107.775
X124.962Y-149.101
X125.339Y-93.907
X125.339Y-96.167
X125.475Y-107.775
X126.193Y-149.101
X126.606Y-107.775
X127.424Y-149.101
X128.159Y-107.775
X128.284Y-144.988
X128.655Y-149.101
X128.864Y-98.216
X129.886Y-149.101
X129.997Y-107.775
X130.104Y-117.494
X131.117Y-149.101
X131.127Y-107.775
X132.348Y-149.101
X132.574Y-121.064
X133.424Y-128.754
X133.424Y-131.234
X133.579Y-149.101
X133.594Y-101.755
X133.67Y-100.157
X134.083Y-124.982
X134.519Y-107.775
X134.81Y-149.101
X134.854Y-127.674
X135.089Y-135.617
X135.324Y-123.194
X135.649Y-107.775
X135.956Y-118.215
X136.041Y-149.101
X136.127Y-128.164
X136.287Y-115.7
X136.78Y-107.775
X137.272Y-149.101
X137.454Y-105.154
X137.454Y-115.394
X137.633Y-90.046
X138.201Y-107.775
X138.503Y-149.101
X139.084Y-88.454
X139.167Y-107.747
X139.734Y-149.101
X139.893Y-123.015
X140.171Y-107.775
X140.427Y-137.138
X140.965Y-149.101
X141.302Y-107.775
X141.325Y-94.754
X142.196Y-149.101
X142.314Y-118.234
X142.432Y-107.775
X143.364Y-120.744
X143.414Y-101.024
X143.427Y-149.101
X143.563Y-107.775
X144.234Y-111.274
X144.284Y-145.384
X144.658Y-149.101
X144.693Y-107.775
X145.284Y-145.384
X145.824Y-107.775
X145.889Y-149.101
X146.269Y-112.449
X146.284Y-145.384
X146.954Y-107.775
X147.12Y-149.101
X147.284Y-141.314
X147.284Y-145.384
X147.594Y-105.104
X148.199Y-88.878
X148.25Y-137.138
X148.284Y-140.642
X148.284Y-145.384
X148.311Y-107.747
X148.351Y-149.101
X148.883Y-100.433
X149.215Y-107.775
X149.284Y-140.062
X149.294Y-145.384
X149.582Y-149.101
X150.284Y-139.462
X150.284Y-145.384
X150.624Y-135.094
X150.813Y-149.101
X151.284Y-138.864
X151.284Y-145.384
X152.044Y-149.101
X152.284Y-138.242
X152.284Y-145.384
X153.274Y-149.101
X153.284Y-137.584
X153.294Y-145.384
X153.914Y-124.895
X154.284Y-136.884
X154.284Y-145.364
X154.505Y-149.101
X154.854Y-135.094
X155.284Y-145.384
X155.736Y-149.101
X156.226Y-135.207
X156.294Y-145.384
X156.967Y-149.101
X157.284Y-145.384
X157.314Y-132.594
X157.496Y-124.895
X157.764Y-131.324
X157.826Y-114.76
X157.864Y-130.434
X157.877Y-107.953
X157.877Y-112.068
X158.042Y-113.071
X158.044Y-132.264
X158.198Y-149.101
X158.284Y-145.384
X158.464Y-129.584
X159.064Y-128.824
X159.284Y-145.384
X159.429Y-149.101
X159.764Y-126.314
X159.786Y-109.134
X160.284Y-145.384
X160.454Y-129.964
X160.66Y-149.101
X161.254Y-95.014
X161.284Y-145.394
X161.474Y-130.566
X161.654Y-105.744
X161.891Y-149.101
X162.144Y-78.54
X162.284Y-145.384
X162.364Y-131.066
X162.781Y-133.357
X163.119Y-132.099
X163.122Y-149.101
X163.284Y-145.384
X164.183Y-131.844
X164.274Y-120.884
X164.294Y-145.384
X164.353Y-149.101
X164.784Y-125.334
X164.864Y-121.544
X165.274Y-145.374
X165.584Y-149.101
X165.624Y-125.414
X165.764Y-112.344
X166.308Y-109.044
X166.815Y-149.101
X166.824Y-106.844
X167.504Y-113.444
X168.046Y-149.101
X168.284Y-114.544
X168.595Y-78.26
X168.709Y-127.969
X168.91Y-108.839
X168.976Y-142.844
X169.002Y-129.111
X169.074Y-116.324
X169.277Y-149.101
X169.545Y-109.393
X170.508Y-149.101
X171.161Y-99.165
X171.364Y-115.641
X171.739Y-149.101
X172.414Y-129.884
X172.97Y-149.101
X173.249Y-129.409
X173.273Y-122.898
X174.033Y-128.964
X174.564Y-109.553
X174.634Y-126.564
X175.644Y-108.146
X175.682Y-99.241
X176.023Y-123.563
X176.495Y-109.553
X176.52Y-139.195
X177.094Y-116.864
X179.136Y-76.482
X179.136Y-77.713
X179.136Y-78.944
X179.136Y-80.175
X179.136Y-81.406
X179.136Y-82.637
X179.136Y-83.868
X179.136Y-85.099
X179.136Y-86.33
X179.136Y-87.561
X179.136Y-88.792
X179.136Y-90.023
X179.136Y-91.254
X179.136Y-92.485
X179.136Y-93.716
X179.136Y-94.947
X179.136Y-96.178
X179.136Y-97.409
X179.136Y-98.64
X179.136Y-99.871
X179.136Y-101.102
X179.136Y-102.333
X179.136Y-103.563
X179.136Y-104.794
X179.136Y-106.025
X179.136Y-107.256
X179.136Y-108.487
X179.136Y-109.718
X179.136Y-110.949
X179.136Y-112.18
X179.136Y-113.411
X179.136Y-114.642
X179.136Y-115.873
X179.136Y-117.104
X179.136Y-118.335
X179.136Y-119.566
X179.136Y-120.797
X179.136Y-122.028
X179.136Y-123.259
X179.136Y-124.49
X179.136Y-125.721
X179.136Y-126.952
X179.136Y-128.183
X179.136Y-129.414
X179.136Y-130.645
X179.136Y-131.876
X179.136Y-133.107
X179.136Y-134.337
X179.136Y-135.568
X179.136Y-136.799
X179.136Y-138.03
X179.136Y-139.261
X179.136Y-140.492
X179.136Y-141.723
X179.136Y-142.954
T2
X108.194Y-146.024
X108.274Y-73.204
X108.897Y-144.327
X108.897Y-147.721
X108.977Y-71.507
X108.977Y-74.901
X110.594Y-143.624
X110.594Y-148.424
X110.674Y-70.804
X110.674Y-75.604
X112.291Y-144.327
X112.291Y-147.721
X112.371Y-71.507
X112.371Y-74.901
X112.994Y-146.024
X113.074Y-73.204
X173.614Y-146.024
X173.664Y-73.254
X174.317Y-144.327
X174.317Y-147.721
X174.367Y-71.557
X174.367Y-74.951
X176.014Y-143.624
X176.014Y-148.424
X176.064Y-70.854
X176.064Y-75.654
X177.711Y-144.327
X177.711Y-147.721
X177.761Y-71.557
X177.761Y-74.951
X178.414Y-146.024
X178.464Y-73.254
T3
X112.034Y-115.074
X112.034Y-117.614
X112.034Y-120.154
X112.034Y-126.439
X112.034Y-128.979
X112.034Y-131.519
X117.724Y-115.334
X117.724Y-117.874
X117.724Y-120.414
X117.724Y-126.439
X117.724Y-128.979
X117.724Y-131.519
X123.319Y-115.074
X123.319Y-117.614
X123.319Y-120.154
X123.319Y-126.439
X123.319Y-128.979
X123.319Y-131.519
X164.984Y-85.694
X164.984Y-88.234
X177.206Y-129.772
X177.206Y-132.312
X177.206Y-134.852
X177.206Y-137.392
T4
X120.879Y-72.009
X120.879Y-78.359
X120.879Y-84.709
X137.109Y-72.009
X137.109Y-78.359
X137.109Y-84.709
X142.069Y-72.049
X142.069Y-78.399
X142.069Y-84.749
X158.299Y-72.049
X158.299Y-78.399
X158.299Y-84.749
T5
X110.349Y-83.701
X110.349Y-88.401
X110.349Y-93.102
X115.179Y-83.701
X115.179Y-88.401
X115.179Y-93.102
T6
X110.594Y-146.024
X110.674Y-73.204
X176.014Y-146.024
X176.064Y-73.254
M30
