G04 #@! TF.GenerationSoftware,KiCad,Pcbnew,8.0.3*
G04 #@! TF.CreationDate,2025-02-06T23:25:04+07:00*
G04 #@! TF.ProjectId,Digital_Multi_Pedal_v1,44696769-7461-46c5-9f4d-756c74695f50,rev?*
G04 #@! TF.SameCoordinates,Original*
G04 #@! TF.FileFunction,Copper,L2,Inr*
G04 #@! TF.FilePolarity,Positive*
%FSLAX46Y46*%
G04 Gerber Fmt 4.6, Leading zero omitted, Abs format (unit mm)*
G04 Created by KiCad (PCBNEW 8.0.3) date 2025-02-06 23:25:04*
%MOMM*%
%LPD*%
G01*
G04 APERTURE LIST*
G04 #@! TA.AperFunction,ComponentPad*
%ADD10C,3.000000*%
G04 #@! TD*
G04 #@! TA.AperFunction,ComponentPad*
%ADD11C,0.800000*%
G04 #@! TD*
G04 #@! TA.AperFunction,ComponentPad*
%ADD12C,6.400000*%
G04 #@! TD*
G04 #@! TA.AperFunction,ComponentPad*
%ADD13R,2.775000X2.775000*%
G04 #@! TD*
G04 #@! TA.AperFunction,ComponentPad*
%ADD14C,2.775000*%
G04 #@! TD*
G04 #@! TA.AperFunction,ComponentPad*
%ADD15R,1.700000X1.700000*%
G04 #@! TD*
G04 #@! TA.AperFunction,ComponentPad*
%ADD16O,1.700000X1.700000*%
G04 #@! TD*
G04 #@! TA.AperFunction,ViaPad*
%ADD17C,0.600000*%
G04 #@! TD*
G04 APERTURE END LIST*
D10*
X142069200Y-78399000D03*
X158299200Y-78399000D03*
X142069200Y-72049000D03*
X158299200Y-72049000D03*
X142069200Y-84749000D03*
X158299200Y-84749000D03*
D11*
X108274200Y-73204000D03*
X108977144Y-71506944D03*
X108977144Y-74901056D03*
X110674200Y-70804000D03*
D12*
X110674200Y-73204000D03*
D11*
X110674200Y-75604000D03*
X112371256Y-71506944D03*
X112371256Y-74901056D03*
X113074200Y-73204000D03*
D13*
X115179200Y-83701500D03*
D14*
X115179200Y-88401500D03*
X115179200Y-93101500D03*
X110349200Y-83701500D03*
X110349200Y-88401500D03*
X110349200Y-93101500D03*
D15*
X112034200Y-126439000D03*
D16*
X112034200Y-128979000D03*
X112034200Y-131519000D03*
D11*
X173614200Y-146024000D03*
X174317144Y-144326944D03*
X174317144Y-147721056D03*
X176014200Y-143624000D03*
D12*
X176014200Y-146024000D03*
D11*
X176014200Y-148424000D03*
X177711256Y-144326944D03*
X177711256Y-147721056D03*
X178414200Y-146024000D03*
X108194200Y-146024000D03*
X108897144Y-144326944D03*
X108897144Y-147721056D03*
X110594200Y-143624000D03*
D12*
X110594200Y-146024000D03*
D11*
X110594200Y-148424000D03*
X112291256Y-144326944D03*
X112291256Y-147721056D03*
X112994200Y-146024000D03*
X173664200Y-73254000D03*
X174367144Y-71556944D03*
X174367144Y-74951056D03*
X176064200Y-70854000D03*
D12*
X176064200Y-73254000D03*
D11*
X176064200Y-75654000D03*
X177761256Y-71556944D03*
X177761256Y-74951056D03*
X178464200Y-73254000D03*
D15*
X164984200Y-85694000D03*
D16*
X164984200Y-88234000D03*
D15*
X123319200Y-126439000D03*
D16*
X123319200Y-128979000D03*
X123319200Y-131519000D03*
D15*
X123319200Y-115074000D03*
D16*
X123319200Y-117614000D03*
X123319200Y-120154000D03*
D15*
X112034200Y-115074000D03*
D16*
X112034200Y-117614000D03*
X112034200Y-120154000D03*
D15*
X117724200Y-115334000D03*
D16*
X117724200Y-117874000D03*
X117724200Y-120414000D03*
D15*
X117724200Y-126439000D03*
D16*
X117724200Y-128979000D03*
X117724200Y-131519000D03*
D15*
X177206000Y-129771600D03*
D16*
X177206000Y-132311600D03*
X177206000Y-134851600D03*
X177206000Y-137391600D03*
D10*
X120879200Y-78359000D03*
X137109200Y-78359000D03*
X120879200Y-72009000D03*
X137109200Y-72009000D03*
X120879200Y-84709000D03*
X137109200Y-84709000D03*
D17*
X168045996Y-149101000D03*
X179136400Y-135568432D03*
X156967365Y-149101000D03*
X142432300Y-107775200D03*
X179136400Y-97408703D03*
X179136400Y-104794457D03*
X179136400Y-87561031D03*
X179136400Y-131875555D03*
X107584600Y-118208006D03*
X107584600Y-137903350D03*
X140171340Y-107775200D03*
X107584600Y-129286637D03*
X163122160Y-149101000D03*
X117576677Y-149101000D03*
X179136400Y-103563498D03*
X171738873Y-149101000D03*
X176494800Y-109553200D03*
X179136400Y-107256375D03*
X179136400Y-77713359D03*
X179136400Y-96177744D03*
X169545000Y-109392630D03*
X115114759Y-149101000D03*
X149215200Y-107775200D03*
X136286600Y-115700000D03*
X179136400Y-134337473D03*
X120038595Y-149101000D03*
X179136400Y-122027883D03*
X179136400Y-112180211D03*
X128158600Y-107775200D03*
X179136400Y-102332539D03*
X107584600Y-136672391D03*
X126193390Y-149101000D03*
X107584600Y-103436498D03*
X107584600Y-123131842D03*
X138201400Y-107775200D03*
X142195857Y-149101000D03*
X107584600Y-119438965D03*
X117338200Y-109553200D03*
X153914200Y-124894800D03*
X137272021Y-149101000D03*
X179136400Y-85099113D03*
X107584600Y-98512662D03*
X118836800Y-108232400D03*
X179136400Y-88791990D03*
X159429283Y-149101000D03*
X107584600Y-88664990D03*
X179136400Y-129413637D03*
X139893400Y-123015200D03*
X179136400Y-81406236D03*
X107584600Y-76355400D03*
X135649420Y-107775200D03*
X107584600Y-116977047D03*
X107584600Y-78817318D03*
X127424349Y-149101000D03*
X152043529Y-149101000D03*
X122500513Y-149101000D03*
X111205914Y-109553200D03*
X150623800Y-135094000D03*
X158198324Y-149101000D03*
X107584600Y-94819785D03*
X179136400Y-109718293D03*
X124962431Y-149101000D03*
X154505447Y-149101000D03*
X179136400Y-99870621D03*
X179136400Y-138030350D03*
X168976400Y-142844000D03*
X145823740Y-107775200D03*
X107584600Y-134210473D03*
X150812570Y-149101000D03*
X179136400Y-86330072D03*
X133594200Y-101755400D03*
X137632800Y-90046000D03*
X107584600Y-93588826D03*
X107584600Y-80048277D03*
X148883025Y-100432625D03*
X107584600Y-87434031D03*
X123214140Y-107775200D03*
X107584600Y-97281703D03*
X179136400Y-118335006D03*
X107584600Y-100974580D03*
X136041062Y-149101000D03*
X179136400Y-98639662D03*
X116111742Y-109553200D03*
X112432371Y-109553200D03*
X116345718Y-149101000D03*
X146954220Y-107775200D03*
X115407800Y-123828000D03*
X153274488Y-149101000D03*
X107584600Y-120669924D03*
X179136400Y-82637195D03*
X107584600Y-112053211D03*
X144693260Y-107775200D03*
X157495600Y-124894800D03*
X107584600Y-96050744D03*
X107584600Y-89895949D03*
X179136400Y-125720760D03*
X179136400Y-78944318D03*
X179136400Y-92484867D03*
X179136400Y-114642129D03*
X107584600Y-121900883D03*
X179136400Y-115873088D03*
X107584600Y-102205539D03*
X165584078Y-149101000D03*
X166308200Y-109044000D03*
X175682000Y-99240800D03*
X107584600Y-107129375D03*
X179136400Y-108487334D03*
X107584600Y-109591293D03*
X138502980Y-149101000D03*
X179136400Y-124489801D03*
X131117226Y-149101000D03*
X168910000Y-108839000D03*
X107584600Y-108360334D03*
X107584600Y-126824719D03*
X129997020Y-107775200D03*
X147119693Y-149101000D03*
X172969846Y-149101000D03*
X179136400Y-130644596D03*
X179136400Y-106025416D03*
X108753000Y-109553200D03*
X179136400Y-142954200D03*
X125339200Y-93906800D03*
X107584600Y-81279236D03*
X179136400Y-136799391D03*
X126605580Y-107775200D03*
X133579144Y-149101000D03*
X161891201Y-149101000D03*
X179136400Y-126951719D03*
X107584600Y-110822252D03*
X170507914Y-149101000D03*
X164353119Y-149101000D03*
X179136400Y-133106514D03*
X107584600Y-91126908D03*
X179136400Y-94946785D03*
X118151000Y-108918200D03*
X134810103Y-149101000D03*
X125475100Y-107775200D03*
X143426816Y-149101000D03*
X109979457Y-109553200D03*
X119822700Y-107775200D03*
X174564400Y-109553200D03*
X107584600Y-77586359D03*
X113883800Y-149101000D03*
X107584600Y-132979514D03*
X141301820Y-107775200D03*
X179136400Y-113411170D03*
X179136400Y-123258842D03*
X140964898Y-149101000D03*
X160660242Y-149101000D03*
X121269554Y-149101000D03*
X149581611Y-149101000D03*
X123731472Y-149101000D03*
X107584600Y-140365268D03*
X107584600Y-83741154D03*
X107584600Y-125593760D03*
X139733939Y-149101000D03*
X146268800Y-112448800D03*
X179136400Y-119565965D03*
X107584600Y-130517596D03*
X179136400Y-110949252D03*
X179136400Y-93715826D03*
X113658828Y-109553200D03*
X139166600Y-107746800D03*
X131127500Y-107775200D03*
X107584600Y-84972113D03*
X179136400Y-101101580D03*
X179136400Y-141723227D03*
X179136400Y-76482400D03*
X107584600Y-114515129D03*
X179136400Y-117104047D03*
X156225600Y-135207200D03*
X179136400Y-128182678D03*
X114885285Y-109553200D03*
X158041700Y-113071100D03*
X107584600Y-135441432D03*
X133670400Y-100157400D03*
X179136400Y-120796924D03*
X128655308Y-149101000D03*
X148310600Y-107746800D03*
X179136400Y-90022949D03*
X136779900Y-107775200D03*
X179136400Y-140492268D03*
X143562780Y-107775200D03*
X107584600Y-99743621D03*
X148199200Y-88877600D03*
X107584600Y-113284170D03*
X107584600Y-86203072D03*
X144657775Y-149101000D03*
X124344620Y-107775200D03*
X107584600Y-124362801D03*
X121021200Y-123853400D03*
X118807636Y-149101000D03*
X169276955Y-149101000D03*
X107584600Y-115746088D03*
X135956400Y-118214600D03*
X128284200Y-144987600D03*
X125339200Y-96167400D03*
X122083660Y-107775200D03*
X107584600Y-92357867D03*
X129886267Y-149101000D03*
X145888734Y-149101000D03*
X132348185Y-149101000D03*
X179136400Y-80175277D03*
X107584600Y-139134309D03*
X107584600Y-131748555D03*
X107584600Y-128055678D03*
X179136400Y-83868154D03*
X107584600Y-105898416D03*
X179136400Y-139261309D03*
X179136400Y-91253908D03*
X166815037Y-149101000D03*
X107584600Y-104667457D03*
X148350652Y-149101000D03*
X107584600Y-82510195D03*
X107584600Y-142827200D03*
X155736406Y-149101000D03*
X134518940Y-107775200D03*
X107584600Y-141596227D03*
X139084200Y-88454000D03*
X147594200Y-105104000D03*
X137454200Y-115394000D03*
X137454200Y-105154000D03*
X135089000Y-135617400D03*
X148250000Y-137137600D03*
X157876600Y-107953000D03*
X157825800Y-114760200D03*
X176520200Y-139195000D03*
X171364000Y-115641200D03*
X157876600Y-112067800D03*
X162143800Y-78539800D03*
X154854000Y-135094000D03*
X140426800Y-137137600D03*
X161254200Y-95014000D03*
X123053200Y-140833800D03*
X133424200Y-128754000D03*
X133424200Y-131234000D03*
X171160800Y-99164600D03*
X168595400Y-78260400D03*
X141324596Y-94753604D03*
X128864200Y-98215600D03*
X143414200Y-101024000D03*
X173272600Y-122898187D03*
X176023200Y-123563000D03*
X169074200Y-116324000D03*
X177094200Y-116864000D03*
X152284200Y-145384000D03*
X152284200Y-138242400D03*
X163284200Y-145384000D03*
X164864200Y-121544000D03*
X164294200Y-145384000D03*
X174032600Y-128964000D03*
X165274200Y-145374000D03*
X174634200Y-126564000D03*
X147284200Y-145384000D03*
X147284200Y-141314000D03*
X162364200Y-131065600D03*
X146284200Y-145384000D03*
X154284200Y-145364000D03*
X154284200Y-136884000D03*
X148284200Y-140642400D03*
X148284200Y-145384000D03*
X173249200Y-129409000D03*
X161284200Y-145394000D03*
X168709200Y-127969000D03*
X158284200Y-145384000D03*
X160454200Y-129964000D03*
X144284200Y-145384000D03*
X150284200Y-145384000D03*
X150284200Y-139462400D03*
X153284200Y-137584000D03*
X153294200Y-145384000D03*
X172414200Y-129884000D03*
X160284200Y-145384000D03*
X149294200Y-145384000D03*
X149284200Y-140062400D03*
X155284200Y-145384000D03*
X162781200Y-133357000D03*
X156294200Y-145384000D03*
X164784200Y-125334000D03*
X145284200Y-145384000D03*
X161474200Y-130565600D03*
X164274200Y-120884000D03*
X162284200Y-145384000D03*
X151284200Y-138864000D03*
X151284200Y-145384000D03*
X157284200Y-145384000D03*
X165624200Y-125414000D03*
X169001800Y-129111200D03*
X159284200Y-145384000D03*
X161654200Y-105744000D03*
X165764200Y-112344000D03*
X168284200Y-114544000D03*
X175644200Y-108145600D03*
X166824200Y-106844000D03*
X167504200Y-113444000D03*
X159064200Y-128824000D03*
X132574200Y-121064000D03*
X130104200Y-117494000D03*
X157864200Y-130434000D03*
X143364200Y-120744000D03*
X164182600Y-131844000D03*
X163119200Y-132099000D03*
X142314200Y-118234000D03*
X144234200Y-111274000D03*
X159764200Y-126314000D03*
X159785800Y-109134000D03*
X157314200Y-132594000D03*
X134854200Y-127674000D03*
X134082600Y-124982152D03*
X157764200Y-131324000D03*
X158044200Y-132264000D03*
X136126800Y-128164000D03*
X135324200Y-123194000D03*
X158464200Y-129584000D03*
G04 #@! TA.AperFunction,Conductor*
G36*
X119767083Y-70134185D02*
G01*
X119812838Y-70186989D01*
X119822782Y-70256147D01*
X119793757Y-70319703D01*
X119774354Y-70337767D01*
X119652637Y-70428882D01*
X119652636Y-70428883D01*
X120593443Y-71369689D01*
X120547626Y-71388668D01*
X120432976Y-71465274D01*
X120335474Y-71562776D01*
X120258868Y-71677426D01*
X120239890Y-71723243D01*
X119299083Y-70782436D01*
X119299082Y-70782437D01*
X119192396Y-70924953D01*
X119192391Y-70924961D01*
X119055291Y-71176041D01*
X118955309Y-71444104D01*
X118894500Y-71723637D01*
X118874091Y-72008998D01*
X118874091Y-72009001D01*
X118894500Y-72294362D01*
X118955309Y-72573895D01*
X119055291Y-72841958D01*
X119192391Y-73093038D01*
X119192396Y-73093046D01*
X119299082Y-73235561D01*
X119299083Y-73235562D01*
X120239889Y-72294756D01*
X120258868Y-72340574D01*
X120335474Y-72455224D01*
X120432976Y-72552726D01*
X120547626Y-72629332D01*
X120593442Y-72648309D01*
X119652636Y-73589115D01*
X119795160Y-73695807D01*
X119795161Y-73695808D01*
X120046242Y-73832908D01*
X120046241Y-73832908D01*
X120314304Y-73932890D01*
X120593837Y-73993699D01*
X120879199Y-74014109D01*
X120879201Y-74014109D01*
X121164562Y-73993699D01*
X121444095Y-73932890D01*
X121712158Y-73832908D01*
X121963247Y-73695803D01*
X122105761Y-73589116D01*
X122105762Y-73589115D01*
X121164957Y-72648309D01*
X121210774Y-72629332D01*
X121325424Y-72552726D01*
X121422926Y-72455224D01*
X121499532Y-72340574D01*
X121518509Y-72294756D01*
X122459315Y-73235562D01*
X122459316Y-73235561D01*
X122566003Y-73093047D01*
X122703108Y-72841958D01*
X122803090Y-72573895D01*
X122863899Y-72294362D01*
X122884309Y-72009001D01*
X122884309Y-72008998D01*
X122863899Y-71723637D01*
X122803090Y-71444104D01*
X122703108Y-71176041D01*
X122566008Y-70924961D01*
X122566007Y-70924960D01*
X122459315Y-70782436D01*
X121518509Y-71723242D01*
X121499532Y-71677426D01*
X121422926Y-71562776D01*
X121325424Y-71465274D01*
X121210774Y-71388668D01*
X121164956Y-71369689D01*
X122105762Y-70428883D01*
X122105761Y-70428882D01*
X121984046Y-70337767D01*
X121942174Y-70281834D01*
X121937190Y-70212142D01*
X121970675Y-70150819D01*
X122031998Y-70117334D01*
X122058356Y-70114500D01*
X135930044Y-70114500D01*
X135997083Y-70134185D01*
X136042838Y-70186989D01*
X136052782Y-70256147D01*
X136023757Y-70319703D01*
X136004354Y-70337767D01*
X135882637Y-70428882D01*
X135882636Y-70428883D01*
X136823443Y-71369689D01*
X136777626Y-71388668D01*
X136662976Y-71465274D01*
X136565474Y-71562776D01*
X136488868Y-71677426D01*
X136469890Y-71723243D01*
X135529083Y-70782436D01*
X135529082Y-70782437D01*
X135422396Y-70924953D01*
X135422391Y-70924961D01*
X135285291Y-71176041D01*
X135185309Y-71444104D01*
X135124500Y-71723637D01*
X135104091Y-72008998D01*
X135104091Y-72009001D01*
X135124500Y-72294362D01*
X135185309Y-72573895D01*
X135285291Y-72841958D01*
X135422391Y-73093038D01*
X135422396Y-73093046D01*
X135529082Y-73235561D01*
X135529083Y-73235562D01*
X136469889Y-72294756D01*
X136488868Y-72340574D01*
X136565474Y-72455224D01*
X136662976Y-72552726D01*
X136777626Y-72629332D01*
X136823442Y-72648309D01*
X135882636Y-73589115D01*
X136025160Y-73695807D01*
X136025161Y-73695808D01*
X136276242Y-73832908D01*
X136276241Y-73832908D01*
X136544304Y-73932890D01*
X136823837Y-73993699D01*
X137109199Y-74014109D01*
X137109201Y-74014109D01*
X137394562Y-73993699D01*
X137674095Y-73932890D01*
X137942158Y-73832908D01*
X138193247Y-73695803D01*
X138335761Y-73589116D01*
X138335762Y-73589115D01*
X137394957Y-72648309D01*
X137440774Y-72629332D01*
X137555424Y-72552726D01*
X137652926Y-72455224D01*
X137729532Y-72340574D01*
X137748509Y-72294756D01*
X138689315Y-73235562D01*
X138689316Y-73235561D01*
X138796003Y-73093047D01*
X138933108Y-72841958D01*
X139033090Y-72573895D01*
X139093899Y-72294362D01*
X139114309Y-72009001D01*
X139114309Y-72008998D01*
X139093899Y-71723637D01*
X139033090Y-71444104D01*
X138933108Y-71176041D01*
X138796008Y-70924961D01*
X138796007Y-70924960D01*
X138689315Y-70782436D01*
X137748509Y-71723242D01*
X137729532Y-71677426D01*
X137652926Y-71562776D01*
X137555424Y-71465274D01*
X137440774Y-71388668D01*
X137394956Y-71369689D01*
X138335762Y-70428883D01*
X138335761Y-70428882D01*
X138214046Y-70337767D01*
X138172174Y-70281834D01*
X138167190Y-70212142D01*
X138200675Y-70150819D01*
X138261998Y-70117334D01*
X138288356Y-70114500D01*
X140952948Y-70114500D01*
X141019987Y-70134185D01*
X141065742Y-70186989D01*
X141075686Y-70256147D01*
X141046661Y-70319703D01*
X141012374Y-70347332D01*
X140985166Y-70362188D01*
X140985153Y-70362196D01*
X140842637Y-70468882D01*
X140842636Y-70468883D01*
X141783443Y-71409689D01*
X141737626Y-71428668D01*
X141622976Y-71505274D01*
X141525474Y-71602776D01*
X141448868Y-71717426D01*
X141429890Y-71763243D01*
X140489083Y-70822436D01*
X140489082Y-70822437D01*
X140382396Y-70964953D01*
X140382391Y-70964961D01*
X140245291Y-71216041D01*
X140145309Y-71484104D01*
X140084500Y-71763637D01*
X140064091Y-72048998D01*
X140064091Y-72049001D01*
X140084500Y-72334362D01*
X140145309Y-72613895D01*
X140245291Y-72881958D01*
X140382391Y-73133038D01*
X140382396Y-73133046D01*
X140489082Y-73275561D01*
X140489083Y-73275562D01*
X141429889Y-72334756D01*
X141448868Y-72380574D01*
X141525474Y-72495224D01*
X141622976Y-72592726D01*
X141737626Y-72669332D01*
X141783442Y-72688309D01*
X140842636Y-73629115D01*
X140985160Y-73735807D01*
X140985161Y-73735808D01*
X141236242Y-73872908D01*
X141236241Y-73872908D01*
X141504304Y-73972890D01*
X141783837Y-74033699D01*
X142069199Y-74054109D01*
X142069201Y-74054109D01*
X142354562Y-74033699D01*
X142634095Y-73972890D01*
X142902158Y-73872908D01*
X143153247Y-73735803D01*
X143295761Y-73629116D01*
X143295762Y-73629115D01*
X142354957Y-72688309D01*
X142400774Y-72669332D01*
X142515424Y-72592726D01*
X142612926Y-72495224D01*
X142689532Y-72380574D01*
X142708509Y-72334756D01*
X143649315Y-73275562D01*
X143649316Y-73275561D01*
X143756003Y-73133047D01*
X143893108Y-72881958D01*
X143993090Y-72613895D01*
X144053899Y-72334362D01*
X144074309Y-72049001D01*
X144074309Y-72048998D01*
X144053899Y-71763637D01*
X143993090Y-71484104D01*
X143893108Y-71216041D01*
X143756008Y-70964961D01*
X143756007Y-70964960D01*
X143649315Y-70822436D01*
X142708509Y-71763242D01*
X142689532Y-71717426D01*
X142612926Y-71602776D01*
X142515424Y-71505274D01*
X142400774Y-71428668D01*
X142354956Y-71409689D01*
X143295762Y-70468883D01*
X143295761Y-70468882D01*
X143153246Y-70362196D01*
X143153233Y-70362188D01*
X143126026Y-70347332D01*
X143076620Y-70297927D01*
X143061768Y-70229654D01*
X143086185Y-70164190D01*
X143142118Y-70122318D01*
X143185452Y-70114500D01*
X157182948Y-70114500D01*
X157249987Y-70134185D01*
X157295742Y-70186989D01*
X157305686Y-70256147D01*
X157276661Y-70319703D01*
X157242374Y-70347332D01*
X157215166Y-70362188D01*
X157215153Y-70362196D01*
X157072637Y-70468882D01*
X157072636Y-70468883D01*
X158013443Y-71409689D01*
X157967626Y-71428668D01*
X157852976Y-71505274D01*
X157755474Y-71602776D01*
X157678868Y-71717426D01*
X157659890Y-71763243D01*
X156719083Y-70822436D01*
X156719082Y-70822437D01*
X156612396Y-70964953D01*
X156612391Y-70964961D01*
X156475291Y-71216041D01*
X156375309Y-71484104D01*
X156314500Y-71763637D01*
X156294091Y-72048998D01*
X156294091Y-72049001D01*
X156314500Y-72334362D01*
X156375309Y-72613895D01*
X156475291Y-72881958D01*
X156612391Y-73133038D01*
X156612396Y-73133046D01*
X156719082Y-73275561D01*
X156719083Y-73275562D01*
X157659889Y-72334756D01*
X157678868Y-72380574D01*
X157755474Y-72495224D01*
X157852976Y-72592726D01*
X157967626Y-72669332D01*
X158013442Y-72688309D01*
X157072636Y-73629115D01*
X157215160Y-73735807D01*
X157215161Y-73735808D01*
X157466242Y-73872908D01*
X157466241Y-73872908D01*
X157734304Y-73972890D01*
X158013837Y-74033699D01*
X158299199Y-74054109D01*
X158299201Y-74054109D01*
X158584562Y-74033699D01*
X158864095Y-73972890D01*
X159132158Y-73872908D01*
X159383247Y-73735803D01*
X159525761Y-73629116D01*
X159525762Y-73629115D01*
X158584957Y-72688309D01*
X158630774Y-72669332D01*
X158745424Y-72592726D01*
X158842926Y-72495224D01*
X158919532Y-72380574D01*
X158938509Y-72334756D01*
X159879315Y-73275562D01*
X159879316Y-73275561D01*
X159986003Y-73133047D01*
X160123108Y-72881958D01*
X160223090Y-72613895D01*
X160283899Y-72334362D01*
X160304309Y-72049001D01*
X160304309Y-72048998D01*
X160283899Y-71763637D01*
X160223090Y-71484104D01*
X160123108Y-71216041D01*
X159986008Y-70964961D01*
X159986007Y-70964960D01*
X159879315Y-70822436D01*
X158938509Y-71763242D01*
X158919532Y-71717426D01*
X158842926Y-71602776D01*
X158745424Y-71505274D01*
X158630774Y-71428668D01*
X158584956Y-71409689D01*
X159525762Y-70468883D01*
X159525761Y-70468882D01*
X159383246Y-70362196D01*
X159383233Y-70362188D01*
X159356026Y-70347332D01*
X159306620Y-70297927D01*
X159291768Y-70229654D01*
X159316185Y-70164190D01*
X159372118Y-70122318D01*
X159415452Y-70114500D01*
X173710842Y-70114500D01*
X173777881Y-70134185D01*
X173823636Y-70186989D01*
X173833580Y-70256147D01*
X173804555Y-70319703D01*
X173788879Y-70334865D01*
X173783416Y-70339289D01*
X173584688Y-70500215D01*
X173584680Y-70500222D01*
X173310422Y-70774480D01*
X173310415Y-70774488D01*
X173066322Y-71075917D01*
X172855077Y-71401206D01*
X172678987Y-71746802D01*
X172539988Y-72108905D01*
X172439597Y-72483570D01*
X172439597Y-72483572D01*
X172378922Y-72866660D01*
X172358622Y-73253999D01*
X172358622Y-73254000D01*
X172378922Y-73641339D01*
X172415599Y-73872908D01*
X172439598Y-74024433D01*
X172526590Y-74349094D01*
X172539988Y-74399094D01*
X172678987Y-74761197D01*
X172855077Y-75106793D01*
X173066322Y-75432082D01*
X173190010Y-75584823D01*
X173310419Y-75733516D01*
X173584684Y-76007781D01*
X173584688Y-76007784D01*
X173886117Y-76251877D01*
X174135463Y-76413804D01*
X174211411Y-76463125D01*
X174557006Y-76639214D01*
X174919113Y-76778214D01*
X175293767Y-76878602D01*
X175676862Y-76939278D01*
X176042776Y-76958455D01*
X176064199Y-76959578D01*
X176064200Y-76959578D01*
X176064201Y-76959578D01*
X176084501Y-76958514D01*
X176451538Y-76939278D01*
X176834633Y-76878602D01*
X177209287Y-76778214D01*
X177571394Y-76639214D01*
X177916989Y-76463125D01*
X178242284Y-76251876D01*
X178543716Y-76007781D01*
X178817981Y-75733516D01*
X178933334Y-75591066D01*
X178990821Y-75551356D01*
X179060652Y-75549028D01*
X179120656Y-75584823D01*
X179151782Y-75647377D01*
X179153700Y-75669103D01*
X179153700Y-143670642D01*
X179134015Y-143737681D01*
X179081211Y-143783436D01*
X179012053Y-143793380D01*
X178948497Y-143764355D01*
X178933334Y-143748678D01*
X178767984Y-143544488D01*
X178767981Y-143544484D01*
X178493716Y-143270219D01*
X178192284Y-143026124D01*
X178192282Y-143026122D01*
X177866993Y-142814877D01*
X177521397Y-142638787D01*
X177159294Y-142499788D01*
X177159287Y-142499786D01*
X176784633Y-142399398D01*
X176784629Y-142399397D01*
X176784628Y-142399397D01*
X176401539Y-142338722D01*
X176014201Y-142318422D01*
X176014199Y-142318422D01*
X175626860Y-142338722D01*
X175243772Y-142399397D01*
X175243770Y-142399397D01*
X174869105Y-142499788D01*
X174507002Y-142638787D01*
X174161406Y-142814877D01*
X173836117Y-143026122D01*
X173534688Y-143270215D01*
X173534680Y-143270222D01*
X173260422Y-143544480D01*
X173260415Y-143544488D01*
X173016322Y-143845917D01*
X172805077Y-144171206D01*
X172628987Y-144516802D01*
X172489988Y-144878905D01*
X172389597Y-145253570D01*
X172389597Y-145253572D01*
X172328922Y-145636660D01*
X172308622Y-146023999D01*
X172308622Y-146024000D01*
X172328922Y-146411339D01*
X172389597Y-146794427D01*
X172389597Y-146794429D01*
X172489988Y-147169094D01*
X172628987Y-147531197D01*
X172805077Y-147876793D01*
X173016322Y-148202082D01*
X173131245Y-148344000D01*
X173260419Y-148503516D01*
X173534684Y-148777781D01*
X173534688Y-148777784D01*
X173677133Y-148893134D01*
X173716844Y-148950621D01*
X173719172Y-149020452D01*
X173683377Y-149080456D01*
X173620823Y-149111582D01*
X173599097Y-149113500D01*
X113009303Y-149113500D01*
X112942264Y-149093815D01*
X112896509Y-149041011D01*
X112886565Y-148971853D01*
X112915590Y-148908297D01*
X112931267Y-148893134D01*
X112937460Y-148888119D01*
X113073716Y-148777781D01*
X113347981Y-148503516D01*
X113592076Y-148202084D01*
X113803325Y-147876789D01*
X113979414Y-147531194D01*
X114118414Y-147169087D01*
X114218802Y-146794433D01*
X114279478Y-146411338D01*
X114299778Y-146024000D01*
X114279478Y-145636662D01*
X114239460Y-145383996D01*
X143478635Y-145383996D01*
X143478635Y-145384003D01*
X143498830Y-145563249D01*
X143498831Y-145563254D01*
X143558411Y-145733523D01*
X143648101Y-145876262D01*
X143654384Y-145886262D01*
X143781938Y-146013816D01*
X143852215Y-146057974D01*
X143918761Y-146099788D01*
X143934678Y-146109789D01*
X144104945Y-146169368D01*
X144104950Y-146169369D01*
X144284196Y-146189565D01*
X144284200Y-146189565D01*
X144284204Y-146189565D01*
X144463449Y-146169369D01*
X144463452Y-146169368D01*
X144463455Y-146169368D01*
X144633722Y-146109789D01*
X144649639Y-146099788D01*
X144718227Y-146056691D01*
X144785464Y-146037690D01*
X144850173Y-146056691D01*
X144934675Y-146109788D01*
X145104945Y-146169368D01*
X145104950Y-146169369D01*
X145284196Y-146189565D01*
X145284200Y-146189565D01*
X145284204Y-146189565D01*
X145463449Y-146169369D01*
X145463452Y-146169368D01*
X145463455Y-146169368D01*
X145633722Y-146109789D01*
X145649639Y-146099788D01*
X145718227Y-146056691D01*
X145785464Y-146037690D01*
X145850173Y-146056691D01*
X145934675Y-146109788D01*
X146104945Y-146169368D01*
X146104950Y-146169369D01*
X146284196Y-146189565D01*
X146284200Y-146189565D01*
X146284204Y-146189565D01*
X146463449Y-146169369D01*
X146463452Y-146169368D01*
X146463455Y-146169368D01*
X146633722Y-146109789D01*
X146649639Y-146099788D01*
X146718227Y-146056691D01*
X146785464Y-146037690D01*
X146850173Y-146056691D01*
X146934675Y-146109788D01*
X147104945Y-146169368D01*
X147104950Y-146169369D01*
X147284196Y-146189565D01*
X147284200Y-146189565D01*
X147284204Y-146189565D01*
X147463449Y-146169369D01*
X147463452Y-146169368D01*
X147463455Y-146169368D01*
X147633722Y-146109789D01*
X147649639Y-146099788D01*
X147718227Y-146056691D01*
X147785464Y-146037690D01*
X147850173Y-146056691D01*
X147934675Y-146109788D01*
X148104945Y-146169368D01*
X148104950Y-146169369D01*
X148284196Y-146189565D01*
X148284200Y-146189565D01*
X148284204Y-146189565D01*
X148463449Y-146169369D01*
X148463452Y-146169368D01*
X148463455Y-146169368D01*
X148633722Y-146109789D01*
X148649639Y-146099788D01*
X148716185Y-146057974D01*
X148723227Y-146053548D01*
X148790464Y-146034548D01*
X148855172Y-146053548D01*
X148862215Y-146057974D01*
X148944675Y-146109788D01*
X149114945Y-146169368D01*
X149114950Y-146169369D01*
X149294196Y-146189565D01*
X149294200Y-146189565D01*
X149294204Y-146189565D01*
X149473449Y-146169369D01*
X149473452Y-146169368D01*
X149473455Y-146169368D01*
X149643722Y-146109789D01*
X149723228Y-146059831D01*
X149790464Y-146040832D01*
X149855172Y-146059832D01*
X149918761Y-146099788D01*
X149934678Y-146109789D01*
X150104945Y-146169368D01*
X150104950Y-146169369D01*
X150284196Y-146189565D01*
X150284200Y-146189565D01*
X150284204Y-146189565D01*
X150463449Y-146169369D01*
X150463452Y-146169368D01*
X150463455Y-146169368D01*
X150633722Y-146109789D01*
X150649639Y-146099788D01*
X150718227Y-146056691D01*
X150785464Y-146037690D01*
X150850173Y-146056691D01*
X150934675Y-146109788D01*
X151104945Y-146169368D01*
X151104950Y-146169369D01*
X151284196Y-146189565D01*
X151284200Y-146189565D01*
X151284204Y-146189565D01*
X151463449Y-146169369D01*
X151463452Y-146169368D01*
X151463455Y-146169368D01*
X151633722Y-146109789D01*
X151649639Y-146099788D01*
X151718227Y-146056691D01*
X151785464Y-146037690D01*
X151850173Y-146056691D01*
X151934675Y-146109788D01*
X152104945Y-146169368D01*
X152104950Y-146169369D01*
X152284196Y-146189565D01*
X152284200Y-146189565D01*
X152284204Y-146189565D01*
X152463449Y-146169369D01*
X152463452Y-146169368D01*
X152463455Y-146169368D01*
X152633722Y-146109789D01*
X152649639Y-146099788D01*
X152716185Y-146057974D01*
X152723227Y-146053548D01*
X152790464Y-146034548D01*
X152855172Y-146053548D01*
X152862215Y-146057974D01*
X152944675Y-146109788D01*
X153114945Y-146169368D01*
X153114950Y-146169369D01*
X153294196Y-146189565D01*
X153294200Y-146189565D01*
X153294204Y-146189565D01*
X153473449Y-146169369D01*
X153473452Y-146169368D01*
X153473455Y-146169368D01*
X153643722Y-146109789D01*
X153659639Y-146099788D01*
X153726185Y-146057974D01*
X153739141Y-146049832D01*
X153806378Y-146030832D01*
X153871085Y-146049832D01*
X153934679Y-146089790D01*
X154104937Y-146149366D01*
X154104943Y-146149367D01*
X154104945Y-146149368D01*
X154104946Y-146149368D01*
X154104950Y-146149369D01*
X154284196Y-146169565D01*
X154284200Y-146169565D01*
X154284204Y-146169565D01*
X154463449Y-146149369D01*
X154463452Y-146149368D01*
X154463455Y-146149368D01*
X154633722Y-146089789D01*
X154678440Y-146061691D01*
X154702312Y-146046691D01*
X154769549Y-146027690D01*
X154834256Y-146046689D01*
X154934678Y-146109789D01*
X155104945Y-146169368D01*
X155104950Y-146169369D01*
X155284196Y-146189565D01*
X155284200Y-146189565D01*
X155284204Y-146189565D01*
X155463449Y-146169369D01*
X155463452Y-146169368D01*
X155463455Y-146169368D01*
X155633722Y-146109789D01*
X155649639Y-146099788D01*
X155716185Y-146057974D01*
X155723227Y-146053548D01*
X155790464Y-146034548D01*
X155855172Y-146053548D01*
X155862215Y-146057974D01*
X155944675Y-146109788D01*
X156114945Y-146169368D01*
X156114950Y-146169369D01*
X156294196Y-146189565D01*
X156294200Y-146189565D01*
X156294204Y-146189565D01*
X156473449Y-146169369D01*
X156473452Y-146169368D01*
X156473455Y-146169368D01*
X156643722Y-146109789D01*
X156723228Y-146059831D01*
X156790464Y-146040832D01*
X156855172Y-146059832D01*
X156918761Y-146099788D01*
X156934678Y-146109789D01*
X157104945Y-146169368D01*
X157104950Y-146169369D01*
X157284196Y-146189565D01*
X157284200Y-146189565D01*
X157284204Y-146189565D01*
X157463449Y-146169369D01*
X157463452Y-146169368D01*
X157463455Y-146169368D01*
X157633722Y-146109789D01*
X157649639Y-146099788D01*
X157718227Y-146056691D01*
X157785464Y-146037690D01*
X157850173Y-146056691D01*
X157934675Y-146109788D01*
X158104945Y-146169368D01*
X158104950Y-146169369D01*
X158284196Y-146189565D01*
X158284200Y-146189565D01*
X158284204Y-146189565D01*
X158463449Y-146169369D01*
X158463452Y-146169368D01*
X158463455Y-146169368D01*
X158633722Y-146109789D01*
X158649639Y-146099788D01*
X158718227Y-146056691D01*
X158785464Y-146037690D01*
X158850173Y-146056691D01*
X158934675Y-146109788D01*
X159104945Y-146169368D01*
X159104950Y-146169369D01*
X159284196Y-146189565D01*
X159284200Y-146189565D01*
X159284204Y-146189565D01*
X159463449Y-146169369D01*
X159463452Y-146169368D01*
X159463455Y-146169368D01*
X159633722Y-146109789D01*
X159649639Y-146099788D01*
X159718227Y-146056691D01*
X159785464Y-146037690D01*
X159850173Y-146056691D01*
X159934675Y-146109788D01*
X160104945Y-146169368D01*
X160104950Y-146169369D01*
X160284196Y-146189565D01*
X160284200Y-146189565D01*
X160284204Y-146189565D01*
X160463449Y-146169369D01*
X160463452Y-146169368D01*
X160463455Y-146169368D01*
X160633722Y-146109789D01*
X160649639Y-146099788D01*
X160710269Y-146061691D01*
X160777506Y-146042690D01*
X160842214Y-146061690D01*
X160918761Y-146109788D01*
X160934678Y-146119789D01*
X161076930Y-146169565D01*
X161104945Y-146179368D01*
X161104950Y-146179369D01*
X161284196Y-146199565D01*
X161284200Y-146199565D01*
X161284204Y-146199565D01*
X161463449Y-146179369D01*
X161463452Y-146179368D01*
X161463455Y-146179368D01*
X161633722Y-146119789D01*
X161649639Y-146109788D01*
X161726184Y-146061691D01*
X161793421Y-146042690D01*
X161858129Y-146061690D01*
X161934678Y-146109789D01*
X162104945Y-146169368D01*
X162104950Y-146169369D01*
X162284196Y-146189565D01*
X162284200Y-146189565D01*
X162284204Y-146189565D01*
X162463449Y-146169369D01*
X162463452Y-146169368D01*
X162463455Y-146169368D01*
X162633722Y-146109789D01*
X162649639Y-146099788D01*
X162718227Y-146056691D01*
X162785464Y-146037690D01*
X162850173Y-146056691D01*
X162934675Y-146109788D01*
X163104945Y-146169368D01*
X163104950Y-146169369D01*
X163284196Y-146189565D01*
X163284200Y-146189565D01*
X163284204Y-146189565D01*
X163463449Y-146169369D01*
X163463452Y-146169368D01*
X163463455Y-146169368D01*
X163633722Y-146109789D01*
X163649639Y-146099788D01*
X163716185Y-146057974D01*
X163723227Y-146053548D01*
X163790464Y-146034548D01*
X163855172Y-146053548D01*
X163862215Y-146057974D01*
X163944675Y-146109788D01*
X164114945Y-146169368D01*
X164114950Y-146169369D01*
X164294196Y-146189565D01*
X164294200Y-146189565D01*
X164294204Y-146189565D01*
X164473449Y-146169369D01*
X164473452Y-146169368D01*
X164473455Y-146169368D01*
X164643722Y-146109789D01*
X164726185Y-146057973D01*
X164793420Y-146038973D01*
X164858128Y-146057973D01*
X164924676Y-146099788D01*
X164924678Y-146099789D01*
X165094945Y-146159368D01*
X165094950Y-146159369D01*
X165274196Y-146179565D01*
X165274200Y-146179565D01*
X165274204Y-146179565D01*
X165453449Y-146159369D01*
X165453452Y-146159368D01*
X165453455Y-146159368D01*
X165623722Y-146099789D01*
X165776462Y-146003816D01*
X165904016Y-145876262D01*
X165999989Y-145723522D01*
X166059568Y-145553255D01*
X166078638Y-145384003D01*
X166079765Y-145374003D01*
X166079765Y-145373996D01*
X166059569Y-145194750D01*
X166059568Y-145194745D01*
X165999988Y-145024476D01*
X165910299Y-144881738D01*
X165904016Y-144871738D01*
X165776462Y-144744184D01*
X165772157Y-144741479D01*
X165623723Y-144648211D01*
X165453454Y-144588631D01*
X165453449Y-144588630D01*
X165274204Y-144568435D01*
X165274196Y-144568435D01*
X165094950Y-144588630D01*
X165094937Y-144588633D01*
X164924679Y-144648209D01*
X164842213Y-144700026D01*
X164774976Y-144719026D01*
X164710270Y-144700026D01*
X164643722Y-144658211D01*
X164473454Y-144598631D01*
X164473449Y-144598630D01*
X164294204Y-144578435D01*
X164294196Y-144578435D01*
X164114950Y-144598630D01*
X164114945Y-144598631D01*
X163944676Y-144658211D01*
X163855172Y-144714451D01*
X163787935Y-144733451D01*
X163723228Y-144714451D01*
X163633723Y-144658211D01*
X163463454Y-144598631D01*
X163463449Y-144598630D01*
X163284204Y-144578435D01*
X163284196Y-144578435D01*
X163104950Y-144598630D01*
X163104937Y-144598633D01*
X162934679Y-144658209D01*
X162850171Y-144711309D01*
X162782934Y-144730309D01*
X162718229Y-144711309D01*
X162633720Y-144658209D01*
X162463462Y-144598633D01*
X162463449Y-144598630D01*
X162284204Y-144578435D01*
X162284196Y-144578435D01*
X162104950Y-144598630D01*
X162104945Y-144598631D01*
X161934674Y-144658212D01*
X161842213Y-144716309D01*
X161774977Y-144735309D01*
X161710270Y-144716309D01*
X161633723Y-144668211D01*
X161463454Y-144608631D01*
X161463449Y-144608630D01*
X161284204Y-144588435D01*
X161284196Y-144588435D01*
X161104950Y-144608630D01*
X161104937Y-144608633D01*
X160934682Y-144668208D01*
X160858128Y-144716310D01*
X160790891Y-144735309D01*
X160726185Y-144716309D01*
X160633723Y-144658211D01*
X160463454Y-144598631D01*
X160463449Y-144598630D01*
X160284204Y-144578435D01*
X160284196Y-144578435D01*
X160104950Y-144598630D01*
X160104937Y-144598633D01*
X159934679Y-144658209D01*
X159850171Y-144711309D01*
X159782934Y-144730309D01*
X159718229Y-144711309D01*
X159633720Y-144658209D01*
X159463462Y-144598633D01*
X159463449Y-144598630D01*
X159284204Y-144578435D01*
X159284196Y-144578435D01*
X159104950Y-144598630D01*
X159104937Y-144598633D01*
X158934679Y-144658209D01*
X158850171Y-144711309D01*
X158782934Y-144730309D01*
X158718229Y-144711309D01*
X158633720Y-144658209D01*
X158463462Y-144598633D01*
X158463449Y-144598630D01*
X158284204Y-144578435D01*
X158284196Y-144578435D01*
X158104950Y-144598630D01*
X158104937Y-144598633D01*
X157934679Y-144658209D01*
X157850171Y-144711309D01*
X157782934Y-144730309D01*
X157718229Y-144711309D01*
X157633720Y-144658209D01*
X157463462Y-144598633D01*
X157463449Y-144598630D01*
X157284204Y-144578435D01*
X157284196Y-144578435D01*
X157104950Y-144598630D01*
X157104937Y-144598633D01*
X156934678Y-144658210D01*
X156855171Y-144708167D01*
X156787934Y-144727167D01*
X156723229Y-144708167D01*
X156643721Y-144658210D01*
X156473462Y-144598633D01*
X156473449Y-144598630D01*
X156294204Y-144578435D01*
X156294196Y-144578435D01*
X156114950Y-144598630D01*
X156114945Y-144598631D01*
X155944676Y-144658211D01*
X155855172Y-144714451D01*
X155787935Y-144733451D01*
X155723228Y-144714451D01*
X155633723Y-144658211D01*
X155463454Y-144598631D01*
X155463449Y-144598630D01*
X155284204Y-144578435D01*
X155284196Y-144578435D01*
X155104950Y-144598630D01*
X155104937Y-144598633D01*
X154934680Y-144658209D01*
X154866084Y-144701310D01*
X154798847Y-144720309D01*
X154734142Y-144701309D01*
X154633723Y-144638211D01*
X154463454Y-144578631D01*
X154463449Y-144578630D01*
X154284204Y-144558435D01*
X154284196Y-144558435D01*
X154104950Y-144578630D01*
X154104945Y-144578631D01*
X153934674Y-144638212D01*
X153839256Y-144698167D01*
X153772020Y-144717167D01*
X153707314Y-144698168D01*
X153659632Y-144668208D01*
X153643722Y-144658211D01*
X153643721Y-144658210D01*
X153643717Y-144658208D01*
X153473462Y-144598633D01*
X153473449Y-144598630D01*
X153294204Y-144578435D01*
X153294196Y-144578435D01*
X153114950Y-144598630D01*
X153114945Y-144598631D01*
X152944676Y-144658211D01*
X152855172Y-144714451D01*
X152787935Y-144733451D01*
X152723228Y-144714451D01*
X152633723Y-144658211D01*
X152463454Y-144598631D01*
X152463449Y-144598630D01*
X152284204Y-144578435D01*
X152284196Y-144578435D01*
X152104950Y-144598630D01*
X152104937Y-144598633D01*
X151934679Y-144658209D01*
X151850171Y-144711309D01*
X151782934Y-144730309D01*
X151718229Y-144711309D01*
X151633720Y-144658209D01*
X151463462Y-144598633D01*
X151463449Y-144598630D01*
X151284204Y-144578435D01*
X151284196Y-144578435D01*
X151104950Y-144598630D01*
X151104937Y-144598633D01*
X150934679Y-144658209D01*
X150850171Y-144711309D01*
X150782934Y-144730309D01*
X150718229Y-144711309D01*
X150633720Y-144658209D01*
X150463462Y-144598633D01*
X150463449Y-144598630D01*
X150284204Y-144578435D01*
X150284196Y-144578435D01*
X150104950Y-144598630D01*
X150104937Y-144598633D01*
X149934678Y-144658210D01*
X149855171Y-144708167D01*
X149787934Y-144727167D01*
X149723229Y-144708167D01*
X149643721Y-144658210D01*
X149473462Y-144598633D01*
X149473449Y-144598630D01*
X149294204Y-144578435D01*
X149294196Y-144578435D01*
X149114950Y-144598630D01*
X149114945Y-144598631D01*
X148944676Y-144658211D01*
X148855172Y-144714451D01*
X148787935Y-144733451D01*
X148723228Y-144714451D01*
X148633723Y-144658211D01*
X148463454Y-144598631D01*
X148463449Y-144598630D01*
X148284204Y-144578435D01*
X148284196Y-144578435D01*
X148104950Y-144598630D01*
X148104937Y-144598633D01*
X147934679Y-144658209D01*
X147850171Y-144711309D01*
X147782934Y-144730309D01*
X147718229Y-144711309D01*
X147633720Y-144658209D01*
X147463462Y-144598633D01*
X147463449Y-144598630D01*
X147284204Y-144578435D01*
X147284196Y-144578435D01*
X147104950Y-144598630D01*
X147104937Y-144598633D01*
X146934679Y-144658209D01*
X146850171Y-144711309D01*
X146782934Y-144730309D01*
X146718229Y-144711309D01*
X146633720Y-144658209D01*
X146463462Y-144598633D01*
X146463449Y-144598630D01*
X146284204Y-144578435D01*
X146284196Y-144578435D01*
X146104950Y-144598630D01*
X146104937Y-144598633D01*
X145934679Y-144658209D01*
X145850171Y-144711309D01*
X145782934Y-144730309D01*
X145718229Y-144711309D01*
X145633720Y-144658209D01*
X145463462Y-144598633D01*
X145463449Y-144598630D01*
X145284204Y-144578435D01*
X145284196Y-144578435D01*
X145104950Y-144598630D01*
X145104937Y-144598633D01*
X144934679Y-144658209D01*
X144850171Y-144711309D01*
X144782934Y-144730309D01*
X144718229Y-144711309D01*
X144633720Y-144658209D01*
X144463462Y-144598633D01*
X144463449Y-144598630D01*
X144284204Y-144578435D01*
X144284196Y-144578435D01*
X144104950Y-144598630D01*
X144104945Y-144598631D01*
X143934676Y-144658211D01*
X143781937Y-144754184D01*
X143654384Y-144881737D01*
X143558411Y-145034476D01*
X143498831Y-145204745D01*
X143498830Y-145204750D01*
X143478635Y-145383996D01*
X114239460Y-145383996D01*
X114218802Y-145253567D01*
X114118414Y-144878913D01*
X113979414Y-144516806D01*
X113803325Y-144171211D01*
X113803322Y-144171206D01*
X113592077Y-143845917D01*
X113347984Y-143544488D01*
X113347981Y-143544484D01*
X113073716Y-143270219D01*
X112772284Y-143026124D01*
X112772282Y-143026122D01*
X112446993Y-142814877D01*
X112101397Y-142638787D01*
X111739294Y-142499788D01*
X111739287Y-142499786D01*
X111364633Y-142399398D01*
X111364629Y-142399397D01*
X111364628Y-142399397D01*
X110981539Y-142338722D01*
X110594201Y-142318422D01*
X110594199Y-142318422D01*
X110206860Y-142338722D01*
X109823772Y-142399397D01*
X109823770Y-142399397D01*
X109449105Y-142499788D01*
X109087002Y-142638787D01*
X108741406Y-142814877D01*
X108416117Y-143026122D01*
X108114688Y-143270215D01*
X108114680Y-143270222D01*
X107840422Y-143544480D01*
X107840415Y-143544488D01*
X107795066Y-143600490D01*
X107737579Y-143640201D01*
X107667748Y-143642529D01*
X107607744Y-143606733D01*
X107576618Y-143544180D01*
X107574700Y-143522454D01*
X107574700Y-140833796D01*
X122247635Y-140833796D01*
X122247635Y-140833803D01*
X122267830Y-141013049D01*
X122267831Y-141013054D01*
X122327411Y-141183323D01*
X122409523Y-141314003D01*
X122423384Y-141336062D01*
X122550938Y-141463616D01*
X122703678Y-141559589D01*
X122873945Y-141619168D01*
X122873950Y-141619169D01*
X123053196Y-141639365D01*
X123053200Y-141639365D01*
X123053204Y-141639365D01*
X123232449Y-141619169D01*
X123232452Y-141619168D01*
X123232455Y-141619168D01*
X123402722Y-141559589D01*
X123555462Y-141463616D01*
X123683016Y-141336062D01*
X123696881Y-141313996D01*
X146478635Y-141313996D01*
X146478635Y-141314003D01*
X146498830Y-141493249D01*
X146498831Y-141493254D01*
X146558411Y-141663523D01*
X146654384Y-141816262D01*
X146781938Y-141943816D01*
X146934678Y-142039789D01*
X147104945Y-142099368D01*
X147104950Y-142099369D01*
X147284196Y-142119565D01*
X147284200Y-142119565D01*
X147284204Y-142119565D01*
X147463449Y-142099369D01*
X147463452Y-142099368D01*
X147463455Y-142099368D01*
X147633722Y-142039789D01*
X147786462Y-141943816D01*
X147914016Y-141816262D01*
X148009989Y-141663522D01*
X148060295Y-141519754D01*
X148101017Y-141462979D01*
X148165969Y-141437231D01*
X148191221Y-141437489D01*
X148284197Y-141447965D01*
X148284200Y-141447965D01*
X148284204Y-141447965D01*
X148463449Y-141427769D01*
X148463452Y-141427768D01*
X148463455Y-141427768D01*
X148633722Y-141368189D01*
X148786462Y-141272216D01*
X148914016Y-141144662D01*
X149009989Y-140991922D01*
X149029458Y-140936280D01*
X149070179Y-140879505D01*
X149135132Y-140853757D01*
X149160383Y-140854015D01*
X149284196Y-140867965D01*
X149284200Y-140867965D01*
X149284204Y-140867965D01*
X149463449Y-140847769D01*
X149463452Y-140847768D01*
X149463455Y-140847768D01*
X149633722Y-140788189D01*
X149786462Y-140692216D01*
X149914016Y-140564662D01*
X150009989Y-140411922D01*
X150036191Y-140337039D01*
X150076912Y-140280263D01*
X150141864Y-140254515D01*
X150167117Y-140254773D01*
X150284197Y-140267965D01*
X150284200Y-140267965D01*
X150284204Y-140267965D01*
X150463449Y-140247769D01*
X150463452Y-140247768D01*
X150463455Y-140247768D01*
X150633722Y-140188189D01*
X150786462Y-140092216D01*
X150914016Y-139964662D01*
X151009989Y-139811922D01*
X151035653Y-139738576D01*
X151076372Y-139681803D01*
X151141325Y-139656054D01*
X151166575Y-139656311D01*
X151234382Y-139663951D01*
X151284198Y-139669565D01*
X151284200Y-139669565D01*
X151284204Y-139669565D01*
X151463449Y-139649369D01*
X151463452Y-139649368D01*
X151463455Y-139649368D01*
X151633722Y-139589789D01*
X151786462Y-139493816D01*
X151914016Y-139366262D01*
X152009989Y-139213522D01*
X152016471Y-139194996D01*
X175714635Y-139194996D01*
X175714635Y-139195003D01*
X175734830Y-139374249D01*
X175734831Y-139374254D01*
X175794411Y-139544523D01*
X175822854Y-139589789D01*
X175890384Y-139697262D01*
X176017938Y-139824816D01*
X176091295Y-139870909D01*
X176164028Y-139916611D01*
X176170678Y-139920789D01*
X176296060Y-139964662D01*
X176340945Y-139980368D01*
X176340950Y-139980369D01*
X176520196Y-140000565D01*
X176520200Y-140000565D01*
X176520204Y-140000565D01*
X176699449Y-139980369D01*
X176699452Y-139980368D01*
X176699455Y-139980368D01*
X176869722Y-139920789D01*
X177022462Y-139824816D01*
X177150016Y-139697262D01*
X177245989Y-139544522D01*
X177305568Y-139374255D01*
X177306469Y-139366262D01*
X177325765Y-139195003D01*
X177325765Y-139194996D01*
X177305569Y-139015750D01*
X177305566Y-139015737D01*
X177264144Y-138897360D01*
X177260582Y-138827581D01*
X177295310Y-138766954D01*
X177357304Y-138734726D01*
X177370369Y-138732878D01*
X177441408Y-138726663D01*
X177669663Y-138665503D01*
X177883830Y-138565635D01*
X178077401Y-138430095D01*
X178244495Y-138263001D01*
X178380035Y-138069430D01*
X178479903Y-137855263D01*
X178541063Y-137627008D01*
X178561659Y-137391600D01*
X178541063Y-137156192D01*
X178479903Y-136927937D01*
X178380035Y-136713771D01*
X178374292Y-136705568D01*
X178244494Y-136520197D01*
X178077402Y-136353106D01*
X178077401Y-136353105D01*
X177891405Y-136222869D01*
X177847781Y-136168292D01*
X177840588Y-136098793D01*
X177872110Y-136036439D01*
X177891405Y-136019719D01*
X178077082Y-135889705D01*
X178244105Y-135722682D01*
X178379600Y-135529178D01*
X178479429Y-135315092D01*
X178479432Y-135315086D01*
X178536636Y-135101600D01*
X177639012Y-135101600D01*
X177671925Y-135044593D01*
X177706000Y-134917426D01*
X177706000Y-134785774D01*
X177671925Y-134658607D01*
X177639012Y-134601600D01*
X178536636Y-134601600D01*
X178536635Y-134601599D01*
X178479432Y-134388113D01*
X178479429Y-134388107D01*
X178379600Y-134174022D01*
X178379599Y-134174020D01*
X178244113Y-133980526D01*
X178244108Y-133980520D01*
X178077078Y-133813490D01*
X177891405Y-133683479D01*
X177847780Y-133628902D01*
X177840588Y-133559404D01*
X177872110Y-133497049D01*
X177891406Y-133480330D01*
X178077401Y-133350095D01*
X178244495Y-133183001D01*
X178380035Y-132989430D01*
X178479903Y-132775263D01*
X178541063Y-132547008D01*
X178561659Y-132311600D01*
X178541063Y-132076192D01*
X178484158Y-131863816D01*
X178479905Y-131847944D01*
X178479904Y-131847943D01*
X178479903Y-131847937D01*
X178380035Y-131633771D01*
X178364920Y-131612185D01*
X178244496Y-131440200D01*
X178206466Y-131402170D01*
X178122567Y-131318271D01*
X178089084Y-131256951D01*
X178094068Y-131187259D01*
X178135939Y-131131325D01*
X178166915Y-131114410D01*
X178298331Y-131065396D01*
X178413546Y-130979146D01*
X178499796Y-130863931D01*
X178550091Y-130729083D01*
X178556500Y-130669473D01*
X178556499Y-128873728D01*
X178550091Y-128814117D01*
X178547501Y-128807174D01*
X178499797Y-128679271D01*
X178499793Y-128679264D01*
X178413547Y-128564055D01*
X178413544Y-128564052D01*
X178298335Y-128477806D01*
X178298328Y-128477802D01*
X178163482Y-128427508D01*
X178163483Y-128427508D01*
X178103883Y-128421101D01*
X178103881Y-128421100D01*
X178103873Y-128421100D01*
X178103864Y-128421100D01*
X176308129Y-128421100D01*
X176308123Y-128421101D01*
X176248516Y-128427508D01*
X176113671Y-128477802D01*
X176113664Y-128477806D01*
X175998455Y-128564052D01*
X175998452Y-128564055D01*
X175912206Y-128679264D01*
X175912202Y-128679271D01*
X175861908Y-128814117D01*
X175857168Y-128858211D01*
X175855501Y-128873723D01*
X175855500Y-128873735D01*
X175855500Y-130669470D01*
X175855501Y-130669476D01*
X175861908Y-130729083D01*
X175912202Y-130863928D01*
X175912206Y-130863935D01*
X175998452Y-130979144D01*
X175998455Y-130979147D01*
X176113664Y-131065393D01*
X176113671Y-131065397D01*
X176245081Y-131114410D01*
X176301015Y-131156281D01*
X176325432Y-131221745D01*
X176310580Y-131290018D01*
X176289430Y-131318273D01*
X176167503Y-131440200D01*
X176031965Y-131633769D01*
X176031964Y-131633771D01*
X175968906Y-131769000D01*
X175933932Y-131844003D01*
X175932098Y-131847935D01*
X175932094Y-131847944D01*
X175870938Y-132076186D01*
X175870936Y-132076196D01*
X175850341Y-132311599D01*
X175850341Y-132311600D01*
X175870936Y-132547003D01*
X175870938Y-132547013D01*
X175932094Y-132775255D01*
X175932096Y-132775259D01*
X175932097Y-132775263D01*
X175988873Y-132897019D01*
X176031965Y-132989430D01*
X176031967Y-132989434D01*
X176167501Y-133182995D01*
X176167506Y-133183002D01*
X176334597Y-133350093D01*
X176334603Y-133350098D01*
X176520594Y-133480330D01*
X176564219Y-133534907D01*
X176571413Y-133604405D01*
X176539890Y-133666760D01*
X176520595Y-133683480D01*
X176334922Y-133813490D01*
X176334920Y-133813491D01*
X176167891Y-133980520D01*
X176167886Y-133980526D01*
X176032400Y-134174020D01*
X176032399Y-134174022D01*
X175932570Y-134388107D01*
X175932567Y-134388113D01*
X175875364Y-134601599D01*
X175875364Y-134601600D01*
X176772988Y-134601600D01*
X176740075Y-134658607D01*
X176706000Y-134785774D01*
X176706000Y-134917426D01*
X176740075Y-135044593D01*
X176772988Y-135101600D01*
X175875364Y-135101600D01*
X175932567Y-135315086D01*
X175932570Y-135315092D01*
X176032399Y-135529178D01*
X176167894Y-135722682D01*
X176334917Y-135889705D01*
X176520595Y-136019719D01*
X176564219Y-136074296D01*
X176571412Y-136143795D01*
X176539890Y-136206149D01*
X176520595Y-136222869D01*
X176334594Y-136353108D01*
X176167505Y-136520197D01*
X176031965Y-136713769D01*
X176031964Y-136713771D01*
X175932098Y-136927935D01*
X175932094Y-136927944D01*
X175870938Y-137156186D01*
X175870936Y-137156196D01*
X175850341Y-137391599D01*
X175850341Y-137391600D01*
X175870936Y-137627003D01*
X175870938Y-137627013D01*
X175932094Y-137855255D01*
X175932096Y-137855259D01*
X175932097Y-137855263D01*
X175994246Y-137988541D01*
X176031965Y-138069430D01*
X176031967Y-138069434D01*
X176167501Y-138262995D01*
X176167506Y-138263002D01*
X176185418Y-138280914D01*
X176218903Y-138342237D01*
X176213919Y-138411929D01*
X176172047Y-138467862D01*
X176163710Y-138473588D01*
X176017939Y-138565182D01*
X175890384Y-138692737D01*
X175794411Y-138845476D01*
X175734831Y-139015745D01*
X175734830Y-139015750D01*
X175714635Y-139194996D01*
X152016471Y-139194996D01*
X152043463Y-139117857D01*
X152084185Y-139061082D01*
X152149137Y-139035334D01*
X152174385Y-139035591D01*
X152242397Y-139043255D01*
X152284198Y-139047965D01*
X152284200Y-139047965D01*
X152284204Y-139047965D01*
X152463449Y-139027769D01*
X152463452Y-139027768D01*
X152463455Y-139027768D01*
X152633722Y-138968189D01*
X152786462Y-138872216D01*
X152914016Y-138744662D01*
X153009989Y-138591922D01*
X153055852Y-138460852D01*
X153096572Y-138404078D01*
X153161525Y-138378330D01*
X153186775Y-138378587D01*
X153228139Y-138383248D01*
X153284198Y-138389565D01*
X153284200Y-138389565D01*
X153284204Y-138389565D01*
X153463449Y-138369369D01*
X153463452Y-138369368D01*
X153463455Y-138369368D01*
X153633722Y-138309789D01*
X153786462Y-138213816D01*
X153914016Y-138086262D01*
X154009989Y-137933522D01*
X154069568Y-137763255D01*
X154069567Y-137763255D01*
X154069856Y-137762432D01*
X154110578Y-137705655D01*
X154175531Y-137679908D01*
X154200780Y-137680165D01*
X154232193Y-137683705D01*
X154284198Y-137689565D01*
X154284200Y-137689565D01*
X154284204Y-137689565D01*
X154463449Y-137669369D01*
X154463452Y-137669368D01*
X154463455Y-137669368D01*
X154633722Y-137609789D01*
X154786462Y-137513816D01*
X154914016Y-137386262D01*
X155009989Y-137233522D01*
X155069568Y-137063255D01*
X155081388Y-136958350D01*
X155089765Y-136884003D01*
X155089765Y-136883996D01*
X155069569Y-136704750D01*
X155069568Y-136704745D01*
X155009988Y-136534476D01*
X154970782Y-136472080D01*
X154914016Y-136381738D01*
X154786462Y-136254184D01*
X154736625Y-136222869D01*
X154633723Y-136158211D01*
X154463454Y-136098631D01*
X154463449Y-136098630D01*
X154284204Y-136078435D01*
X154284196Y-136078435D01*
X154104950Y-136098630D01*
X154104945Y-136098631D01*
X153934676Y-136158211D01*
X153781937Y-136254184D01*
X153654384Y-136381737D01*
X153558411Y-136534476D01*
X153498544Y-136705568D01*
X153457822Y-136762344D01*
X153392869Y-136788091D01*
X153367619Y-136787833D01*
X153284204Y-136778435D01*
X153284196Y-136778435D01*
X153104950Y-136798630D01*
X153104945Y-136798631D01*
X152934676Y-136858211D01*
X152781937Y-136954184D01*
X152654384Y-137081737D01*
X152558409Y-137234480D01*
X152512547Y-137365546D01*
X152471826Y-137422322D01*
X152406873Y-137448069D01*
X152381623Y-137447811D01*
X152284204Y-137436835D01*
X152284196Y-137436835D01*
X152104950Y-137457030D01*
X152104945Y-137457031D01*
X151934676Y-137516611D01*
X151781937Y-137612584D01*
X151654384Y-137740137D01*
X151558410Y-137892878D01*
X151524937Y-137988541D01*
X151484215Y-138045317D01*
X151419262Y-138071065D01*
X151394012Y-138070807D01*
X151284204Y-138058435D01*
X151284196Y-138058435D01*
X151104950Y-138078630D01*
X151104945Y-138078631D01*
X150934676Y-138138211D01*
X150781937Y-138234184D01*
X150654384Y-138361737D01*
X150558409Y-138514479D01*
X150532745Y-138587823D01*
X150492023Y-138644598D01*
X150427070Y-138670345D01*
X150401821Y-138670087D01*
X150284204Y-138656835D01*
X150284196Y-138656835D01*
X150104950Y-138677030D01*
X150104945Y-138677031D01*
X149934676Y-138736611D01*
X149781937Y-138832584D01*
X149654384Y-138960137D01*
X149558409Y-139112880D01*
X149532207Y-139187761D01*
X149491486Y-139244537D01*
X149426533Y-139270284D01*
X149401283Y-139270026D01*
X149284204Y-139256835D01*
X149284196Y-139256835D01*
X149104950Y-139277030D01*
X149104945Y-139277031D01*
X148934676Y-139336611D01*
X148781937Y-139432584D01*
X148654384Y-139560137D01*
X148558412Y-139712875D01*
X148558411Y-139712876D01*
X148538940Y-139768521D01*
X148498217Y-139825297D01*
X148433264Y-139851043D01*
X148408016Y-139850785D01*
X148284204Y-139836835D01*
X148284196Y-139836835D01*
X148104950Y-139857030D01*
X148104945Y-139857031D01*
X147934676Y-139916611D01*
X147781937Y-140012584D01*
X147654384Y-140140137D01*
X147558410Y-140292878D01*
X147508105Y-140436644D01*
X147467383Y-140493421D01*
X147402430Y-140519168D01*
X147377181Y-140518910D01*
X147284205Y-140508435D01*
X147284196Y-140508435D01*
X147104950Y-140528630D01*
X147104945Y-140528631D01*
X146934676Y-140588211D01*
X146781937Y-140684184D01*
X146654384Y-140811737D01*
X146558411Y-140964476D01*
X146498831Y-141134745D01*
X146498830Y-141134750D01*
X146478635Y-141313996D01*
X123696881Y-141313996D01*
X123778989Y-141183322D01*
X123838568Y-141013055D01*
X123840949Y-140991922D01*
X123858765Y-140833803D01*
X123858765Y-140833796D01*
X123838569Y-140654550D01*
X123838568Y-140654545D01*
X123815357Y-140588211D01*
X123778989Y-140484278D01*
X123683016Y-140331538D01*
X123555462Y-140203984D01*
X123402723Y-140108011D01*
X123232454Y-140048431D01*
X123232449Y-140048430D01*
X123053204Y-140028235D01*
X123053196Y-140028235D01*
X122873950Y-140048430D01*
X122873945Y-140048431D01*
X122703676Y-140108011D01*
X122550937Y-140203984D01*
X122423384Y-140331537D01*
X122327411Y-140484276D01*
X122267831Y-140654545D01*
X122267830Y-140654550D01*
X122247635Y-140833796D01*
X107574700Y-140833796D01*
X107574700Y-137137596D01*
X139621235Y-137137596D01*
X139621235Y-137137603D01*
X139641430Y-137316849D01*
X139641431Y-137316854D01*
X139701011Y-137487123D01*
X139719540Y-137516611D01*
X139796984Y-137639862D01*
X139924538Y-137767416D01*
X140014880Y-137824182D01*
X140064345Y-137855263D01*
X140077278Y-137863389D01*
X140161553Y-137892878D01*
X140247545Y-137922968D01*
X140247550Y-137922969D01*
X140426796Y-137943165D01*
X140426800Y-137943165D01*
X140426804Y-137943165D01*
X140606049Y-137922969D01*
X140606052Y-137922968D01*
X140606055Y-137922968D01*
X140776322Y-137863389D01*
X140929062Y-137767416D01*
X141056616Y-137639862D01*
X141152589Y-137487122D01*
X141212168Y-137316855D01*
X141212169Y-137316849D01*
X141232365Y-137137603D01*
X141232365Y-137137596D01*
X147444435Y-137137596D01*
X147444435Y-137137603D01*
X147464630Y-137316849D01*
X147464631Y-137316854D01*
X147524211Y-137487123D01*
X147542740Y-137516611D01*
X147620184Y-137639862D01*
X147747738Y-137767416D01*
X147838080Y-137824182D01*
X147887545Y-137855263D01*
X147900478Y-137863389D01*
X147984753Y-137892878D01*
X148070745Y-137922968D01*
X148070750Y-137922969D01*
X148249996Y-137943165D01*
X148250000Y-137943165D01*
X148250004Y-137943165D01*
X148429249Y-137922969D01*
X148429252Y-137922968D01*
X148429255Y-137922968D01*
X148599522Y-137863389D01*
X148752262Y-137767416D01*
X148879816Y-137639862D01*
X148975789Y-137487122D01*
X149035368Y-137316855D01*
X149035369Y-137316849D01*
X149055565Y-137137603D01*
X149055565Y-137137596D01*
X149035369Y-136958350D01*
X149035368Y-136958345D01*
X149024727Y-136927935D01*
X148975789Y-136788078D01*
X148879816Y-136635338D01*
X148752262Y-136507784D01*
X148599523Y-136411811D01*
X148429254Y-136352231D01*
X148429249Y-136352230D01*
X148250004Y-136332035D01*
X148249996Y-136332035D01*
X148070750Y-136352230D01*
X148070745Y-136352231D01*
X147900476Y-136411811D01*
X147747737Y-136507784D01*
X147620184Y-136635337D01*
X147524211Y-136788076D01*
X147464631Y-136958345D01*
X147464630Y-136958350D01*
X147444435Y-137137596D01*
X141232365Y-137137596D01*
X141212169Y-136958350D01*
X141212168Y-136958345D01*
X141201527Y-136927935D01*
X141152589Y-136788078D01*
X141056616Y-136635338D01*
X140929062Y-136507784D01*
X140776323Y-136411811D01*
X140606054Y-136352231D01*
X140606049Y-136352230D01*
X140426804Y-136332035D01*
X140426796Y-136332035D01*
X140247550Y-136352230D01*
X140247545Y-136352231D01*
X140077276Y-136411811D01*
X139924537Y-136507784D01*
X139796984Y-136635337D01*
X139701011Y-136788076D01*
X139641431Y-136958345D01*
X139641430Y-136958350D01*
X139621235Y-137137596D01*
X107574700Y-137137596D01*
X107574700Y-135617396D01*
X134283435Y-135617396D01*
X134283435Y-135617403D01*
X134303630Y-135796649D01*
X134303631Y-135796654D01*
X134363211Y-135966923D01*
X134433279Y-136078435D01*
X134459184Y-136119662D01*
X134586738Y-136247216D01*
X134677080Y-136303982D01*
X134721726Y-136332035D01*
X134739478Y-136343189D01*
X134849642Y-136381737D01*
X134909745Y-136402768D01*
X134909750Y-136402769D01*
X135088996Y-136422965D01*
X135089000Y-136422965D01*
X135089004Y-136422965D01*
X135268249Y-136402769D01*
X135268252Y-136402768D01*
X135268255Y-136402768D01*
X135438522Y-136343189D01*
X135591262Y-136247216D01*
X135718816Y-136119662D01*
X135814789Y-135966922D01*
X135874368Y-135796655D01*
X135894565Y-135617400D01*
X135892183Y-135596262D01*
X135874369Y-135438150D01*
X135874368Y-135438145D01*
X135814789Y-135267878D01*
X135718816Y-135115138D01*
X135697674Y-135093996D01*
X154048435Y-135093996D01*
X154048435Y-135094003D01*
X154068630Y-135273249D01*
X154068631Y-135273254D01*
X154128211Y-135443523D01*
X154182032Y-135529178D01*
X154224184Y-135596262D01*
X154351738Y-135723816D01*
X154504478Y-135819789D01*
X154674745Y-135879368D01*
X154674750Y-135879369D01*
X154853996Y-135899565D01*
X154854000Y-135899565D01*
X154854004Y-135899565D01*
X155033249Y-135879369D01*
X155033252Y-135879368D01*
X155033255Y-135879368D01*
X155203522Y-135819789D01*
X155356262Y-135723816D01*
X155483816Y-135596262D01*
X155579789Y-135443522D01*
X155639368Y-135273255D01*
X155652286Y-135158607D01*
X155659565Y-135094003D01*
X155659565Y-135093996D01*
X155639369Y-134914750D01*
X155639368Y-134914745D01*
X155579788Y-134744476D01*
X155525833Y-134658607D01*
X155483816Y-134591738D01*
X155356262Y-134464184D01*
X155336077Y-134451501D01*
X155203523Y-134368211D01*
X155033254Y-134308631D01*
X155033249Y-134308630D01*
X154854004Y-134288435D01*
X154853996Y-134288435D01*
X154674750Y-134308630D01*
X154674745Y-134308631D01*
X154504476Y-134368211D01*
X154351737Y-134464184D01*
X154224184Y-134591737D01*
X154128211Y-134744476D01*
X154068631Y-134914745D01*
X154068630Y-134914750D01*
X154048435Y-135093996D01*
X135697674Y-135093996D01*
X135591262Y-134987584D01*
X135438523Y-134891611D01*
X135268254Y-134832031D01*
X135268249Y-134832030D01*
X135089004Y-134811835D01*
X135088996Y-134811835D01*
X134909750Y-134832030D01*
X134909745Y-134832031D01*
X134739476Y-134891611D01*
X134586737Y-134987584D01*
X134459184Y-135115137D01*
X134363211Y-135267876D01*
X134303631Y-135438145D01*
X134303630Y-135438150D01*
X134283435Y-135617396D01*
X107574700Y-135617396D01*
X107574700Y-128978999D01*
X110678541Y-128978999D01*
X110678541Y-128979000D01*
X110699136Y-129214403D01*
X110699138Y-129214413D01*
X110760294Y-129442655D01*
X110760296Y-129442659D01*
X110760297Y-129442663D01*
X110839532Y-129612583D01*
X110860165Y-129656830D01*
X110860167Y-129656834D01*
X110995701Y-129850395D01*
X110995706Y-129850402D01*
X111162797Y-130017493D01*
X111162803Y-130017498D01*
X111250603Y-130078976D01*
X111342401Y-130143254D01*
X111348794Y-130147730D01*
X111392419Y-130202307D01*
X111399613Y-130271805D01*
X111368090Y-130334160D01*
X111348795Y-130350880D01*
X111163122Y-130480890D01*
X111163120Y-130480891D01*
X110996091Y-130647920D01*
X110996086Y-130647926D01*
X110860600Y-130841420D01*
X110860599Y-130841422D01*
X110760770Y-131055507D01*
X110760767Y-131055513D01*
X110703564Y-131268999D01*
X110703564Y-131269000D01*
X111601188Y-131269000D01*
X111568275Y-131326007D01*
X111534200Y-131453174D01*
X111534200Y-131584826D01*
X111568275Y-131711993D01*
X111601188Y-131769000D01*
X110703564Y-131769000D01*
X110760767Y-131982486D01*
X110760770Y-131982492D01*
X110860599Y-132196578D01*
X110996094Y-132390082D01*
X111163117Y-132557105D01*
X111356621Y-132692600D01*
X111570707Y-132792429D01*
X111570716Y-132792433D01*
X111784200Y-132849634D01*
X111784200Y-131952012D01*
X111841207Y-131984925D01*
X111968374Y-132019000D01*
X112100026Y-132019000D01*
X112227193Y-131984925D01*
X112284200Y-131952012D01*
X112284200Y-132849633D01*
X112497683Y-132792433D01*
X112497692Y-132792429D01*
X112711778Y-132692600D01*
X112905282Y-132557105D01*
X113072305Y-132390082D01*
X113207800Y-132196578D01*
X113307629Y-131982492D01*
X113307632Y-131982486D01*
X113364836Y-131769000D01*
X112467212Y-131769000D01*
X112500125Y-131711993D01*
X112534200Y-131584826D01*
X112534200Y-131453174D01*
X112500125Y-131326007D01*
X112467212Y-131269000D01*
X113364836Y-131269000D01*
X113364835Y-131268999D01*
X113307632Y-131055513D01*
X113307629Y-131055507D01*
X113207800Y-130841422D01*
X113207799Y-130841420D01*
X113072313Y-130647926D01*
X113072308Y-130647920D01*
X112905278Y-130480890D01*
X112719605Y-130350879D01*
X112675980Y-130296302D01*
X112668788Y-130226804D01*
X112700310Y-130164449D01*
X112719606Y-130147730D01*
X112725997Y-130143255D01*
X112905601Y-130017495D01*
X113072695Y-129850401D01*
X113208235Y-129656830D01*
X113308103Y-129442663D01*
X113369263Y-129214408D01*
X113389859Y-128979000D01*
X113389859Y-128978999D01*
X116368541Y-128978999D01*
X116368541Y-128979000D01*
X116389136Y-129214403D01*
X116389138Y-129214413D01*
X116450294Y-129442655D01*
X116450296Y-129442659D01*
X116450297Y-129442663D01*
X116529532Y-129612583D01*
X116550165Y-129656830D01*
X116550167Y-129656834D01*
X116685701Y-129850395D01*
X116685706Y-129850402D01*
X116852797Y-130017493D01*
X116852803Y-130017498D01*
X116940603Y-130078976D01*
X117032401Y-130143254D01*
X117038794Y-130147730D01*
X117082419Y-130202307D01*
X117089613Y-130271805D01*
X117058090Y-130334160D01*
X117038795Y-130350880D01*
X116853122Y-130480890D01*
X116853120Y-130480891D01*
X116686091Y-130647920D01*
X116686086Y-130647926D01*
X116550600Y-130841420D01*
X116550599Y-130841422D01*
X116450770Y-131055507D01*
X116450767Y-131055513D01*
X116393564Y-131268999D01*
X116393564Y-131269000D01*
X117291188Y-131269000D01*
X117258275Y-131326007D01*
X117224200Y-131453174D01*
X117224200Y-131584826D01*
X117258275Y-131711993D01*
X117291188Y-131769000D01*
X116393564Y-131769000D01*
X116450767Y-131982486D01*
X116450770Y-131982492D01*
X116550599Y-132196578D01*
X116686094Y-132390082D01*
X116853117Y-132557105D01*
X117046621Y-132692600D01*
X117260707Y-132792429D01*
X117260716Y-132792433D01*
X117474200Y-132849634D01*
X117474200Y-131952012D01*
X117531207Y-131984925D01*
X117658374Y-132019000D01*
X117790026Y-132019000D01*
X117917193Y-131984925D01*
X117974200Y-131952012D01*
X117974200Y-132849633D01*
X118187683Y-132792433D01*
X118187692Y-132792429D01*
X118401778Y-132692600D01*
X118595282Y-132557105D01*
X118762305Y-132390082D01*
X118897800Y-132196578D01*
X118997629Y-131982492D01*
X118997632Y-131982486D01*
X119054836Y-131769000D01*
X118157212Y-131769000D01*
X118190125Y-131711993D01*
X118224200Y-131584826D01*
X118224200Y-131453174D01*
X118190125Y-131326007D01*
X118157212Y-131269000D01*
X119054836Y-131269000D01*
X119054835Y-131268999D01*
X118997632Y-131055513D01*
X118997629Y-131055507D01*
X118897800Y-130841422D01*
X118897799Y-130841420D01*
X118762313Y-130647926D01*
X118762308Y-130647920D01*
X118595278Y-130480890D01*
X118409605Y-130350879D01*
X118365980Y-130296302D01*
X118358788Y-130226804D01*
X118390310Y-130164449D01*
X118409606Y-130147730D01*
X118415997Y-130143255D01*
X118595601Y-130017495D01*
X118762695Y-129850401D01*
X118898235Y-129656830D01*
X118998103Y-129442663D01*
X119059263Y-129214408D01*
X119079859Y-128979000D01*
X119079859Y-128978999D01*
X121963541Y-128978999D01*
X121963541Y-128979000D01*
X121984136Y-129214403D01*
X121984138Y-129214413D01*
X122045294Y-129442655D01*
X122045296Y-129442659D01*
X122045297Y-129442663D01*
X122124532Y-129612583D01*
X122145165Y-129656830D01*
X122145167Y-129656834D01*
X122280701Y-129850395D01*
X122280706Y-129850402D01*
X122447797Y-130017493D01*
X122447803Y-130017498D01*
X122535603Y-130078976D01*
X122627401Y-130143254D01*
X122633794Y-130147730D01*
X122677419Y-130202307D01*
X122684613Y-130271805D01*
X122653090Y-130334160D01*
X122633795Y-130350880D01*
X122448122Y-130480890D01*
X122448120Y-130480891D01*
X122281091Y-130647920D01*
X122281086Y-130647926D01*
X122145600Y-130841420D01*
X122145599Y-130841422D01*
X122045770Y-131055507D01*
X122045767Y-131055513D01*
X121988564Y-131268999D01*
X121988564Y-131269000D01*
X122886188Y-131269000D01*
X122853275Y-131326007D01*
X122819200Y-131453174D01*
X122819200Y-131584826D01*
X122853275Y-131711993D01*
X122886188Y-131769000D01*
X121988564Y-131769000D01*
X122045767Y-131982486D01*
X122045770Y-131982492D01*
X122145599Y-132196578D01*
X122281094Y-132390082D01*
X122448117Y-132557105D01*
X122641621Y-132692600D01*
X122855707Y-132792429D01*
X122855716Y-132792433D01*
X123069200Y-132849634D01*
X123069200Y-131952012D01*
X123126207Y-131984925D01*
X123253374Y-132019000D01*
X123385026Y-132019000D01*
X123512193Y-131984925D01*
X123569200Y-131952012D01*
X123569200Y-132849633D01*
X123782683Y-132792433D01*
X123782692Y-132792429D01*
X123996778Y-132692600D01*
X124137597Y-132593996D01*
X156508635Y-132593996D01*
X156508635Y-132594003D01*
X156528830Y-132773249D01*
X156528831Y-132773254D01*
X156588411Y-132943523D01*
X156654919Y-133049369D01*
X156684384Y-133096262D01*
X156811938Y-133223816D01*
X156964678Y-133319789D01*
X157071021Y-133357000D01*
X157134945Y-133379368D01*
X157134950Y-133379369D01*
X157314196Y-133399565D01*
X157314200Y-133399565D01*
X157314204Y-133399565D01*
X157493449Y-133379369D01*
X157493452Y-133379368D01*
X157493455Y-133379368D01*
X157663722Y-133319789D01*
X157816462Y-133223816D01*
X157935930Y-133104348D01*
X157997253Y-133070863D01*
X158037500Y-133068810D01*
X158042312Y-133069352D01*
X158044199Y-133069565D01*
X158044200Y-133069565D01*
X158044203Y-133069565D01*
X158223449Y-133049369D01*
X158223452Y-133049368D01*
X158223455Y-133049368D01*
X158393722Y-132989789D01*
X158546462Y-132893816D01*
X158674016Y-132766262D01*
X158769989Y-132613522D01*
X158829568Y-132443255D01*
X158832780Y-132414750D01*
X158849765Y-132264003D01*
X158849765Y-132263996D01*
X158829569Y-132084750D01*
X158829568Y-132084745D01*
X158806692Y-132019369D01*
X158769989Y-131914478D01*
X158740917Y-131868211D01*
X158674015Y-131761737D01*
X158569917Y-131657639D01*
X158536432Y-131596316D01*
X158540557Y-131529004D01*
X158549568Y-131503255D01*
X158559498Y-131415122D01*
X158569765Y-131324003D01*
X158569765Y-131323996D01*
X158549569Y-131144750D01*
X158549566Y-131144737D01*
X158502563Y-131010412D01*
X158499001Y-130940633D01*
X158514609Y-130903487D01*
X158589989Y-130783522D01*
X158649568Y-130613255D01*
X158651759Y-130593815D01*
X158660772Y-130513815D01*
X158669702Y-130434554D01*
X158696768Y-130370142D01*
X158751966Y-130331397D01*
X158813722Y-130309789D01*
X158966462Y-130213816D01*
X159094016Y-130086262D01*
X159189989Y-129933522D01*
X159249568Y-129763255D01*
X159259145Y-129678246D01*
X159286210Y-129613837D01*
X159341409Y-129575092D01*
X159413722Y-129549789D01*
X159546060Y-129466635D01*
X159613295Y-129447635D01*
X159680130Y-129468002D01*
X159725345Y-129521270D01*
X159734583Y-129590526D01*
X159729073Y-129612583D01*
X159668832Y-129784742D01*
X159668830Y-129784750D01*
X159648635Y-129963996D01*
X159648635Y-129964003D01*
X159668830Y-130143249D01*
X159668831Y-130143254D01*
X159728411Y-130313523D01*
X159800616Y-130428435D01*
X159824384Y-130466262D01*
X159951938Y-130593816D01*
X160042280Y-130650582D01*
X160104321Y-130689565D01*
X160104678Y-130689789D01*
X160262048Y-130744855D01*
X160274945Y-130749368D01*
X160274950Y-130749369D01*
X160454196Y-130769565D01*
X160454200Y-130769565D01*
X160454203Y-130769565D01*
X160589985Y-130754266D01*
X160658807Y-130766320D01*
X160710187Y-130813669D01*
X160720911Y-130836532D01*
X160748410Y-130915121D01*
X160808286Y-131010412D01*
X160844384Y-131067862D01*
X160971938Y-131195416D01*
X161033338Y-131233996D01*
X161089044Y-131268999D01*
X161124678Y-131291389D01*
X161268564Y-131341737D01*
X161294945Y-131350968D01*
X161294950Y-131350969D01*
X161474196Y-131371165D01*
X161474200Y-131371165D01*
X161474201Y-131371165D01*
X161486297Y-131369801D01*
X161524334Y-131365516D01*
X161593155Y-131377570D01*
X161643211Y-131422763D01*
X161734382Y-131567860D01*
X161734384Y-131567862D01*
X161861938Y-131695416D01*
X162014678Y-131791389D01*
X162080397Y-131814385D01*
X162184945Y-131850968D01*
X162184950Y-131850969D01*
X162216395Y-131854512D01*
X162280810Y-131881578D01*
X162320365Y-131939172D01*
X162325733Y-131991615D01*
X162313635Y-132098995D01*
X162313635Y-132099003D01*
X162333830Y-132278249D01*
X162333831Y-132278254D01*
X162393411Y-132448523D01*
X162420569Y-132491744D01*
X162439569Y-132558981D01*
X162419201Y-132625816D01*
X162381548Y-132662709D01*
X162278939Y-132727182D01*
X162151384Y-132854737D01*
X162055411Y-133007476D01*
X161995831Y-133177745D01*
X161995830Y-133177750D01*
X161975635Y-133356996D01*
X161975635Y-133357003D01*
X161995830Y-133536249D01*
X161995831Y-133536254D01*
X162055411Y-133706523D01*
X162122624Y-133813491D01*
X162151384Y-133859262D01*
X162278938Y-133986816D01*
X162431678Y-134082789D01*
X162601945Y-134142368D01*
X162601950Y-134142369D01*
X162781196Y-134162565D01*
X162781200Y-134162565D01*
X162781204Y-134162565D01*
X162960449Y-134142369D01*
X162960452Y-134142368D01*
X162960455Y-134142368D01*
X163130722Y-134082789D01*
X163283462Y-133986816D01*
X163411016Y-133859262D01*
X163506989Y-133706522D01*
X163566568Y-133536255D01*
X163566720Y-133534907D01*
X163586765Y-133357003D01*
X163586765Y-133356996D01*
X163566569Y-133177750D01*
X163566568Y-133177745D01*
X163506988Y-133007475D01*
X163479831Y-132964256D01*
X163460830Y-132897019D01*
X163481197Y-132830184D01*
X163518851Y-132793290D01*
X163621462Y-132728816D01*
X163739029Y-132611248D01*
X163800348Y-132577766D01*
X163867662Y-132581891D01*
X164003337Y-132629366D01*
X164003343Y-132629367D01*
X164003345Y-132629368D01*
X164003346Y-132629368D01*
X164003350Y-132629369D01*
X164182596Y-132649565D01*
X164182600Y-132649565D01*
X164182604Y-132649565D01*
X164361849Y-132629369D01*
X164361852Y-132629368D01*
X164361855Y-132629368D01*
X164532122Y-132569789D01*
X164684862Y-132473816D01*
X164812416Y-132346262D01*
X164908389Y-132193522D01*
X164967968Y-132023255D01*
X164968406Y-132019368D01*
X164988165Y-131844003D01*
X164988165Y-131843996D01*
X164967969Y-131664750D01*
X164967968Y-131664745D01*
X164908389Y-131494478D01*
X164812416Y-131341738D01*
X164684862Y-131214184D01*
X164654993Y-131195416D01*
X164532123Y-131118211D01*
X164361854Y-131058631D01*
X164361849Y-131058630D01*
X164182604Y-131038435D01*
X164182596Y-131038435D01*
X164003350Y-131058630D01*
X164003345Y-131058631D01*
X163833076Y-131118211D01*
X163680339Y-131214183D01*
X163562773Y-131331749D01*
X163501450Y-131365233D01*
X163434138Y-131361109D01*
X163298449Y-131313630D01*
X163267001Y-131310087D01*
X163202587Y-131283020D01*
X163163033Y-131225424D01*
X163157666Y-131172983D01*
X163169765Y-131065602D01*
X163169765Y-131065596D01*
X163149569Y-130886350D01*
X163149568Y-130886345D01*
X163125431Y-130817366D01*
X163089989Y-130716078D01*
X163060704Y-130669472D01*
X163019681Y-130604184D01*
X162994016Y-130563338D01*
X162866462Y-130435784D01*
X162854766Y-130428435D01*
X162713723Y-130339811D01*
X162543454Y-130280231D01*
X162543449Y-130280230D01*
X162364204Y-130260035D01*
X162364196Y-130260035D01*
X162314063Y-130265683D01*
X162245241Y-130253628D01*
X162195187Y-130208435D01*
X162104015Y-130063337D01*
X161976462Y-129935784D01*
X161823723Y-129839811D01*
X161653454Y-129780231D01*
X161653449Y-129780230D01*
X161474204Y-129760035D01*
X161474196Y-129760035D01*
X161338413Y-129775333D01*
X161269591Y-129763278D01*
X161218212Y-129715929D01*
X161207488Y-129693067D01*
X161205225Y-129686601D01*
X161179989Y-129614478D01*
X161084016Y-129461738D01*
X160956462Y-129334184D01*
X160886868Y-129290455D01*
X160803723Y-129238211D01*
X160633454Y-129178631D01*
X160633449Y-129178630D01*
X160454204Y-129158435D01*
X160454196Y-129158435D01*
X160274950Y-129178630D01*
X160274945Y-129178631D01*
X160104676Y-129238211D01*
X159972340Y-129321364D01*
X159905103Y-129340364D01*
X159838268Y-129319996D01*
X159793054Y-129266728D01*
X159783817Y-129197472D01*
X159789327Y-129175415D01*
X159849566Y-129003262D01*
X159849569Y-129003249D01*
X159869765Y-128824003D01*
X159869765Y-128823996D01*
X159849569Y-128644750D01*
X159849568Y-128644745D01*
X159814808Y-128545407D01*
X159789989Y-128474478D01*
X159784304Y-128465431D01*
X159729052Y-128377498D01*
X159694016Y-128321738D01*
X159566462Y-128194184D01*
X159541708Y-128178630D01*
X159413723Y-128098211D01*
X159243454Y-128038631D01*
X159243449Y-128038630D01*
X159064204Y-128018435D01*
X159064196Y-128018435D01*
X158884950Y-128038630D01*
X158884945Y-128038631D01*
X158714676Y-128098211D01*
X158561937Y-128194184D01*
X158434384Y-128321737D01*
X158338410Y-128474478D01*
X158278830Y-128644750D01*
X158269253Y-128729750D01*
X158242186Y-128794164D01*
X158186990Y-128832907D01*
X158114674Y-128858212D01*
X157961937Y-128954184D01*
X157834384Y-129081737D01*
X157738411Y-129234476D01*
X157678831Y-129404745D01*
X157678830Y-129404749D01*
X157658697Y-129583444D01*
X157631631Y-129647857D01*
X157576434Y-129686601D01*
X157514674Y-129708212D01*
X157361937Y-129804184D01*
X157234384Y-129931737D01*
X157138411Y-130084476D01*
X157078831Y-130254745D01*
X157078830Y-130254750D01*
X157058635Y-130433996D01*
X157058635Y-130434003D01*
X157078830Y-130613249D01*
X157078833Y-130613262D01*
X157125836Y-130747587D01*
X157129398Y-130817366D01*
X157113789Y-130854514D01*
X157038411Y-130974476D01*
X156978831Y-131144745D01*
X156978830Y-131144750D01*
X156958635Y-131323996D01*
X156958635Y-131324003D01*
X156978830Y-131503249D01*
X156978831Y-131503254D01*
X157038412Y-131673525D01*
X157042677Y-131680313D01*
X157061677Y-131747550D01*
X157041309Y-131814385D01*
X156988040Y-131859598D01*
X156978644Y-131863323D01*
X156964680Y-131868209D01*
X156964675Y-131868212D01*
X156811937Y-131964184D01*
X156684384Y-132091737D01*
X156588411Y-132244476D01*
X156528831Y-132414745D01*
X156528830Y-132414750D01*
X156508635Y-132593996D01*
X124137597Y-132593996D01*
X124190282Y-132557105D01*
X124357305Y-132390082D01*
X124492800Y-132196578D01*
X124592629Y-131982492D01*
X124592632Y-131982486D01*
X124649836Y-131769000D01*
X123752212Y-131769000D01*
X123785125Y-131711993D01*
X123819200Y-131584826D01*
X123819200Y-131453174D01*
X123785125Y-131326007D01*
X123752212Y-131269000D01*
X124649836Y-131269000D01*
X124649835Y-131268999D01*
X124640456Y-131233996D01*
X132618635Y-131233996D01*
X132618635Y-131234003D01*
X132638830Y-131413249D01*
X132638831Y-131413254D01*
X132698411Y-131583523D01*
X132759229Y-131680313D01*
X132794384Y-131736262D01*
X132921938Y-131863816D01*
X133074678Y-131959789D01*
X133243893Y-132019000D01*
X133244945Y-132019368D01*
X133244950Y-132019369D01*
X133424196Y-132039565D01*
X133424200Y-132039565D01*
X133424204Y-132039565D01*
X133603449Y-132019369D01*
X133603452Y-132019368D01*
X133603455Y-132019368D01*
X133773722Y-131959789D01*
X133926462Y-131863816D01*
X134054016Y-131736262D01*
X134149989Y-131583522D01*
X134209568Y-131413255D01*
X134214080Y-131373211D01*
X134229765Y-131234003D01*
X134229765Y-131233996D01*
X134209569Y-131054750D01*
X134209568Y-131054745D01*
X134149988Y-130884476D01*
X134065094Y-130749369D01*
X134054016Y-130731738D01*
X133926462Y-130604184D01*
X133773723Y-130508211D01*
X133603454Y-130448631D01*
X133603449Y-130448630D01*
X133424204Y-130428435D01*
X133424196Y-130428435D01*
X133244950Y-130448630D01*
X133244945Y-130448631D01*
X133074676Y-130508211D01*
X132921937Y-130604184D01*
X132794384Y-130731737D01*
X132698411Y-130884476D01*
X132638831Y-131054745D01*
X132638830Y-131054750D01*
X132618635Y-131233996D01*
X124640456Y-131233996D01*
X124592632Y-131055513D01*
X124592629Y-131055507D01*
X124492800Y-130841422D01*
X124492799Y-130841420D01*
X124357313Y-130647926D01*
X124357308Y-130647920D01*
X124190278Y-130480890D01*
X124004605Y-130350879D01*
X123960980Y-130296302D01*
X123953788Y-130226804D01*
X123985310Y-130164449D01*
X124004606Y-130147730D01*
X124010997Y-130143255D01*
X124190601Y-130017495D01*
X124357695Y-129850401D01*
X124493235Y-129656830D01*
X124593103Y-129442663D01*
X124654263Y-129214408D01*
X124674859Y-128979000D01*
X124672266Y-128949368D01*
X124665649Y-128873728D01*
X124655173Y-128753996D01*
X132618635Y-128753996D01*
X132618635Y-128754003D01*
X132638830Y-128933249D01*
X132638831Y-128933254D01*
X132698411Y-129103523D01*
X132780695Y-129234476D01*
X132794384Y-129256262D01*
X132921938Y-129383816D01*
X132955253Y-129404749D01*
X133044334Y-129460723D01*
X133074678Y-129479789D01*
X133230970Y-129534478D01*
X133244945Y-129539368D01*
X133244950Y-129539369D01*
X133424196Y-129559565D01*
X133424200Y-129559565D01*
X133424204Y-129559565D01*
X133603449Y-129539369D01*
X133603452Y-129539368D01*
X133603455Y-129539368D01*
X133773722Y-129479789D01*
X133926462Y-129383816D01*
X134054016Y-129256262D01*
X134149989Y-129103522D01*
X134209568Y-128933255D01*
X134212556Y-128906738D01*
X134229765Y-128754003D01*
X134229765Y-128753996D01*
X134209569Y-128574750D01*
X134209568Y-128574745D01*
X134164965Y-128447277D01*
X134161404Y-128377498D01*
X134196133Y-128316870D01*
X134258126Y-128284643D01*
X134327701Y-128291048D01*
X134347979Y-128301328D01*
X134351936Y-128303814D01*
X134351938Y-128303816D01*
X134504678Y-128399789D01*
X134640391Y-128447277D01*
X134674945Y-128459368D01*
X134674950Y-128459369D01*
X134854196Y-128479565D01*
X134854200Y-128479565D01*
X134854204Y-128479565D01*
X135033449Y-128459369D01*
X135033452Y-128459368D01*
X135033455Y-128459368D01*
X135203722Y-128399789D01*
X135203723Y-128399787D01*
X135203729Y-128399786D01*
X135209995Y-128396769D01*
X135210901Y-128398650D01*
X135268367Y-128382392D01*
X135335209Y-128402739D01*
X135380439Y-128455992D01*
X135384182Y-128465431D01*
X135401009Y-128513519D01*
X135470197Y-128623631D01*
X135496984Y-128666262D01*
X135624538Y-128793816D01*
X135686751Y-128832907D01*
X135751718Y-128873729D01*
X135777278Y-128889789D01*
X135897730Y-128931937D01*
X135947545Y-128949368D01*
X135947550Y-128949369D01*
X136126796Y-128969565D01*
X136126800Y-128969565D01*
X136126804Y-128969565D01*
X136306049Y-128949369D01*
X136306052Y-128949368D01*
X136306055Y-128949368D01*
X136476322Y-128889789D01*
X136629062Y-128793816D01*
X136756616Y-128666262D01*
X136852589Y-128513522D01*
X136912168Y-128343255D01*
X136913190Y-128334184D01*
X136932365Y-128164003D01*
X136932365Y-128163996D01*
X136912169Y-127984750D01*
X136912168Y-127984745D01*
X136906657Y-127968996D01*
X167903635Y-127968996D01*
X167903635Y-127969003D01*
X167923830Y-128148249D01*
X167923831Y-128148254D01*
X167983411Y-128318523D01*
X168051892Y-128427509D01*
X168079384Y-128471262D01*
X168206938Y-128598816D01*
X168226549Y-128611138D01*
X168272838Y-128663470D01*
X168283488Y-128732524D01*
X168277617Y-128757086D01*
X168216433Y-128931937D01*
X168216430Y-128931950D01*
X168196235Y-129111196D01*
X168196235Y-129111203D01*
X168216430Y-129290449D01*
X168216431Y-129290454D01*
X168276011Y-129460723D01*
X168338118Y-129559565D01*
X168371984Y-129613462D01*
X168499538Y-129741016D01*
X168652278Y-129836989D01*
X168786616Y-129883996D01*
X168822545Y-129896568D01*
X168822550Y-129896569D01*
X169001796Y-129916765D01*
X169001800Y-129916765D01*
X169001804Y-129916765D01*
X169181049Y-129896569D01*
X169181052Y-129896568D01*
X169181055Y-129896568D01*
X169216984Y-129883996D01*
X171608635Y-129883996D01*
X171608635Y-129884003D01*
X171628830Y-130063249D01*
X171628831Y-130063254D01*
X171688411Y-130233523D01*
X171755197Y-130339811D01*
X171784384Y-130386262D01*
X171911938Y-130513816D01*
X171990750Y-130563337D01*
X172055757Y-130604184D01*
X172064678Y-130609789D01*
X172234945Y-130669368D01*
X172234950Y-130669369D01*
X172414196Y-130689565D01*
X172414200Y-130689565D01*
X172414204Y-130689565D01*
X172593449Y-130669369D01*
X172593452Y-130669368D01*
X172593455Y-130669368D01*
X172763722Y-130609789D01*
X172916462Y-130513816D01*
X173044016Y-130386262D01*
X173116882Y-130270295D01*
X173169214Y-130224007D01*
X173235759Y-130213050D01*
X173249200Y-130214565D01*
X173369551Y-130201004D01*
X173428449Y-130194369D01*
X173428452Y-130194368D01*
X173428455Y-130194368D01*
X173598722Y-130134789D01*
X173751462Y-130038816D01*
X173879016Y-129911262D01*
X173931588Y-129827591D01*
X173983920Y-129781303D01*
X174025861Y-129771954D01*
X174025680Y-129770345D01*
X174211849Y-129749369D01*
X174211852Y-129749368D01*
X174211855Y-129749368D01*
X174382122Y-129689789D01*
X174534862Y-129593816D01*
X174662416Y-129466262D01*
X174758389Y-129313522D01*
X174817968Y-129143255D01*
X174817969Y-129143249D01*
X174838165Y-128964003D01*
X174838165Y-128963996D01*
X174817969Y-128784750D01*
X174817968Y-128784745D01*
X174816022Y-128779184D01*
X174758389Y-128614478D01*
X174754907Y-128608937D01*
X174696099Y-128515344D01*
X174662416Y-128461738D01*
X174534862Y-128334184D01*
X174482572Y-128301328D01*
X174382123Y-128238211D01*
X174211854Y-128178631D01*
X174211849Y-128178630D01*
X174032604Y-128158435D01*
X174032596Y-128158435D01*
X173853350Y-128178630D01*
X173853345Y-128178631D01*
X173683076Y-128238211D01*
X173530337Y-128334184D01*
X173402784Y-128461737D01*
X173402779Y-128461743D01*
X173350210Y-128545407D01*
X173297876Y-128591698D01*
X173255937Y-128601045D01*
X173256119Y-128602655D01*
X173069950Y-128623630D01*
X173069945Y-128623631D01*
X172899676Y-128683211D01*
X172746937Y-128779184D01*
X172619382Y-128906739D01*
X172546518Y-129022702D01*
X172494184Y-129068992D01*
X172427643Y-129079949D01*
X172414204Y-129078435D01*
X172414196Y-129078435D01*
X172234950Y-129098630D01*
X172234945Y-129098631D01*
X172064676Y-129158211D01*
X171911937Y-129254184D01*
X171784384Y-129381737D01*
X171688411Y-129534476D01*
X171628831Y-129704745D01*
X171628830Y-129704750D01*
X171608635Y-129883996D01*
X169216984Y-129883996D01*
X169351322Y-129836989D01*
X169504062Y-129741016D01*
X169631616Y-129613462D01*
X169727589Y-129460722D01*
X169787168Y-129290455D01*
X169787169Y-129290449D01*
X169807365Y-129111203D01*
X169807365Y-129111196D01*
X169787169Y-128931950D01*
X169787168Y-128931945D01*
X169738956Y-128794164D01*
X169727589Y-128761678D01*
X169722766Y-128754003D01*
X169640848Y-128623631D01*
X169631616Y-128608938D01*
X169504062Y-128481384D01*
X169484450Y-128469061D01*
X169438160Y-128416728D01*
X169427511Y-128347674D01*
X169433382Y-128323113D01*
X169434987Y-128318523D01*
X169434989Y-128318522D01*
X169483939Y-128178631D01*
X169494566Y-128148262D01*
X169494569Y-128148249D01*
X169514765Y-127969003D01*
X169514765Y-127968996D01*
X169494569Y-127789750D01*
X169494568Y-127789745D01*
X169454067Y-127674000D01*
X169434989Y-127619478D01*
X169339016Y-127466738D01*
X169211462Y-127339184D01*
X169207784Y-127336873D01*
X169058723Y-127243211D01*
X168888454Y-127183631D01*
X168888449Y-127183630D01*
X168709204Y-127163435D01*
X168709196Y-127163435D01*
X168529950Y-127183630D01*
X168529945Y-127183631D01*
X168359676Y-127243211D01*
X168206937Y-127339184D01*
X168079384Y-127466737D01*
X167983411Y-127619476D01*
X167923831Y-127789745D01*
X167923830Y-127789750D01*
X167903635Y-127968996D01*
X136906657Y-127968996D01*
X136866158Y-127853257D01*
X136852589Y-127814478D01*
X136837051Y-127789750D01*
X136801263Y-127732793D01*
X136756616Y-127661738D01*
X136629062Y-127534184D01*
X136624528Y-127531335D01*
X136476323Y-127438211D01*
X136306054Y-127378631D01*
X136306049Y-127378630D01*
X136126804Y-127358435D01*
X136126796Y-127358435D01*
X135947550Y-127378630D01*
X135947537Y-127378633D01*
X135777278Y-127438210D01*
X135771006Y-127441231D01*
X135770104Y-127439359D01*
X135712572Y-127455606D01*
X135645740Y-127435228D01*
X135600535Y-127381952D01*
X135596816Y-127372567D01*
X135579989Y-127324478D01*
X135558192Y-127289788D01*
X135484016Y-127171738D01*
X135356462Y-127044184D01*
X135349466Y-127039788D01*
X135203723Y-126948211D01*
X135033454Y-126888631D01*
X135033449Y-126888630D01*
X134854204Y-126868435D01*
X134854196Y-126868435D01*
X134674950Y-126888630D01*
X134674945Y-126888631D01*
X134504676Y-126948211D01*
X134351937Y-127044184D01*
X134224384Y-127171737D01*
X134128411Y-127324476D01*
X134068831Y-127494745D01*
X134068830Y-127494750D01*
X134048635Y-127673996D01*
X134048635Y-127674003D01*
X134068830Y-127853249D01*
X134068832Y-127853257D01*
X134113434Y-127980723D01*
X134116995Y-128050502D01*
X134082266Y-128111129D01*
X134020272Y-128143356D01*
X133950697Y-128136950D01*
X133930420Y-128126671D01*
X133773723Y-128028211D01*
X133603454Y-127968631D01*
X133603449Y-127968630D01*
X133424204Y-127948435D01*
X133424196Y-127948435D01*
X133244950Y-127968630D01*
X133244945Y-127968631D01*
X133074676Y-128028211D01*
X132921937Y-128124184D01*
X132794384Y-128251737D01*
X132698411Y-128404476D01*
X132638831Y-128574745D01*
X132638830Y-128574750D01*
X132618635Y-128753996D01*
X124655173Y-128753996D01*
X124654263Y-128743592D01*
X124593103Y-128515337D01*
X124493235Y-128301171D01*
X124418322Y-128194184D01*
X124357696Y-128107600D01*
X124300598Y-128050502D01*
X124235767Y-127985671D01*
X124202284Y-127924351D01*
X124207268Y-127854659D01*
X124249139Y-127798725D01*
X124280115Y-127781810D01*
X124411531Y-127732796D01*
X124526746Y-127646546D01*
X124612996Y-127531331D01*
X124663291Y-127396483D01*
X124669700Y-127336873D01*
X124669699Y-126313996D01*
X158958635Y-126313996D01*
X158958635Y-126314003D01*
X158978830Y-126493249D01*
X158978831Y-126493254D01*
X159038411Y-126663523D01*
X159134384Y-126816262D01*
X159261938Y-126943816D01*
X159414678Y-127039789D01*
X159584945Y-127099368D01*
X159584950Y-127099369D01*
X159764196Y-127119565D01*
X159764200Y-127119565D01*
X159764204Y-127119565D01*
X159943449Y-127099369D01*
X159943452Y-127099368D01*
X159943455Y-127099368D01*
X160113722Y-127039789D01*
X160266462Y-126943816D01*
X160394016Y-126816262D01*
X160489989Y-126663522D01*
X160524815Y-126563996D01*
X173828635Y-126563996D01*
X173828635Y-126564003D01*
X173848830Y-126743249D01*
X173848831Y-126743254D01*
X173908411Y-126913523D01*
X173987749Y-127039788D01*
X174004384Y-127066262D01*
X174131938Y-127193816D01*
X174284678Y-127289789D01*
X174419245Y-127336876D01*
X174454945Y-127349368D01*
X174454950Y-127349369D01*
X174634196Y-127369565D01*
X174634200Y-127369565D01*
X174634204Y-127369565D01*
X174813449Y-127349369D01*
X174813452Y-127349368D01*
X174813455Y-127349368D01*
X174983722Y-127289789D01*
X175136462Y-127193816D01*
X175264016Y-127066262D01*
X175359989Y-126913522D01*
X175419568Y-126743255D01*
X175439765Y-126564000D01*
X175431793Y-126493249D01*
X175419569Y-126384750D01*
X175419568Y-126384745D01*
X175359988Y-126214476D01*
X175312918Y-126139565D01*
X175264016Y-126061738D01*
X175136462Y-125934184D01*
X174983723Y-125838211D01*
X174813454Y-125778631D01*
X174813449Y-125778630D01*
X174634204Y-125758435D01*
X174634196Y-125758435D01*
X174454950Y-125778630D01*
X174454945Y-125778631D01*
X174284676Y-125838211D01*
X174131937Y-125934184D01*
X174004384Y-126061737D01*
X173908411Y-126214476D01*
X173848831Y-126384745D01*
X173848830Y-126384750D01*
X173828635Y-126563996D01*
X160524815Y-126563996D01*
X160549568Y-126493255D01*
X160549569Y-126493249D01*
X160569765Y-126314003D01*
X160569765Y-126313996D01*
X160549569Y-126134750D01*
X160549568Y-126134745D01*
X160521840Y-126055504D01*
X160489989Y-125964478D01*
X160489572Y-125963815D01*
X160394015Y-125811737D01*
X160266462Y-125684184D01*
X160113723Y-125588211D01*
X159943454Y-125528631D01*
X159943449Y-125528630D01*
X159764204Y-125508435D01*
X159764196Y-125508435D01*
X159584950Y-125528630D01*
X159584945Y-125528631D01*
X159414676Y-125588211D01*
X159261937Y-125684184D01*
X159134384Y-125811737D01*
X159038411Y-125964476D01*
X158978831Y-126134745D01*
X158978830Y-126134750D01*
X158958635Y-126313996D01*
X124669699Y-126313996D01*
X124669699Y-125541128D01*
X124663291Y-125481517D01*
X124638107Y-125413996D01*
X124612997Y-125346671D01*
X124612993Y-125346664D01*
X124526747Y-125231455D01*
X124526744Y-125231452D01*
X124411535Y-125145206D01*
X124411528Y-125145202D01*
X124276682Y-125094908D01*
X124276683Y-125094908D01*
X124217083Y-125088501D01*
X124217081Y-125088500D01*
X124217073Y-125088500D01*
X124217064Y-125088500D01*
X122421329Y-125088500D01*
X122421323Y-125088501D01*
X122361716Y-125094908D01*
X122226871Y-125145202D01*
X122226864Y-125145206D01*
X122111655Y-125231452D01*
X122111652Y-125231455D01*
X122025406Y-125346664D01*
X122025402Y-125346671D01*
X121975108Y-125481517D01*
X121970043Y-125528632D01*
X121968701Y-125541123D01*
X121968700Y-125541135D01*
X121968700Y-127336870D01*
X121968701Y-127336876D01*
X121975108Y-127396483D01*
X122025402Y-127531328D01*
X122025406Y-127531335D01*
X122111652Y-127646544D01*
X122111655Y-127646547D01*
X122226864Y-127732793D01*
X122226871Y-127732797D01*
X122358281Y-127781810D01*
X122414215Y-127823681D01*
X122438632Y-127889145D01*
X122423780Y-127957418D01*
X122402630Y-127985673D01*
X122280703Y-128107600D01*
X122145165Y-128301169D01*
X122145164Y-128301171D01*
X122045298Y-128515335D01*
X122045294Y-128515344D01*
X121984138Y-128743586D01*
X121984136Y-128743596D01*
X121963541Y-128978999D01*
X119079859Y-128978999D01*
X119077266Y-128949368D01*
X119070649Y-128873728D01*
X119059263Y-128743592D01*
X118998103Y-128515337D01*
X118898235Y-128301171D01*
X118823322Y-128194184D01*
X118762696Y-128107600D01*
X118705598Y-128050502D01*
X118640767Y-127985671D01*
X118607284Y-127924351D01*
X118612268Y-127854659D01*
X118654139Y-127798725D01*
X118685115Y-127781810D01*
X118816531Y-127732796D01*
X118931746Y-127646546D01*
X119017996Y-127531331D01*
X119068291Y-127396483D01*
X119074700Y-127336873D01*
X119074699Y-125541128D01*
X119068291Y-125481517D01*
X119043107Y-125413996D01*
X119017997Y-125346671D01*
X119017993Y-125346664D01*
X118931747Y-125231455D01*
X118931744Y-125231452D01*
X118816535Y-125145206D01*
X118816528Y-125145202D01*
X118681682Y-125094908D01*
X118681683Y-125094908D01*
X118622083Y-125088501D01*
X118622081Y-125088500D01*
X118622073Y-125088500D01*
X118622064Y-125088500D01*
X116826329Y-125088500D01*
X116826323Y-125088501D01*
X116766716Y-125094908D01*
X116631871Y-125145202D01*
X116631864Y-125145206D01*
X116516655Y-125231452D01*
X116516652Y-125231455D01*
X116430406Y-125346664D01*
X116430402Y-125346671D01*
X116380108Y-125481517D01*
X116375043Y-125528632D01*
X116373701Y-125541123D01*
X116373700Y-125541135D01*
X116373700Y-127336870D01*
X116373701Y-127336876D01*
X116380108Y-127396483D01*
X116430402Y-127531328D01*
X116430406Y-127531335D01*
X116516652Y-127646544D01*
X116516655Y-127646547D01*
X116631864Y-127732793D01*
X116631871Y-127732797D01*
X116763281Y-127781810D01*
X116819215Y-127823681D01*
X116843632Y-127889145D01*
X116828780Y-127957418D01*
X116807630Y-127985673D01*
X116685703Y-128107600D01*
X116550165Y-128301169D01*
X116550164Y-128301171D01*
X116450298Y-128515335D01*
X116450294Y-128515344D01*
X116389138Y-128743586D01*
X116389136Y-128743596D01*
X116368541Y-128978999D01*
X113389859Y-128978999D01*
X113387266Y-128949368D01*
X113380649Y-128873728D01*
X113369263Y-128743592D01*
X113308103Y-128515337D01*
X113208235Y-128301171D01*
X113133322Y-128194184D01*
X113072696Y-128107600D01*
X113015598Y-128050502D01*
X112950767Y-127985671D01*
X112917284Y-127924351D01*
X112922268Y-127854659D01*
X112964139Y-127798725D01*
X112995115Y-127781810D01*
X113126531Y-127732796D01*
X113241746Y-127646546D01*
X113327996Y-127531331D01*
X113378291Y-127396483D01*
X113384700Y-127336873D01*
X113384699Y-125541128D01*
X113378291Y-125481517D01*
X113353107Y-125413996D01*
X113327997Y-125346671D01*
X113327993Y-125346664D01*
X113241747Y-125231455D01*
X113241744Y-125231452D01*
X113126535Y-125145206D01*
X113126528Y-125145202D01*
X112991682Y-125094908D01*
X112991683Y-125094908D01*
X112932083Y-125088501D01*
X112932081Y-125088500D01*
X112932073Y-125088500D01*
X112932064Y-125088500D01*
X111136329Y-125088500D01*
X111136323Y-125088501D01*
X111076716Y-125094908D01*
X110941871Y-125145202D01*
X110941864Y-125145206D01*
X110826655Y-125231452D01*
X110826652Y-125231455D01*
X110740406Y-125346664D01*
X110740402Y-125346671D01*
X110690108Y-125481517D01*
X110685043Y-125528632D01*
X110683701Y-125541123D01*
X110683700Y-125541135D01*
X110683700Y-127336870D01*
X110683701Y-127336876D01*
X110690108Y-127396483D01*
X110740402Y-127531328D01*
X110740406Y-127531335D01*
X110826652Y-127646544D01*
X110826655Y-127646547D01*
X110941864Y-127732793D01*
X110941871Y-127732797D01*
X111073281Y-127781810D01*
X111129215Y-127823681D01*
X111153632Y-127889145D01*
X111138780Y-127957418D01*
X111117630Y-127985673D01*
X110995703Y-128107600D01*
X110860165Y-128301169D01*
X110860164Y-128301171D01*
X110760298Y-128515335D01*
X110760294Y-128515344D01*
X110699138Y-128743586D01*
X110699136Y-128743596D01*
X110678541Y-128978999D01*
X107574700Y-128978999D01*
X107574700Y-124982148D01*
X133277035Y-124982148D01*
X133277035Y-124982155D01*
X133297230Y-125161401D01*
X133297231Y-125161406D01*
X133356811Y-125331675D01*
X133366234Y-125346671D01*
X133452784Y-125484414D01*
X133580338Y-125611968D01*
X133733078Y-125707941D01*
X133877382Y-125758435D01*
X133903345Y-125767520D01*
X133903350Y-125767521D01*
X134082596Y-125787717D01*
X134082600Y-125787717D01*
X134082604Y-125787717D01*
X134261849Y-125767521D01*
X134261852Y-125767520D01*
X134261855Y-125767520D01*
X134432122Y-125707941D01*
X134584862Y-125611968D01*
X134712416Y-125484414D01*
X134806930Y-125333996D01*
X163978635Y-125333996D01*
X163978635Y-125334003D01*
X163998830Y-125513249D01*
X163998831Y-125513254D01*
X164058411Y-125683523D01*
X164154384Y-125836262D01*
X164281938Y-125963816D01*
X164282992Y-125964478D01*
X164409255Y-126043815D01*
X164434678Y-126059789D01*
X164482284Y-126076447D01*
X164604945Y-126119368D01*
X164604950Y-126119369D01*
X164784196Y-126139565D01*
X164784200Y-126139565D01*
X164784204Y-126139565D01*
X164963449Y-126119369D01*
X164963451Y-126119368D01*
X164963455Y-126119368D01*
X164963458Y-126119366D01*
X164963462Y-126119366D01*
X165086116Y-126076447D01*
X165155894Y-126072884D01*
X165193044Y-126088495D01*
X165274675Y-126139788D01*
X165444945Y-126199368D01*
X165444950Y-126199369D01*
X165624196Y-126219565D01*
X165624200Y-126219565D01*
X165624204Y-126219565D01*
X165803449Y-126199369D01*
X165803452Y-126199368D01*
X165803455Y-126199368D01*
X165973722Y-126139789D01*
X166126462Y-126043816D01*
X166254016Y-125916262D01*
X166349989Y-125763522D01*
X166409568Y-125593255D01*
X166409569Y-125593249D01*
X166429765Y-125414003D01*
X166429765Y-125413996D01*
X166409569Y-125234750D01*
X166409568Y-125234745D01*
X166383906Y-125161407D01*
X166349989Y-125064478D01*
X166254016Y-124911738D01*
X166126462Y-124784184D01*
X165973723Y-124688211D01*
X165803454Y-124628631D01*
X165803449Y-124628630D01*
X165624204Y-124608435D01*
X165624196Y-124608435D01*
X165444950Y-124628630D01*
X165444945Y-124628631D01*
X165322284Y-124671553D01*
X165252505Y-124675114D01*
X165215357Y-124659505D01*
X165133723Y-124608211D01*
X164963454Y-124548631D01*
X164963449Y-124548630D01*
X164784204Y-124528435D01*
X164784196Y-124528435D01*
X164604950Y-124548630D01*
X164604945Y-124548631D01*
X164434676Y-124608211D01*
X164281937Y-124704184D01*
X164154384Y-124831737D01*
X164058411Y-124984476D01*
X163998831Y-125154745D01*
X163998830Y-125154750D01*
X163978635Y-125333996D01*
X134806930Y-125333996D01*
X134808389Y-125331674D01*
X134867968Y-125161407D01*
X134868719Y-125154745D01*
X134888165Y-124982155D01*
X134888165Y-124982148D01*
X134867969Y-124802902D01*
X134867968Y-124802897D01*
X134833427Y-124704184D01*
X134808389Y-124632630D01*
X134712416Y-124479890D01*
X134584862Y-124352336D01*
X134483728Y-124288789D01*
X134432123Y-124256363D01*
X134261854Y-124196783D01*
X134261849Y-124196782D01*
X134082604Y-124176587D01*
X134082596Y-124176587D01*
X133903350Y-124196782D01*
X133903345Y-124196783D01*
X133733076Y-124256363D01*
X133580337Y-124352336D01*
X133452784Y-124479889D01*
X133356811Y-124632628D01*
X133297231Y-124802897D01*
X133297230Y-124802902D01*
X133277035Y-124982148D01*
X107574700Y-124982148D01*
X107574700Y-123193996D01*
X134518635Y-123193996D01*
X134518635Y-123194003D01*
X134538830Y-123373249D01*
X134538831Y-123373254D01*
X134598411Y-123543523D01*
X134686400Y-123683555D01*
X134694384Y-123696262D01*
X134821938Y-123823816D01*
X134912280Y-123880582D01*
X134963112Y-123912522D01*
X134974678Y-123919789D01*
X135144945Y-123979368D01*
X135144950Y-123979369D01*
X135324196Y-123999565D01*
X135324200Y-123999565D01*
X135324204Y-123999565D01*
X135503449Y-123979369D01*
X135503452Y-123979368D01*
X135503455Y-123979368D01*
X135673722Y-123919789D01*
X135826462Y-123823816D01*
X135954016Y-123696262D01*
X136049989Y-123543522D01*
X136109568Y-123373255D01*
X136109569Y-123373249D01*
X136129765Y-123194003D01*
X136129765Y-123193996D01*
X136109569Y-123014750D01*
X136109568Y-123014745D01*
X136068781Y-122898183D01*
X172467035Y-122898183D01*
X172467035Y-122898190D01*
X172487230Y-123077436D01*
X172487231Y-123077441D01*
X172546811Y-123247710D01*
X172625693Y-123373249D01*
X172642784Y-123400449D01*
X172770338Y-123528003D01*
X172923078Y-123623976D01*
X173093345Y-123683555D01*
X173093350Y-123683556D01*
X173272596Y-123703752D01*
X173272600Y-123703752D01*
X173272604Y-123703752D01*
X173451849Y-123683556D01*
X173451852Y-123683555D01*
X173451855Y-123683555D01*
X173622122Y-123623976D01*
X173719171Y-123562996D01*
X175217635Y-123562996D01*
X175217635Y-123563003D01*
X175237830Y-123742249D01*
X175237831Y-123742254D01*
X175297411Y-123912523D01*
X175352104Y-123999565D01*
X175393384Y-124065262D01*
X175520938Y-124192816D01*
X175673678Y-124288789D01*
X175843945Y-124348368D01*
X175843950Y-124348369D01*
X176023196Y-124368565D01*
X176023200Y-124368565D01*
X176023204Y-124368565D01*
X176202449Y-124348369D01*
X176202452Y-124348368D01*
X176202455Y-124348368D01*
X176372722Y-124288789D01*
X176525462Y-124192816D01*
X176653016Y-124065262D01*
X176748989Y-123912522D01*
X176808568Y-123742255D01*
X176808569Y-123742249D01*
X176828765Y-123563003D01*
X176828765Y-123562996D01*
X176808569Y-123383750D01*
X176808568Y-123383745D01*
X176748988Y-123213476D01*
X176653015Y-123060737D01*
X176525462Y-122933184D01*
X176372723Y-122837211D01*
X176202454Y-122777631D01*
X176202449Y-122777630D01*
X176023204Y-122757435D01*
X176023196Y-122757435D01*
X175843950Y-122777630D01*
X175843945Y-122777631D01*
X175673676Y-122837211D01*
X175520937Y-122933184D01*
X175393384Y-123060737D01*
X175297411Y-123213476D01*
X175237831Y-123383745D01*
X175237830Y-123383750D01*
X175217635Y-123562996D01*
X173719171Y-123562996D01*
X173774862Y-123528003D01*
X173902416Y-123400449D01*
X173998389Y-123247709D01*
X174057968Y-123077442D01*
X174059850Y-123060738D01*
X174078165Y-122898190D01*
X174078165Y-122898183D01*
X174057969Y-122718937D01*
X174057968Y-122718932D01*
X173998388Y-122548663D01*
X173910400Y-122408632D01*
X173902416Y-122395925D01*
X173774862Y-122268371D01*
X173622123Y-122172398D01*
X173451854Y-122112818D01*
X173451849Y-122112817D01*
X173272604Y-122092622D01*
X173272596Y-122092622D01*
X173093350Y-122112817D01*
X173093345Y-122112818D01*
X172923076Y-122172398D01*
X172770337Y-122268371D01*
X172642784Y-122395924D01*
X172546811Y-122548663D01*
X172487231Y-122718932D01*
X172487230Y-122718937D01*
X172467035Y-122898183D01*
X136068781Y-122898183D01*
X136049989Y-122844478D01*
X135954016Y-122691738D01*
X135826462Y-122564184D01*
X135801764Y-122548665D01*
X135673723Y-122468211D01*
X135503454Y-122408631D01*
X135503449Y-122408630D01*
X135324204Y-122388435D01*
X135324196Y-122388435D01*
X135144950Y-122408630D01*
X135144945Y-122408631D01*
X134974676Y-122468211D01*
X134821937Y-122564184D01*
X134694384Y-122691737D01*
X134598411Y-122844476D01*
X134538831Y-123014745D01*
X134538830Y-123014750D01*
X134518635Y-123193996D01*
X107574700Y-123193996D01*
X107574700Y-117613999D01*
X110678541Y-117613999D01*
X110678541Y-117614000D01*
X110699136Y-117849403D01*
X110699138Y-117849413D01*
X110760294Y-118077655D01*
X110760296Y-118077659D01*
X110760297Y-118077663D01*
X110833198Y-118234000D01*
X110860165Y-118291830D01*
X110860167Y-118291834D01*
X110995701Y-118485395D01*
X110995706Y-118485402D01*
X111162797Y-118652493D01*
X111162803Y-118652498D01*
X111348358Y-118782425D01*
X111391983Y-118837002D01*
X111399177Y-118906500D01*
X111367654Y-118968855D01*
X111348358Y-118985575D01*
X111162797Y-119115505D01*
X110995705Y-119282597D01*
X110860165Y-119476169D01*
X110860164Y-119476171D01*
X110760298Y-119690335D01*
X110760294Y-119690344D01*
X110699138Y-119918586D01*
X110699136Y-119918596D01*
X110678541Y-120153999D01*
X110678541Y-120154000D01*
X110699136Y-120389403D01*
X110699138Y-120389413D01*
X110760294Y-120617655D01*
X110760296Y-120617659D01*
X110760297Y-120617663D01*
X110853814Y-120818210D01*
X110860165Y-120831830D01*
X110860167Y-120831834D01*
X110968481Y-120986521D01*
X110995705Y-121025401D01*
X111162799Y-121192495D01*
X111221392Y-121233522D01*
X111356365Y-121328032D01*
X111356367Y-121328033D01*
X111356370Y-121328035D01*
X111570537Y-121427903D01*
X111798792Y-121489063D01*
X111987118Y-121505539D01*
X112034199Y-121509659D01*
X112034200Y-121509659D01*
X112034201Y-121509659D01*
X112073434Y-121506226D01*
X112269608Y-121489063D01*
X112497863Y-121427903D01*
X112712030Y-121328035D01*
X112905601Y-121192495D01*
X113072695Y-121025401D01*
X113208235Y-120831830D01*
X113308103Y-120617663D01*
X113369263Y-120389408D01*
X113389859Y-120154000D01*
X113369263Y-119918592D01*
X113320384Y-119736171D01*
X113308105Y-119690344D01*
X113308104Y-119690343D01*
X113308103Y-119690337D01*
X113208235Y-119476171D01*
X113137749Y-119375505D01*
X113072694Y-119282597D01*
X112905602Y-119115506D01*
X112905596Y-119115501D01*
X112720042Y-118985575D01*
X112676417Y-118930998D01*
X112669223Y-118861500D01*
X112700746Y-118799145D01*
X112720042Y-118782425D01*
X112772916Y-118745402D01*
X112905601Y-118652495D01*
X113072695Y-118485401D01*
X113208235Y-118291830D01*
X113308103Y-118077663D01*
X113362674Y-117873999D01*
X116368541Y-117873999D01*
X116368541Y-117874000D01*
X116389136Y-118109403D01*
X116389138Y-118109413D01*
X116450294Y-118337655D01*
X116450296Y-118337659D01*
X116450297Y-118337663D01*
X116519186Y-118485395D01*
X116550165Y-118551830D01*
X116550167Y-118551834D01*
X116685701Y-118745395D01*
X116685706Y-118745402D01*
X116852797Y-118912493D01*
X116852803Y-118912498D01*
X117038358Y-119042425D01*
X117081983Y-119097002D01*
X117089177Y-119166500D01*
X117057654Y-119228855D01*
X117038358Y-119245575D01*
X116852797Y-119375505D01*
X116685705Y-119542597D01*
X116550165Y-119736169D01*
X116550164Y-119736171D01*
X116450298Y-119950335D01*
X116450294Y-119950344D01*
X116389138Y-120178586D01*
X116389136Y-120178596D01*
X116368541Y-120413999D01*
X116368541Y-120414000D01*
X116389136Y-120649403D01*
X116389138Y-120649413D01*
X116450294Y-120877655D01*
X116450296Y-120877659D01*
X116450297Y-120877663D01*
X116471557Y-120923255D01*
X116550165Y-121091830D01*
X116550167Y-121091834D01*
X116622040Y-121194478D01*
X116685705Y-121285401D01*
X116852799Y-121452495D01*
X116934438Y-121509659D01*
X117046365Y-121588032D01*
X117046367Y-121588033D01*
X117046370Y-121588035D01*
X117260537Y-121687903D01*
X117488792Y-121749063D01*
X117677118Y-121765539D01*
X117724199Y-121769659D01*
X117724200Y-121769659D01*
X117724201Y-121769659D01*
X117763434Y-121766226D01*
X117959608Y-121749063D01*
X118187863Y-121687903D01*
X118402030Y-121588035D01*
X118595601Y-121452495D01*
X118762695Y-121285401D01*
X118898235Y-121091830D01*
X118998103Y-120877663D01*
X119059263Y-120649408D01*
X119079859Y-120414000D01*
X119059263Y-120178592D01*
X118998103Y-119950337D01*
X118898235Y-119736171D01*
X118866141Y-119690335D01*
X118762694Y-119542597D01*
X118595602Y-119375506D01*
X118595596Y-119375501D01*
X118410042Y-119245575D01*
X118366417Y-119190998D01*
X118359223Y-119121500D01*
X118390746Y-119059145D01*
X118410042Y-119042425D01*
X118499244Y-118979965D01*
X118595601Y-118912495D01*
X118762695Y-118745401D01*
X118898235Y-118551830D01*
X118998103Y-118337663D01*
X119059263Y-118109408D01*
X119079859Y-117874000D01*
X119059263Y-117638592D01*
X119052673Y-117613999D01*
X121963541Y-117613999D01*
X121963541Y-117614000D01*
X121984136Y-117849403D01*
X121984138Y-117849413D01*
X122045294Y-118077655D01*
X122045296Y-118077659D01*
X122045297Y-118077663D01*
X122118198Y-118234000D01*
X122145165Y-118291830D01*
X122145167Y-118291834D01*
X122280701Y-118485395D01*
X122280706Y-118485402D01*
X122447797Y-118652493D01*
X122447803Y-118652498D01*
X122633358Y-118782425D01*
X122676983Y-118837002D01*
X122684177Y-118906500D01*
X122652654Y-118968855D01*
X122633358Y-118985575D01*
X122447797Y-119115505D01*
X122280705Y-119282597D01*
X122145165Y-119476169D01*
X122145164Y-119476171D01*
X122045298Y-119690335D01*
X122045294Y-119690344D01*
X121984138Y-119918586D01*
X121984136Y-119918596D01*
X121963541Y-120153999D01*
X121963541Y-120154000D01*
X121984136Y-120389403D01*
X121984138Y-120389413D01*
X122045294Y-120617655D01*
X122045296Y-120617659D01*
X122045297Y-120617663D01*
X122138814Y-120818210D01*
X122145165Y-120831830D01*
X122145167Y-120831834D01*
X122253481Y-120986521D01*
X122280705Y-121025401D01*
X122447799Y-121192495D01*
X122506392Y-121233522D01*
X122641365Y-121328032D01*
X122641367Y-121328033D01*
X122641370Y-121328035D01*
X122855537Y-121427903D01*
X123083792Y-121489063D01*
X123272118Y-121505539D01*
X123319199Y-121509659D01*
X123319200Y-121509659D01*
X123319201Y-121509659D01*
X123358434Y-121506226D01*
X123554608Y-121489063D01*
X123782863Y-121427903D01*
X123997030Y-121328035D01*
X124190601Y-121192495D01*
X124319100Y-121063996D01*
X131768635Y-121063996D01*
X131768635Y-121064003D01*
X131788830Y-121243249D01*
X131788831Y-121243254D01*
X131848411Y-121413523D01*
X131930393Y-121543996D01*
X131944384Y-121566262D01*
X132071938Y-121693816D01*
X132224678Y-121789789D01*
X132394945Y-121849368D01*
X132394950Y-121849369D01*
X132574196Y-121869565D01*
X132574200Y-121869565D01*
X132574204Y-121869565D01*
X132753449Y-121849369D01*
X132753452Y-121849368D01*
X132753455Y-121849368D01*
X132923722Y-121789789D01*
X133076462Y-121693816D01*
X133204016Y-121566262D01*
X133299989Y-121413522D01*
X133359568Y-121243255D01*
X133365287Y-121192498D01*
X133379765Y-121064003D01*
X133379765Y-121063996D01*
X133359569Y-120884750D01*
X133359568Y-120884745D01*
X133310318Y-120743996D01*
X142558635Y-120743996D01*
X142558635Y-120744003D01*
X142578830Y-120923249D01*
X142578831Y-120923254D01*
X142638411Y-121093523D01*
X142732491Y-121243249D01*
X142734384Y-121246262D01*
X142861938Y-121373816D01*
X142881746Y-121386262D01*
X142987159Y-121452498D01*
X143014678Y-121469789D01*
X143128620Y-121509659D01*
X143184945Y-121529368D01*
X143184950Y-121529369D01*
X143364196Y-121549565D01*
X143364200Y-121549565D01*
X143364204Y-121549565D01*
X143543449Y-121529369D01*
X143543452Y-121529368D01*
X143543455Y-121529368D01*
X143713722Y-121469789D01*
X143866462Y-121373816D01*
X143994016Y-121246262D01*
X144089989Y-121093522D01*
X144149568Y-120923255D01*
X144150590Y-120914184D01*
X144153991Y-120883996D01*
X163468635Y-120883996D01*
X163468635Y-120884003D01*
X163488830Y-121063249D01*
X163488831Y-121063254D01*
X163548411Y-121233523D01*
X163630864Y-121364745D01*
X163644384Y-121386262D01*
X163771938Y-121513816D01*
X163924678Y-121609789D01*
X163999380Y-121635928D01*
X164056156Y-121676650D01*
X164075379Y-121717086D01*
X164076533Y-121716683D01*
X164078831Y-121723252D01*
X164078832Y-121723255D01*
X164102113Y-121789788D01*
X164138410Y-121893521D01*
X164234384Y-122046262D01*
X164361938Y-122173816D01*
X164514678Y-122269789D01*
X164684945Y-122329368D01*
X164684950Y-122329369D01*
X164864196Y-122349565D01*
X164864200Y-122349565D01*
X164864204Y-122349565D01*
X165043449Y-122329369D01*
X165043452Y-122329368D01*
X165043455Y-122329368D01*
X165213722Y-122269789D01*
X165366462Y-122173816D01*
X165494016Y-122046262D01*
X165589989Y-121893522D01*
X165649568Y-121723255D01*
X165650263Y-121717086D01*
X165669765Y-121544003D01*
X165669765Y-121543996D01*
X165649569Y-121364750D01*
X165649568Y-121364745D01*
X165607056Y-121243254D01*
X165589989Y-121194478D01*
X165494016Y-121041738D01*
X165366462Y-120914184D01*
X165318429Y-120884003D01*
X165213721Y-120818210D01*
X165139021Y-120792072D01*
X165082245Y-120751350D01*
X165063025Y-120710912D01*
X165061868Y-120711318D01*
X165029094Y-120617655D01*
X164999989Y-120534478D01*
X164904016Y-120381738D01*
X164776462Y-120254184D01*
X164656165Y-120178596D01*
X164623723Y-120158211D01*
X164453454Y-120098631D01*
X164453449Y-120098630D01*
X164274204Y-120078435D01*
X164274196Y-120078435D01*
X164094950Y-120098630D01*
X164094945Y-120098631D01*
X163924676Y-120158211D01*
X163771937Y-120254184D01*
X163644384Y-120381737D01*
X163548411Y-120534476D01*
X163488831Y-120704745D01*
X163488830Y-120704750D01*
X163468635Y-120883996D01*
X144153991Y-120883996D01*
X144169765Y-120744003D01*
X144169765Y-120743996D01*
X144149569Y-120564750D01*
X144149568Y-120564745D01*
X144096820Y-120414000D01*
X144089989Y-120394478D01*
X144086806Y-120389413D01*
X143994015Y-120241737D01*
X143866462Y-120114184D01*
X143713723Y-120018211D01*
X143543454Y-119958631D01*
X143543449Y-119958630D01*
X143364204Y-119938435D01*
X143364196Y-119938435D01*
X143184950Y-119958630D01*
X143184945Y-119958631D01*
X143014676Y-120018211D01*
X142861937Y-120114184D01*
X142734384Y-120241737D01*
X142638411Y-120394476D01*
X142578831Y-120564745D01*
X142578830Y-120564750D01*
X142558635Y-120743996D01*
X133310318Y-120743996D01*
X133299988Y-120714476D01*
X133239151Y-120617655D01*
X133204016Y-120561738D01*
X133076462Y-120434184D01*
X132923723Y-120338211D01*
X132753454Y-120278631D01*
X132753449Y-120278630D01*
X132574204Y-120258435D01*
X132574196Y-120258435D01*
X132394950Y-120278630D01*
X132394945Y-120278631D01*
X132224676Y-120338211D01*
X132071937Y-120434184D01*
X131944384Y-120561737D01*
X131848411Y-120714476D01*
X131788831Y-120884745D01*
X131788830Y-120884750D01*
X131768635Y-121063996D01*
X124319100Y-121063996D01*
X124357695Y-121025401D01*
X124493235Y-120831830D01*
X124593103Y-120617663D01*
X124654263Y-120389408D01*
X124674859Y-120154000D01*
X124654263Y-119918592D01*
X124605384Y-119736171D01*
X124593105Y-119690344D01*
X124593104Y-119690343D01*
X124593103Y-119690337D01*
X124493235Y-119476171D01*
X124422749Y-119375505D01*
X124357694Y-119282597D01*
X124190602Y-119115506D01*
X124190596Y-119115501D01*
X124005042Y-118985575D01*
X123961417Y-118930998D01*
X123954223Y-118861500D01*
X123985746Y-118799145D01*
X124005042Y-118782425D01*
X124057916Y-118745402D01*
X124190601Y-118652495D01*
X124357695Y-118485401D01*
X124493235Y-118291830D01*
X124593103Y-118077663D01*
X124654263Y-117849408D01*
X124674859Y-117614000D01*
X124664360Y-117493996D01*
X129298635Y-117493996D01*
X129298635Y-117494003D01*
X129318830Y-117673249D01*
X129318831Y-117673254D01*
X129378411Y-117843523D01*
X129404144Y-117884476D01*
X129474384Y-117996262D01*
X129601938Y-118123816D01*
X129754678Y-118219789D01*
X129924945Y-118279368D01*
X129924950Y-118279369D01*
X130104196Y-118299565D01*
X130104200Y-118299565D01*
X130104204Y-118299565D01*
X130283449Y-118279369D01*
X130283452Y-118279368D01*
X130283455Y-118279368D01*
X130413121Y-118233996D01*
X141508635Y-118233996D01*
X141508635Y-118234003D01*
X141528830Y-118413249D01*
X141528831Y-118413254D01*
X141588411Y-118583523D01*
X141684384Y-118736262D01*
X141811938Y-118863816D01*
X141964678Y-118959789D01*
X142134945Y-119019368D01*
X142134950Y-119019369D01*
X142314196Y-119039565D01*
X142314200Y-119039565D01*
X142314204Y-119039565D01*
X142493449Y-119019369D01*
X142493452Y-119019368D01*
X142493455Y-119019368D01*
X142663722Y-118959789D01*
X142816462Y-118863816D01*
X142944016Y-118736262D01*
X143039989Y-118583522D01*
X143099568Y-118413255D01*
X143113249Y-118291834D01*
X143119765Y-118234003D01*
X143119765Y-118233996D01*
X143099569Y-118054750D01*
X143099568Y-118054745D01*
X143039988Y-117884476D01*
X142944015Y-117731737D01*
X142816462Y-117604184D01*
X142663723Y-117508211D01*
X142493454Y-117448631D01*
X142493449Y-117448630D01*
X142314204Y-117428435D01*
X142314196Y-117428435D01*
X142134950Y-117448630D01*
X142134945Y-117448631D01*
X141964676Y-117508211D01*
X141811937Y-117604184D01*
X141684384Y-117731737D01*
X141588411Y-117884476D01*
X141528831Y-118054745D01*
X141528830Y-118054750D01*
X141508635Y-118233996D01*
X130413121Y-118233996D01*
X130453722Y-118219789D01*
X130606462Y-118123816D01*
X130734016Y-117996262D01*
X130829989Y-117843522D01*
X130889568Y-117673255D01*
X130889984Y-117669565D01*
X130909765Y-117494003D01*
X130909765Y-117493996D01*
X130889569Y-117314750D01*
X130889568Y-117314745D01*
X130854149Y-117213523D01*
X130829989Y-117144478D01*
X130734016Y-116991738D01*
X130606462Y-116864184D01*
X130535111Y-116819351D01*
X130453723Y-116768211D01*
X130283454Y-116708631D01*
X130283449Y-116708630D01*
X130104204Y-116688435D01*
X130104196Y-116688435D01*
X129924950Y-116708630D01*
X129924945Y-116708631D01*
X129754676Y-116768211D01*
X129601937Y-116864184D01*
X129474384Y-116991737D01*
X129378411Y-117144476D01*
X129318831Y-117314745D01*
X129318830Y-117314750D01*
X129298635Y-117493996D01*
X124664360Y-117493996D01*
X124654263Y-117378592D01*
X124605384Y-117196171D01*
X124593105Y-117150344D01*
X124593104Y-117150343D01*
X124593103Y-117150337D01*
X124493235Y-116936171D01*
X124442829Y-116864184D01*
X124357696Y-116742600D01*
X124299595Y-116684499D01*
X124235767Y-116620671D01*
X124202284Y-116559351D01*
X124207268Y-116489659D01*
X124249139Y-116433725D01*
X124280115Y-116416810D01*
X124411531Y-116367796D01*
X124470040Y-116323996D01*
X168268635Y-116323996D01*
X168268635Y-116324003D01*
X168288830Y-116503249D01*
X168288831Y-116503254D01*
X168348411Y-116673523D01*
X168444384Y-116826262D01*
X168571938Y-116953816D01*
X168649576Y-117002599D01*
X168714277Y-117043254D01*
X168724678Y-117049789D01*
X168894945Y-117109368D01*
X168894950Y-117109369D01*
X169074196Y-117129565D01*
X169074200Y-117129565D01*
X169074204Y-117129565D01*
X169253449Y-117109369D01*
X169253452Y-117109368D01*
X169253455Y-117109368D01*
X169423722Y-117049789D01*
X169576462Y-116953816D01*
X169666282Y-116863996D01*
X176288635Y-116863996D01*
X176288635Y-116864003D01*
X176308830Y-117043249D01*
X176308831Y-117043254D01*
X176368411Y-117213523D01*
X176432017Y-117314750D01*
X176464384Y-117366262D01*
X176591938Y-117493816D01*
X176744678Y-117589789D01*
X176914945Y-117649368D01*
X176914950Y-117649369D01*
X177094196Y-117669565D01*
X177094200Y-117669565D01*
X177094204Y-117669565D01*
X177273449Y-117649369D01*
X177273452Y-117649368D01*
X177273455Y-117649368D01*
X177443722Y-117589789D01*
X177596462Y-117493816D01*
X177724016Y-117366262D01*
X177819989Y-117213522D01*
X177879568Y-117043255D01*
X177885373Y-116991737D01*
X177899765Y-116864003D01*
X177899765Y-116863996D01*
X177879569Y-116684750D01*
X177879568Y-116684745D01*
X177859640Y-116627793D01*
X177819989Y-116514478D01*
X177812936Y-116503254D01*
X177764605Y-116426335D01*
X177724016Y-116361738D01*
X177596462Y-116234184D01*
X177592784Y-116231873D01*
X177443723Y-116138211D01*
X177273454Y-116078631D01*
X177273449Y-116078630D01*
X177094204Y-116058435D01*
X177094196Y-116058435D01*
X176914950Y-116078630D01*
X176914945Y-116078631D01*
X176744676Y-116138211D01*
X176591937Y-116234184D01*
X176464384Y-116361737D01*
X176368411Y-116514476D01*
X176308831Y-116684745D01*
X176308830Y-116684750D01*
X176288635Y-116863996D01*
X169666282Y-116863996D01*
X169704016Y-116826262D01*
X169799989Y-116673522D01*
X169859568Y-116503255D01*
X169861100Y-116489659D01*
X169879765Y-116324003D01*
X169879765Y-116323996D01*
X169859569Y-116144750D01*
X169859568Y-116144745D01*
X169857282Y-116138211D01*
X169799989Y-115974478D01*
X169798358Y-115971883D01*
X169704015Y-115821737D01*
X169576462Y-115694184D01*
X169492133Y-115641196D01*
X170558435Y-115641196D01*
X170558435Y-115641203D01*
X170578630Y-115820449D01*
X170578631Y-115820454D01*
X170638211Y-115990723D01*
X170719309Y-116119788D01*
X170734184Y-116143462D01*
X170861738Y-116271016D01*
X171014478Y-116366989D01*
X171156858Y-116416810D01*
X171184745Y-116426568D01*
X171184750Y-116426569D01*
X171363996Y-116446765D01*
X171364000Y-116446765D01*
X171364004Y-116446765D01*
X171543249Y-116426569D01*
X171543252Y-116426568D01*
X171543255Y-116426568D01*
X171713522Y-116366989D01*
X171866262Y-116271016D01*
X171993816Y-116143462D01*
X172089789Y-115990722D01*
X172149368Y-115820455D01*
X172152738Y-115790545D01*
X172169565Y-115641203D01*
X172169565Y-115641196D01*
X172149369Y-115461950D01*
X172149368Y-115461945D01*
X172132240Y-115412995D01*
X174023699Y-115412995D01*
X174050618Y-115548322D01*
X174050621Y-115548332D01*
X174103421Y-115675804D01*
X174103428Y-115675817D01*
X174180085Y-115790541D01*
X174180088Y-115790545D01*
X174277654Y-115888111D01*
X174277658Y-115888114D01*
X174392382Y-115964771D01*
X174392395Y-115964778D01*
X174455033Y-115990723D01*
X174519872Y-116017580D01*
X174519876Y-116017580D01*
X174519877Y-116017581D01*
X174655204Y-116044500D01*
X174655207Y-116044500D01*
X174793195Y-116044500D01*
X174884241Y-116026389D01*
X174928528Y-116017580D01*
X175056011Y-115964775D01*
X175170742Y-115888114D01*
X175268314Y-115790542D01*
X175344975Y-115675811D01*
X175397780Y-115548328D01*
X175424700Y-115412993D01*
X175424700Y-115275007D01*
X175424700Y-115275004D01*
X175397781Y-115139677D01*
X175397780Y-115139676D01*
X175397780Y-115139672D01*
X175385375Y-115109723D01*
X175344978Y-115012195D01*
X175344971Y-115012182D01*
X175268314Y-114897458D01*
X175268311Y-114897454D01*
X175170745Y-114799888D01*
X175170741Y-114799885D01*
X175056017Y-114723228D01*
X175056004Y-114723221D01*
X174928532Y-114670421D01*
X174928522Y-114670418D01*
X174793195Y-114643500D01*
X174793193Y-114643500D01*
X174655207Y-114643500D01*
X174655205Y-114643500D01*
X174519877Y-114670418D01*
X174519867Y-114670421D01*
X174392395Y-114723221D01*
X174392382Y-114723228D01*
X174277658Y-114799885D01*
X174277654Y-114799888D01*
X174180088Y-114897454D01*
X174180085Y-114897458D01*
X174103428Y-115012182D01*
X174103421Y-115012195D01*
X174050621Y-115139667D01*
X174050618Y-115139677D01*
X174023700Y-115275004D01*
X174023700Y-115275007D01*
X174023700Y-115412993D01*
X174023700Y-115412995D01*
X174023699Y-115412995D01*
X172132240Y-115412995D01*
X172125593Y-115394000D01*
X172089789Y-115291678D01*
X171993816Y-115138938D01*
X171866262Y-115011384D01*
X171713523Y-114915411D01*
X171543254Y-114855831D01*
X171543249Y-114855830D01*
X171364004Y-114835635D01*
X171363996Y-114835635D01*
X171184750Y-114855830D01*
X171184745Y-114855831D01*
X171014476Y-114915411D01*
X170861737Y-115011384D01*
X170734184Y-115138937D01*
X170638211Y-115291676D01*
X170578631Y-115461945D01*
X170578630Y-115461950D01*
X170558435Y-115641196D01*
X169492133Y-115641196D01*
X169423723Y-115598211D01*
X169253454Y-115538631D01*
X169253449Y-115538630D01*
X169074204Y-115518435D01*
X169074196Y-115518435D01*
X168894950Y-115538630D01*
X168894945Y-115538631D01*
X168724676Y-115598211D01*
X168571937Y-115694184D01*
X168444384Y-115821737D01*
X168348411Y-115974476D01*
X168288831Y-116144745D01*
X168288830Y-116144750D01*
X168268635Y-116323996D01*
X124470040Y-116323996D01*
X124526746Y-116281546D01*
X124612996Y-116166331D01*
X124663291Y-116031483D01*
X124669700Y-115971873D01*
X124669700Y-115393996D01*
X136648635Y-115393996D01*
X136648635Y-115394003D01*
X136668830Y-115573249D01*
X136668831Y-115573254D01*
X136728411Y-115743523D01*
X136777557Y-115821738D01*
X136824384Y-115896262D01*
X136951938Y-116023816D01*
X137104678Y-116119789D01*
X137237699Y-116166335D01*
X137274945Y-116179368D01*
X137274950Y-116179369D01*
X137454196Y-116199565D01*
X137454200Y-116199565D01*
X137454204Y-116199565D01*
X137633449Y-116179369D01*
X137633452Y-116179368D01*
X137633455Y-116179368D01*
X137803722Y-116119789D01*
X137956462Y-116023816D01*
X138084016Y-115896262D01*
X138179989Y-115743522D01*
X138239568Y-115573255D01*
X138242377Y-115548328D01*
X138259765Y-115394003D01*
X138259765Y-115393996D01*
X138239569Y-115214750D01*
X138239568Y-115214745D01*
X138225246Y-115173815D01*
X138179989Y-115044478D01*
X138159700Y-115012189D01*
X138140782Y-114982080D01*
X138084016Y-114891738D01*
X137956462Y-114764184D01*
X137950115Y-114760196D01*
X157020235Y-114760196D01*
X157020235Y-114760203D01*
X157040430Y-114939449D01*
X157040431Y-114939454D01*
X157100011Y-115109723D01*
X157195984Y-115262462D01*
X157323538Y-115390016D01*
X157476278Y-115485989D01*
X157626717Y-115538630D01*
X157646545Y-115545568D01*
X157646550Y-115545569D01*
X157825796Y-115565765D01*
X157825800Y-115565765D01*
X157825804Y-115565765D01*
X158005049Y-115545569D01*
X158005052Y-115545568D01*
X158005055Y-115545568D01*
X158175322Y-115485989D01*
X158328062Y-115390016D01*
X158455616Y-115262462D01*
X158551589Y-115109722D01*
X158611168Y-114939455D01*
X158615900Y-114897458D01*
X158631365Y-114760203D01*
X158631365Y-114760196D01*
X158611169Y-114580950D01*
X158611168Y-114580945D01*
X158560497Y-114436135D01*
X158551589Y-114410678D01*
X158522730Y-114364750D01*
X158455615Y-114257937D01*
X158328062Y-114130384D01*
X158175323Y-114034411D01*
X158005054Y-113974831D01*
X158005049Y-113974830D01*
X157825804Y-113954635D01*
X157825796Y-113954635D01*
X157646550Y-113974830D01*
X157646545Y-113974831D01*
X157476276Y-114034411D01*
X157323537Y-114130384D01*
X157195984Y-114257937D01*
X157100011Y-114410676D01*
X157040431Y-114580945D01*
X157040430Y-114580950D01*
X157020235Y-114760196D01*
X137950115Y-114760196D01*
X137891324Y-114723255D01*
X137803723Y-114668211D01*
X137633454Y-114608631D01*
X137633449Y-114608630D01*
X137454204Y-114588435D01*
X137454196Y-114588435D01*
X137274950Y-114608630D01*
X137274945Y-114608631D01*
X137104676Y-114668211D01*
X136951937Y-114764184D01*
X136824384Y-114891737D01*
X136728411Y-115044476D01*
X136668831Y-115214745D01*
X136668830Y-115214750D01*
X136648635Y-115393996D01*
X124669700Y-115393996D01*
X124669699Y-114176128D01*
X124663291Y-114116517D01*
X124647364Y-114073815D01*
X124612997Y-113981671D01*
X124612993Y-113981664D01*
X124526747Y-113866455D01*
X124526744Y-113866452D01*
X124411535Y-113780206D01*
X124411528Y-113780202D01*
X124276682Y-113729908D01*
X124276683Y-113729908D01*
X124217083Y-113723501D01*
X124217081Y-113723500D01*
X124217073Y-113723500D01*
X124217064Y-113723500D01*
X122421329Y-113723500D01*
X122421323Y-113723501D01*
X122361716Y-113729908D01*
X122226871Y-113780202D01*
X122226864Y-113780206D01*
X122111655Y-113866452D01*
X122111652Y-113866455D01*
X122025406Y-113981664D01*
X122025402Y-113981671D01*
X121975108Y-114116517D01*
X121969381Y-114169789D01*
X121968701Y-114176123D01*
X121968700Y-114176135D01*
X121968700Y-115971870D01*
X121968701Y-115971876D01*
X121975108Y-116031483D01*
X122025402Y-116166328D01*
X122025406Y-116166335D01*
X122111652Y-116281544D01*
X122111655Y-116281547D01*
X122226864Y-116367793D01*
X122226871Y-116367797D01*
X122358281Y-116416810D01*
X122414215Y-116458681D01*
X122438632Y-116524145D01*
X122423780Y-116592418D01*
X122402630Y-116620673D01*
X122280703Y-116742600D01*
X122145165Y-116936169D01*
X122145164Y-116936171D01*
X122045298Y-117150335D01*
X122045294Y-117150344D01*
X121984138Y-117378586D01*
X121984136Y-117378596D01*
X121963541Y-117613999D01*
X119052673Y-117613999D01*
X118998103Y-117410337D01*
X118898235Y-117196171D01*
X118866140Y-117150335D01*
X118762696Y-117002600D01*
X118713911Y-116953815D01*
X118640767Y-116880671D01*
X118607284Y-116819351D01*
X118612268Y-116749659D01*
X118654139Y-116693725D01*
X118685115Y-116676810D01*
X118816531Y-116627796D01*
X118931746Y-116541546D01*
X119017996Y-116426331D01*
X119068291Y-116291483D01*
X119074700Y-116231873D01*
X119074699Y-114436128D01*
X119068291Y-114376517D01*
X119063902Y-114364750D01*
X119017997Y-114241671D01*
X119017993Y-114241664D01*
X118931747Y-114126455D01*
X118931744Y-114126452D01*
X118816535Y-114040206D01*
X118816528Y-114040202D01*
X118681682Y-113989908D01*
X118681683Y-113989908D01*
X118622083Y-113983501D01*
X118622081Y-113983500D01*
X118622073Y-113983500D01*
X118622064Y-113983500D01*
X116826329Y-113983500D01*
X116826323Y-113983501D01*
X116766716Y-113989908D01*
X116631871Y-114040202D01*
X116631864Y-114040206D01*
X116516655Y-114126452D01*
X116516652Y-114126455D01*
X116430406Y-114241664D01*
X116430402Y-114241671D01*
X116380108Y-114376517D01*
X116376436Y-114410676D01*
X116373701Y-114436123D01*
X116373700Y-114436135D01*
X116373700Y-116231870D01*
X116373701Y-116231876D01*
X116380108Y-116291483D01*
X116430402Y-116426328D01*
X116430406Y-116426335D01*
X116516652Y-116541544D01*
X116516655Y-116541547D01*
X116631864Y-116627793D01*
X116631871Y-116627797D01*
X116763281Y-116676810D01*
X116819215Y-116718681D01*
X116843632Y-116784145D01*
X116828780Y-116852418D01*
X116807630Y-116880673D01*
X116685703Y-117002600D01*
X116550165Y-117196169D01*
X116550164Y-117196171D01*
X116450298Y-117410335D01*
X116450294Y-117410344D01*
X116389138Y-117638586D01*
X116389136Y-117638596D01*
X116368541Y-117873999D01*
X113362674Y-117873999D01*
X113369263Y-117849408D01*
X113389859Y-117614000D01*
X113369263Y-117378592D01*
X113320384Y-117196171D01*
X113308105Y-117150344D01*
X113308104Y-117150343D01*
X113308103Y-117150337D01*
X113208235Y-116936171D01*
X113157829Y-116864184D01*
X113072696Y-116742600D01*
X113014595Y-116684499D01*
X112950767Y-116620671D01*
X112917284Y-116559351D01*
X112922268Y-116489659D01*
X112964139Y-116433725D01*
X112995115Y-116416810D01*
X113126531Y-116367796D01*
X113241746Y-116281546D01*
X113327996Y-116166331D01*
X113378291Y-116031483D01*
X113384700Y-115971873D01*
X113384699Y-114176128D01*
X113378291Y-114116517D01*
X113362364Y-114073815D01*
X113327997Y-113981671D01*
X113327993Y-113981664D01*
X113241747Y-113866455D01*
X113241744Y-113866452D01*
X113126535Y-113780206D01*
X113126528Y-113780202D01*
X112991682Y-113729908D01*
X112991683Y-113729908D01*
X112932083Y-113723501D01*
X112932081Y-113723500D01*
X112932073Y-113723500D01*
X112932064Y-113723500D01*
X111136329Y-113723500D01*
X111136323Y-113723501D01*
X111076716Y-113729908D01*
X110941871Y-113780202D01*
X110941864Y-113780206D01*
X110826655Y-113866452D01*
X110826652Y-113866455D01*
X110740406Y-113981664D01*
X110740402Y-113981671D01*
X110690108Y-114116517D01*
X110684381Y-114169789D01*
X110683701Y-114176123D01*
X110683700Y-114176135D01*
X110683700Y-115971870D01*
X110683701Y-115971876D01*
X110690108Y-116031483D01*
X110740402Y-116166328D01*
X110740406Y-116166335D01*
X110826652Y-116281544D01*
X110826655Y-116281547D01*
X110941864Y-116367793D01*
X110941871Y-116367797D01*
X111073281Y-116416810D01*
X111129215Y-116458681D01*
X111153632Y-116524145D01*
X111138780Y-116592418D01*
X111117630Y-116620673D01*
X110995703Y-116742600D01*
X110860165Y-116936169D01*
X110860164Y-116936171D01*
X110760298Y-117150335D01*
X110760294Y-117150344D01*
X110699138Y-117378586D01*
X110699136Y-117378596D01*
X110678541Y-117613999D01*
X107574700Y-117613999D01*
X107574700Y-113443996D01*
X166698635Y-113443996D01*
X166698635Y-113444003D01*
X166718830Y-113623249D01*
X166718831Y-113623254D01*
X166778411Y-113793523D01*
X166793924Y-113818211D01*
X166874384Y-113946262D01*
X167001938Y-114073816D01*
X167154678Y-114169789D01*
X167324945Y-114229368D01*
X167324950Y-114229369D01*
X167388492Y-114236528D01*
X167452906Y-114263594D01*
X167492462Y-114321188D01*
X167497830Y-114373631D01*
X167478635Y-114543996D01*
X167478635Y-114544003D01*
X167498830Y-114723249D01*
X167498831Y-114723254D01*
X167558411Y-114893523D01*
X167632469Y-115011384D01*
X167654384Y-115046262D01*
X167781938Y-115173816D01*
X167934678Y-115269789D01*
X168104945Y-115329368D01*
X168104950Y-115329369D01*
X168284196Y-115349565D01*
X168284200Y-115349565D01*
X168284204Y-115349565D01*
X168463449Y-115329369D01*
X168463452Y-115329368D01*
X168463455Y-115329368D01*
X168633722Y-115269789D01*
X168786462Y-115173816D01*
X168914016Y-115046262D01*
X169009989Y-114893522D01*
X169069568Y-114723255D01*
X169069571Y-114723228D01*
X169089765Y-114544003D01*
X169089765Y-114543996D01*
X169069569Y-114364750D01*
X169069568Y-114364745D01*
X169034174Y-114263594D01*
X169009989Y-114194478D01*
X168998451Y-114176116D01*
X168914015Y-114041737D01*
X168786462Y-113914184D01*
X168633723Y-113818211D01*
X168463454Y-113758631D01*
X168463450Y-113758630D01*
X168399906Y-113751471D01*
X168335492Y-113724404D01*
X168295937Y-113666809D01*
X168290570Y-113614368D01*
X168309765Y-113444003D01*
X168309765Y-113443996D01*
X168289569Y-113264750D01*
X168289568Y-113264745D01*
X168242198Y-113129369D01*
X168229989Y-113094478D01*
X168134016Y-112941738D01*
X168006462Y-112814184D01*
X167973684Y-112793588D01*
X167853723Y-112718211D01*
X167683454Y-112658631D01*
X167683449Y-112658630D01*
X167504204Y-112638435D01*
X167504196Y-112638435D01*
X167324950Y-112658630D01*
X167324945Y-112658631D01*
X167154676Y-112718211D01*
X167001937Y-112814184D01*
X166874384Y-112941737D01*
X166778411Y-113094476D01*
X166718831Y-113264745D01*
X166718830Y-113264750D01*
X166698635Y-113443996D01*
X107574700Y-113443996D01*
X107574700Y-111273996D01*
X143428635Y-111273996D01*
X143428635Y-111274003D01*
X143448830Y-111453249D01*
X143448831Y-111453254D01*
X143508411Y-111623523D01*
X143565378Y-111714184D01*
X143604384Y-111776262D01*
X143731938Y-111903816D01*
X143822280Y-111960582D01*
X143876225Y-111994478D01*
X143884678Y-111999789D01*
X144054945Y-112059368D01*
X144054950Y-112059369D01*
X144234196Y-112079565D01*
X144234200Y-112079565D01*
X144234204Y-112079565D01*
X144338657Y-112067796D01*
X157071035Y-112067796D01*
X157071035Y-112067803D01*
X157091230Y-112247049D01*
X157091231Y-112247054D01*
X157150811Y-112417323D01*
X157217373Y-112523255D01*
X157246784Y-112570062D01*
X157374338Y-112697616D01*
X157527078Y-112793589D01*
X157677609Y-112846262D01*
X157697345Y-112853168D01*
X157697350Y-112853169D01*
X157876596Y-112873365D01*
X157876600Y-112873365D01*
X157876604Y-112873365D01*
X158055849Y-112853169D01*
X158055852Y-112853168D01*
X158055855Y-112853168D01*
X158226122Y-112793589D01*
X158378862Y-112697616D01*
X158506416Y-112570062D01*
X158602389Y-112417322D01*
X158628047Y-112343996D01*
X164958635Y-112343996D01*
X164958635Y-112344003D01*
X164978830Y-112523249D01*
X164978831Y-112523254D01*
X165038411Y-112693523D01*
X165101287Y-112793589D01*
X165134384Y-112846262D01*
X165261938Y-112973816D01*
X165414678Y-113069789D01*
X165584945Y-113129368D01*
X165584950Y-113129369D01*
X165764196Y-113149565D01*
X165764200Y-113149565D01*
X165764204Y-113149565D01*
X165943449Y-113129369D01*
X165943452Y-113129368D01*
X165943455Y-113129368D01*
X166113722Y-113069789D01*
X166266462Y-112973816D01*
X166394016Y-112846262D01*
X166489989Y-112693522D01*
X166549568Y-112523255D01*
X166569765Y-112344000D01*
X166558841Y-112247049D01*
X166549569Y-112164750D01*
X166549568Y-112164745D01*
X166519762Y-112079565D01*
X166489989Y-111994478D01*
X166394016Y-111841738D01*
X166266462Y-111714184D01*
X166113723Y-111618211D01*
X165943454Y-111558631D01*
X165943449Y-111558630D01*
X165764204Y-111538435D01*
X165764196Y-111538435D01*
X165584950Y-111558630D01*
X165584945Y-111558631D01*
X165414676Y-111618211D01*
X165261937Y-111714184D01*
X165134384Y-111841737D01*
X165038411Y-111994476D01*
X164978831Y-112164745D01*
X164978830Y-112164750D01*
X164958635Y-112343996D01*
X158628047Y-112343996D01*
X158661968Y-112247055D01*
X158661969Y-112247049D01*
X158682165Y-112067803D01*
X158682165Y-112067796D01*
X158661969Y-111888550D01*
X158661968Y-111888545D01*
X158602389Y-111718278D01*
X158506416Y-111565538D01*
X158378862Y-111437984D01*
X158226123Y-111342011D01*
X158055854Y-111282431D01*
X158055849Y-111282430D01*
X157876604Y-111262235D01*
X157876596Y-111262235D01*
X157697350Y-111282430D01*
X157697345Y-111282431D01*
X157527076Y-111342011D01*
X157374337Y-111437984D01*
X157246784Y-111565537D01*
X157150811Y-111718276D01*
X157091231Y-111888545D01*
X157091230Y-111888550D01*
X157071035Y-112067796D01*
X144338657Y-112067796D01*
X144413449Y-112059369D01*
X144413452Y-112059368D01*
X144413455Y-112059368D01*
X144583722Y-111999789D01*
X144736462Y-111903816D01*
X144864016Y-111776262D01*
X144959989Y-111623522D01*
X145019568Y-111453255D01*
X145038815Y-111282431D01*
X145039765Y-111274003D01*
X145039765Y-111273996D01*
X145019569Y-111094750D01*
X145019568Y-111094745D01*
X144959988Y-110924476D01*
X144864015Y-110771737D01*
X144736462Y-110644184D01*
X144583723Y-110548211D01*
X144413454Y-110488631D01*
X144413449Y-110488630D01*
X144234204Y-110468435D01*
X144234196Y-110468435D01*
X144054950Y-110488630D01*
X144054945Y-110488631D01*
X143884676Y-110548211D01*
X143731937Y-110644184D01*
X143604384Y-110771737D01*
X143508411Y-110924476D01*
X143448831Y-111094745D01*
X143448830Y-111094750D01*
X143428635Y-111273996D01*
X107574700Y-111273996D01*
X107574700Y-109133996D01*
X158980235Y-109133996D01*
X158980235Y-109134003D01*
X159000430Y-109313249D01*
X159000431Y-109313254D01*
X159060011Y-109483523D01*
X159155984Y-109636262D01*
X159283538Y-109763816D01*
X159436278Y-109859789D01*
X159606545Y-109919368D01*
X159606550Y-109919369D01*
X159785796Y-109939565D01*
X159785800Y-109939565D01*
X159785804Y-109939565D01*
X159965049Y-109919369D01*
X159965052Y-109919368D01*
X159965055Y-109919368D01*
X160135322Y-109859789D01*
X160288062Y-109763816D01*
X160415616Y-109636262D01*
X160511589Y-109483522D01*
X160571168Y-109313255D01*
X160591365Y-109134000D01*
X160571168Y-108954745D01*
X160511589Y-108784478D01*
X160505894Y-108775415D01*
X160445180Y-108678789D01*
X160415616Y-108631738D01*
X160288062Y-108504184D01*
X160273640Y-108495122D01*
X160135323Y-108408211D01*
X159965054Y-108348631D01*
X159965049Y-108348630D01*
X159785804Y-108328435D01*
X159785796Y-108328435D01*
X159606550Y-108348630D01*
X159606545Y-108348631D01*
X159436276Y-108408211D01*
X159283537Y-108504184D01*
X159155984Y-108631737D01*
X159060011Y-108784476D01*
X159000431Y-108954745D01*
X159000430Y-108954750D01*
X158980235Y-109133996D01*
X107574700Y-109133996D01*
X107574700Y-107952996D01*
X157071035Y-107952996D01*
X157071035Y-107953003D01*
X157091230Y-108132249D01*
X157091231Y-108132254D01*
X157150811Y-108302523D01*
X157217220Y-108408211D01*
X157246784Y-108455262D01*
X157374338Y-108582816D01*
X157527078Y-108678789D01*
X157697345Y-108738368D01*
X157697350Y-108738369D01*
X157876596Y-108758565D01*
X157876600Y-108758565D01*
X157876604Y-108758565D01*
X158055849Y-108738369D01*
X158055852Y-108738368D01*
X158055855Y-108738368D01*
X158226122Y-108678789D01*
X158378862Y-108582816D01*
X158506416Y-108455262D01*
X158602389Y-108302522D01*
X158661968Y-108132255D01*
X158680661Y-107966350D01*
X158682165Y-107953003D01*
X158682165Y-107952996D01*
X158661969Y-107773750D01*
X158661968Y-107773745D01*
X158602389Y-107603478D01*
X158506416Y-107450738D01*
X158378862Y-107323184D01*
X158226123Y-107227211D01*
X158055854Y-107167631D01*
X158055849Y-107167630D01*
X157876604Y-107147435D01*
X157876596Y-107147435D01*
X157697350Y-107167630D01*
X157697345Y-107167631D01*
X157527076Y-107227211D01*
X157374337Y-107323184D01*
X157246784Y-107450737D01*
X157150811Y-107603476D01*
X157091231Y-107773745D01*
X157091230Y-107773750D01*
X157071035Y-107952996D01*
X107574700Y-107952996D01*
X107574700Y-106843996D01*
X166018635Y-106843996D01*
X166018635Y-106844003D01*
X166038830Y-107023249D01*
X166038831Y-107023254D01*
X166098411Y-107193523D01*
X166179883Y-107323184D01*
X166194384Y-107346262D01*
X166321938Y-107473816D01*
X166474678Y-107569789D01*
X166570950Y-107603476D01*
X166644945Y-107629368D01*
X166644950Y-107629369D01*
X166824196Y-107649565D01*
X166824200Y-107649565D01*
X166824204Y-107649565D01*
X167003449Y-107629369D01*
X167003452Y-107629368D01*
X167003455Y-107629368D01*
X167173722Y-107569789D01*
X167326462Y-107473816D01*
X167387283Y-107412995D01*
X174023699Y-107412995D01*
X174050618Y-107548322D01*
X174050621Y-107548332D01*
X174103421Y-107675804D01*
X174103428Y-107675817D01*
X174180085Y-107790541D01*
X174180088Y-107790545D01*
X174277654Y-107888111D01*
X174277658Y-107888114D01*
X174392382Y-107964771D01*
X174392395Y-107964778D01*
X174519867Y-108017578D01*
X174519872Y-108017580D01*
X174519876Y-108017580D01*
X174519877Y-108017581D01*
X174655204Y-108044500D01*
X174716431Y-108044500D01*
X174783470Y-108064185D01*
X174829225Y-108116989D01*
X174839651Y-108154617D01*
X174858830Y-108324849D01*
X174858831Y-108324854D01*
X174918411Y-108495123D01*
X174973512Y-108582815D01*
X175014384Y-108647862D01*
X175141938Y-108775416D01*
X175294678Y-108871389D01*
X175464945Y-108930968D01*
X175464950Y-108930969D01*
X175644196Y-108951165D01*
X175644200Y-108951165D01*
X175644204Y-108951165D01*
X175823449Y-108930969D01*
X175823452Y-108930968D01*
X175823455Y-108930968D01*
X175993722Y-108871389D01*
X176146462Y-108775416D01*
X176274016Y-108647862D01*
X176369989Y-108495122D01*
X176429568Y-108324855D01*
X176429569Y-108324849D01*
X176449765Y-108145603D01*
X176449765Y-108145596D01*
X176429569Y-107966350D01*
X176429568Y-107966345D01*
X176369988Y-107796076D01*
X176294416Y-107675804D01*
X176274016Y-107643338D01*
X176146462Y-107515784D01*
X175993723Y-107419811D01*
X175823454Y-107360231D01*
X175823449Y-107360230D01*
X175644204Y-107340035D01*
X175644195Y-107340035D01*
X175555425Y-107350036D01*
X175486604Y-107337981D01*
X175435225Y-107290631D01*
X175419926Y-107251007D01*
X175415193Y-107227211D01*
X175397780Y-107139672D01*
X175349559Y-107023255D01*
X175344978Y-107012195D01*
X175344971Y-107012182D01*
X175268314Y-106897458D01*
X175268311Y-106897454D01*
X175170745Y-106799888D01*
X175170741Y-106799885D01*
X175056017Y-106723228D01*
X175056004Y-106723221D01*
X174928532Y-106670421D01*
X174928522Y-106670418D01*
X174793195Y-106643500D01*
X174793193Y-106643500D01*
X174655207Y-106643500D01*
X174655205Y-106643500D01*
X174519877Y-106670418D01*
X174519867Y-106670421D01*
X174392395Y-106723221D01*
X174392382Y-106723228D01*
X174277658Y-106799885D01*
X174277654Y-106799888D01*
X174180088Y-106897454D01*
X174180085Y-106897458D01*
X174103428Y-107012182D01*
X174103421Y-107012195D01*
X174050621Y-107139667D01*
X174050618Y-107139677D01*
X174023700Y-107275004D01*
X174023700Y-107275007D01*
X174023700Y-107412993D01*
X174023700Y-107412995D01*
X174023699Y-107412995D01*
X167387283Y-107412995D01*
X167454016Y-107346262D01*
X167549989Y-107193522D01*
X167609568Y-107023255D01*
X167623742Y-106897458D01*
X167629765Y-106844003D01*
X167629765Y-106843996D01*
X167609569Y-106664750D01*
X167609568Y-106664745D01*
X167562198Y-106529369D01*
X167549989Y-106494478D01*
X167454016Y-106341738D01*
X167326462Y-106214184D01*
X167173723Y-106118211D01*
X167003454Y-106058631D01*
X167003449Y-106058630D01*
X166824204Y-106038435D01*
X166824196Y-106038435D01*
X166644950Y-106058630D01*
X166644945Y-106058631D01*
X166474676Y-106118211D01*
X166321937Y-106214184D01*
X166194384Y-106341737D01*
X166098411Y-106494476D01*
X166038831Y-106664745D01*
X166038830Y-106664750D01*
X166018635Y-106843996D01*
X107574700Y-106843996D01*
X107574700Y-105153996D01*
X136648635Y-105153996D01*
X136648635Y-105154003D01*
X136668830Y-105333249D01*
X136668831Y-105333254D01*
X136728411Y-105503523D01*
X136766880Y-105564745D01*
X136824384Y-105656262D01*
X136951938Y-105783816D01*
X137104678Y-105879789D01*
X137189773Y-105909565D01*
X137274945Y-105939368D01*
X137274950Y-105939369D01*
X137454196Y-105959565D01*
X137454200Y-105959565D01*
X137454204Y-105959565D01*
X137633449Y-105939369D01*
X137633452Y-105939368D01*
X137633455Y-105939368D01*
X137803722Y-105879789D01*
X137956462Y-105783816D01*
X138084016Y-105656262D01*
X138179989Y-105503522D01*
X138239568Y-105333255D01*
X138245202Y-105283254D01*
X138259765Y-105154003D01*
X138259765Y-105153996D01*
X138254131Y-105103996D01*
X146788635Y-105103996D01*
X146788635Y-105104003D01*
X146808830Y-105283249D01*
X146808831Y-105283254D01*
X146868411Y-105453523D01*
X146938297Y-105564745D01*
X146964384Y-105606262D01*
X147091938Y-105733816D01*
X147244678Y-105829789D01*
X147387567Y-105879788D01*
X147414945Y-105889368D01*
X147414950Y-105889369D01*
X147594196Y-105909565D01*
X147594200Y-105909565D01*
X147594204Y-105909565D01*
X147773449Y-105889369D01*
X147773452Y-105889368D01*
X147773455Y-105889368D01*
X147943722Y-105829789D01*
X148080261Y-105743996D01*
X160848635Y-105743996D01*
X160848635Y-105744003D01*
X160868830Y-105923249D01*
X160868831Y-105923254D01*
X160928411Y-106093523D01*
X160943924Y-106118211D01*
X161024384Y-106246262D01*
X161151938Y-106373816D01*
X161304678Y-106469789D01*
X161474945Y-106529368D01*
X161474950Y-106529369D01*
X161654196Y-106549565D01*
X161654200Y-106549565D01*
X161654204Y-106549565D01*
X161833449Y-106529369D01*
X161833452Y-106529368D01*
X161833455Y-106529368D01*
X162003722Y-106469789D01*
X162156462Y-106373816D01*
X162284016Y-106246262D01*
X162379989Y-106093522D01*
X162439568Y-105923255D01*
X162439569Y-105923249D01*
X162459765Y-105744003D01*
X162459765Y-105743996D01*
X162439569Y-105564750D01*
X162439568Y-105564745D01*
X162379988Y-105394476D01*
X162284015Y-105241737D01*
X162156462Y-105114184D01*
X162003723Y-105018211D01*
X161833454Y-104958631D01*
X161833449Y-104958630D01*
X161654204Y-104938435D01*
X161654196Y-104938435D01*
X161474950Y-104958630D01*
X161474945Y-104958631D01*
X161304676Y-105018211D01*
X161151937Y-105114184D01*
X161024384Y-105241737D01*
X160928411Y-105394476D01*
X160868831Y-105564745D01*
X160868830Y-105564750D01*
X160848635Y-105743996D01*
X148080261Y-105743996D01*
X148096462Y-105733816D01*
X148224016Y-105606262D01*
X148319989Y-105453522D01*
X148379568Y-105283255D01*
X148394131Y-105154003D01*
X148399765Y-105104003D01*
X148399765Y-105103996D01*
X148379569Y-104924750D01*
X148379568Y-104924745D01*
X148319988Y-104754476D01*
X148224015Y-104601737D01*
X148096462Y-104474184D01*
X147943723Y-104378211D01*
X147773454Y-104318631D01*
X147773449Y-104318630D01*
X147594204Y-104298435D01*
X147594196Y-104298435D01*
X147414950Y-104318630D01*
X147414945Y-104318631D01*
X147244676Y-104378211D01*
X147091937Y-104474184D01*
X146964384Y-104601737D01*
X146868411Y-104754476D01*
X146808831Y-104924745D01*
X146808830Y-104924750D01*
X146788635Y-105103996D01*
X138254131Y-105103996D01*
X138239569Y-104974750D01*
X138239568Y-104974745D01*
X138179988Y-104804476D01*
X138084015Y-104651737D01*
X137956462Y-104524184D01*
X137803723Y-104428211D01*
X137633454Y-104368631D01*
X137633449Y-104368630D01*
X137454204Y-104348435D01*
X137454196Y-104348435D01*
X137274950Y-104368630D01*
X137274945Y-104368631D01*
X137104676Y-104428211D01*
X136951937Y-104524184D01*
X136824384Y-104651737D01*
X136728411Y-104804476D01*
X136668831Y-104974745D01*
X136668830Y-104974750D01*
X136648635Y-105153996D01*
X107574700Y-105153996D01*
X107574700Y-103392543D01*
X109863699Y-103392543D01*
X109902147Y-103585829D01*
X109902150Y-103585839D01*
X109977564Y-103767907D01*
X109977571Y-103767920D01*
X110087060Y-103931781D01*
X110087063Y-103931785D01*
X110226414Y-104071136D01*
X110226418Y-104071139D01*
X110390279Y-104180628D01*
X110390292Y-104180635D01*
X110572360Y-104256049D01*
X110572365Y-104256051D01*
X110572369Y-104256051D01*
X110572370Y-104256052D01*
X110765656Y-104294500D01*
X110765659Y-104294500D01*
X110962743Y-104294500D01*
X111092782Y-104268632D01*
X111156035Y-104256051D01*
X111338114Y-104180632D01*
X111501982Y-104071139D01*
X111641339Y-103931782D01*
X111750832Y-103767914D01*
X111826251Y-103585835D01*
X111864700Y-103392543D01*
X115863699Y-103392543D01*
X115902147Y-103585829D01*
X115902150Y-103585839D01*
X115977564Y-103767907D01*
X115977571Y-103767920D01*
X116087060Y-103931781D01*
X116087063Y-103931785D01*
X116226414Y-104071136D01*
X116226418Y-104071139D01*
X116390279Y-104180628D01*
X116390292Y-104180635D01*
X116572360Y-104256049D01*
X116572365Y-104256051D01*
X116572369Y-104256051D01*
X116572370Y-104256052D01*
X116765656Y-104294500D01*
X116765659Y-104294500D01*
X116962743Y-104294500D01*
X117092782Y-104268632D01*
X117156035Y-104256051D01*
X117338114Y-104180632D01*
X117501982Y-104071139D01*
X117641339Y-103931782D01*
X117750832Y-103767914D01*
X117826251Y-103585835D01*
X117864700Y-103392541D01*
X117864700Y-103195459D01*
X117864700Y-103195456D01*
X117826252Y-103002170D01*
X117826251Y-103002169D01*
X117826251Y-103002165D01*
X117826249Y-103002160D01*
X117750835Y-102820092D01*
X117750828Y-102820079D01*
X117641339Y-102656218D01*
X117641336Y-102656214D01*
X117501985Y-102516863D01*
X117501981Y-102516860D01*
X117338120Y-102407371D01*
X117338107Y-102407364D01*
X117156039Y-102331950D01*
X117156029Y-102331947D01*
X116962743Y-102293500D01*
X116962741Y-102293500D01*
X116765659Y-102293500D01*
X116765657Y-102293500D01*
X116572370Y-102331947D01*
X116572360Y-102331950D01*
X116390292Y-102407364D01*
X116390279Y-102407371D01*
X116226418Y-102516860D01*
X116226414Y-102516863D01*
X116087063Y-102656214D01*
X116087060Y-102656218D01*
X115977571Y-102820079D01*
X115977564Y-102820092D01*
X115902150Y-103002160D01*
X115902147Y-103002170D01*
X115863700Y-103195456D01*
X115863700Y-103195459D01*
X115863700Y-103392541D01*
X115863700Y-103392543D01*
X115863699Y-103392543D01*
X111864700Y-103392543D01*
X111864700Y-103392541D01*
X111864700Y-103195459D01*
X111864700Y-103195456D01*
X111826252Y-103002170D01*
X111826251Y-103002169D01*
X111826251Y-103002165D01*
X111826249Y-103002160D01*
X111750835Y-102820092D01*
X111750828Y-102820079D01*
X111641339Y-102656218D01*
X111641336Y-102656214D01*
X111501985Y-102516863D01*
X111501981Y-102516860D01*
X111338120Y-102407371D01*
X111338107Y-102407364D01*
X111156039Y-102331950D01*
X111156029Y-102331947D01*
X110962743Y-102293500D01*
X110962741Y-102293500D01*
X110765659Y-102293500D01*
X110765657Y-102293500D01*
X110572370Y-102331947D01*
X110572360Y-102331950D01*
X110390292Y-102407364D01*
X110390279Y-102407371D01*
X110226418Y-102516860D01*
X110226414Y-102516863D01*
X110087063Y-102656214D01*
X110087060Y-102656218D01*
X109977571Y-102820079D01*
X109977564Y-102820092D01*
X109902150Y-103002160D01*
X109902147Y-103002170D01*
X109863700Y-103195456D01*
X109863700Y-103195459D01*
X109863700Y-103392541D01*
X109863700Y-103392543D01*
X109863699Y-103392543D01*
X107574700Y-103392543D01*
X107574700Y-101023996D01*
X142608635Y-101023996D01*
X142608635Y-101024003D01*
X142628830Y-101203249D01*
X142628831Y-101203254D01*
X142688411Y-101373523D01*
X142784384Y-101526262D01*
X142911938Y-101653816D01*
X143064678Y-101749789D01*
X143234945Y-101809368D01*
X143234950Y-101809369D01*
X143414196Y-101829565D01*
X143414200Y-101829565D01*
X143414204Y-101829565D01*
X143593449Y-101809369D01*
X143593452Y-101809368D01*
X143593455Y-101809368D01*
X143763722Y-101749789D01*
X143916462Y-101653816D01*
X144044016Y-101526262D01*
X144139989Y-101373522D01*
X144199568Y-101203255D01*
X144219765Y-101024000D01*
X144199568Y-100844745D01*
X144139989Y-100674478D01*
X144044016Y-100521738D01*
X143916462Y-100394184D01*
X143763723Y-100298211D01*
X143593454Y-100238631D01*
X143593449Y-100238630D01*
X143414204Y-100218435D01*
X143414196Y-100218435D01*
X143234950Y-100238630D01*
X143234945Y-100238631D01*
X143064676Y-100298211D01*
X142911937Y-100394184D01*
X142784384Y-100521737D01*
X142688411Y-100674476D01*
X142628831Y-100844745D01*
X142628830Y-100844750D01*
X142608635Y-101023996D01*
X107574700Y-101023996D01*
X107574700Y-99164596D01*
X170355235Y-99164596D01*
X170355235Y-99164603D01*
X170375430Y-99343849D01*
X170375431Y-99343854D01*
X170435011Y-99514123D01*
X170530984Y-99666862D01*
X170658538Y-99794416D01*
X170811278Y-99890389D01*
X170981545Y-99949968D01*
X170981550Y-99949969D01*
X171160796Y-99970165D01*
X171160800Y-99970165D01*
X171160804Y-99970165D01*
X171340049Y-99949969D01*
X171340052Y-99949968D01*
X171340055Y-99949968D01*
X171510322Y-99890389D01*
X171663062Y-99794416D01*
X171790616Y-99666862D01*
X171886589Y-99514122D01*
X171946168Y-99343855D01*
X171966365Y-99164600D01*
X171947928Y-99000969D01*
X171946169Y-98985350D01*
X171946168Y-98985345D01*
X171930787Y-98941388D01*
X171886589Y-98815078D01*
X171790616Y-98662338D01*
X171663062Y-98534784D01*
X171510323Y-98438811D01*
X171340054Y-98379231D01*
X171340049Y-98379230D01*
X171160804Y-98359035D01*
X171160796Y-98359035D01*
X170981550Y-98379230D01*
X170981545Y-98379231D01*
X170811276Y-98438811D01*
X170658537Y-98534784D01*
X170530984Y-98662337D01*
X170435011Y-98815076D01*
X170375431Y-98985345D01*
X170375430Y-98985350D01*
X170355235Y-99164596D01*
X107574700Y-99164596D01*
X107574700Y-98215596D01*
X128058635Y-98215596D01*
X128058635Y-98215603D01*
X128078830Y-98394849D01*
X128078831Y-98394854D01*
X128138411Y-98565123D01*
X128199495Y-98662337D01*
X128234384Y-98717862D01*
X128361938Y-98845416D01*
X128514678Y-98941389D01*
X128684945Y-99000968D01*
X128684950Y-99000969D01*
X128864196Y-99021165D01*
X128864200Y-99021165D01*
X128864204Y-99021165D01*
X129043449Y-99000969D01*
X129043452Y-99000968D01*
X129043455Y-99000968D01*
X129213722Y-98941389D01*
X129366462Y-98845416D01*
X129494016Y-98717862D01*
X129589989Y-98565122D01*
X129649568Y-98394855D01*
X129649569Y-98394849D01*
X129669765Y-98215603D01*
X129669765Y-98215596D01*
X129649569Y-98036350D01*
X129649568Y-98036345D01*
X129589988Y-97866076D01*
X129494015Y-97713337D01*
X129366462Y-97585784D01*
X129213723Y-97489811D01*
X129043454Y-97430231D01*
X129043449Y-97430230D01*
X128864204Y-97410035D01*
X128864196Y-97410035D01*
X128684950Y-97430230D01*
X128684945Y-97430231D01*
X128514676Y-97489811D01*
X128361937Y-97585784D01*
X128234384Y-97713337D01*
X128138411Y-97866076D01*
X128078831Y-98036345D01*
X128078830Y-98036350D01*
X128058635Y-98215596D01*
X107574700Y-98215596D01*
X107574700Y-93101498D01*
X108456377Y-93101498D01*
X108456377Y-93101501D01*
X108475643Y-93370882D01*
X108533048Y-93634763D01*
X108533050Y-93634770D01*
X108591648Y-93791877D01*
X108627428Y-93887808D01*
X108627430Y-93887812D01*
X108756852Y-94124831D01*
X108756857Y-94124839D01*
X108918693Y-94341027D01*
X108918709Y-94341045D01*
X109109654Y-94531990D01*
X109109672Y-94532006D01*
X109325860Y-94693842D01*
X109325868Y-94693847D01*
X109562887Y-94823269D01*
X109562891Y-94823271D01*
X109562893Y-94823272D01*
X109815930Y-94917650D01*
X109947876Y-94946353D01*
X110079817Y-94975056D01*
X110079819Y-94975056D01*
X110079823Y-94975057D01*
X110319207Y-94992177D01*
X110349199Y-94994323D01*
X110349200Y-94994323D01*
X110349201Y-94994323D01*
X110376187Y-94992392D01*
X110618577Y-94975057D01*
X110882470Y-94917650D01*
X111135507Y-94823272D01*
X111372537Y-94693844D01*
X111588735Y-94532000D01*
X111779700Y-94341035D01*
X111941544Y-94124837D01*
X112070972Y-93887807D01*
X112165350Y-93634770D01*
X112222757Y-93370877D01*
X112242023Y-93101500D01*
X112242023Y-93101498D01*
X113286377Y-93101498D01*
X113286377Y-93101501D01*
X113305643Y-93370882D01*
X113363048Y-93634763D01*
X113363050Y-93634770D01*
X113421648Y-93791877D01*
X113457428Y-93887808D01*
X113457430Y-93887812D01*
X113586852Y-94124831D01*
X113586857Y-94124839D01*
X113748693Y-94341027D01*
X113748709Y-94341045D01*
X113939654Y-94531990D01*
X113939672Y-94532006D01*
X114155860Y-94693842D01*
X114155868Y-94693847D01*
X114392887Y-94823269D01*
X114392891Y-94823271D01*
X114392893Y-94823272D01*
X114645930Y-94917650D01*
X114777876Y-94946353D01*
X114909817Y-94975056D01*
X114909819Y-94975056D01*
X114909823Y-94975057D01*
X115149207Y-94992177D01*
X115179199Y-94994323D01*
X115179200Y-94994323D01*
X115179201Y-94994323D01*
X115206187Y-94992392D01*
X115448577Y-94975057D01*
X115712470Y-94917650D01*
X115965507Y-94823272D01*
X116093102Y-94753600D01*
X140519031Y-94753600D01*
X140519031Y-94753607D01*
X140539226Y-94932853D01*
X140539227Y-94932858D01*
X140598807Y-95103127D01*
X140655435Y-95193249D01*
X140694780Y-95255866D01*
X140822334Y-95383420D01*
X140975074Y-95479393D01*
X141080440Y-95516262D01*
X141145341Y-95538972D01*
X141145346Y-95538973D01*
X141324592Y-95559169D01*
X141324596Y-95559169D01*
X141324600Y-95559169D01*
X141503845Y-95538973D01*
X141503848Y-95538972D01*
X141503851Y-95538972D01*
X141674118Y-95479393D01*
X141826858Y-95383420D01*
X141954412Y-95255866D01*
X142050385Y-95103126D01*
X142081573Y-95013996D01*
X160448635Y-95013996D01*
X160448635Y-95014003D01*
X160468830Y-95193249D01*
X160468831Y-95193254D01*
X160528411Y-95363523D01*
X160624384Y-95516262D01*
X160751938Y-95643816D01*
X160904678Y-95739789D01*
X161074945Y-95799368D01*
X161074950Y-95799369D01*
X161254196Y-95819565D01*
X161254200Y-95819565D01*
X161254204Y-95819565D01*
X161433449Y-95799369D01*
X161433452Y-95799368D01*
X161433455Y-95799368D01*
X161603722Y-95739789D01*
X161756462Y-95643816D01*
X161884016Y-95516262D01*
X161979989Y-95363522D01*
X162039568Y-95193255D01*
X162059765Y-95014000D01*
X162055377Y-94975057D01*
X162039569Y-94834750D01*
X162039568Y-94834745D01*
X162035552Y-94823269D01*
X161979989Y-94664478D01*
X161884016Y-94511738D01*
X161756462Y-94384184D01*
X161687791Y-94341035D01*
X161603723Y-94288211D01*
X161433454Y-94228631D01*
X161433449Y-94228630D01*
X161254204Y-94208435D01*
X161254196Y-94208435D01*
X161074950Y-94228630D01*
X161074945Y-94228631D01*
X160904676Y-94288211D01*
X160751937Y-94384184D01*
X160624384Y-94511737D01*
X160528411Y-94664476D01*
X160468831Y-94834745D01*
X160468830Y-94834750D01*
X160448635Y-95013996D01*
X142081573Y-95013996D01*
X142109964Y-94932859D01*
X142121019Y-94834745D01*
X142130161Y-94753607D01*
X142130161Y-94753600D01*
X142109965Y-94574354D01*
X142109964Y-94574349D01*
X142050385Y-94404082D01*
X141954412Y-94251342D01*
X141826858Y-94123788D01*
X141674119Y-94027815D01*
X141503850Y-93968235D01*
X141503845Y-93968234D01*
X141324600Y-93948039D01*
X141324592Y-93948039D01*
X141145346Y-93968234D01*
X141145341Y-93968235D01*
X140975072Y-94027815D01*
X140822333Y-94123788D01*
X140694780Y-94251341D01*
X140598807Y-94404080D01*
X140539227Y-94574349D01*
X140539226Y-94574354D01*
X140519031Y-94753600D01*
X116093102Y-94753600D01*
X116202537Y-94693844D01*
X116418735Y-94532000D01*
X116609700Y-94341035D01*
X116771544Y-94124837D01*
X116900972Y-93887807D01*
X116995350Y-93634770D01*
X117052757Y-93370877D01*
X117072023Y-93101500D01*
X117052757Y-92832123D01*
X116995350Y-92568230D01*
X116900972Y-92315193D01*
X116771544Y-92078163D01*
X116771542Y-92078160D01*
X116609706Y-91861972D01*
X116609690Y-91861954D01*
X116418745Y-91671009D01*
X116418727Y-91670993D01*
X116202539Y-91509157D01*
X116202531Y-91509152D01*
X115965512Y-91379730D01*
X115965508Y-91379728D01*
X115869577Y-91343948D01*
X115712470Y-91285350D01*
X115712466Y-91285349D01*
X115712463Y-91285348D01*
X115448582Y-91227943D01*
X115179201Y-91208677D01*
X115179199Y-91208677D01*
X114909817Y-91227943D01*
X114645936Y-91285348D01*
X114645931Y-91285349D01*
X114645930Y-91285350D01*
X114584751Y-91308168D01*
X114392891Y-91379728D01*
X114392887Y-91379730D01*
X114155868Y-91509152D01*
X114155860Y-91509157D01*
X113939672Y-91670993D01*
X113939654Y-91671009D01*
X113748709Y-91861954D01*
X113748693Y-91861972D01*
X113586857Y-92078160D01*
X113586852Y-92078168D01*
X113457430Y-92315187D01*
X113457428Y-92315191D01*
X113363048Y-92568236D01*
X113305643Y-92832117D01*
X113286377Y-93101498D01*
X112242023Y-93101498D01*
X112222757Y-92832123D01*
X112165350Y-92568230D01*
X112070972Y-92315193D01*
X111941544Y-92078163D01*
X111941542Y-92078160D01*
X111779706Y-91861972D01*
X111779690Y-91861954D01*
X111588745Y-91671009D01*
X111588727Y-91670993D01*
X111372539Y-91509157D01*
X111372531Y-91509152D01*
X111135512Y-91379730D01*
X111135508Y-91379728D01*
X111039577Y-91343948D01*
X110882470Y-91285350D01*
X110882466Y-91285349D01*
X110882463Y-91285348D01*
X110618582Y-91227943D01*
X110349201Y-91208677D01*
X110349199Y-91208677D01*
X110079817Y-91227943D01*
X109815936Y-91285348D01*
X109815931Y-91285349D01*
X109815930Y-91285350D01*
X109754751Y-91308168D01*
X109562891Y-91379728D01*
X109562887Y-91379730D01*
X109325868Y-91509152D01*
X109325860Y-91509157D01*
X109109672Y-91670993D01*
X109109654Y-91671009D01*
X108918709Y-91861954D01*
X108918693Y-91861972D01*
X108756857Y-92078160D01*
X108756852Y-92078168D01*
X108627430Y-92315187D01*
X108627428Y-92315191D01*
X108533048Y-92568236D01*
X108475643Y-92832117D01*
X108456377Y-93101498D01*
X107574700Y-93101498D01*
X107574700Y-88401498D01*
X108456377Y-88401498D01*
X108456377Y-88401501D01*
X108475643Y-88670882D01*
X108533048Y-88934763D01*
X108533050Y-88934770D01*
X108588641Y-89083815D01*
X108627428Y-89187808D01*
X108627430Y-89187812D01*
X108756852Y-89424831D01*
X108756857Y-89424839D01*
X108918693Y-89641027D01*
X108918709Y-89641045D01*
X109109654Y-89831990D01*
X109109672Y-89832006D01*
X109325860Y-89993842D01*
X109325868Y-89993847D01*
X109562887Y-90123269D01*
X109562891Y-90123271D01*
X109562893Y-90123272D01*
X109815930Y-90217650D01*
X109947876Y-90246353D01*
X110079817Y-90275056D01*
X110079819Y-90275056D01*
X110079823Y-90275057D01*
X110319207Y-90292177D01*
X110349199Y-90294323D01*
X110349200Y-90294323D01*
X110349201Y-90294323D01*
X110376187Y-90292392D01*
X110618577Y-90275057D01*
X110882470Y-90217650D01*
X111135507Y-90123272D01*
X111372537Y-89993844D01*
X111588735Y-89832000D01*
X111779700Y-89641035D01*
X111941544Y-89424837D01*
X112070972Y-89187807D01*
X112165350Y-88934770D01*
X112222757Y-88670877D01*
X112242023Y-88401500D01*
X112242023Y-88401498D01*
X113286377Y-88401498D01*
X113286377Y-88401501D01*
X113305643Y-88670882D01*
X113363048Y-88934763D01*
X113363050Y-88934770D01*
X113418641Y-89083815D01*
X113457428Y-89187808D01*
X113457430Y-89187812D01*
X113586852Y-89424831D01*
X113586857Y-89424839D01*
X113748693Y-89641027D01*
X113748709Y-89641045D01*
X113939654Y-89831990D01*
X113939672Y-89832006D01*
X114155860Y-89993842D01*
X114155868Y-89993847D01*
X114392887Y-90123269D01*
X114392891Y-90123271D01*
X114392893Y-90123272D01*
X114645930Y-90217650D01*
X114777876Y-90246353D01*
X114909817Y-90275056D01*
X114909819Y-90275056D01*
X114909823Y-90275057D01*
X115149207Y-90292177D01*
X115179199Y-90294323D01*
X115179200Y-90294323D01*
X115179201Y-90294323D01*
X115206187Y-90292392D01*
X115448577Y-90275057D01*
X115712470Y-90217650D01*
X115965507Y-90123272D01*
X116202537Y-89993844D01*
X116418735Y-89832000D01*
X116609700Y-89641035D01*
X116771544Y-89424837D01*
X116900972Y-89187807D01*
X116995350Y-88934770D01*
X117052757Y-88670877D01*
X117068268Y-88453996D01*
X138278635Y-88453996D01*
X138278635Y-88454003D01*
X138298830Y-88633249D01*
X138298831Y-88633254D01*
X138358411Y-88803523D01*
X138426465Y-88911830D01*
X138454384Y-88956262D01*
X138581938Y-89083816D01*
X138734678Y-89179789D01*
X138904945Y-89239368D01*
X138904950Y-89239369D01*
X139084196Y-89259565D01*
X139084200Y-89259565D01*
X139084204Y-89259565D01*
X139263449Y-89239369D01*
X139263452Y-89239368D01*
X139263455Y-89239368D01*
X139433722Y-89179789D01*
X139586462Y-89083816D01*
X139714016Y-88956262D01*
X139809989Y-88803522D01*
X139869568Y-88633255D01*
X139869569Y-88633249D01*
X139889765Y-88454003D01*
X139889765Y-88453996D01*
X139869569Y-88274750D01*
X139869568Y-88274745D01*
X139855310Y-88233999D01*
X163628541Y-88233999D01*
X163628541Y-88234000D01*
X163649136Y-88469403D01*
X163649138Y-88469413D01*
X163710294Y-88697655D01*
X163710296Y-88697659D01*
X163710297Y-88697663D01*
X163810165Y-88911830D01*
X163810167Y-88911834D01*
X163918481Y-89066521D01*
X163945705Y-89105401D01*
X164112799Y-89272495D01*
X164209584Y-89340265D01*
X164306365Y-89408032D01*
X164306367Y-89408033D01*
X164306370Y-89408035D01*
X164520537Y-89507903D01*
X164748792Y-89569063D01*
X164937118Y-89585539D01*
X164984199Y-89589659D01*
X164984200Y-89589659D01*
X164984201Y-89589659D01*
X165023434Y-89586226D01*
X165219608Y-89569063D01*
X165447863Y-89507903D01*
X165662030Y-89408035D01*
X165855601Y-89272495D01*
X166022695Y-89105401D01*
X166158235Y-88911830D01*
X166258103Y-88697663D01*
X166319263Y-88469408D01*
X166339859Y-88234000D01*
X166319263Y-87998592D01*
X166258103Y-87770337D01*
X166158235Y-87556171D01*
X166033596Y-87378168D01*
X166022696Y-87362600D01*
X166022695Y-87362599D01*
X165900767Y-87240671D01*
X165867284Y-87179351D01*
X165872268Y-87109659D01*
X165914139Y-87053725D01*
X165945115Y-87036810D01*
X166076531Y-86987796D01*
X166191746Y-86901546D01*
X166277996Y-86786331D01*
X166328291Y-86651483D01*
X166334700Y-86591873D01*
X166334699Y-84796128D01*
X166328291Y-84736517D01*
X166323935Y-84724839D01*
X166277997Y-84601671D01*
X166277993Y-84601664D01*
X166191747Y-84486455D01*
X166191744Y-84486452D01*
X166076535Y-84400206D01*
X166076528Y-84400202D01*
X165941682Y-84349908D01*
X165941683Y-84349908D01*
X165882083Y-84343501D01*
X165882081Y-84343500D01*
X165882073Y-84343500D01*
X165882064Y-84343500D01*
X164086329Y-84343500D01*
X164086323Y-84343501D01*
X164026716Y-84349908D01*
X163891871Y-84400202D01*
X163891864Y-84400206D01*
X163776655Y-84486452D01*
X163776652Y-84486455D01*
X163690406Y-84601664D01*
X163690402Y-84601671D01*
X163640108Y-84736517D01*
X163635655Y-84777944D01*
X163633701Y-84796123D01*
X163633700Y-84796135D01*
X163633700Y-86591870D01*
X163633701Y-86591876D01*
X163640108Y-86651483D01*
X163690402Y-86786328D01*
X163690406Y-86786335D01*
X163776652Y-86901544D01*
X163776655Y-86901547D01*
X163891864Y-86987793D01*
X163891871Y-86987797D01*
X164023281Y-87036810D01*
X164079215Y-87078681D01*
X164103632Y-87144145D01*
X164088780Y-87212418D01*
X164067630Y-87240673D01*
X163945703Y-87362600D01*
X163810165Y-87556169D01*
X163810164Y-87556171D01*
X163710298Y-87770335D01*
X163710294Y-87770344D01*
X163649138Y-87998586D01*
X163649136Y-87998596D01*
X163628541Y-88233999D01*
X139855310Y-88233999D01*
X139809988Y-88104476D01*
X139743456Y-87998592D01*
X139714016Y-87951738D01*
X139586462Y-87824184D01*
X139433723Y-87728211D01*
X139263454Y-87668631D01*
X139263449Y-87668630D01*
X139084204Y-87648435D01*
X139084196Y-87648435D01*
X138904950Y-87668630D01*
X138904945Y-87668631D01*
X138734676Y-87728211D01*
X138581937Y-87824184D01*
X138454384Y-87951737D01*
X138358411Y-88104476D01*
X138298831Y-88274745D01*
X138298830Y-88274750D01*
X138278635Y-88453996D01*
X117068268Y-88453996D01*
X117072023Y-88401500D01*
X117052757Y-88132123D01*
X116995350Y-87868230D01*
X116900972Y-87615193D01*
X116771544Y-87378163D01*
X116668621Y-87240674D01*
X116609706Y-87161972D01*
X116609690Y-87161954D01*
X116418745Y-86971009D01*
X116418727Y-86970993D01*
X116202539Y-86809157D01*
X116202531Y-86809152D01*
X115965512Y-86679730D01*
X115965508Y-86679728D01*
X115841214Y-86633369D01*
X115712470Y-86585350D01*
X115712466Y-86585349D01*
X115712463Y-86585348D01*
X115448582Y-86527943D01*
X115179201Y-86508677D01*
X115179199Y-86508677D01*
X114909817Y-86527943D01*
X114645936Y-86585348D01*
X114645931Y-86585349D01*
X114645930Y-86585350D01*
X114584751Y-86608168D01*
X114392891Y-86679728D01*
X114392887Y-86679730D01*
X114155868Y-86809152D01*
X114155860Y-86809157D01*
X113939672Y-86970993D01*
X113939654Y-86971009D01*
X113748709Y-87161954D01*
X113748693Y-87161972D01*
X113586857Y-87378160D01*
X113586852Y-87378168D01*
X113457430Y-87615187D01*
X113457428Y-87615191D01*
X113363048Y-87868236D01*
X113305643Y-88132117D01*
X113286377Y-88401498D01*
X112242023Y-88401498D01*
X112222757Y-88132123D01*
X112165350Y-87868230D01*
X112070972Y-87615193D01*
X111941544Y-87378163D01*
X111838621Y-87240674D01*
X111779706Y-87161972D01*
X111779690Y-87161954D01*
X111588745Y-86971009D01*
X111588727Y-86970993D01*
X111372539Y-86809157D01*
X111372531Y-86809152D01*
X111135512Y-86679730D01*
X111135508Y-86679728D01*
X111011214Y-86633369D01*
X110882470Y-86585350D01*
X110882466Y-86585349D01*
X110882463Y-86585348D01*
X110618582Y-86527943D01*
X110349201Y-86508677D01*
X110349199Y-86508677D01*
X110079817Y-86527943D01*
X109815936Y-86585348D01*
X109815931Y-86585349D01*
X109815930Y-86585350D01*
X109754751Y-86608168D01*
X109562891Y-86679728D01*
X109562887Y-86679730D01*
X109325868Y-86809152D01*
X109325860Y-86809157D01*
X109109672Y-86970993D01*
X109109654Y-86971009D01*
X108918709Y-87161954D01*
X108918693Y-87161972D01*
X108756857Y-87378160D01*
X108756852Y-87378168D01*
X108627430Y-87615187D01*
X108627428Y-87615191D01*
X108533048Y-87868236D01*
X108475643Y-88132117D01*
X108456377Y-88401498D01*
X107574700Y-88401498D01*
X107574700Y-83701498D01*
X108456377Y-83701498D01*
X108456377Y-83701501D01*
X108475643Y-83970882D01*
X108521997Y-84183962D01*
X108533050Y-84234770D01*
X108586258Y-84377426D01*
X108627428Y-84487808D01*
X108627430Y-84487812D01*
X108756852Y-84724831D01*
X108756857Y-84724839D01*
X108918693Y-84941027D01*
X108918709Y-84941045D01*
X109109654Y-85131990D01*
X109109672Y-85132006D01*
X109325860Y-85293842D01*
X109325868Y-85293847D01*
X109562887Y-85423269D01*
X109562891Y-85423271D01*
X109562893Y-85423272D01*
X109815930Y-85517650D01*
X109927671Y-85541958D01*
X110079817Y-85575056D01*
X110079819Y-85575056D01*
X110079823Y-85575057D01*
X110319207Y-85592177D01*
X110349199Y-85594323D01*
X110349200Y-85594323D01*
X110349201Y-85594323D01*
X110376187Y-85592392D01*
X110618577Y-85575057D01*
X110882470Y-85517650D01*
X111135507Y-85423272D01*
X111372537Y-85293844D01*
X111588735Y-85132000D01*
X111779700Y-84941035D01*
X111941544Y-84724837D01*
X112070972Y-84487807D01*
X112165350Y-84234770D01*
X112222757Y-83970877D01*
X112242023Y-83701500D01*
X112222757Y-83432123D01*
X112214814Y-83395612D01*
X112179495Y-83233254D01*
X112165350Y-83168230D01*
X112070972Y-82915193D01*
X112021782Y-82825109D01*
X111941547Y-82678168D01*
X111941542Y-82678160D01*
X111779706Y-82461972D01*
X111779690Y-82461954D01*
X111588745Y-82271009D01*
X111588727Y-82270993D01*
X111582237Y-82266135D01*
X113291200Y-82266135D01*
X113291200Y-85136870D01*
X113291201Y-85136876D01*
X113297608Y-85196483D01*
X113347902Y-85331328D01*
X113347906Y-85331335D01*
X113434152Y-85446544D01*
X113434155Y-85446547D01*
X113549364Y-85532793D01*
X113549371Y-85532797D01*
X113684217Y-85583091D01*
X113684216Y-85583091D01*
X113691144Y-85583835D01*
X113743827Y-85589500D01*
X116614572Y-85589499D01*
X116674183Y-85583091D01*
X116809031Y-85532796D01*
X116924246Y-85446546D01*
X117010496Y-85331331D01*
X117060791Y-85196483D01*
X117067200Y-85136873D01*
X117067200Y-84708998D01*
X118873590Y-84708998D01*
X118873590Y-84709001D01*
X118894004Y-84994433D01*
X118954828Y-85274037D01*
X118954830Y-85274043D01*
X118954831Y-85274046D01*
X119054757Y-85541958D01*
X119054835Y-85542166D01*
X119191970Y-85793309D01*
X119191975Y-85793317D01*
X119363454Y-86022387D01*
X119363470Y-86022405D01*
X119565794Y-86224729D01*
X119565812Y-86224745D01*
X119794882Y-86396224D01*
X119794890Y-86396229D01*
X120046033Y-86533364D01*
X120046032Y-86533364D01*
X120046036Y-86533365D01*
X120046039Y-86533367D01*
X120314154Y-86633369D01*
X120314160Y-86633370D01*
X120314162Y-86633371D01*
X120593766Y-86694195D01*
X120593768Y-86694195D01*
X120593772Y-86694196D01*
X120847420Y-86712337D01*
X120879199Y-86714610D01*
X120879200Y-86714610D01*
X120879201Y-86714610D01*
X120907795Y-86712564D01*
X121164628Y-86694196D01*
X121231128Y-86679730D01*
X121444237Y-86633371D01*
X121444237Y-86633370D01*
X121444246Y-86633369D01*
X121712361Y-86533367D01*
X121963515Y-86396226D01*
X122192595Y-86224739D01*
X122394939Y-86022395D01*
X122566426Y-85793315D01*
X122703567Y-85542161D01*
X122803569Y-85274046D01*
X122854358Y-85040574D01*
X122864395Y-84994433D01*
X122864395Y-84994432D01*
X122864396Y-84994428D01*
X122884810Y-84709000D01*
X122884810Y-84708998D01*
X135104091Y-84708998D01*
X135104091Y-84709001D01*
X135124500Y-84994362D01*
X135185309Y-85273895D01*
X135285291Y-85541958D01*
X135422391Y-85793038D01*
X135422396Y-85793046D01*
X135529082Y-85935561D01*
X135529083Y-85935562D01*
X136469889Y-84994756D01*
X136488868Y-85040574D01*
X136565474Y-85155224D01*
X136662976Y-85252726D01*
X136777626Y-85329332D01*
X136823442Y-85348309D01*
X135882636Y-86289115D01*
X136025160Y-86395807D01*
X136025161Y-86395808D01*
X136276242Y-86532908D01*
X136276241Y-86532908D01*
X136544304Y-86632890D01*
X136823837Y-86693699D01*
X137109199Y-86714109D01*
X137109201Y-86714109D01*
X137394562Y-86693699D01*
X137674095Y-86632890D01*
X137942158Y-86532908D01*
X138193247Y-86395803D01*
X138335761Y-86289116D01*
X138335762Y-86289115D01*
X137394957Y-85348309D01*
X137440774Y-85329332D01*
X137555424Y-85252726D01*
X137652926Y-85155224D01*
X137729532Y-85040574D01*
X137748509Y-84994756D01*
X138689315Y-85935562D01*
X138689316Y-85935561D01*
X138796003Y-85793047D01*
X138933108Y-85541958D01*
X139033090Y-85273895D01*
X139093899Y-84994362D01*
X139111448Y-84748998D01*
X140063590Y-84748998D01*
X140063590Y-84749001D01*
X140084004Y-85034433D01*
X140144828Y-85314037D01*
X140144830Y-85314043D01*
X140144831Y-85314046D01*
X140220772Y-85517650D01*
X140244835Y-85582166D01*
X140381970Y-85833309D01*
X140381975Y-85833317D01*
X140553454Y-86062387D01*
X140553470Y-86062405D01*
X140755794Y-86264729D01*
X140755812Y-86264745D01*
X140984882Y-86436224D01*
X140984890Y-86436229D01*
X141236033Y-86573364D01*
X141236032Y-86573364D01*
X141236036Y-86573365D01*
X141236039Y-86573367D01*
X141504154Y-86673369D01*
X141504160Y-86673370D01*
X141504162Y-86673371D01*
X141783766Y-86734195D01*
X141783768Y-86734195D01*
X141783772Y-86734196D01*
X142037420Y-86752337D01*
X142069199Y-86754610D01*
X142069200Y-86754610D01*
X142069201Y-86754610D01*
X142097795Y-86752564D01*
X142354628Y-86734196D01*
X142634246Y-86673369D01*
X142902361Y-86573367D01*
X143153515Y-86436226D01*
X143382595Y-86264739D01*
X143584939Y-86062395D01*
X143756426Y-85833315D01*
X143893567Y-85582161D01*
X143993569Y-85314046D01*
X144032111Y-85136870D01*
X144054395Y-85034433D01*
X144054395Y-85034432D01*
X144054396Y-85034428D01*
X144074810Y-84749000D01*
X144074810Y-84748998D01*
X156294091Y-84748998D01*
X156294091Y-84749001D01*
X156314500Y-85034362D01*
X156375309Y-85313895D01*
X156475291Y-85581958D01*
X156612391Y-85833038D01*
X156612396Y-85833046D01*
X156719082Y-85975561D01*
X156719083Y-85975562D01*
X157659889Y-85034756D01*
X157678868Y-85080574D01*
X157755474Y-85195224D01*
X157852976Y-85292726D01*
X157967626Y-85369332D01*
X158013442Y-85388309D01*
X157072636Y-86329115D01*
X157215160Y-86435807D01*
X157215161Y-86435808D01*
X157466242Y-86572908D01*
X157466241Y-86572908D01*
X157734304Y-86672890D01*
X158013837Y-86733699D01*
X158299199Y-86754109D01*
X158299201Y-86754109D01*
X158584562Y-86733699D01*
X158864095Y-86672890D01*
X159132158Y-86572908D01*
X159383247Y-86435803D01*
X159525761Y-86329116D01*
X159525762Y-86329115D01*
X158584957Y-85388309D01*
X158630774Y-85369332D01*
X158745424Y-85292726D01*
X158842926Y-85195224D01*
X158919532Y-85080574D01*
X158938509Y-85034756D01*
X159879315Y-85975562D01*
X159879316Y-85975561D01*
X159986003Y-85833047D01*
X160123108Y-85581958D01*
X160223090Y-85313895D01*
X160283899Y-85034362D01*
X160304309Y-84749001D01*
X160304309Y-84748998D01*
X160283899Y-84463637D01*
X160223090Y-84184104D01*
X160215386Y-84163448D01*
X171598700Y-84163448D01*
X171598700Y-84344551D01*
X171627029Y-84523410D01*
X171682987Y-84695636D01*
X171682988Y-84695639D01*
X171765206Y-84856997D01*
X171871641Y-85003494D01*
X171871645Y-85003499D01*
X171999700Y-85131554D01*
X171999705Y-85131558D01*
X172089068Y-85196483D01*
X172146206Y-85237996D01*
X172216958Y-85274046D01*
X172307560Y-85320211D01*
X172307563Y-85320212D01*
X172393676Y-85348191D01*
X172479791Y-85376171D01*
X172562629Y-85389291D01*
X172658649Y-85404500D01*
X172658654Y-85404500D01*
X172839751Y-85404500D01*
X172926459Y-85390765D01*
X173018609Y-85376171D01*
X173190839Y-85320211D01*
X173352194Y-85237996D01*
X173498701Y-85131553D01*
X173626753Y-85003501D01*
X173733196Y-84856994D01*
X173815411Y-84695639D01*
X173871371Y-84523409D01*
X173888157Y-84417426D01*
X173899700Y-84344551D01*
X173899700Y-84163448D01*
X173897654Y-84150530D01*
X176198700Y-84150530D01*
X176198700Y-84357469D01*
X176239068Y-84560412D01*
X176239070Y-84560420D01*
X176272056Y-84640056D01*
X176318259Y-84751598D01*
X176362590Y-84817944D01*
X176433224Y-84923657D01*
X176579542Y-85069975D01*
X176579545Y-85069977D01*
X176751602Y-85184941D01*
X176942780Y-85264130D01*
X177145730Y-85304499D01*
X177145734Y-85304500D01*
X177145735Y-85304500D01*
X177352666Y-85304500D01*
X177352667Y-85304499D01*
X177555620Y-85264130D01*
X177746798Y-85184941D01*
X177918855Y-85069977D01*
X178065177Y-84923655D01*
X178180141Y-84751598D01*
X178259330Y-84560420D01*
X178299700Y-84357465D01*
X178299700Y-84150535D01*
X178259330Y-83947580D01*
X178180141Y-83756402D01*
X178065177Y-83584345D01*
X178065175Y-83584342D01*
X177918857Y-83438024D01*
X177826690Y-83376441D01*
X177746798Y-83323059D01*
X177555620Y-83243870D01*
X177555612Y-83243868D01*
X177352669Y-83203500D01*
X177352665Y-83203500D01*
X177145735Y-83203500D01*
X177145730Y-83203500D01*
X176942787Y-83243868D01*
X176942779Y-83243870D01*
X176751603Y-83323058D01*
X176579542Y-83438024D01*
X176433224Y-83584342D01*
X176318258Y-83756403D01*
X176239070Y-83947579D01*
X176239068Y-83947587D01*
X176198700Y-84150530D01*
X173897654Y-84150530D01*
X173881572Y-84049000D01*
X173871371Y-83984591D01*
X173815411Y-83812361D01*
X173815411Y-83812360D01*
X173786898Y-83756402D01*
X173733196Y-83651006D01*
X173714273Y-83624960D01*
X173626758Y-83504505D01*
X173626754Y-83504500D01*
X173498699Y-83376445D01*
X173498694Y-83376441D01*
X173352197Y-83270006D01*
X173352196Y-83270005D01*
X173352194Y-83270004D01*
X173280100Y-83233270D01*
X173190839Y-83187788D01*
X173190836Y-83187787D01*
X173018610Y-83131829D01*
X172839751Y-83103500D01*
X172839746Y-83103500D01*
X172658654Y-83103500D01*
X172658649Y-83103500D01*
X172479789Y-83131829D01*
X172307563Y-83187787D01*
X172307560Y-83187788D01*
X172146202Y-83270006D01*
X171999705Y-83376441D01*
X171999700Y-83376445D01*
X171871645Y-83504500D01*
X171871641Y-83504505D01*
X171765206Y-83651002D01*
X171682988Y-83812360D01*
X171682987Y-83812363D01*
X171627029Y-83984589D01*
X171598700Y-84163448D01*
X160215386Y-84163448D01*
X160123108Y-83916041D01*
X159986008Y-83664961D01*
X159986007Y-83664960D01*
X159879315Y-83522436D01*
X158938509Y-84463242D01*
X158919532Y-84417426D01*
X158842926Y-84302776D01*
X158745424Y-84205274D01*
X158630774Y-84128668D01*
X158584956Y-84109689D01*
X159525762Y-83168883D01*
X159525761Y-83168882D01*
X159383246Y-83062196D01*
X159383238Y-83062191D01*
X159132157Y-82925091D01*
X159132158Y-82925091D01*
X158864095Y-82825109D01*
X158584562Y-82764300D01*
X158299201Y-82743891D01*
X158299199Y-82743891D01*
X158013837Y-82764300D01*
X157734304Y-82825109D01*
X157466241Y-82925091D01*
X157215161Y-83062191D01*
X157215153Y-83062196D01*
X157072637Y-83168882D01*
X157072636Y-83168883D01*
X158013443Y-84109689D01*
X157967626Y-84128668D01*
X157852976Y-84205274D01*
X157755474Y-84302776D01*
X157678868Y-84417426D01*
X157659890Y-84463243D01*
X156719083Y-83522436D01*
X156719082Y-83522437D01*
X156612396Y-83664953D01*
X156612391Y-83664961D01*
X156475291Y-83916041D01*
X156375309Y-84184104D01*
X156314500Y-84463637D01*
X156294091Y-84748998D01*
X144074810Y-84748998D01*
X144054396Y-84463572D01*
X144045693Y-84423566D01*
X143993571Y-84183962D01*
X143993570Y-84183960D01*
X143993569Y-84183954D01*
X143893567Y-83915839D01*
X143871725Y-83875839D01*
X143756429Y-83664690D01*
X143756424Y-83664682D01*
X143584945Y-83435612D01*
X143584929Y-83435594D01*
X143382605Y-83233270D01*
X143382587Y-83233254D01*
X143153517Y-83061775D01*
X143153509Y-83061770D01*
X142902366Y-82924635D01*
X142902367Y-82924635D01*
X142795115Y-82884632D01*
X142634246Y-82824631D01*
X142634243Y-82824630D01*
X142634237Y-82824628D01*
X142354633Y-82763804D01*
X142069201Y-82743390D01*
X142069199Y-82743390D01*
X141783766Y-82763804D01*
X141504162Y-82824628D01*
X141236033Y-82924635D01*
X140984890Y-83061770D01*
X140984882Y-83061775D01*
X140755812Y-83233254D01*
X140755794Y-83233270D01*
X140553470Y-83435594D01*
X140553454Y-83435612D01*
X140381975Y-83664682D01*
X140381970Y-83664690D01*
X140244835Y-83915833D01*
X140144828Y-84183962D01*
X140084004Y-84463566D01*
X140063590Y-84748998D01*
X139111448Y-84748998D01*
X139114309Y-84709001D01*
X139114309Y-84708998D01*
X139093899Y-84423637D01*
X139033090Y-84144104D01*
X138933108Y-83876041D01*
X138796008Y-83624961D01*
X138796007Y-83624960D01*
X138689315Y-83482436D01*
X137748509Y-84423242D01*
X137729532Y-84377426D01*
X137652926Y-84262776D01*
X137555424Y-84165274D01*
X137440774Y-84088668D01*
X137394956Y-84069689D01*
X138335762Y-83128883D01*
X138335761Y-83128882D01*
X138193246Y-83022196D01*
X138193238Y-83022191D01*
X137942157Y-82885091D01*
X137942158Y-82885091D01*
X137674095Y-82785109D01*
X137394562Y-82724300D01*
X137109201Y-82703891D01*
X137109199Y-82703891D01*
X136823837Y-82724300D01*
X136544304Y-82785109D01*
X136276241Y-82885091D01*
X136025161Y-83022191D01*
X136025153Y-83022196D01*
X135882637Y-83128882D01*
X135882636Y-83128883D01*
X136823443Y-84069689D01*
X136777626Y-84088668D01*
X136662976Y-84165274D01*
X136565474Y-84262776D01*
X136488868Y-84377426D01*
X136469890Y-84423243D01*
X135529083Y-83482436D01*
X135529082Y-83482437D01*
X135422396Y-83624953D01*
X135422391Y-83624961D01*
X135285291Y-83876041D01*
X135185309Y-84144104D01*
X135124500Y-84423637D01*
X135104091Y-84708998D01*
X122884810Y-84708998D01*
X122883854Y-84695639D01*
X122877134Y-84601671D01*
X122864396Y-84423572D01*
X122850016Y-84357469D01*
X122803571Y-84143962D01*
X122803570Y-84143960D01*
X122803569Y-84143954D01*
X122703567Y-83875839D01*
X122668906Y-83812363D01*
X122566429Y-83624690D01*
X122566424Y-83624682D01*
X122394945Y-83395612D01*
X122394929Y-83395594D01*
X122192605Y-83193270D01*
X122192587Y-83193254D01*
X121963517Y-83021775D01*
X121963509Y-83021770D01*
X121712366Y-82884635D01*
X121712367Y-82884635D01*
X121551490Y-82824631D01*
X121444246Y-82784631D01*
X121444243Y-82784630D01*
X121444237Y-82784628D01*
X121164633Y-82723804D01*
X120879201Y-82703390D01*
X120879199Y-82703390D01*
X120593766Y-82723804D01*
X120314162Y-82784628D01*
X120046033Y-82884635D01*
X119794890Y-83021770D01*
X119794882Y-83021775D01*
X119565812Y-83193254D01*
X119565794Y-83193270D01*
X119363470Y-83395594D01*
X119363454Y-83395612D01*
X119191975Y-83624682D01*
X119191970Y-83624690D01*
X119054835Y-83875833D01*
X118954828Y-84143962D01*
X118894004Y-84423566D01*
X118873590Y-84708998D01*
X117067200Y-84708998D01*
X117067199Y-82266128D01*
X117060791Y-82206517D01*
X117024476Y-82109152D01*
X117010497Y-82071671D01*
X117010493Y-82071664D01*
X116924247Y-81956455D01*
X116924244Y-81956452D01*
X116809035Y-81870206D01*
X116809028Y-81870202D01*
X116674182Y-81819908D01*
X116674183Y-81819908D01*
X116614583Y-81813501D01*
X116614581Y-81813500D01*
X116614573Y-81813500D01*
X116614564Y-81813500D01*
X113743829Y-81813500D01*
X113743823Y-81813501D01*
X113684216Y-81819908D01*
X113549371Y-81870202D01*
X113549364Y-81870206D01*
X113434155Y-81956452D01*
X113434152Y-81956455D01*
X113347906Y-82071664D01*
X113347902Y-82071671D01*
X113297608Y-82206517D01*
X113291201Y-82266116D01*
X113291201Y-82266123D01*
X113291200Y-82266135D01*
X111582237Y-82266135D01*
X111372539Y-82109157D01*
X111372531Y-82109152D01*
X111135512Y-81979730D01*
X111135508Y-81979728D01*
X111039577Y-81943948D01*
X110882470Y-81885350D01*
X110882466Y-81885349D01*
X110882463Y-81885348D01*
X110618582Y-81827943D01*
X110349201Y-81808677D01*
X110349199Y-81808677D01*
X110079817Y-81827943D01*
X109815936Y-81885348D01*
X109815931Y-81885349D01*
X109815930Y-81885350D01*
X109754751Y-81908168D01*
X109562891Y-81979728D01*
X109562887Y-81979730D01*
X109325868Y-82109152D01*
X109325860Y-82109157D01*
X109109672Y-82270993D01*
X109109654Y-82271009D01*
X108918709Y-82461954D01*
X108918693Y-82461972D01*
X108756857Y-82678160D01*
X108756852Y-82678168D01*
X108627430Y-82915187D01*
X108627428Y-82915191D01*
X108533048Y-83168236D01*
X108475643Y-83432117D01*
X108456377Y-83701498D01*
X107574700Y-83701498D01*
X107574700Y-78358998D01*
X118873590Y-78358998D01*
X118873590Y-78359001D01*
X118894004Y-78644433D01*
X118954828Y-78924037D01*
X118954830Y-78924043D01*
X118954831Y-78924046D01*
X119007764Y-79065965D01*
X119054835Y-79192166D01*
X119191970Y-79443309D01*
X119191975Y-79443317D01*
X119363454Y-79672387D01*
X119363470Y-79672405D01*
X119565794Y-79874729D01*
X119565812Y-79874745D01*
X119794882Y-80046224D01*
X119794890Y-80046229D01*
X120046033Y-80183364D01*
X120046032Y-80183364D01*
X120046036Y-80183365D01*
X120046039Y-80183367D01*
X120314154Y-80283369D01*
X120314160Y-80283370D01*
X120314162Y-80283371D01*
X120593766Y-80344195D01*
X120593768Y-80344195D01*
X120593772Y-80344196D01*
X120847420Y-80362337D01*
X120879199Y-80364610D01*
X120879200Y-80364610D01*
X120879201Y-80364610D01*
X120907795Y-80362564D01*
X121164628Y-80344196D01*
X121260360Y-80323371D01*
X121444237Y-80283371D01*
X121444237Y-80283370D01*
X121444246Y-80283369D01*
X121712361Y-80183367D01*
X121963515Y-80046226D01*
X122192595Y-79874739D01*
X122394939Y-79672395D01*
X122566426Y-79443315D01*
X122703567Y-79192161D01*
X122803569Y-78924046D01*
X122810928Y-78890216D01*
X122864395Y-78644433D01*
X122864395Y-78644432D01*
X122864396Y-78644428D01*
X122884810Y-78359000D01*
X122884810Y-78358998D01*
X135104091Y-78358998D01*
X135104091Y-78359001D01*
X135124500Y-78644362D01*
X135185309Y-78923895D01*
X135285291Y-79191958D01*
X135422391Y-79443038D01*
X135422396Y-79443046D01*
X135529082Y-79585561D01*
X135529083Y-79585562D01*
X136469889Y-78644756D01*
X136488868Y-78690574D01*
X136565474Y-78805224D01*
X136662976Y-78902726D01*
X136777626Y-78979332D01*
X136823442Y-78998309D01*
X135882636Y-79939115D01*
X136025160Y-80045807D01*
X136025161Y-80045808D01*
X136276242Y-80182908D01*
X136276241Y-80182908D01*
X136544304Y-80282890D01*
X136823837Y-80343699D01*
X137109199Y-80364109D01*
X137109201Y-80364109D01*
X137394562Y-80343699D01*
X137674095Y-80282890D01*
X137942158Y-80182908D01*
X138193247Y-80045803D01*
X138335761Y-79939116D01*
X138335762Y-79939115D01*
X137394957Y-78998309D01*
X137440774Y-78979332D01*
X137555424Y-78902726D01*
X137652926Y-78805224D01*
X137729532Y-78690574D01*
X137748509Y-78644756D01*
X138689315Y-79585562D01*
X138689316Y-79585561D01*
X138796003Y-79443047D01*
X138933108Y-79191958D01*
X139033090Y-78923895D01*
X139093899Y-78644362D01*
X139111448Y-78398998D01*
X140063590Y-78398998D01*
X140063590Y-78399001D01*
X140084004Y-78684433D01*
X140144828Y-78964037D01*
X140144830Y-78964043D01*
X140144831Y-78964046D01*
X140221505Y-79169616D01*
X140244835Y-79232166D01*
X140381970Y-79483309D01*
X140381975Y-79483317D01*
X140553454Y-79712387D01*
X140553470Y-79712405D01*
X140755794Y-79914729D01*
X140755812Y-79914745D01*
X140984882Y-80086224D01*
X140984890Y-80086229D01*
X141236033Y-80223364D01*
X141236032Y-80223364D01*
X141236036Y-80223365D01*
X141236039Y-80223367D01*
X141504154Y-80323369D01*
X141504160Y-80323370D01*
X141504162Y-80323371D01*
X141783766Y-80384195D01*
X141783768Y-80384195D01*
X141783772Y-80384196D01*
X142037420Y-80402337D01*
X142069199Y-80404610D01*
X142069200Y-80404610D01*
X142069201Y-80404610D01*
X142097795Y-80402564D01*
X142354628Y-80384196D01*
X142634246Y-80323369D01*
X142902361Y-80223367D01*
X143153515Y-80086226D01*
X143382595Y-79914739D01*
X143584939Y-79712395D01*
X143756426Y-79483315D01*
X143893567Y-79232161D01*
X143993569Y-78964046D01*
X144054396Y-78684428D01*
X144074810Y-78399000D01*
X144074810Y-78398998D01*
X156294091Y-78398998D01*
X156294091Y-78399001D01*
X156314500Y-78684362D01*
X156375309Y-78963895D01*
X156475291Y-79231958D01*
X156612391Y-79483038D01*
X156612396Y-79483046D01*
X156719082Y-79625561D01*
X156719083Y-79625562D01*
X157659889Y-78684756D01*
X157678868Y-78730574D01*
X157755474Y-78845224D01*
X157852976Y-78942726D01*
X157967626Y-79019332D01*
X158013442Y-79038309D01*
X157072636Y-79979115D01*
X157215160Y-80085807D01*
X157215161Y-80085808D01*
X157466242Y-80222908D01*
X157466241Y-80222908D01*
X157734304Y-80322890D01*
X158013837Y-80383699D01*
X158299199Y-80404109D01*
X158299201Y-80404109D01*
X158584562Y-80383699D01*
X158864095Y-80322890D01*
X159132158Y-80222908D01*
X159383247Y-80085803D01*
X159525761Y-79979116D01*
X159525762Y-79979115D01*
X158584957Y-79038309D01*
X158630774Y-79019332D01*
X158745424Y-78942726D01*
X158842926Y-78845224D01*
X158919532Y-78730574D01*
X158938509Y-78684756D01*
X159879315Y-79625562D01*
X159879316Y-79625561D01*
X159986003Y-79483047D01*
X160123108Y-79231958D01*
X160223090Y-78963895D01*
X160283899Y-78684362D01*
X160294239Y-78539796D01*
X161338235Y-78539796D01*
X161338235Y-78539803D01*
X161358430Y-78719049D01*
X161358431Y-78719054D01*
X161418011Y-78889323D01*
X161499702Y-79019332D01*
X161513984Y-79042062D01*
X161641538Y-79169616D01*
X161794278Y-79265589D01*
X161964545Y-79325168D01*
X161964550Y-79325169D01*
X162143796Y-79345365D01*
X162143800Y-79345365D01*
X162143804Y-79345365D01*
X162323049Y-79325169D01*
X162323052Y-79325168D01*
X162323055Y-79325168D01*
X162493322Y-79265589D01*
X162646062Y-79169616D01*
X162773616Y-79042062D01*
X162869589Y-78889322D01*
X162929168Y-78719055D01*
X162933069Y-78684433D01*
X162949365Y-78539803D01*
X162949365Y-78539796D01*
X162929169Y-78360550D01*
X162929168Y-78360545D01*
X162894124Y-78260396D01*
X167789835Y-78260396D01*
X167789835Y-78260403D01*
X167810030Y-78439649D01*
X167810031Y-78439654D01*
X167869611Y-78609923D01*
X167916426Y-78684428D01*
X167965584Y-78762662D01*
X168093138Y-78890216D01*
X168113048Y-78902726D01*
X168210637Y-78964046D01*
X168245878Y-78986189D01*
X168377081Y-79032099D01*
X168416145Y-79045768D01*
X168416150Y-79045769D01*
X168595396Y-79065965D01*
X168595400Y-79065965D01*
X168595404Y-79065965D01*
X168774649Y-79045769D01*
X168774652Y-79045768D01*
X168774655Y-79045768D01*
X168944922Y-78986189D01*
X169097662Y-78890216D01*
X169225216Y-78762662D01*
X169321189Y-78609922D01*
X169380768Y-78439655D01*
X169389681Y-78360550D01*
X169400965Y-78260403D01*
X169400965Y-78260396D01*
X169380769Y-78081150D01*
X169380768Y-78081145D01*
X169378116Y-78073566D01*
X169321189Y-77910878D01*
X169320627Y-77909984D01*
X169247726Y-77793962D01*
X169225216Y-77758138D01*
X169097662Y-77630584D01*
X168994943Y-77566041D01*
X168944923Y-77534611D01*
X168774654Y-77475031D01*
X168774649Y-77475030D01*
X168595404Y-77454835D01*
X168595396Y-77454835D01*
X168416150Y-77475030D01*
X168416145Y-77475031D01*
X168245876Y-77534611D01*
X168093137Y-77630584D01*
X167965584Y-77758137D01*
X167869611Y-77910876D01*
X167810031Y-78081145D01*
X167810030Y-78081150D01*
X167789835Y-78260396D01*
X162894124Y-78260396D01*
X162869589Y-78190278D01*
X162773616Y-78037538D01*
X162646062Y-77909984D01*
X162558992Y-77855274D01*
X162493323Y-77814011D01*
X162323054Y-77754431D01*
X162323049Y-77754430D01*
X162143804Y-77734235D01*
X162143796Y-77734235D01*
X161964550Y-77754430D01*
X161964545Y-77754431D01*
X161794276Y-77814011D01*
X161641537Y-77909984D01*
X161513984Y-78037537D01*
X161418011Y-78190276D01*
X161358431Y-78360545D01*
X161358430Y-78360550D01*
X161338235Y-78539796D01*
X160294239Y-78539796D01*
X160304309Y-78399001D01*
X160304309Y-78398998D01*
X160283899Y-78113637D01*
X160223090Y-77834104D01*
X160123108Y-77566041D01*
X159986008Y-77314961D01*
X159986007Y-77314960D01*
X159879315Y-77172436D01*
X158938509Y-78113242D01*
X158919532Y-78067426D01*
X158842926Y-77952776D01*
X158745424Y-77855274D01*
X158630774Y-77778668D01*
X158584956Y-77759689D01*
X159525762Y-76818883D01*
X159525761Y-76818882D01*
X159383246Y-76712196D01*
X159383238Y-76712191D01*
X159132157Y-76575091D01*
X159132158Y-76575091D01*
X158864095Y-76475109D01*
X158584562Y-76414300D01*
X158299201Y-76393891D01*
X158299199Y-76393891D01*
X158013837Y-76414300D01*
X157734304Y-76475109D01*
X157466241Y-76575091D01*
X157215161Y-76712191D01*
X157215153Y-76712196D01*
X157072637Y-76818882D01*
X157072636Y-76818883D01*
X158013443Y-77759689D01*
X157967626Y-77778668D01*
X157852976Y-77855274D01*
X157755474Y-77952776D01*
X157678868Y-78067426D01*
X157659890Y-78113243D01*
X156719083Y-77172436D01*
X156719082Y-77172437D01*
X156612396Y-77314953D01*
X156612391Y-77314961D01*
X156475291Y-77566041D01*
X156375309Y-77834104D01*
X156314500Y-78113637D01*
X156294091Y-78398998D01*
X144074810Y-78398998D01*
X144054396Y-78113572D01*
X144045693Y-78073566D01*
X143993571Y-77833962D01*
X143993570Y-77833960D01*
X143993569Y-77833954D01*
X143893567Y-77565839D01*
X143871725Y-77525839D01*
X143756429Y-77314690D01*
X143756424Y-77314682D01*
X143584945Y-77085612D01*
X143584929Y-77085594D01*
X143382605Y-76883270D01*
X143382587Y-76883254D01*
X143153517Y-76711775D01*
X143153509Y-76711770D01*
X142902366Y-76574635D01*
X142902367Y-76574635D01*
X142795115Y-76534632D01*
X142634246Y-76474631D01*
X142634243Y-76474630D01*
X142634237Y-76474628D01*
X142354633Y-76413804D01*
X142069201Y-76393390D01*
X142069199Y-76393390D01*
X141783766Y-76413804D01*
X141504162Y-76474628D01*
X141236033Y-76574635D01*
X140984890Y-76711770D01*
X140984882Y-76711775D01*
X140755812Y-76883254D01*
X140755794Y-76883270D01*
X140553470Y-77085594D01*
X140553454Y-77085612D01*
X140381975Y-77314682D01*
X140381970Y-77314690D01*
X140244835Y-77565833D01*
X140144828Y-77833962D01*
X140084004Y-78113566D01*
X140063590Y-78398998D01*
X139111448Y-78398998D01*
X139114309Y-78359001D01*
X139114309Y-78358998D01*
X139093899Y-78073637D01*
X139033090Y-77794104D01*
X138933108Y-77526041D01*
X138796008Y-77274961D01*
X138796007Y-77274960D01*
X138689315Y-77132436D01*
X137748509Y-78073242D01*
X137729532Y-78027426D01*
X137652926Y-77912776D01*
X137555424Y-77815274D01*
X137440774Y-77738668D01*
X137394956Y-77719689D01*
X138335762Y-76778883D01*
X138335761Y-76778882D01*
X138193246Y-76672196D01*
X138193238Y-76672191D01*
X137942157Y-76535091D01*
X137942158Y-76535091D01*
X137674095Y-76435109D01*
X137394562Y-76374300D01*
X137109201Y-76353891D01*
X137109199Y-76353891D01*
X136823837Y-76374300D01*
X136544304Y-76435109D01*
X136276241Y-76535091D01*
X136025161Y-76672191D01*
X136025153Y-76672196D01*
X135882637Y-76778882D01*
X135882636Y-76778883D01*
X136823443Y-77719689D01*
X136777626Y-77738668D01*
X136662976Y-77815274D01*
X136565474Y-77912776D01*
X136488868Y-78027426D01*
X136469890Y-78073243D01*
X135529083Y-77132436D01*
X135529082Y-77132437D01*
X135422396Y-77274953D01*
X135422391Y-77274961D01*
X135285291Y-77526041D01*
X135185309Y-77794104D01*
X135124500Y-78073637D01*
X135104091Y-78358998D01*
X122884810Y-78358998D01*
X122864396Y-78073572D01*
X122856557Y-78037538D01*
X122803571Y-77793962D01*
X122803570Y-77793960D01*
X122803569Y-77793954D01*
X122703567Y-77525839D01*
X122588418Y-77314961D01*
X122566429Y-77274690D01*
X122566424Y-77274682D01*
X122394945Y-77045612D01*
X122394929Y-77045594D01*
X122192605Y-76843270D01*
X122192587Y-76843254D01*
X121963517Y-76671775D01*
X121963509Y-76671770D01*
X121712366Y-76534635D01*
X121712367Y-76534635D01*
X121551490Y-76474631D01*
X121444246Y-76434631D01*
X121444243Y-76434630D01*
X121444237Y-76434628D01*
X121164633Y-76373804D01*
X120879201Y-76353390D01*
X120879199Y-76353390D01*
X120593766Y-76373804D01*
X120314162Y-76434628D01*
X120046033Y-76534635D01*
X119794890Y-76671770D01*
X119794882Y-76671775D01*
X119565812Y-76843254D01*
X119565794Y-76843270D01*
X119363470Y-77045594D01*
X119363454Y-77045612D01*
X119191975Y-77274682D01*
X119191970Y-77274690D01*
X119054835Y-77525833D01*
X118954828Y-77793962D01*
X118894004Y-78073566D01*
X118873590Y-78358998D01*
X107574700Y-78358998D01*
X107574700Y-75606754D01*
X107594385Y-75539715D01*
X107647189Y-75493960D01*
X107716347Y-75484016D01*
X107779903Y-75513041D01*
X107795065Y-75528717D01*
X107920419Y-75683516D01*
X108194684Y-75957781D01*
X108194688Y-75957784D01*
X108496117Y-76201877D01*
X108791793Y-76393891D01*
X108821411Y-76413125D01*
X109167006Y-76589214D01*
X109529113Y-76728214D01*
X109903767Y-76828602D01*
X110286862Y-76889278D01*
X110652776Y-76908455D01*
X110674199Y-76909578D01*
X110674200Y-76909578D01*
X110674201Y-76909578D01*
X110694501Y-76908514D01*
X111061538Y-76889278D01*
X111444633Y-76828602D01*
X111819287Y-76728214D01*
X112181394Y-76589214D01*
X112526989Y-76413125D01*
X112852284Y-76201876D01*
X113153716Y-75957781D01*
X113427981Y-75683516D01*
X113672076Y-75382084D01*
X113883325Y-75056789D01*
X114059414Y-74711194D01*
X114198414Y-74349087D01*
X114298802Y-73974433D01*
X114359478Y-73591338D01*
X114379778Y-73204000D01*
X114359478Y-72816662D01*
X114298802Y-72433567D01*
X114198414Y-72058913D01*
X114059414Y-71696806D01*
X113883325Y-71351211D01*
X113773700Y-71182403D01*
X113672077Y-71025917D01*
X113474910Y-70782437D01*
X113427981Y-70724484D01*
X113153716Y-70450219D01*
X113011266Y-70334865D01*
X112971556Y-70277379D01*
X112969228Y-70207548D01*
X113005023Y-70147544D01*
X113067577Y-70116418D01*
X113089303Y-70114500D01*
X119700044Y-70114500D01*
X119767083Y-70134185D01*
G37*
G04 #@! TD.AperFunction*
M02*
